<svg width="190" height="60" viewBox="0 0 190 60" fill="none" xmlns="http://www.w3.org/2000/svg">
<path d="M0 0H190V60H0V0Z" fill="#ECC550"/>
<path d="M31.9609 31.1484C31.9609 31.8776 31.8646 32.5495 31.6719 33.1641C31.4792 33.7786 31.2005 34.3073 30.8359 34.75C30.4714 35.1927 30.026 35.5391 29.5 35.7891C28.9792 36.0339 28.3906 36.1562 27.7344 36.1562C27.0781 36.1562 26.4948 36.0339 25.9844 35.7891C25.474 35.5391 25.0443 35.1927 24.6953 34.75C24.3464 34.3021 24.0807 33.7734 23.8984 33.1641C23.7161 32.5495 23.625 31.8776 23.625 31.1484V29.4922C23.625 28.763 23.7161 28.0911 23.8984 27.4766C24.0807 26.862 24.3464 26.3333 24.6953 25.8906C25.0443 25.4427 25.4714 25.0938 25.9766 24.8438C26.487 24.5938 27.0703 24.4688 27.7266 24.4688C28.388 24.4688 28.9792 24.5938 29.5 24.8438C30.026 25.0938 30.4714 25.4427 30.8359 25.8906C31.2005 26.3333 31.4792 26.862 31.6719 27.4766C31.8646 28.0911 31.9609 28.763 31.9609 29.4922V31.1484ZM29.7344 29.4766C29.7344 29.013 29.6953 28.5859 29.6172 28.1953C29.5443 27.8047 29.4271 27.4688 29.2656 27.1875C29.1042 26.9062 28.8958 26.6875 28.6406 26.5312C28.3906 26.3698 28.0859 26.2891 27.7266 26.2891C27.3724 26.2891 27.0755 26.3698 26.8359 26.5312C26.5964 26.6875 26.4036 26.9062 26.2578 27.1875C26.112 27.4688 26.0078 27.8047 25.9453 28.1953C25.8828 28.5859 25.8516 29.013 25.8516 29.4766V31.1484C25.8516 31.6068 25.8828 32.0312 25.9453 32.4219C26.0078 32.8125 26.112 33.151 26.2578 33.4375C26.4036 33.724 26.5964 33.9479 26.8359 34.1094C27.0755 34.2708 27.375 34.3516 27.7344 34.3516C28.0885 34.3516 28.3906 34.2708 28.6406 34.1094C28.8958 33.9479 29.1016 33.7266 29.2578 33.4453C29.4193 33.1589 29.5391 32.8203 29.6172 32.4297C29.6953 32.0391 29.7344 31.612 29.7344 31.1484V29.4766ZM41.5312 32.4375C41.4948 33.0104 41.3698 33.526 41.1562 33.9844C40.9479 34.4427 40.6667 34.8333 40.3125 35.1562C39.9583 35.4792 39.5365 35.7292 39.0469 35.9062C38.5573 36.0781 38.0156 36.1641 37.4219 36.1641C36.75 36.1641 36.1536 36.0417 35.6328 35.7969C35.112 35.5469 34.6745 35.2005 34.3203 34.7578C33.9661 34.3099 33.6953 33.7734 33.5078 33.1484C33.3203 32.5234 33.2266 31.8359 33.2266 31.0859V29.5547C33.2266 28.7995 33.3255 28.1094 33.5234 27.4844C33.7214 26.8594 34.0026 26.3229 34.3672 25.875C34.7318 25.4271 35.1719 25.0807 35.6875 24.8359C36.2083 24.5859 36.7917 24.4609 37.4375 24.4609C38.0625 24.4609 38.6172 24.5495 39.1016 24.7266C39.5911 24.9036 40.0078 25.1562 40.3516 25.4844C40.6953 25.8125 40.9661 26.2135 41.1641 26.6875C41.362 27.1615 41.487 27.6953 41.5391 28.2891H39.3516C39.3307 27.9505 39.2786 27.6536 39.1953 27.3984C39.1172 27.1432 39 26.9323 38.8438 26.7656C38.6927 26.5938 38.5 26.4661 38.2656 26.3828C38.0365 26.2943 37.7604 26.25 37.4375 26.25C37.099 26.25 36.8047 26.3229 36.5547 26.4688C36.3047 26.6146 36.0964 26.8281 35.9297 27.1094C35.7682 27.3906 35.6484 27.737 35.5703 28.1484C35.4922 28.5547 35.4531 29.0182 35.4531 29.5391V31.0859C35.4531 32.2057 35.6094 33.0339 35.9219 33.5703C36.2396 34.1068 36.7396 34.375 37.4219 34.375C37.9948 34.375 38.4479 34.224 38.7812 33.9219C39.1146 33.6146 39.2995 33.1198 39.3359 32.4375H41.5312ZM51.6016 26.4141H48.0938V36H45.8906V26.4141H42.4297V24.625H51.6016V26.4141ZM58.4453 33.625H55.0312L54.3594 36H52.0469L55.7734 24.625H57.7656L61.4219 36H59.1094L58.4453 33.625ZM55.5703 31.7578H57.9297L56.7656 27.5703L55.5703 31.7578ZM62.4453 36V24.625H66.2656C66.8854 24.625 67.4479 24.6875 67.9531 24.8125C68.4635 24.9375 68.8984 25.1276 69.2578 25.3828C69.6172 25.638 69.8932 25.9609 70.0859 26.3516C70.2839 26.7422 70.3828 27.2031 70.3828 27.7344C70.3776 28.2656 70.2344 28.7422 69.9531 29.1641C69.6771 29.5859 69.2682 29.9062 68.7266 30.125C69.0547 30.2083 69.3385 30.3333 69.5781 30.5C69.8177 30.6667 70.0156 30.8646 70.1719 31.0938C70.3333 31.3177 70.4505 31.5651 70.5234 31.8359C70.6016 32.1016 70.6406 32.3776 70.6406 32.6641C70.6406 33.2109 70.5469 33.6927 70.3594 34.1094C70.1719 34.526 69.9036 34.875 69.5547 35.1562C69.2057 35.4375 68.7812 35.6484 68.2812 35.7891C67.7812 35.9297 67.2188 36 66.5938 36H62.4453ZM64.6484 30.9844V34.2266H66.6016C67.2005 34.2214 67.6562 34.0755 67.9688 33.7891C68.2865 33.4974 68.4453 33.1172 68.4453 32.6484C68.4505 32.1276 68.3099 31.7214 68.0234 31.4297C67.737 31.138 67.2943 30.9896 66.6953 30.9844H64.6484ZM64.6484 29.3984H66.2812C66.8906 29.3932 67.3594 29.2656 67.6875 29.0156C68.0156 28.7656 68.1823 28.3984 68.1875 27.9141C68.1875 27.3828 68.0234 27.0026 67.6953 26.7734C67.3672 26.5391 66.8932 26.4193 66.2734 26.4141H64.6484V29.3984ZM77.3359 24.625H79.5391V36H77.3359V28.7422L74.1094 36H71.9141V24.625H74.1094V31.8906L77.3359 24.625ZM90.0391 26.4141H86.5312V36H84.3281V26.4141H80.8672V24.625H90.0391V26.4141ZM93.4922 28.8281H94.7734C95.4297 28.8281 96.0182 28.9141 96.5391 29.0859C97.0651 29.2526 97.5078 29.4896 97.8672 29.7969C98.2318 30.1042 98.5104 30.4766 98.7031 30.9141C98.8958 31.3516 98.9922 31.8359 98.9922 32.3672C98.9922 32.9089 98.8958 33.4036 98.7031 33.8516C98.5104 34.2943 98.2318 34.6745 97.8672 34.9922C97.5078 35.3099 97.0651 35.5573 96.5391 35.7344C96.0182 35.9115 95.4297 36 94.7734 36H91.2891V24.625H93.4922V28.8281ZM93.4922 30.5938V34.2344H94.7734C95.1172 34.2344 95.4141 34.1849 95.6641 34.0859C95.9193 33.987 96.1302 33.8516 96.2969 33.6797C96.4688 33.5078 96.5938 33.3073 96.6719 33.0781C96.7552 32.849 96.7969 32.6068 96.7969 32.3516C96.7969 32.1068 96.7552 31.8776 96.6719 31.6641C96.5938 31.4505 96.4688 31.2656 96.2969 31.1094C96.1302 30.9479 95.9193 30.8229 95.6641 30.7344C95.4141 30.6406 95.1172 30.5938 94.7734 30.5938H93.4922ZM118.469 27.7109C118.469 27.9714 118.427 28.2214 118.344 28.4609C118.266 28.7005 118.151 28.9271 118 29.1406C117.849 29.349 117.664 29.5391 117.445 29.7109C117.227 29.8828 116.979 30.0312 116.703 30.1562C117.333 30.375 117.812 30.7083 118.141 31.1562C118.474 31.599 118.641 32.151 118.641 32.8125C118.641 33.3438 118.531 33.8177 118.312 34.2344C118.099 34.651 117.799 35.0026 117.414 35.2891C117.034 35.5703 116.576 35.7865 116.039 35.9375C115.508 36.0833 114.927 36.1562 114.297 36.1562C113.786 36.1562 113.281 36.0938 112.781 35.9688C112.281 35.8385 111.831 35.6406 111.43 35.375C111.034 35.1042 110.711 34.7604 110.461 34.3438C110.216 33.9271 110.094 33.4271 110.094 32.8438H112.297C112.297 33.0625 112.344 33.2656 112.438 33.4531C112.536 33.6406 112.674 33.8047 112.852 33.9453C113.029 34.0859 113.24 34.1979 113.484 34.2812C113.729 34.3594 114 34.3984 114.297 34.3984C114.641 34.3984 114.945 34.3594 115.211 34.2812C115.477 34.1979 115.701 34.0833 115.883 33.9375C116.065 33.7917 116.203 33.6224 116.297 33.4297C116.391 33.2318 116.438 33.0182 116.438 32.7891C116.438 32.1797 116.266 31.7396 115.922 31.4688C115.583 31.1979 115.083 31.0625 114.422 31.0625H112.891V29.3438H114.422C114.75 29.3438 115.029 29.3073 115.258 29.2344C115.492 29.1562 115.682 29.0469 115.828 28.9062C115.979 28.7656 116.089 28.599 116.156 28.4062C116.229 28.2083 116.266 27.9896 116.266 27.75C116.266 27.5469 116.227 27.3542 116.148 27.1719C116.07 26.9844 115.951 26.8229 115.789 26.6875C115.628 26.5521 115.422 26.4453 115.172 26.3672C114.927 26.2839 114.635 26.2422 114.297 26.2422C114.036 26.2422 113.794 26.276 113.57 26.3438C113.346 26.4115 113.151 26.5078 112.984 26.6328C112.823 26.7578 112.693 26.9089 112.594 27.0859C112.5 27.263 112.453 27.4609 112.453 27.6797H110.258C110.258 27.1797 110.365 26.7318 110.578 26.3359C110.797 25.9401 111.091 25.6042 111.461 25.3281C111.831 25.0521 112.258 24.8411 112.742 24.6953C113.232 24.5443 113.75 24.4688 114.297 24.4688C114.927 24.4688 115.5 24.5391 116.016 24.6797C116.531 24.8151 116.969 25.0208 117.328 25.2969C117.693 25.5677 117.974 25.9062 118.172 26.3125C118.37 26.7135 118.469 27.1797 118.469 27.7109ZM125.711 33.625H122.297L121.625 36H119.312L123.039 24.625H125.031L128.688 36H126.375L125.711 33.625ZM122.836 31.7578H125.195L124.031 27.5703L122.836 31.7578ZM134.648 36V31.5234H132.891L130.75 36H128.398L130.859 30.8594C130.255 30.5625 129.794 30.1771 129.477 29.7031C129.164 29.224 129.008 28.6458 129.008 27.9688C129.008 27.4219 129.104 26.9401 129.297 26.5234C129.49 26.1068 129.766 25.7578 130.125 25.4766C130.49 25.1953 130.93 24.9844 131.445 24.8438C131.961 24.6979 132.539 24.625 133.18 24.625H136.852V36H134.648ZM131.203 28.1016C131.203 28.6953 131.367 29.1354 131.695 29.4219C132.023 29.7031 132.518 29.8438 133.18 29.8438H134.648V26.4062H133.18C132.503 26.4062 132.003 26.5547 131.68 26.8516C131.362 27.1484 131.203 27.5651 131.203 28.1016ZM139.32 36V24.625H143.141C143.76 24.625 144.323 24.6875 144.828 24.8125C145.339 24.9375 145.773 25.1276 146.133 25.3828C146.492 25.638 146.768 25.9609 146.961 26.3516C147.159 26.7422 147.258 27.2031 147.258 27.7344C147.253 28.2656 147.109 28.7422 146.828 29.1641C146.552 29.5859 146.143 29.9062 145.602 30.125C145.93 30.2083 146.214 30.3333 146.453 30.5C146.693 30.6667 146.891 30.8646 147.047 31.0938C147.208 31.3177 147.326 31.5651 147.398 31.8359C147.477 32.1016 147.516 32.3776 147.516 32.6641C147.516 33.2109 147.422 33.6927 147.234 34.1094C147.047 34.526 146.779 34.875 146.43 35.1562C146.081 35.4375 145.656 35.6484 145.156 35.7891C144.656 35.9297 144.094 36 143.469 36H139.32ZM141.523 30.9844V34.2266H143.477C144.076 34.2214 144.531 34.0755 144.844 33.7891C145.161 33.4974 145.32 33.1172 145.32 32.6484C145.326 32.1276 145.185 31.7214 144.898 31.4297C144.612 31.138 144.169 30.9896 143.57 30.9844H141.523ZM141.523 29.3984H143.156C143.766 29.3932 144.234 29.2656 144.562 29.0156C144.891 28.7656 145.057 28.3984 145.062 27.9141C145.062 27.3828 144.898 27.0026 144.57 26.7734C144.242 26.5391 143.768 26.4193 143.148 26.4141H141.523V29.3984ZM152.211 31.3281H151.297V36H149.102V24.625H151.297V29.6328H151.836L154.812 24.625H157.352L153.961 30.1016L157.484 36H154.938L152.211 31.3281ZM161.688 28.5312L162.43 30.6328L164.805 24.625H167.195L163.148 33.8438C163.013 34.151 162.854 34.4453 162.672 34.7266C162.495 35.0078 162.279 35.2552 162.023 35.4688C161.773 35.6823 161.479 35.8516 161.141 35.9766C160.802 36.1016 160.404 36.1641 159.945 36.1641C159.576 36.1641 159.247 36.1328 158.961 36.0703C158.68 36.013 158.451 35.9609 158.273 35.9141L158.414 34.1953C158.482 34.2161 158.562 34.2396 158.656 34.2656C158.755 34.2865 158.857 34.3073 158.961 34.3281C159.065 34.349 159.172 34.3672 159.281 34.3828C159.391 34.3932 159.495 34.3984 159.594 34.3984C159.844 34.3984 160.062 34.3724 160.25 34.3203C160.438 34.2682 160.599 34.1953 160.734 34.1016C160.87 34.0078 160.982 33.8958 161.07 33.7656C161.164 33.6302 161.24 33.4792 161.297 33.3125L161.516 32.8281L157.547 24.625H159.922L161.688 28.5312Z" fill="black"/>
</svg>
