<svg width="60" height="60" viewBox="0 0 60 60" fill="none" xmlns="http://www.w3.org/2000/svg">
<path d="M0.5 0.5H59.5V59.5H0.5V0.5Z" fill="white" stroke="black"/>
<path fill-rule="evenodd" clip-rule="evenodd" d="M22.5 21C22.5 20.2044 22.8161 19.4413 23.3787 18.8787C23.9413 18.3161 24.7044 18 25.5 18H34.5C35.2956 18 36.0587 18.3161 36.6213 18.8787C37.1839 19.4413 37.5 20.2044 37.5 21V39C37.5 39.7956 37.1839 40.5587 36.6213 41.1213C36.0587 41.6839 35.2956 42 34.5 42H25.5C24.7044 42 23.9413 41.6839 23.3787 41.1213C22.8161 40.5587 22.5 39.7956 22.5 39V21ZM31.5 37.5C31.5 37.8978 31.342 38.2794 31.0607 38.5607C30.7794 38.842 30.3978 39 30 39C29.6022 39 29.2206 38.842 28.9393 38.5607C28.658 38.2794 28.5 37.8978 28.5 37.5C28.5 37.1022 28.658 36.7206 28.9393 36.4393C29.2206 36.158 29.6022 36 30 36C30.3978 36 30.7794 36.158 31.0607 36.4393C31.342 36.7206 31.5 37.1022 31.5 37.5Z" fill="black"/>
</svg>
