<svg width="120" height="100" viewBox="0 0 120 100" fill="none" xmlns="http://www.w3.org/2000/svg">
<path d="M4.12745 86.9724L0.307129 84.7016L0.333844 83.8734L2.97868 84.6348L4.19424 85.3561L4.12745 86.9724Z" fill="#ECC550"/>
<path d="M4.19423 85.3693L7.60045 83.0852L6.34483 82.2837L2.9386 84.5545L4.19423 85.3693Z" fill="#ECC550"/>
<path d="M0.333618 83.8733L3.71313 81.6826L6.34461 82.2837L2.93838 84.5545L0.333618 83.8733Z" fill="#ECC550"/>
<path d="M6.30495 83.1788L3.68683 82.5911L1.04199 84.2608L3.64675 84.942L4.26121 85.3027L6.9194 83.5395L6.30495 83.1788Z" fill="#FFEECC"/>
<path d="M6.46515 82.0033L3.67338 81.3755L0.0400733 83.7265L0 84.8752L4.40806 87.4933L4.4882 85.5298L8.14823 83.0719L6.46515 82.0033ZM3.84703 86.4514L0.601099 84.5279L0.614457 84.2741L2.81849 84.9019L3.71346 85.4362L3.88711 85.5431L3.84703 86.4514ZM4.20769 85.0088L4.10083 84.9554L3.47302 84.5546L2.88527 84.2474L1.05526 83.7532L3.75353 82.0033L5.61026 82.4174L6.34493 82.6311L7.06625 83.0986L4.20769 85.0088Z" fill="#16110D"/>
<path d="M12.3959 82.2972L8.57556 80.0264L8.60228 79.2115L11.2471 79.9596L12.4627 80.6809L12.3959 82.2972Z" fill="#ECC550"/>
<path d="M12.4627 80.6942L15.8689 78.41L14.6133 77.6085L11.207 79.8927L12.4627 80.6942Z" fill="#ECC550"/>
<path d="M8.60205 79.2115L11.9816 77.0209L14.613 77.6086L11.2068 79.8928L8.60205 79.2115Z" fill="#ECC550"/>
<path d="M14.5733 78.5036L11.9551 77.9159L9.3103 79.599L11.9151 80.2802L12.5295 80.6409L15.1877 78.8776L14.5733 78.5036Z" fill="#FFEECC"/>
<path d="M14.7336 77.328L11.9418 76.7002L8.30851 79.0512L8.26843 80.1999L12.6631 82.818L12.7433 80.8545L16.4033 78.3966L14.7336 77.328ZM12.1155 81.7895L8.86953 79.866L8.88289 79.6122L11.0869 80.24L11.9819 80.7743L12.1555 80.8812L12.1155 81.7895ZM12.4628 80.3335L12.3693 80.2801L11.7414 79.8793L11.1537 79.5721L9.3237 79.0912L12.022 77.3414L13.8653 77.7555L14.6 77.9692L15.3213 78.4367L12.4628 80.3335Z" fill="#16110D"/>
<path d="M20.6644 77.5551L16.8307 75.2842L16.8708 74.4561L19.5156 75.2174L20.7312 75.9388L20.6644 77.5551Z" fill="#ECC550"/>
<path d="M20.7178 75.9521L24.124 73.6679L22.8684 72.8665L19.4622 75.1506L20.7178 75.9521Z" fill="#ECC550"/>
<path d="M16.8705 74.4562L20.25 72.2655L22.8681 72.8666L19.4619 75.1508L16.8705 74.4562Z" fill="#ECC550"/>
<path d="M22.8418 73.7616L20.2237 73.1738L17.5789 74.8435L20.1836 75.5248L20.7847 75.8988L23.4563 74.1222L22.8418 73.7616Z" fill="#FFEECC"/>
<path d="M23.002 72.5859L20.2102 71.9581L16.5769 74.3091L16.5369 75.4579L20.9449 78.076L21.0251 76.1124L24.6851 73.6546L23.002 72.5859ZM20.3839 77.0341L17.138 75.1106L17.1513 74.8568L19.3554 75.4846L20.2503 76.0189L20.424 76.1258L20.3839 77.0341ZM20.7312 75.5914L20.6377 75.538L20.0099 75.1373L19.4221 74.83L17.5921 74.3492L20.2904 72.5993L22.1338 73.0134L22.8684 73.2271L23.5898 73.6946L20.7312 75.5914Z" fill="#16110D"/>
<path d="M28.9328 72.8133L25.0991 70.5425L25.1392 69.7277L27.784 70.4757L28.9862 71.197L28.9328 72.8133Z" fill="#ECC550"/>
<path d="M28.9861 71.2103L32.3923 68.9261L31.1367 68.1246L27.7305 70.4088L28.9861 71.2103Z" fill="#ECC550"/>
<path d="M25.1399 69.7276L28.5194 67.5236L31.1375 68.1247L27.7313 70.4088L25.1399 69.7276Z" fill="#ECC550"/>
<path d="M31.1102 69.0196L28.4921 68.4319L25.8473 70.1016L28.4521 70.7829L29.0532 71.1569L31.7247 69.3803L31.1102 69.0196Z" fill="#FFEECC"/>
<path d="M31.2705 67.8441L28.4787 67.2163L24.8454 69.5673L24.8053 70.716L29.2134 73.3342L29.2935 71.3706L32.9535 68.9127L31.2705 67.8441ZM28.6523 72.2923L25.4064 70.3687L25.4198 70.1149L27.6238 70.7428L28.5188 71.2771L28.6924 71.3839L28.6523 72.2923ZM28.9996 70.8496L28.9061 70.7962L28.2783 70.3955L27.6906 70.0882L25.8606 69.6073L28.5588 67.8575L30.4022 68.2716L31.1369 68.4853L31.8582 68.9528L28.9996 70.8496Z" fill="#16110D"/>
<path d="M37.1879 68.071L33.3676 65.8002L33.4076 64.972L36.0525 65.7334L37.2547 66.4548L37.1879 68.071Z" fill="#ECC550"/>
<path d="M37.2547 66.468L40.6609 64.1838L39.4052 63.369L35.999 65.6532L37.2547 66.468Z" fill="#ECC550"/>
<path d="M33.4073 64.9722L36.7869 62.7815L39.405 63.3692L35.9988 65.6534L33.4073 64.9722Z" fill="#ECC550"/>
<path d="M39.3787 64.2776L36.7472 63.6765L34.1157 65.3596L36.7071 66.0408L37.3216 66.4015L39.9931 64.6383L39.3787 64.2776Z" fill="#FFEECC"/>
<path d="M39.5389 63.1021L36.7471 62.4742L33.1138 64.8252L33.0737 65.974L37.4818 68.5921L37.5619 66.6285L41.222 64.1707L39.5389 63.1021ZM36.9208 67.5502L33.6748 65.6267L33.6882 65.3729L35.8922 66.0007L36.7872 66.535L36.9608 66.6419L36.9208 67.5502ZM37.2681 66.1076L37.1746 66.0541L36.5467 65.6534L35.959 65.3462L34.129 64.8653L36.8273 63.1154L38.6706 63.5295L39.4053 63.7432L40.1266 64.2108L37.2681 66.1076Z" fill="#16110D"/>
<path d="M45.4563 63.4494L41.636 61.1786L41.6761 60.3638L44.3209 61.1118L45.5231 61.8331L45.4563 63.4494Z" fill="#ECC550"/>
<path d="M45.5231 61.8464L48.9293 59.5622L47.6737 58.7607L44.2675 61.0449L45.5231 61.8464Z" fill="#ECC550"/>
<path d="M41.6768 60.3636L45.0563 58.1595L47.6744 58.7606L44.2682 61.0448L41.6768 60.3636Z" fill="#ECC550"/>
<path d="M47.6471 59.6559L45.0156 59.0681L42.3842 60.7378L44.9756 61.4324L45.59 61.7931L48.2482 60.0299L47.6471 59.6559Z" fill="#FFEECC"/>
<path d="M47.8073 58.4804L45.0155 57.8525L41.3822 60.2035L41.3422 61.3523L45.7502 63.9704L45.8304 62.0068L49.4904 59.549L47.8073 58.4804ZM45.1892 62.9285L41.9433 61.005L41.9566 60.7512L44.1607 61.379L45.0556 61.9133L45.2293 62.0202L45.1892 62.9285ZM45.5365 61.4858L45.443 61.4324L44.8152 61.0317L44.2274 60.7245L42.3974 60.2436L45.0957 58.4937L46.9391 58.9078L47.6737 59.1215L48.3951 59.589L45.5365 61.4858Z" fill="#16110D"/>
<path d="M53.7249 58.7074L49.9045 56.4366L49.9313 55.6084L52.5761 56.3698L53.7916 57.0911L53.7249 58.7074Z" fill="#ECC550"/>
<path d="M53.7915 57.1043L57.1977 54.8201L55.9421 54.0187L52.5359 56.2895L53.7915 57.1043Z" fill="#ECC550"/>
<path d="M49.931 55.6083L53.3239 53.4176L55.942 54.0187L52.5358 56.2895L49.931 55.6083Z" fill="#ECC550"/>
<path d="M55.9023 54.9138L53.2842 54.326L50.6527 55.9958L53.2441 56.677L53.8586 57.0377L56.5168 55.2745L55.9023 54.9138Z" fill="#FFEECC"/>
<path d="M56.0626 53.7383L53.2708 53.1105L49.6375 55.4614L49.5974 56.6102L54.0055 59.2283L54.0856 57.2647L57.7456 54.8069L56.0626 53.7383ZM53.4444 58.1864L50.1985 56.2629L50.2119 56.0091L52.4159 56.6369L53.3109 57.1712L53.4845 57.2781L53.4444 58.1864ZM53.8051 56.7438L53.7116 56.6904L53.0838 56.2896L52.496 55.969L50.666 55.4882L53.3643 53.7383L55.2077 54.1524L55.9423 54.3661L56.6637 54.8336L53.8051 56.7438Z" fill="#16110D"/>
<path d="M61.9932 53.9653L58.1729 51.6945L58.1996 50.8663L60.8444 51.6277L62.06 52.349L61.9932 53.9653Z" fill="#ECC550"/>
<path d="M62.0599 52.3623L65.4662 50.0781L64.2105 49.2766L60.8043 51.5608L62.0599 52.3623Z" fill="#ECC550"/>
<path d="M58.1993 50.8662L61.5922 48.6755L64.2103 49.2766L60.8041 51.5608L58.1993 50.8662Z" fill="#ECC550"/>
<path d="M64.1707 50.1717L61.5526 49.584L58.9077 51.2537L61.5125 51.935L62.1269 52.309L64.7851 50.5324L64.1707 50.1717Z" fill="#FFEECC"/>
<path d="M64.3309 48.9962L61.5391 48.3684L57.9058 50.7194L57.8657 51.8681L62.2738 54.4863L62.3539 52.5227L66.014 50.0648L64.3309 48.9962ZM61.7128 53.4444L58.4668 51.5208L58.4802 51.267L60.6842 51.8949L61.5792 52.4292L61.7528 52.536L61.7128 53.4444ZM62.0734 52.0017L61.9799 51.9483L61.3521 51.5476L60.7644 51.2403L58.9343 50.7594L61.6326 49.0096L63.476 49.4237L64.2107 49.6374L64.932 50.1049L62.0734 52.0017Z" fill="#16110D"/>
<path d="M70.2617 49.21L66.4414 46.9526L66.4681 46.1244L69.113 46.8858L70.3285 47.5937L70.2617 49.21Z" fill="#ECC550"/>
<path d="M70.3286 47.6071L73.7349 45.3363L72.4792 44.5215L69.073 46.8057L70.3286 47.6071Z" fill="#ECC550"/>
<path d="M66.4679 46.1244L69.8474 43.9337L72.4789 44.5215L69.0727 46.8056L66.4679 46.1244Z" fill="#ECC550"/>
<path d="M72.4392 45.4298L69.8211 44.8287L67.1763 46.5118L69.781 47.1931L70.3955 47.5537L73.0537 45.7905L72.4392 45.4298Z" fill="#FFEECC"/>
<path d="M72.5994 44.241L69.8077 43.6132L66.1744 45.9641L66.1343 47.1129L70.5423 49.731L70.6225 47.7674L74.2825 45.3096L72.5994 44.241ZM69.9813 48.7025L66.7354 46.7789L66.7487 46.5251L68.9528 47.153L69.8477 47.6873L70.0214 47.7941L69.9813 48.7025ZM70.342 47.2598L70.2485 47.2064L69.6207 46.8057L69.0329 46.4984L67.2029 46.0176L69.9012 44.2677L71.7445 44.6818L72.4792 44.8955L73.2005 45.363L70.342 47.2598Z" fill="#16110D"/>
<path d="M78.5302 44.5882L74.7098 42.3174L74.7366 41.5026L77.3814 42.2506L78.5969 42.9719L78.5302 44.5882Z" fill="#ECC550"/>
<path d="M78.5968 42.9852L82.003 40.701L80.7474 39.8995L77.3412 42.1837L78.5968 42.9852Z" fill="#ECC550"/>
<path d="M74.7372 41.5026L78.1301 39.2986L80.7482 39.8997L77.3419 42.1839L74.7372 41.5026Z" fill="#ECC550"/>
<path d="M80.7076 40.7947L78.0895 40.2069L75.458 41.8766L78.0494 42.5712L78.6639 42.9319L81.3221 41.1687L80.7076 40.7947Z" fill="#FFEECC"/>
<path d="M80.8677 39.6191L78.076 38.9913L74.4427 41.3423L74.4026 42.4911L78.8106 45.1092L78.8908 43.1456L82.5508 40.6878L80.8677 39.6191ZM78.2496 44.0673L75.0037 42.1438L75.017 41.89L77.2211 42.5178L78.116 43.0521L78.2897 43.159L78.2496 44.0673ZM78.6103 42.6246L78.5168 42.5712L77.889 42.1705L77.3012 41.8632L75.4712 41.3824L78.1695 39.6325L80.0128 40.0466L80.7475 40.2603L81.4688 40.7278L78.6103 42.6246Z" fill="#16110D"/>
<path d="M86.7987 39.8462L82.9784 37.5754L83.0051 36.7472L85.6499 37.5086L86.8655 38.2299L86.7987 39.8462Z" fill="#ECC550"/>
<path d="M86.8655 38.2431L90.2717 35.9589L89.0161 35.1575L85.6099 37.4283L86.8655 38.2431Z" fill="#ECC550"/>
<path d="M83.0049 36.7472L86.3978 34.5565L89.0159 35.1576L85.6096 37.4284L83.0049 36.7472Z" fill="#ECC550"/>
<path d="M88.9761 36.0526L86.358 35.4648L83.7131 37.1346L86.3179 37.8158L86.9324 38.1765L89.5905 36.4132L88.9761 36.0526Z" fill="#FFEECC"/>
<path d="M89.1363 34.8771L86.3445 34.2493L82.7112 36.6002L82.6711 37.749L87.0792 40.3671L87.1593 38.4035L90.8194 35.9457L89.1363 34.8771ZM86.5182 39.3252L83.2856 37.4017L83.299 37.1479L85.4896 37.7624L86.3846 38.2967L86.5583 38.4035L86.5182 39.3252ZM86.8788 37.8826L86.7853 37.8291L86.1575 37.4284L85.5698 37.1212L83.7398 36.6403L86.438 34.8904L88.2814 35.3045L89.0161 35.5183L89.7374 35.9858L86.8788 37.8826Z" fill="#16110D"/>
<path d="M95.067 35.1041L91.2467 32.8333L91.2734 32.0051L93.9183 32.7665L95.1338 33.4878L95.067 35.1041Z" fill="#ECC550"/>
<path d="M95.1338 33.501L98.54 31.2169L97.2844 30.4154L93.8782 32.6862L95.1338 33.501Z" fill="#ECC550"/>
<path d="M91.2732 32.0051L94.6527 29.8145L97.2842 30.4156L93.878 32.6864L91.2732 32.0051Z" fill="#ECC550"/>
<path d="M97.2445 31.3105L94.6264 30.7228L91.9816 32.3925L94.5863 33.0737L95.2008 33.4478L97.859 31.6712L97.2445 31.3105Z" fill="#FFEECC"/>
<path d="M97.4047 30.135L94.613 29.5072L90.9796 31.8582L90.9396 33.0069L95.3476 35.6251L95.4278 33.6615L99.0878 31.2036L97.4047 30.135ZM94.7866 34.5831L91.5407 32.6596L91.554 32.4058L93.7581 33.0336L94.653 33.568L94.8267 33.6748L94.7866 34.5831ZM95.1473 33.1405L95.0538 33.0871L94.4259 32.6863L93.8382 32.3791L92.0082 31.8982L94.7065 30.1484L96.5498 30.5625L97.2845 30.7762L98.0058 31.2437L95.1473 33.1405Z" fill="#16110D"/>
<path d="M105.713 29.1332L3.01883 88.4149L0.601074 87.0257L103.295 27.7306L105.713 29.1332Z" fill="#ECC550"/>
<path d="M105.713 30.1618L3.01883 89.4569L0.601074 88.0676L103.295 28.7726L105.713 30.1618Z" fill="#FFEECC"/>
<path d="M3.0188 88.4151V90.4989L105.713 31.1905V29.1334L3.0188 88.4151Z" fill="#ECC550"/>
<path d="M0.601074 87.0258V89.0829L3.01883 90.4988V88.415L0.601074 87.0258Z" fill="#ECC550"/>
<path d="M106.007 28.9597L103.295 27.3969L0.307129 86.8522V89.2432L3.01875 90.8328L105.86 31.4443L106.007 31.3641V28.9597ZM103.295 28.0781L105.125 29.1334L49.2633 61.379L3.01875 88.0811L1.18874 87.0259L103.295 28.0781ZM0.89487 88.9093V87.5334L2.72488 88.5887V89.9779L0.89487 88.9093Z" fill="#16110D"/>
<path d="M7.15977 87.0791L7.03955 88.5618L19.3955 95.8284V94.3991L7.15977 87.0791Z" fill="#ECC550"/>
<path d="M19.5023 94.3324L22.9086 92.0483L10.4458 84.6481L7.03955 86.9323L19.5023 94.3324Z" fill="#ECC550"/>
<path d="M20.1435 94.8534L22.8151 93.0901L10.3389 85.6899L7.66736 87.4532L20.1435 94.8534Z" fill="#FFEECC"/>
<path d="M23.4696 92.0349L10.4458 84.3008L6.74567 86.7853L6.66553 88.7356L19.7161 96.4697L19.7962 94.5061L23.4696 92.0349ZM10.4458 85.0087L22.3609 92.075L19.529 93.9718L7.60057 86.9055L10.4458 85.0087ZM7.27998 88.3749L7.32006 87.4532L19.2085 94.5061L19.1684 95.4278L7.27998 88.3749Z" fill="#16110D"/>
<path d="M15.4283 82.4172L15.3081 83.8866L27.664 91.1666V89.7373L15.4283 82.4172Z" fill="#ECC550"/>
<path d="M27.7709 89.6572L31.1771 87.3864L18.7143 79.9862L15.3081 82.2704L27.7709 89.6572Z" fill="#ECC550"/>
<path d="M28.4119 90.1782L31.0835 88.415L18.6073 81.0148L15.9358 82.778L28.4119 90.1782Z" fill="#FFEECC"/>
<path d="M31.7381 87.3596L18.7143 79.6255L15.0142 82.11L14.9341 84.0603L27.9846 91.7944L28.0648 89.8308L31.7381 87.3596ZM18.7143 80.3334L30.6294 87.3997L27.7976 89.2965L15.8691 82.2303L18.7143 80.3334ZM15.5352 83.713L15.5753 82.7913L27.4637 89.8442L27.4236 90.7525L15.5352 83.713Z" fill="#16110D"/>
<path d="M23.6966 77.662L23.5764 79.1447L35.9323 86.4247V84.982L23.6966 77.662Z" fill="#ECC550"/>
<path d="M36.0392 84.9153L39.4454 82.6312L26.9693 75.231L23.5764 77.5151L36.0392 84.9153Z" fill="#ECC550"/>
<path d="M36.6804 85.4364L39.3519 83.6731L26.8758 76.2729L24.2042 78.0362L36.6804 85.4364Z" fill="#FFEECC"/>
<path d="M40.0064 82.6178L26.9826 74.8837L23.2825 77.3682L23.2024 79.3184L36.2529 87.0526L36.3331 85.089L40.0064 82.6178ZM26.9693 75.5916L38.8844 82.6579L36.0526 84.5547L24.1241 77.4884L26.9693 75.5916ZM23.8035 78.9578L23.8436 78.0361L35.732 85.089L35.6919 85.9973L23.8035 78.9578Z" fill="#16110D"/>
<path d="M31.9652 72.9199L31.8317 74.4026L44.1876 81.6826V80.2533L31.9652 72.9199Z" fill="#ECC550"/>
<path d="M44.3078 80.1733L47.714 77.8891L35.2379 70.4889L31.8317 72.7731L44.3078 80.1733Z" fill="#ECC550"/>
<path d="M44.9489 80.6943L47.6205 78.9311L35.1443 71.5309L32.4728 73.2941L44.9489 80.6943Z" fill="#FFEECC"/>
<path d="M48.275 77.8757L35.2512 70.1416L31.5511 72.6261L31.4709 74.5764L44.5215 82.3105L44.6016 80.3469L48.275 77.8757ZM35.2378 70.8496L47.153 77.9158L44.3211 79.8126L32.3926 72.7464L35.2378 70.8496ZM32.072 74.2291L32.1121 73.3074L44.0005 80.3603L43.9604 81.2686L32.072 74.2291Z" fill="#16110D"/>
<path d="M40.2202 68.1779L40.1 69.6606L52.4559 76.9272V75.4979L40.2202 68.1779Z" fill="#ECC550"/>
<path d="M52.5761 75.4312L55.9823 73.147L43.5062 65.7468L40.1 68.031L52.5761 75.4312Z" fill="#ECC550"/>
<path d="M53.2172 75.9522L55.8754 74.189L43.4126 66.7888L40.7411 68.552L53.2172 75.9522Z" fill="#FFEECC"/>
<path d="M56.5433 73.1202L43.5195 65.3861L39.8194 67.8707L39.7393 69.8209L52.7898 77.555L52.8699 75.5914L56.5433 73.1202ZM43.5061 66.0941L55.4213 73.1603L52.5894 75.0571L40.6609 67.9909L43.5061 66.0941ZM40.3404 69.4736L40.3804 68.5519L52.2688 75.6048L52.2288 76.5265L40.3404 69.4736Z" fill="#16110D"/>
<path d="M48.3951 63.4626L48.2749 64.932L60.6308 72.212V70.7827L48.3951 63.4626Z" fill="#ECC550"/>
<path d="M60.751 70.7028L64.1573 68.4319L51.6811 61.0317L48.2749 63.3159L60.751 70.7028Z" fill="#ECC550"/>
<path d="M61.3789 71.2236L64.0505 69.4604L51.5877 62.0602L48.9161 63.8234L61.3789 71.2236Z" fill="#FFEECC"/>
<path d="M64.7049 68.405L51.6811 60.6709L47.981 63.1554L47.9009 65.1057L60.9514 72.8398L61.0315 70.8762L64.7049 68.405ZM51.6811 61.3789L63.5962 68.4451L60.7644 70.3419L48.8359 63.2757L51.6811 61.3789ZM48.5153 64.7584L48.5554 63.8367L60.4438 70.8896L60.4037 71.8113L48.5153 64.7584Z" fill="#16110D"/>
<path d="M56.3965 58.547L56.2762 60.0297L68.6322 67.3097V65.8804L56.3965 58.547Z" fill="#ECC550"/>
<path d="M68.7524 65.8003L72.1586 63.5162L59.6825 56.116L56.2762 58.4001L68.7524 65.8003Z" fill="#ECC550"/>
<path d="M69.3801 66.3213L72.0517 64.558L59.5755 57.1578L56.9174 58.9211L69.3801 66.3213Z" fill="#FFEECC"/>
<path d="M72.7063 63.5027L59.6825 55.7686L55.9824 58.2531L55.9022 60.2033L68.9527 67.9375L69.0329 65.9739L72.7063 63.5027ZM59.6825 56.4765L61.2988 57.4383L71.5976 63.5561L68.7657 65.4529L56.8373 58.3867L59.6825 56.4765ZM56.5167 59.856L56.5568 58.9343L68.4452 65.9872L68.4051 66.9089L56.5167 59.856Z" fill="#16110D"/>
<path d="M64.665 53.8584L64.5448 55.3411L76.9007 62.6211V61.1918L64.665 53.8584Z" fill="#ECC550"/>
<path d="M77.0076 61.1117L80.4138 58.8275L67.951 51.4407L64.5448 53.7115L77.0076 61.1117Z" fill="#ECC550"/>
<path d="M77.6486 61.6327L80.3202 59.8694L67.844 52.4692L65.1725 54.2325L77.6486 61.6327Z" fill="#FFEECC"/>
<path d="M80.9747 58.8141L67.9509 51.08L64.2508 53.5645L64.1707 55.5147L77.2212 63.2489L77.3013 61.2853L80.9747 58.8141ZM67.9509 51.7879L79.866 58.8542L77.0342 60.751L65.1057 53.6847L67.9509 51.7879ZM64.7851 55.1674L64.8252 54.2457L76.7136 61.2986L76.6735 62.2203L64.7851 55.1674Z" fill="#16110D"/>
<path d="M73.0669 49.1299L72.9467 50.5992L85.3026 57.8792V56.4499L73.0669 49.1299Z" fill="#ECC550"/>
<path d="M85.4094 56.3697L88.8157 54.0989L76.3529 46.6987L72.9467 48.9829L85.4094 56.3697Z" fill="#ECC550"/>
<path d="M86.0506 56.8908L88.7222 55.1276L76.246 47.7274L73.5745 49.4906L86.0506 56.8908Z" fill="#FFEECC"/>
<path d="M89.3767 54.0723L76.3529 46.3381L72.6528 48.8227L72.5726 50.7729L85.6232 58.507L85.7033 56.5435L89.3767 54.0723ZM76.3529 47.0461L88.268 54.1123L85.4361 56.0092L73.5077 48.9429L76.3529 47.0461ZM73.1871 50.4256L73.2272 49.5039L85.1156 56.5568L85.0755 57.4785L73.1871 50.4256Z" fill="#16110D"/>
<path d="M81.2019 44.5214L81.0684 46.0041L93.4376 53.2707V51.8414L81.2019 44.5214Z" fill="#ECC550"/>
<path d="M93.5445 51.7747L96.9507 49.4905L84.4746 42.0903L81.0684 44.3745L93.5445 51.7747Z" fill="#ECC550"/>
<path d="M94.1856 52.2957L96.8572 50.5191L84.381 43.1189L81.7095 44.8955L94.1856 52.2957Z" fill="#FFEECC"/>
<path d="M97.5117 49.4638L84.4879 41.7296L80.7878 44.2142L80.7076 46.1644L93.7715 53.7115L93.8383 51.9216L97.5117 49.4638ZM84.4745 42.4376L96.3897 49.5038L93.5578 51.4006L81.6293 44.3344L84.4745 42.4376ZM81.3087 45.8171L81.3488 44.8954L93.2372 51.9483L93.1971 52.87L81.3087 45.8171Z" fill="#16110D"/>
<path d="M89.3769 39.6992L89.2433 41.1819L101.599 48.4485V47.0193L89.3769 39.6992Z" fill="#ECC550"/>
<path d="M101.719 46.9526L105.126 44.6684L92.6495 37.2682L89.2433 39.5524L101.719 46.9526Z" fill="#ECC550"/>
<path d="M102.36 47.4735L105.032 45.7103L92.5558 38.3101L89.8843 40.0733L102.36 47.4735Z" fill="#FFEECC"/>
<path d="M105.687 44.655L92.6627 36.9209L88.9626 39.4054L88.8824 41.3557L101.826 49.023L102.013 47.1262L105.687 44.655ZM92.6493 37.6289L104.564 44.6951L101.733 46.5919L89.8041 39.5257L92.6493 37.6289ZM89.4835 40.995L89.5236 40.0733L101.412 47.1262L101.372 48.0479L89.4835 40.995Z" fill="#16110D"/>
<path d="M97.6318 34.8905L97.5116 36.3732L109.868 43.6398V42.2106L97.6318 34.8905Z" fill="#ECC550"/>
<path d="M109.988 42.1437L113.394 39.8595L100.918 32.4594L97.5116 34.7435L109.988 42.1437Z" fill="#ECC550"/>
<path d="M110.629 42.6648L113.287 40.8882L100.824 33.488L98.1527 35.2646L110.629 42.6648Z" fill="#FFEECC"/>
<path d="M113.955 39.8329L100.931 32.0988L97.231 34.5833L97.1509 36.5335L109.988 44.1341L110.282 42.3041L113.955 39.8329ZM100.918 32.8067L112.833 39.873L110.001 41.7698L98.0726 34.7035L100.918 32.8067ZM97.752 36.1862L97.792 35.2645L109.68 42.3174L109.64 43.2391L97.752 36.1862Z" fill="#16110D"/>
<path d="M119.218 37.0944L16.5235 96.3895L14.1057 94.9869L116.8 35.7052L119.218 37.0944Z" fill="#ECC550"/>
<path d="M119.218 38.1364L16.5235 97.4181L14.1057 96.0289L116.8 36.7472L119.218 38.1364Z" fill="#FFEECC"/>
<path d="M16.5236 96.3896V98.46L119.218 39.1516V37.0945L16.5236 96.3896Z" fill="#ECC550"/>
<path d="M14.1057 94.9871V97.0442L16.5235 98.4601V96.3896L14.1057 94.9871Z" fill="#ECC550"/>
<path d="M119.525 36.9208L116.813 35.3579L13.8252 94.8133V97.2043L16.5368 98.7939L119.378 39.4053L119.525 39.3252V36.9208ZM116.8 36.0525L118.63 37.1078L62.768 69.3534L16.5235 96.0422L14.6934 94.9869L116.8 36.0525ZM14.4129 96.8704V95.5079L16.2429 96.5631V97.9523L14.4129 96.8704Z" fill="#16110D"/>
<path d="M24.4446 98.687L20.6243 96.4162L20.6777 94.7999L21.8532 95.4945L24.4713 97.8589L24.4446 98.687Z" fill="#ECC550"/>
<path d="M20.6781 94.7999L24.0843 92.5157L25.2598 93.2103L21.8536 95.4945L20.6781 94.7999Z" fill="#ECC550"/>
<path d="M24.4714 97.859L27.8776 95.5881L25.2595 93.2104L21.8533 95.4946L24.4714 97.859Z" fill="#ECC550"/>
<path d="M25.0992 94.0386L23.9237 93.344L21.2655 95.1072L22.441 95.8018L25.0591 98.1661L27.7173 96.4029L25.0992 94.0386Z" fill="#FFEECC"/>
<path d="M25.4465 92.9699L24.0974 92.1685L20.3973 94.653L20.3171 96.6032L24.4447 99.0477L28.1448 96.5765L28.1849 95.4678L25.4465 92.9699ZM24.1642 98.1661L20.9182 96.2426L20.9583 95.3075L21.6663 95.735L23.5631 97.4448L24.1642 97.9924V98.1661ZM24.5115 97.4848L22.3342 95.5213L21.8533 95.1472L21.7063 95.0671L21.2388 94.7866L24.084 92.8764L24.6985 93.2371L25.2194 93.5977L27.3967 95.5613L24.5115 97.4848Z" fill="#16110D"/>
<path d="M32.7131 94.0253L28.8794 91.7545L28.9462 90.1382L30.1217 90.8328L32.7398 93.1971L32.7131 94.0253Z" fill="#ECC550"/>
<path d="M28.9467 90.1382L32.3529 87.854L33.5284 88.5486L30.1221 90.8328L28.9467 90.1382Z" fill="#ECC550"/>
<path d="M32.7398 93.1971L36.1461 90.9129L33.5279 88.5486L30.1217 90.8328L32.7398 93.1971Z" fill="#ECC550"/>
<path d="M33.3677 89.3633L32.1923 88.6687L29.5341 90.4453L30.7095 91.1399L33.3277 93.5042L35.9859 91.741L33.3677 89.3633Z" fill="#FFEECC"/>
<path d="M33.7151 88.3082L32.3659 87.5067L28.6658 89.9779L28.5857 91.9281L32.7132 94.3726L36.4133 91.9014L36.4534 90.7927L33.7151 88.3082ZM32.4327 93.5043L29.1868 91.5808L29.2269 90.6458L29.9348 91.0732L31.8316 92.783L32.4327 93.3307V93.5043ZM32.78 92.8231L30.6027 90.8595L30.1218 90.4855L29.9749 90.4053L29.5074 90.1248L32.3526 88.2147L32.967 88.5753L33.488 88.936L35.6653 90.8996L32.78 92.8231Z" fill="#16110D"/>
<path d="M40.9815 89.2697L37.1478 86.9989L37.2146 85.3826L38.3901 86.0772L41.0082 88.4549L40.9815 89.2697Z" fill="#ECC550"/>
<path d="M37.2151 85.3828L40.6213 83.0986L41.7968 83.8066L38.3906 86.0774L37.2151 85.3828Z" fill="#ECC550"/>
<path d="M41.0083 88.455L44.4145 86.1708L41.7964 83.8065L38.3901 86.0773L41.0083 88.455Z" fill="#ECC550"/>
<path d="M41.636 84.6212L40.4606 83.9266L37.8024 85.6899L38.9779 86.3845L41.596 88.7621L44.2542 86.9856L41.636 84.6212Z" fill="#FFEECC"/>
<path d="M41.9834 83.5527L40.6342 82.7512L36.9341 85.2224L36.854 87.1726L40.9816 89.6171L44.6816 87.1459L44.7217 86.0372L41.9834 83.5527ZM40.701 88.7622L37.4551 86.8387L37.4952 85.9036L38.2031 86.3311L40.0999 88.0409L40.7144 88.5886L40.701 88.7622ZM41.0483 88.0676L38.871 86.104L38.3901 85.73L38.2432 85.6499L37.7757 85.3693L40.6209 83.4592L41.2353 83.8198L41.7563 84.1805L43.9336 86.1441L41.0483 88.0676Z" fill="#16110D"/>
<path d="M49.2367 84.5279L45.4164 82.2704L45.4832 80.6407L46.6587 81.3354L49.2768 83.713L49.2367 84.5279Z" fill="#ECC550"/>
<path d="M45.4836 80.6408L48.8899 78.37L50.0654 79.0646L46.6591 81.3354L45.4836 80.6408Z" fill="#ECC550"/>
<path d="M49.2768 83.7132L52.683 81.429L50.0649 79.0647L46.6587 81.3355L49.2768 83.7132Z" fill="#ECC550"/>
<path d="M49.8912 79.8794L48.7291 79.1848L46.0709 80.948L47.2464 81.6426L49.8645 84.0203L52.5227 82.2437L49.8912 79.8794Z" fill="#FFEECC"/>
<path d="M50.2519 78.8109L48.9028 78.0094L45.2027 80.4806L45.1226 82.4308L49.2501 84.8753L52.9502 82.4041L52.9903 81.2954L50.2519 78.8109ZM48.9696 84.0204L45.7237 82.0969L45.7637 81.1618L46.4717 81.5893L48.3685 83.2991L48.9829 83.8467L48.9696 84.0204ZM49.3169 83.3391L47.1396 81.3755L46.6587 81.0015L46.5118 80.9214L46.0442 80.6409L48.8894 78.7307L49.5039 79.0914L50.0249 79.452L52.2022 81.4156L49.3169 83.3391Z" fill="#16110D"/>
<path d="M57.505 79.7858L53.6847 77.515L53.7515 75.8987L54.927 76.5933L57.5451 78.9576L57.505 79.7858Z" fill="#ECC550"/>
<path d="M53.752 75.8988L57.1582 73.6146L58.3337 74.3092L54.9274 76.5934L53.752 75.8988Z" fill="#ECC550"/>
<path d="M57.5451 78.9577L60.9514 76.6869L58.3332 74.3092L54.927 76.5934L57.5451 78.9577Z" fill="#ECC550"/>
<path d="M58.1596 75.1374L56.9974 74.4427L54.3392 76.206L55.5147 76.9006L58.1328 79.2649L60.7777 77.5017L58.1596 75.1374Z" fill="#FFEECC"/>
<path d="M58.5069 74.0688L57.1578 73.2673L53.4577 75.7385L53.3776 77.6888L57.5051 80.1332L61.2052 77.662L61.2453 76.5533L58.5069 74.0688ZM57.238 79.265L53.992 77.3415L54.0321 76.4064L54.7401 76.8339L56.6369 78.5436L57.2513 79.0913L57.238 79.265ZM57.5719 78.5837L55.3946 76.6201L54.9137 76.2461L54.7668 76.166L54.2993 75.8855L57.1444 73.9753L57.7589 74.336L58.2799 74.6966L60.4572 76.6602L57.5719 78.5837Z" fill="#16110D"/>
<path d="M65.7736 74.9904L61.9532 72.7196L62.02 71.1033L63.1955 71.7979L65.8136 74.1622L65.7736 74.9904Z" fill="#ECC550"/>
<path d="M62.0206 71.1034L65.4269 68.8192L66.6023 69.5138L63.1961 71.798L62.0206 71.1034Z" fill="#ECC550"/>
<path d="M65.8138 74.1623L69.22 71.8781L66.6019 69.5138L63.1957 71.798L65.8138 74.1623Z" fill="#ECC550"/>
<path d="M66.4281 70.3286L65.266 69.634L62.6078 71.4106L63.7833 72.1052L66.4014 74.4695L69.0462 72.7063L66.4281 70.3286Z" fill="#FFEECC"/>
<path d="M66.7755 69.2734L65.4264 68.4719L61.7263 70.9431L61.6461 72.8933L65.7737 75.3378L69.4738 72.8666L69.5138 71.7579L66.7755 69.2734ZM65.4931 74.4696L62.2472 72.546L62.2873 71.611L62.9952 72.0384L64.8921 73.7482L65.5065 74.2959L65.4931 74.4696ZM65.8405 73.7883L63.6631 71.8247L63.1823 71.4507L63.0353 71.3706L62.5678 71.09L65.413 69.1799L66.0275 69.5405L66.5484 69.9012L68.7257 71.8648L65.8405 73.7883Z" fill="#16110D"/>
<path d="M74.042 70.1415L70.2217 67.8707L70.2885 66.2544L71.4506 66.949L74.0687 69.3133L74.042 70.1415Z" fill="#ECC550"/>
<path d="M70.2889 66.2544L73.6952 63.9702L74.8573 64.6648L71.4511 66.949L70.2889 66.2544Z" fill="#ECC550"/>
<path d="M74.0687 69.3134L77.4749 67.0292L74.8568 64.6649L71.4506 66.9491L74.0687 69.3134Z" fill="#ECC550"/>
<path d="M74.6965 65.4931L73.5211 64.7985L70.8762 66.5617L72.0383 67.2563L74.6565 69.6206L77.3147 67.8574L74.6965 65.4931Z" fill="#FFEECC"/>
<path d="M75.0439 64.4244L73.6948 63.6229L69.9947 66.0941L69.9146 68.0443L74.0421 70.4888L77.7422 68.0176L77.7823 66.8956L75.0439 64.4244ZM73.7616 69.6206L70.5157 67.697L70.5557 66.762L71.2637 67.1894L73.1605 68.8992L73.7749 69.4469L73.7616 69.6206ZM74.1089 68.9393L71.9316 66.9757L71.4507 66.6017L71.3038 66.5216L70.8362 66.241L73.6814 64.3309L74.2959 64.6915L74.8168 65.0522L76.9942 67.0158L74.1089 68.9393Z" fill="#16110D"/>
<path d="M82.3104 65.4931L78.4901 63.2356L78.5569 61.606L79.719 62.3139L82.3371 64.6782L82.3104 65.4931Z" fill="#ECC550"/>
<path d="M78.5575 61.606L81.9637 59.3352L83.1258 60.0298L79.7196 62.314L78.5575 61.606Z" fill="#ECC550"/>
<path d="M82.3372 64.6783L85.7435 62.3941L83.1253 60.0298L79.7191 62.314L82.3372 64.6783Z" fill="#ECC550"/>
<path d="M82.965 60.8446L81.7895 60.15L79.1447 61.9132L80.3068 62.6079L82.9249 64.9855L85.5831 63.209L82.965 60.8446Z" fill="#FFEECC"/>
<path d="M83.3124 59.776L81.9632 58.9745L78.2631 61.4457L78.183 63.3959L82.3105 65.8404L86.0106 63.3692L86.0507 62.2471L83.3124 59.776ZM82.03 64.9855L78.7841 63.062L78.8242 62.1269L79.5321 62.5544L81.4289 64.2642L82.03 64.8118V64.9855ZM82.3773 64.3042L80.2 62.3406L79.7191 61.9666L79.5722 61.8865L79.1047 61.606L81.9499 59.6958L82.5643 60.0565L83.0853 60.4171L85.2626 62.3807L82.3773 64.3042Z" fill="#16110D"/>
<path d="M90.5789 60.6575L86.7585 58.3867L86.812 56.7704L87.9875 57.465L90.6056 59.8293L90.5789 60.6575Z" fill="#ECC550"/>
<path d="M86.8124 56.7705L90.2186 54.4863L91.3941 55.1809L87.9879 57.4651L86.8124 56.7705Z" fill="#ECC550"/>
<path d="M90.6057 59.8294L94.0119 57.5452L91.3938 55.1809L87.9875 57.4651L90.6057 59.8294Z" fill="#ECC550"/>
<path d="M91.2335 55.9957L90.058 55.3011L87.3998 57.0777L88.5753 57.7723L91.1934 60.1367L93.8516 58.3734L91.2335 55.9957Z" fill="#FFEECC"/>
<path d="M91.5808 54.9404L90.2317 54.1389L86.5316 56.6101L86.4514 58.5603L90.579 61.0048L94.2791 58.5336L94.3191 57.4249L91.5808 54.9404ZM90.2984 60.1365L87.0525 58.213L87.0926 57.278L87.8006 57.7054L89.6974 59.4152L90.3118 59.9629L90.2984 60.1365ZM90.6458 59.4553L88.4684 57.4917L87.9876 57.1177L87.8406 57.0376L87.3731 56.757L90.2183 54.8469L90.8328 55.1942L91.3537 55.5548L93.531 57.5184L90.6458 59.4553Z" fill="#16110D"/>
<path d="M98.8474 55.8888L95.0271 53.618L95.0939 52.0017L96.256 52.6963L98.8741 55.0606L98.8474 55.8888Z" fill="#ECC550"/>
<path d="M95.0945 52.0017L98.5007 49.7175L99.6628 50.4121L96.2566 52.6963L95.0945 52.0017Z" fill="#ECC550"/>
<path d="M98.8741 55.0607L102.28 52.7765L99.6622 50.4122L96.256 52.6964L98.8741 55.0607Z" fill="#ECC550"/>
<path d="M99.502 51.2403L98.3265 50.5457L95.6816 52.3089L96.8438 53.0035L99.4619 55.3678L102.12 53.6046L99.502 51.2403Z" fill="#FFEECC"/>
<path d="M99.8492 50.1717L98.5001 49.3702L94.8 51.8414L94.7198 53.7917L98.8474 56.2361L102.547 53.7649L102.588 52.6562L99.8492 50.1717ZM98.5669 55.3679L95.3209 53.4444L95.361 52.5093L96.069 52.9368L97.9658 54.6466L98.5802 55.1942L98.5669 55.3679ZM98.9142 54.6866L96.7369 52.723L96.256 52.349L96.109 52.2689L95.6415 51.9884L98.4867 50.0782L99.1012 50.4389L99.6221 50.7995L101.799 52.7631L98.9142 54.6866Z" fill="#16110D"/>
<path d="M107.116 50.9732L103.295 48.7023L103.362 47.0861L104.524 47.7807L107.142 50.145L107.116 50.9732Z" fill="#ECC550"/>
<path d="M103.363 47.0861L106.769 44.8019L107.931 45.4965L104.525 47.7807L103.363 47.0861Z" fill="#ECC550"/>
<path d="M107.143 50.1451L110.549 47.8743L107.931 45.4966L104.524 47.7808L107.143 50.1451Z" fill="#ECC550"/>
<path d="M107.77 46.3247L106.595 45.6301L103.95 47.3934L105.112 48.088L107.73 50.4523L110.388 48.6891L107.77 46.3247Z" fill="#FFEECC"/>
<path d="M108.118 45.2561L106.769 44.4546L103.068 46.9258L102.988 48.876L107.116 51.3205L110.816 48.8493L110.856 47.7406L108.118 45.2561ZM106.835 50.4522L103.589 48.5287L103.629 47.5937L104.337 48.0211L106.234 49.7309L106.849 50.2786L106.835 50.4522ZM107.183 49.771L105.005 47.8074L104.524 47.4334L104.377 47.3532L103.91 47.0727L106.755 45.1626L107.37 45.5232L107.891 45.8839L110.068 47.8475L107.183 49.771Z" fill="#16110D"/>
<path d="M115.451 46.338L111.631 44.0672L111.697 42.4509L112.86 43.1455L115.478 45.5099L115.451 46.338Z" fill="#ECC550"/>
<path d="M111.698 42.451L115.104 40.1669L116.266 40.8615L112.86 43.1456L111.698 42.451Z" fill="#ECC550"/>
<path d="M115.478 45.5099L118.884 43.2258L116.266 40.8615L112.86 43.1456L115.478 45.5099Z" fill="#ECC550"/>
<path d="M116.105 41.6763L114.93 40.9817L112.285 42.7583L113.447 43.4529L116.065 45.8172L118.724 44.054L116.105 41.6763Z" fill="#FFEECC"/>
<path d="M116.453 40.621L115.104 39.8196L111.404 42.2908L111.323 44.241L115.451 46.6855L119.151 44.2143L119.191 43.1056L116.453 40.621ZM115.171 45.8172L111.925 43.8937L111.965 42.9587L112.673 43.3861L114.569 45.0959L115.184 45.6436L115.171 45.8172ZM115.518 45.136L113.341 43.1724L112.86 42.7984L112.713 42.7182L112.245 42.4377L115.09 40.5275L115.705 40.8882L116.226 41.2489L118.403 43.2124L115.518 45.136Z" fill="#16110D"/>
<path d="M92.7831 43.9871C92.7831 43.9203 92.7831 43.8402 92.7831 43.76V40.4473H88.8693L74.0823 31.9518C72.2389 30.8832 69.4471 30.7763 67.8575 31.698L17.0981 61.3255H13.1843L13.1709 64.4111V64.518C13.1709 65.2259 13.6785 65.974 14.6937 66.5617L31.8851 76.4464C33.7285 77.5151 36.5203 77.6219 38.1098 76.7002L91.7011 45.4297C92.369 45.0424 92.7163 44.5749 92.7697 44.0405L92.7831 43.8402V43.9871Z" fill="#ECC550"/>
<path d="M35.4115 77.5551C34.1425 77.5551 32.8068 77.2479 31.7649 76.6468L14.5734 66.7621C13.5182 66.161 12.9304 65.3328 12.9304 64.5046V64.3978L12.9438 61.0717H17.0313L67.7239 31.4843C69.3803 30.5225 72.2923 30.6427 74.1891 31.738L88.9227 40.2069H93.0102V43.76C93.0102 43.8268 93.0102 43.9203 93.0102 44.0005V44.0405C92.9567 44.6817 92.556 45.2027 91.8213 45.6301L38.2434 76.9006C37.482 77.3414 36.4801 77.5551 35.4115 77.5551ZM13.4247 61.5659L13.4113 64.4111V64.518C13.4113 65.1725 13.9189 65.8404 14.8139 66.3613L32.0053 76.2461C33.7819 77.2746 36.4668 77.3815 37.9896 76.4999L91.5809 45.2294C92.182 44.8821 92.4892 44.4947 92.5293 44.0272L92.5426 43.8402C92.5426 43.8268 92.5426 43.8001 92.5426 43.7867V40.7011H88.8025L73.962 32.1789C72.1854 31.1503 69.5005 31.0434 67.9777 31.9251L17.1782 61.5793H13.4247V61.5659Z" fill="#16110D"/>
<path d="M91.7144 42.117L38.1231 73.3875C36.5201 74.3092 33.7417 74.189 31.8983 73.1337L14.7069 63.249C12.8635 62.1804 12.6632 60.5774 14.2661 59.6557L67.8574 28.3852C69.4603 27.4636 72.2388 27.5838 74.0821 28.639L91.2736 38.5238C93.1036 39.579 93.3039 41.1953 91.7144 42.117Z" fill="#ECC550"/>
<path d="M91.2602 40.1134L74.0688 30.2286C72.2254 29.16 69.4337 29.0531 67.8441 29.9748L14.2528 61.2453C13.8654 61.4724 13.5983 61.7262 13.4113 62.0067V63.6364C13.6517 64.0638 14.0791 64.4779 14.6936 64.8386L31.885 74.7233C33.7284 75.7919 36.5202 75.8988 38.1097 74.9771L91.701 43.7066C93.304 42.7983 93.1036 41.182 91.2602 40.1134Z" fill="#FFEECC"/>
<path d="M35.4115 74.2424C34.1425 74.2424 32.8068 73.9352 31.7649 73.3341L14.5734 63.4493C13.5315 62.8482 12.9304 62.0334 12.9304 61.2052C12.9304 60.5106 13.3579 59.8828 14.1326 59.4286L67.7239 28.1715C69.3803 27.2097 72.2923 27.33 74.1891 28.4253L91.3805 38.31C92.4224 38.9111 93.0235 39.726 93.0235 40.5541C93.0235 41.2487 92.5961 41.8766 91.8213 42.3307L38.2434 73.5879C37.482 74.0287 36.4801 74.2424 35.4115 74.2424ZM70.5558 27.9979C69.5807 27.9979 68.659 28.1982 67.9644 28.5856L14.3731 59.8561C13.7586 60.2168 13.4113 60.6976 13.4113 61.2052C13.4113 61.8464 13.9189 62.5143 14.8139 63.0352L32.0053 72.92C33.7819 73.9485 36.4668 74.0554 37.9896 73.1738L91.5809 41.9033C92.1953 41.5426 92.5426 41.0617 92.5426 40.5541C92.5426 39.913 92.035 39.2451 91.1401 38.7241L73.9486 28.8394C72.9869 28.2784 71.7313 27.9979 70.5558 27.9979Z" fill="#16110D"/>
<path d="M35.4114 74.2425V77.5553L38.123 76.7004L92.7963 44.7486L93.0367 40.9684L91.2601 42.3175L36.8273 74.0021L35.4114 74.2425Z" fill="#16110D"/>
<path d="M47.1396 73.2539C47.1396 75.4847 45.5767 78.2097 43.6399 79.3184C41.703 80.4404 40.1401 79.5321 40.1401 77.3013C40.1401 75.0706 41.703 72.3456 43.6399 71.2369C45.5767 70.1149 47.1396 71.0232 47.1396 73.2539Z" fill="#16110D"/>
<path d="M46.5117 71.6912L40.621 75.2043V75.8855L41.89 75.1241C41.703 75.5649 41.5961 76.0191 41.5961 76.4599C41.5961 77.1144 41.8365 77.5953 42.2506 77.8491C42.4376 77.9559 42.638 78.0094 42.8517 78.0094C43.1456 78.0094 43.4528 77.9159 43.7868 77.7289C44.842 77.1144 45.6836 75.6718 45.6836 74.4429C45.6836 73.8818 45.4966 73.441 45.1626 73.1739L46.4984 72.3724V71.6912H46.5117ZM44.7352 73.5746C44.9622 73.7082 45.0958 74.0154 45.0958 74.4429C45.0958 75.4447 44.3611 76.7137 43.4929 77.2079C43.1189 77.4216 42.7849 77.4617 42.5578 77.3281C42.3308 77.1946 42.1972 76.8873 42.1972 76.4599C42.1972 75.8321 42.4911 75.0974 42.9185 74.5096L44.5615 73.5212C44.6283 73.5479 44.6951 73.5479 44.7352 73.5746Z" fill="#ECC550"/>
<path d="M54.7935 68.7258C54.7935 70.9565 53.2307 73.6681 51.2938 74.7902C49.3569 75.9122 47.7941 75.0039 47.7941 72.7732C47.7941 70.5424 49.3569 67.8308 51.2938 66.7087C53.2173 65.5867 54.7935 66.495 54.7935 68.7258Z" fill="#16110D"/>
<path d="M54.1657 67.1628L48.2749 70.6759V71.3572L49.5439 70.5958C49.3569 71.0366 49.25 71.4908 49.25 71.9316C49.25 72.5861 49.4905 73.067 49.9046 73.3208C50.0916 73.4276 50.2919 73.4811 50.5057 73.4811C50.7995 73.4811 51.1067 73.3876 51.4407 73.2005C52.496 72.5861 53.3375 71.1435 53.3375 69.9145C53.3375 69.3535 53.1505 68.9127 52.8165 68.6456L54.1523 67.8441V67.1628H54.1657ZM52.3891 69.0463C52.6162 69.1799 52.7498 69.4871 52.7498 69.9145C52.7498 70.9164 52.0151 72.1854 51.1468 72.6796C50.7728 72.8933 50.4389 72.9334 50.2118 72.7998C49.9847 72.6662 49.8511 72.359 49.8511 71.9316C49.8511 71.3037 50.145 70.5691 50.5724 69.9813L52.2154 68.9929C52.2822 69.0196 52.349 69.0196 52.3891 69.0463Z" fill="#ECC550"/>
<path d="M80.2401 54.1524C80.2401 56.3831 78.6772 59.0948 76.7403 60.2168C74.8035 61.3389 73.2406 60.4305 73.2406 58.1998C73.2406 55.969 74.8035 53.2574 76.7403 52.1354C78.6772 51.0133 80.2401 51.9216 80.2401 54.1524Z" fill="#16110D"/>
<path d="M79.6256 52.5895L73.7349 56.1026V56.7838L75.0039 56.0224C74.8168 56.4632 74.71 56.9174 74.71 57.3582C74.71 58.0127 74.9504 58.4936 75.3645 58.7474C75.5515 58.8543 75.7519 58.9077 75.9656 58.9077C76.2595 58.9077 76.5667 58.8142 76.9006 58.6272C77.9559 58.0127 78.7975 56.5701 78.7975 55.3412C78.7975 54.7802 78.6104 54.3393 78.2765 54.0722L79.6123 53.2707V52.5895H79.6256ZM77.849 54.4729C78.0761 54.6065 78.2097 54.9137 78.2097 55.3412C78.2097 56.343 77.475 57.612 76.6068 58.1062C76.2328 58.32 75.8988 58.36 75.6717 58.2265C75.4447 58.0929 75.3111 57.7856 75.3111 57.3582C75.3111 56.7304 75.6049 55.9957 76.0324 55.408L77.6754 54.4195C77.7422 54.4462 77.7956 54.4462 77.849 54.4729Z" fill="#ECC550"/>
<path d="M87.894 49.6241C87.894 51.8548 86.3311 54.5664 84.3943 55.6885C82.4574 56.8105 80.8945 55.9022 80.8945 53.6715C80.8945 51.4407 82.4574 48.7291 84.3943 47.607C86.3311 46.485 87.894 47.3933 87.894 49.6241Z" fill="#16110D"/>
<path d="M87.2663 48.0612L81.3755 51.5742V52.2555L82.6445 51.4941C82.4575 51.9349 82.3506 52.3891 82.3506 52.8299C82.3506 53.4844 82.591 53.9653 83.0051 54.2191C83.1921 54.3259 83.3925 54.3794 83.6062 54.3794C83.9001 54.3794 84.2073 54.2859 84.5413 54.0989C85.5965 53.4844 86.4381 52.0418 86.4381 50.8129C86.4381 50.2518 86.2511 49.811 85.9171 49.5439L87.2529 48.7424V48.0612H87.2663ZM85.4897 49.9446C85.7168 50.0782 85.8503 50.3854 85.8503 50.8129C85.8503 51.8147 85.1157 53.0837 84.2474 53.5779C83.8734 53.7916 83.5394 53.8317 83.3124 53.6981C83.0853 53.5646 82.9517 53.2573 82.9517 52.8299C82.9517 52.2021 83.2456 51.4674 83.673 50.8796L85.316 49.8912C85.3828 49.9179 85.4496 49.9179 85.4897 49.9446Z" fill="#ECC550"/>
<path d="M18.2869 35.0775L36.1595 45.4031V70.6759L18.2869 60.3504V35.0775Z" fill="#ECC550"/>
<path d="M36.1594 45.1358L18.0463 34.6767V60.4973L36.1594 70.9564L88.5886 40.7278L88.7088 40.661V14.8405L36.1594 45.1358ZM35.9189 70.2618L18.5138 60.2034V35.4915L35.9189 45.5499V70.2618Z" fill="#16110D"/>
<path d="M70.7694 0.280518L92.3956 12.77L36.2129 45.1759L14.5867 32.6864L70.7694 0.280518Z" fill="#ECC550"/>
<path d="M38.3635 48.649V67.6972L86.5316 39.8062V20.7581L38.3635 48.649ZM71.4774 38.4571L73.0403 37.5488C73.0536 37.5621 73.067 37.6022 73.067 37.6823V38.2968C73.067 38.5372 72.9067 38.8177 72.7597 38.8979L71.464 39.6459V38.4571H71.4774ZM70.9965 38.1766V40.4607V48.2483L69.073 49.357V31.4576L70.9965 30.3489V38.1766ZM55.1943 39.4723L55.7152 39.165V57.1179L55.1943 57.4251V39.4723ZM65.0256 51.7213V33.7952L68.6055 31.7248V49.6375L65.0256 51.7213ZM56.1961 38.8979L57.1312 38.3502V56.303L56.1961 56.8507V38.8979ZM57.5987 56.0225V38.0831L63.3158 34.7837L64.5447 34.0757V52.0018L57.5987 56.0225ZM38.8444 48.9162L54.7268 39.7528V57.7056L38.8444 66.869V48.9162ZM86.0641 39.5257L71.4774 47.9812V40.1936L73.0135 39.312C73.3208 39.1383 73.5612 38.6975 73.5612 38.2968V37.6823C73.5612 37.4285 73.4677 37.2282 73.2941 37.1347C73.1471 37.0545 72.9601 37.0545 72.7731 37.1614L71.4774 37.9094V30.0417L86.0641 21.5862V39.5257Z" fill="#ECC550"/>
<path d="M76.8872 8.69592L86.3712 14.186L36.0526 42.9185L26.5819 37.4285L76.8872 8.69592Z" fill="#FFEECC"/>
<path d="M69.781 4.56848L73.8818 6.89273L23.5765 35.6253L19.4757 33.301L69.781 4.56848Z" fill="#FFEECC"/>
<path d="M23.8437 61.5391L19.9165 59.2683V54.7267L23.8437 56.9975V61.5391ZM20.384 59.0012L23.3628 60.7243V57.2914L20.384 55.5682V59.0012Z" fill="#16110D"/>
<path d="M36.1328 45.2427L36.1061 47.9811L14.4666 35.4916L14.5066 32.7399L36.1328 45.2427Z" fill="#ECC550"/>
<path d="M92.6228 12.6231L70.7695 0L14.3463 32.5395L14.3063 35.5583L36.1729 48.1948L92.6361 15.682L92.7564 15.6152L92.6228 12.6231ZM70.7695 0.547668L91.9282 12.77L49.7978 37.0811L36.2263 44.9088L15.0677 32.6864L70.7695 0.547668ZM35.9458 47.5135L14.7872 35.2912L14.8139 33.1005L35.9726 45.3229L35.9458 47.5135Z" fill="#16110D"/>
<path d="M36.3333 48.1145V47.5669L88.2415 17.6188V18.1664L36.3333 48.1145Z" fill="#ECC550"/>
<path d="M31.3106 42.1705V44.7084L26.7289 42.0636V39.5256L26.0743 39.1516V67.7906L26.7289 68.1647V62.2338L31.3106 64.8786V70.8095L31.9651 71.1835V42.5445L31.3106 42.1705ZM31.3106 45.4565V47.4601L26.7289 44.8153V42.8116L31.3106 45.4565ZM26.7289 55.9289V53.8852L31.3106 56.53V58.5738L26.7289 55.9289ZM31.3106 59.3218V61.3388L26.7289 58.694V56.677L31.3106 59.3218ZM26.7289 53.1372V51.1202L31.3106 53.765V55.782L26.7289 53.1372ZM26.7289 50.3721V48.3284L31.3106 50.9732V53.017L26.7289 50.3721ZM26.7289 47.5804V45.5633L31.3106 48.2082V50.2252L26.7289 47.5804ZM26.7289 61.4858V59.442L31.3106 62.0869V64.1306L26.7289 61.4858Z" fill="#16110D"/>
</svg>
