<svg width="18" height="18" viewBox="0 0 18 18" fill="none" xmlns="http://www.w3.org/2000/svg">
<path d="M18 14.4V18H14.4V15.3H11.7V12.6H9L6.966 10.566C6.471 10.719 5.949 10.8 5.4 10.8C3.96783 10.8 2.59432 10.2311 1.58162 9.21838C0.568927 8.20568 0 6.83217 0 5.4C0 3.96783 0.568927 2.59432 1.58162 1.58162C2.59432 0.568927 3.96783 0 5.4 0C6.83217 0 8.20568 0.568927 9.21838 1.58162C10.2311 2.59432 10.8 3.96783 10.8 5.4C10.8 5.949 10.719 6.471 10.566 6.966L18 14.4ZM4.5 2.7C4.02261 2.7 3.56477 2.88964 3.22721 3.22721C2.88964 3.56477 2.7 4.02261 2.7 4.5C2.7 4.97739 2.88964 5.43523 3.22721 5.77279C3.56477 6.11036 4.02261 6.3 4.5 6.3C4.97739 6.3 5.43523 6.11036 5.77279 5.77279C6.11036 5.43523 6.3 4.97739 6.3 4.5C6.3 4.02261 6.11036 3.56477 5.77279 3.22721C5.43523 2.88964 4.97739 2.7 4.5 2.7Z" fill="white"/>
</svg>
