<svg width="237" height="14" viewBox="0 0 237 14" fill="none" xmlns="http://www.w3.org/2000/svg">
<path d="M9.69434 0.203125H2.10938L2.05664 6.90039C2.05078 7.17578 2.04492 7.43652 2.03906 7.68262C2.0332 7.92285 2.02441 8.14844 2.0127 8.35938C1.99512 8.73438 1.96875 9.0625 1.93359 9.34375C1.89844 9.625 1.85156 9.86523 1.79297 10.0645C1.69336 10.3809 1.54688 10.6182 1.35352 10.7764C1.16016 10.9346 0.919922 11.0137 0.632812 11.0137H0.342773V13H0.958008C1.54395 13 2.05664 12.8916 2.49609 12.6748C2.93555 12.458 3.30176 12.1064 3.59473 11.6201C3.73535 11.3916 3.8584 11.1309 3.96387 10.8379C4.0752 10.5449 4.16895 10.2197 4.24512 9.8623C4.29199 9.64551 4.33301 9.41699 4.36816 9.17676C4.40332 8.93652 4.43262 8.68164 4.45605 8.41211C4.47363 8.18359 4.48828 7.94336 4.5 7.69141C4.51172 7.43945 4.52051 7.17578 4.52637 6.90039L4.57031 2.20703H7.21582V13H9.69434V0.203125ZM20.8916 7.54199V5.67871C20.8916 5.09863 20.8359 4.55078 20.7246 4.03516C20.6191 3.51953 20.4639 3.04492 20.2588 2.61133C20.0713 2.23047 19.8457 1.88184 19.582 1.56543C19.3242 1.24902 19.0225 0.979492 18.6768 0.756836C18.3311 0.522461 17.9414 0.34375 17.5078 0.220703C17.0801 0.0917969 16.6201 0.0273438 16.1279 0.0273438C15.6416 0.0273438 15.1904 0.0888672 14.7744 0.211914C14.3584 0.334961 13.9834 0.510742 13.6494 0.739258C13.3096 0.973633 13.0078 1.25488 12.7441 1.58301C12.4863 1.91113 12.2666 2.27734 12.085 2.68164C11.8975 3.10938 11.7539 3.5752 11.6543 4.0791C11.5605 4.58301 11.5137 5.11621 11.5137 5.67871V7.54199C11.5137 8.06934 11.5547 8.57031 11.6367 9.04492C11.7246 9.51953 11.8506 9.95898 12.0146 10.3633C12.1963 10.8027 12.4219 11.1982 12.6914 11.5498C12.9609 11.8955 13.2656 12.1914 13.6055 12.4375C13.9512 12.6719 14.335 12.8535 14.7568 12.9824C15.1787 13.1113 15.6387 13.1758 16.1367 13.1758C16.6055 13.1758 17.042 13.1172 17.4463 13C17.8564 12.8887 18.2314 12.7305 18.5713 12.5254C18.9463 12.291 19.2803 11.998 19.5732 11.6465C19.8662 11.2949 20.1123 10.9082 20.3115 10.4863C20.499 10.0645 20.6426 9.60742 20.7422 9.11523C20.8418 8.61719 20.8916 8.09277 20.8916 7.54199ZM18.3867 5.66113V7.54199C18.3867 7.8584 18.3691 8.16309 18.334 8.45605C18.3047 8.74902 18.2578 9.01855 18.1934 9.26465C18.1113 9.58105 18 9.86523 17.8594 10.1172C17.7246 10.3633 17.5576 10.5684 17.3584 10.7324C17.2002 10.8672 17.0186 10.9697 16.8135 11.04C16.6084 11.1104 16.3828 11.1455 16.1367 11.1455C15.8789 11.1455 15.6475 11.1074 15.4424 11.0312C15.2432 10.9551 15.0645 10.8467 14.9062 10.7061C14.7363 10.5479 14.5869 10.3428 14.458 10.0908C14.335 9.83301 14.2412 9.54883 14.1768 9.23828C14.1182 8.99219 14.0771 8.72559 14.0537 8.43848C14.0303 8.15137 14.0186 7.85254 14.0186 7.54199V5.66113C14.0186 5.33301 14.0303 5.01953 14.0537 4.7207C14.083 4.42188 14.127 4.14648 14.1855 3.89453C14.2617 3.56641 14.3672 3.2793 14.502 3.0332C14.6426 2.78711 14.8125 2.58203 15.0117 2.41797C15.1582 2.30664 15.3223 2.22168 15.5039 2.16309C15.6914 2.10449 15.8994 2.0752 16.1279 2.0752C16.3682 2.0752 16.585 2.10742 16.7783 2.17188C16.9775 2.23633 17.1562 2.32715 17.3145 2.44434C17.5137 2.60254 17.6865 2.80762 17.833 3.05957C17.9795 3.30566 18.0967 3.58691 18.1846 3.90332C18.2549 4.15527 18.3047 4.43066 18.334 4.72949C18.3691 5.02246 18.3867 5.33301 18.3867 5.66113ZM31.1396 2.20703V0.203125H22.8604V13H25.3301V2.20703H31.1396ZM39.5068 0.203125L35.877 8.37695V0.203125H33.4072V13H35.877L39.5068 4.83496V13H41.9854V0.203125H39.5068ZM53.2793 8.99219H50.8096C50.7861 9.37891 50.7217 9.70996 50.6162 9.98535C50.5107 10.2607 50.3672 10.4863 50.1855 10.6621C50.0039 10.8379 49.7842 10.9668 49.5264 11.0488C49.2686 11.1309 48.9785 11.1719 48.6562 11.1719C48.416 11.1719 48.1963 11.1455 47.9971 11.0928C47.8037 11.0342 47.6279 10.9463 47.4697 10.8291C47.3232 10.7236 47.1914 10.5918 47.0742 10.4336C46.9629 10.2754 46.8662 10.0938 46.7842 9.88867C46.667 9.58984 46.5791 9.24121 46.5205 8.84277C46.4678 8.43848 46.4414 7.98145 46.4414 7.47168V5.73145C46.4414 5.35645 46.459 5.00781 46.4941 4.68555C46.5293 4.35742 46.585 4.05859 46.6611 3.78906C46.7607 3.44336 46.8926 3.1416 47.0566 2.88379C47.2266 2.62012 47.4316 2.41797 47.6719 2.27734C47.8125 2.19531 47.9648 2.13379 48.1289 2.09277C48.2988 2.05176 48.4805 2.03125 48.6738 2.03125C49.0371 2.03125 49.3477 2.08105 49.6055 2.18066C49.8691 2.27441 50.0889 2.41504 50.2646 2.60254C50.4346 2.7959 50.5635 3.03613 50.6514 3.32324C50.7451 3.61035 50.8037 3.94434 50.8271 4.3252H53.2881C53.2295 3.65723 53.0889 3.05664 52.8662 2.52344C52.6436 1.99023 52.3389 1.53906 51.9521 1.16992C51.5654 0.800781 51.0967 0.516602 50.5459 0.317383C50.001 0.118164 49.377 0.0185547 48.6738 0.0185547C48.1992 0.0185547 47.7539 0.0800781 47.3379 0.203125C46.9277 0.320312 46.5498 0.490234 46.2041 0.712891C45.8174 0.976562 45.4717 1.29883 45.167 1.67969C44.8623 2.06055 44.6162 2.49414 44.4287 2.98047C44.2646 3.37891 44.1416 3.8125 44.0596 4.28125C43.9775 4.74414 43.9365 5.2334 43.9365 5.74902V7.47168C43.9365 8.02246 43.9805 8.54395 44.0684 9.03613C44.1621 9.52832 44.2939 9.97949 44.4639 10.3896C44.6396 10.7998 44.8535 11.1748 45.1055 11.5146C45.3633 11.8545 45.6562 12.1445 45.9844 12.3848C46.3418 12.6426 46.7432 12.8418 47.1885 12.9824C47.6396 13.1172 48.1289 13.1846 48.6562 13.1846C49.3242 13.1846 49.9336 13.0879 50.4844 12.8945C51.0352 12.6953 51.5098 12.4141 51.9082 12.0508C52.3066 11.6875 52.623 11.248 52.8574 10.7324C53.0977 10.2168 53.2383 9.63672 53.2793 8.99219ZM64.6084 2.21582V0.203125H54.29V2.21582H58.1836V13H60.6621V2.21582H64.6084ZM71.9385 0.203125L68.3086 8.37695V0.203125H65.8389V13H68.3086L71.9385 4.83496V13H74.417V0.203125H71.9385ZM85.5088 0.203125H83.0303V6.13574C82.7197 6.21777 82.3945 6.2793 82.0547 6.32031C81.7207 6.35547 81.4395 6.37305 81.2109 6.37305C80.9238 6.37305 80.6748 6.34082 80.4639 6.27637C80.2529 6.20605 80.0771 6.08594 79.9365 5.91602C79.7959 5.75195 79.6904 5.5293 79.6201 5.24805C79.5557 4.9668 79.5234 4.6123 79.5234 4.18457V0.203125H77.0537V4.18457C77.0537 4.91699 77.1504 5.5498 77.3438 6.08301C77.543 6.61035 77.8242 7.04395 78.1875 7.38379C78.5449 7.72363 78.9785 7.97559 79.4883 8.13965C80.0039 8.29785 80.5781 8.37695 81.2109 8.37695C81.4277 8.37695 81.7061 8.35645 82.0459 8.31543C82.3916 8.26855 82.7197 8.2041 83.0303 8.12207V13H85.5088V0.203125ZM95.5107 7.39258V5.44141H90.2549V2.21582H96.3721V0.203125H87.7764V13H96.3984V11.0049H90.2549V7.39258H95.5107ZM107.332 8.99219H104.862C104.839 9.37891 104.774 9.70996 104.669 9.98535C104.563 10.2607 104.42 10.4863 104.238 10.6621C104.057 10.8379 103.837 10.9668 103.579 11.0488C103.321 11.1309 103.031 11.1719 102.709 11.1719C102.469 11.1719 102.249 11.1455 102.05 11.0928C101.856 11.0342 101.681 10.9463 101.522 10.8291C101.376 10.7236 101.244 10.5918 101.127 10.4336C101.016 10.2754 100.919 10.0938 100.837 9.88867C100.72 9.58984 100.632 9.24121 100.573 8.84277C100.521 8.43848 100.494 7.98145 100.494 7.47168V5.73145C100.494 5.35645 100.512 5.00781 100.547 4.68555C100.582 4.35742 100.638 4.05859 100.714 3.78906C100.813 3.44336 100.945 3.1416 101.109 2.88379C101.279 2.62012 101.484 2.41797 101.725 2.27734C101.865 2.19531 102.018 2.13379 102.182 2.09277C102.352 2.05176 102.533 2.03125 102.727 2.03125C103.09 2.03125 103.4 2.08105 103.658 2.18066C103.922 2.27441 104.142 2.41504 104.317 2.60254C104.487 2.7959 104.616 3.03613 104.704 3.32324C104.798 3.61035 104.856 3.94434 104.88 4.3252H107.341C107.282 3.65723 107.142 3.05664 106.919 2.52344C106.696 1.99023 106.392 1.53906 106.005 1.16992C105.618 0.800781 105.149 0.516602 104.599 0.317383C104.054 0.118164 103.43 0.0185547 102.727 0.0185547C102.252 0.0185547 101.807 0.0800781 101.391 0.203125C100.98 0.320312 100.603 0.490234 100.257 0.712891C99.8701 0.976562 99.5244 1.29883 99.2197 1.67969C98.915 2.06055 98.6689 2.49414 98.4814 2.98047C98.3174 3.37891 98.1943 3.8125 98.1123 4.28125C98.0303 4.74414 97.9893 5.2334 97.9893 5.74902V7.47168C97.9893 8.02246 98.0332 8.54395 98.1211 9.03613C98.2148 9.52832 98.3467 9.97949 98.5166 10.3896C98.6924 10.7998 98.9062 11.1748 99.1582 11.5146C99.416 11.8545 99.709 12.1445 100.037 12.3848C100.395 12.6426 100.796 12.8418 101.241 12.9824C101.692 13.1172 102.182 13.1846 102.709 13.1846C103.377 13.1846 103.986 13.0879 104.537 12.8945C105.088 12.6953 105.562 12.4141 105.961 12.0508C106.359 11.6875 106.676 11.248 106.91 10.7324C107.15 10.2168 107.291 9.63672 107.332 8.99219ZM112.931 7.74414L115.998 13H118.863L114.899 6.36426L118.714 0.203125H115.857L112.509 5.83691H111.902V0.203125H109.433V13H111.902V7.74414H112.931ZM126.36 10.3281L127.107 13H129.709L125.596 0.203125H123.354L119.162 13H121.764L122.52 10.3281H126.36ZM123.126 8.22754L124.471 3.5166L125.78 8.22754H123.126ZM136.415 13H138.894V0.203125H134.763C134.042 0.203125 133.392 0.285156 132.812 0.449219C132.231 0.607422 131.739 0.844727 131.335 1.16113C130.925 1.47754 130.611 1.87012 130.395 2.33887C130.178 2.80762 130.069 3.34961 130.069 3.96484C130.069 4.46875 130.146 4.92285 130.298 5.32715C130.456 5.73145 130.685 6.08887 130.983 6.39941C131.142 6.55762 131.317 6.70703 131.511 6.84766C131.71 6.98242 131.924 7.10547 132.152 7.2168L129.384 13H132.029L134.438 7.96387H136.415V13ZM132.539 4.11426C132.539 3.82129 132.58 3.56055 132.662 3.33203C132.744 3.09766 132.87 2.89844 133.04 2.73438C133.222 2.56445 133.456 2.43555 133.743 2.34766C134.03 2.25391 134.37 2.20703 134.763 2.20703H136.415V6.07422H134.763C134.376 6.07422 134.039 6.0332 133.752 5.95117C133.471 5.86328 133.236 5.73438 133.049 5.56445C132.879 5.40039 132.75 5.19824 132.662 4.95801C132.58 4.71777 132.539 4.43652 132.539 4.11426ZM156.173 7.74414L159.24 13H162.105L158.142 6.36426L161.956 0.203125H159.1L155.751 5.83691H155.145V0.203125H152.675V13H155.145V7.74414H156.173ZM172.239 7.54199V5.67871C172.239 5.09863 172.184 4.55078 172.072 4.03516C171.967 3.51953 171.812 3.04492 171.606 2.61133C171.419 2.23047 171.193 1.88184 170.93 1.56543C170.672 1.24902 170.37 0.979492 170.024 0.756836C169.679 0.522461 169.289 0.34375 168.855 0.220703C168.428 0.0917969 167.968 0.0273438 167.476 0.0273438C166.989 0.0273438 166.538 0.0888672 166.122 0.211914C165.706 0.334961 165.331 0.510742 164.997 0.739258C164.657 0.973633 164.355 1.25488 164.092 1.58301C163.834 1.91113 163.614 2.27734 163.433 2.68164C163.245 3.10938 163.102 3.5752 163.002 4.0791C162.908 4.58301 162.861 5.11621 162.861 5.67871V7.54199C162.861 8.06934 162.902 8.57031 162.984 9.04492C163.072 9.51953 163.198 9.95898 163.362 10.3633C163.544 10.8027 163.77 11.1982 164.039 11.5498C164.309 11.8955 164.613 12.1914 164.953 12.4375C165.299 12.6719 165.683 12.8535 166.104 12.9824C166.526 13.1113 166.986 13.1758 167.484 13.1758C167.953 13.1758 168.39 13.1172 168.794 13C169.204 12.8887 169.579 12.7305 169.919 12.5254C170.294 12.291 170.628 11.998 170.921 11.6465C171.214 11.2949 171.46 10.9082 171.659 10.4863C171.847 10.0645 171.99 9.60742 172.09 9.11523C172.189 8.61719 172.239 8.09277 172.239 7.54199ZM169.734 5.66113V7.54199C169.734 7.8584 169.717 8.16309 169.682 8.45605C169.652 8.74902 169.605 9.01855 169.541 9.26465C169.459 9.58105 169.348 9.86523 169.207 10.1172C169.072 10.3633 168.905 10.5684 168.706 10.7324C168.548 10.8672 168.366 10.9697 168.161 11.04C167.956 11.1104 167.73 11.1455 167.484 11.1455C167.227 11.1455 166.995 11.1074 166.79 11.0312C166.591 10.9551 166.412 10.8467 166.254 10.7061C166.084 10.5479 165.935 10.3428 165.806 10.0908C165.683 9.83301 165.589 9.54883 165.524 9.23828C165.466 8.99219 165.425 8.72559 165.401 8.43848C165.378 8.15137 165.366 7.85254 165.366 7.54199V5.66113C165.366 5.33301 165.378 5.01953 165.401 4.7207C165.431 4.42188 165.475 4.14648 165.533 3.89453C165.609 3.56641 165.715 3.2793 165.85 3.0332C165.99 2.78711 166.16 2.58203 166.359 2.41797C166.506 2.30664 166.67 2.22168 166.852 2.16309C167.039 2.10449 167.247 2.0752 167.476 2.0752C167.716 2.0752 167.933 2.10742 168.126 2.17188C168.325 2.23633 168.504 2.32715 168.662 2.44434C168.861 2.60254 169.034 2.80762 169.181 3.05957C169.327 3.30566 169.444 3.58691 169.532 3.90332C169.603 4.15527 169.652 4.43066 169.682 4.72949C169.717 5.02246 169.734 5.33301 169.734 5.66113ZM177.152 0.203125H174.085V13H176.353V9.21191L176.247 3.46387L177.75 8.78125H178.972L180.65 3.22656L180.545 9.21191V13H182.812V0.203125H179.745L178.365 5.01074L177.152 0.203125ZM193.403 13V0.203125H184.843V13H187.312V2.20703H190.934V13H193.403ZM202.034 10.3281L202.781 13H205.383L201.27 0.203125H199.028L194.836 13H197.438L198.193 10.3281H202.034ZM198.8 8.22754L200.145 3.5166L201.454 8.22754H198.8ZM214.998 13V0.203125H212.555V5.4502H208.934V0.203125H206.481V13H208.934V7.4541H212.555V13H214.998ZM223.286 0.203125L219.656 8.37695V0.203125H217.187V13H219.656L223.286 4.83496V13H225.765V0.203125H223.286ZM233.71 13H236.188V0.203125H232.058C231.337 0.203125 230.687 0.285156 230.106 0.449219C229.526 0.607422 229.034 0.844727 228.63 1.16113C228.22 1.47754 227.906 1.87012 227.689 2.33887C227.473 2.80762 227.364 3.34961 227.364 3.96484C227.364 4.46875 227.44 4.92285 227.593 5.32715C227.751 5.73145 227.979 6.08887 228.278 6.39941C228.437 6.55762 228.612 6.70703 228.806 6.84766C229.005 6.98242 229.219 7.10547 229.447 7.2168L226.679 13H229.324L231.732 7.96387H233.71V13ZM229.834 4.11426C229.834 3.82129 229.875 3.56055 229.957 3.33203C230.039 3.09766 230.165 2.89844 230.335 2.73438C230.517 2.56445 230.751 2.43555 231.038 2.34766C231.325 2.25391 231.665 2.20703 232.058 2.20703H233.71V6.07422H232.058C231.671 6.07422 231.334 6.0332 231.047 5.95117C230.766 5.86328 230.531 5.73438 230.344 5.56445C230.174 5.40039 230.045 5.19824 229.957 4.95801C229.875 4.71777 229.834 4.43652 229.834 4.11426Z" fill="black"/>
</svg>
