<svg width="18" height="18" viewBox="0 0 18 18" fill="none" xmlns="http://www.w3.org/2000/svg">
<path d="M10.0894 0C5.83982 0 2.39444 3.44478 2.39444 7.69437C2.39444 9.2043 2.82923 10.6128 3.58068 11.8012C3.57516 11.8036 3.56975 11.8058 3.56421 11.8083L0.216064 15.1559L3.06021 18L6.52895 14.5307C6.52792 14.5258 6.52652 14.5209 6.52544 14.516C7.59096 15.0738 8.80341 15.3894 10.0894 15.3894C14.3391 15.3894 17.7838 11.944 17.7838 7.6944C17.7838 3.44478 14.339 0 10.0894 0ZM10.0894 3.41815C12.451 3.41815 14.365 5.33274 14.365 7.69437C14.365 10.056 12.451 11.9706 10.0894 11.9706C7.72779 11.9706 5.81319 10.056 5.81319 7.69437C5.81319 5.33274 7.72778 3.41815 10.0894 3.41815Z" fill="white"/>
</svg>
