<svg width="191" height="190" viewBox="0 0 191 190" fill="none" xmlns="http://www.w3.org/2000/svg">
<rect width="191" height="190" fill="#E5E5E5"/>
<rect width="1440" height="2917" transform="translate(-262 -1212)" fill="white"/>
<path d="M39.4419 124.155C39.8314 124.382 39.8314 124.754 39.4419 124.981C39.0524 125.208 38.4031 125.208 38.0136 124.981C37.6241 124.754 37.6241 124.382 38.0136 124.155C38.4031 123.929 39.0524 123.929 39.4419 124.155Z" fill="#16110D"/>
<path d="M42.4608 123.006C43.0166 123.006 43.4671 122.745 43.4671 122.423C43.4671 122.101 43.0166 121.84 42.4608 121.84C41.905 121.84 41.4545 122.101 41.4545 122.423C41.4545 122.745 41.905 123.006 42.4608 123.006Z" fill="#16110D"/>
<path d="M46.1776 120.852C46.7334 120.852 47.1839 120.591 47.1839 120.269C47.1839 119.947 46.7334 119.686 46.1776 119.686C45.6218 119.686 45.1713 119.947 45.1713 120.269C45.1713 120.591 45.6218 120.852 46.1776 120.852Z" fill="#16110D"/>
<path d="M50.6249 117.711C51.0144 117.937 51.0144 118.31 50.6249 118.537C50.2353 118.763 49.5861 118.763 49.1966 118.537C48.807 118.31 48.807 117.937 49.1966 117.711C49.5861 117.484 50.2191 117.484 50.6249 117.711Z" fill="#16110D"/>
<path d="M54.3418 115.573C54.7313 115.8 54.7313 116.173 54.3418 116.399C53.9523 116.626 53.303 116.626 52.9135 116.399C52.524 116.173 52.524 115.8 52.9135 115.573C53.3193 115.347 53.9523 115.347 54.3418 115.573Z" fill="#16110D"/>
<path d="M57.3607 114.408C57.9165 114.408 58.367 114.147 58.367 113.825C58.367 113.503 57.9165 113.242 57.3607 113.242C56.8049 113.242 56.3544 113.503 56.3544 113.825C56.3544 114.147 56.8049 114.408 57.3607 114.408Z" fill="#16110D"/>
<path d="M61.0776 112.27C61.6334 112.27 62.0839 112.009 62.0839 111.687C62.0839 111.365 61.6334 111.104 61.0776 111.104C60.5218 111.104 60.0713 111.365 60.0713 111.687C60.0713 112.009 60.5218 112.27 61.0776 112.27Z" fill="#16110D"/>
<path d="M65.5248 109.129C65.9143 109.356 65.9143 109.728 65.5248 109.955C65.1353 110.181 64.486 110.181 64.0965 109.955C63.7069 109.728 63.7069 109.356 64.0965 109.129C64.486 108.902 65.1353 108.902 65.5248 109.129Z" fill="#16110D"/>
<path d="M69.2417 106.975C69.6312 107.202 69.6312 107.575 69.2417 107.801C68.8522 108.028 68.2029 108.028 67.8134 107.801C67.4239 107.575 67.4239 107.202 67.8134 106.975C68.2192 106.749 68.8522 106.749 69.2417 106.975Z" fill="#16110D"/>
<path d="M72.2606 105.826C72.8164 105.826 73.2669 105.565 73.2669 105.243C73.2669 104.921 72.8164 104.66 72.2606 104.66C71.7048 104.66 71.2543 104.921 71.2543 105.243C71.2543 105.565 71.7048 105.826 72.2606 105.826Z" fill="#16110D"/>
<path d="M76.7078 102.685C77.0973 102.911 77.0973 103.284 76.7078 103.51C76.3182 103.737 75.669 103.737 75.2795 103.51C74.8899 103.284 74.8899 102.911 75.2795 102.685C75.669 102.458 76.302 102.458 76.7078 102.685Z" fill="#16110D"/>
<path d="M80.4247 100.547C80.8142 100.774 80.8142 101.146 80.4247 101.373C80.0352 101.6 79.3859 101.6 78.9964 101.373C78.6068 101.146 78.6068 100.774 78.9964 100.547C79.4021 100.32 80.0352 100.32 80.4247 100.547Z" fill="#16110D"/>
<path d="M84.1578 98.3936C84.5474 98.6203 84.5474 98.9928 84.1578 99.2194C83.7683 99.4461 83.1191 99.4461 82.7295 99.2194C82.34 98.9928 82.34 98.6203 82.7295 98.3936C83.1191 98.167 83.7521 98.167 84.1578 98.3936Z" fill="#16110D"/>
<path d="M35.7088 122.002C36.0983 122.228 36.0983 122.601 35.7088 122.827C35.3192 123.054 34.67 123.054 34.2804 122.827C33.8909 122.601 33.8909 122.228 34.2804 122.002C34.6862 121.775 35.3192 121.775 35.7088 122.002Z" fill="#16110D"/>
<path d="M38.7276 120.852C39.2834 120.852 39.7339 120.591 39.7339 120.269C39.7339 119.947 39.2834 119.686 38.7276 119.686C38.1719 119.686 37.7213 119.947 37.7213 120.269C37.7213 120.591 38.1719 120.852 38.7276 120.852Z" fill="#16110D"/>
<path d="M43.1749 117.711C43.5645 117.937 43.5645 118.31 43.1749 118.537C42.7854 118.763 42.1362 118.763 41.7466 118.537C41.3571 118.31 41.3571 117.937 41.7466 117.711C42.1362 117.484 42.7692 117.484 43.1749 117.711Z" fill="#16110D"/>
<path d="M46.1776 116.561C46.7334 116.561 47.1839 116.3 47.1839 115.978C47.1839 115.656 46.7334 115.395 46.1776 115.395C45.6218 115.395 45.1713 115.656 45.1713 115.978C45.1713 116.3 45.6218 116.561 46.1776 116.561Z" fill="#16110D"/>
<path d="M49.9107 114.408C50.4665 114.408 50.917 114.147 50.917 113.825C50.917 113.503 50.4665 113.242 49.9107 113.242C49.355 113.242 48.9044 113.503 48.9044 113.825C48.9044 114.147 49.355 114.408 49.9107 114.408Z" fill="#16110D"/>
<path d="M54.3418 111.266C54.7313 111.493 54.7313 111.865 54.3418 112.092C53.9523 112.319 53.303 112.319 52.9135 112.092C52.524 111.865 52.524 111.493 52.9135 111.266C53.3193 111.04 53.9523 111.04 54.3418 111.266Z" fill="#16110D"/>
<path d="M58.0748 109.129C58.4644 109.356 58.4644 109.728 58.0748 109.955C57.6853 110.181 57.0361 110.181 56.6465 109.955C56.257 109.728 56.257 109.356 56.6465 109.129C57.0361 108.902 57.6853 108.902 58.0748 109.129Z" fill="#16110D"/>
<path d="M61.7918 106.975C62.1813 107.202 62.1813 107.575 61.7918 107.801C61.4022 108.028 60.753 108.028 60.3634 107.801C59.9739 107.575 59.9739 107.202 60.3634 106.975C60.7692 106.749 61.4022 106.749 61.7918 106.975Z" fill="#16110D"/>
<path d="M65.5248 104.838C65.9143 105.065 65.9143 105.437 65.5248 105.664C65.1353 105.891 64.486 105.891 64.0965 105.664C63.7069 105.437 63.7069 105.065 64.0965 104.838C64.486 104.611 65.1353 104.611 65.5248 104.838Z" fill="#16110D"/>
<path d="M69.2417 102.685C69.6312 102.911 69.6312 103.284 69.2417 103.51C68.8522 103.737 68.2029 103.737 67.8134 103.51C67.4239 103.284 67.4239 102.911 67.8134 102.685C68.2192 102.458 68.8522 102.458 69.2417 102.685Z" fill="#16110D"/>
<path d="M72.9747 100.547C73.3643 100.774 73.3643 101.146 72.9747 101.373C72.5852 101.6 71.936 101.6 71.5464 101.373C71.1569 101.146 71.1569 100.774 71.5464 100.547C71.936 100.32 72.5852 100.32 72.9747 100.547Z" fill="#16110D"/>
<path d="M76.7078 98.3936C77.0973 98.6203 77.0973 98.9928 76.7078 99.2194C76.3182 99.4461 75.669 99.4461 75.2795 99.2194C74.8899 98.9928 74.8899 98.6203 75.2795 98.3936C75.669 98.167 76.302 98.167 76.7078 98.3936Z" fill="#16110D"/>
<path d="M80.4247 96.2563C80.8142 96.4829 80.8142 96.8554 80.4247 97.0821C80.0352 97.3087 79.3859 97.3087 78.9964 97.0821C78.6068 96.8554 78.6068 96.4829 78.9964 96.2563C79.4021 96.0296 80.0352 96.0296 80.4247 96.2563Z" fill="#16110D"/>
<path d="M31.992 119.864C32.3815 120.091 32.3815 120.463 31.992 120.69C31.6024 120.917 30.9532 120.917 30.5636 120.69C30.1741 120.463 30.1741 120.091 30.5636 119.864C30.9532 119.638 31.6024 119.638 31.992 119.864Z" fill="#16110D"/>
<path d="M35.7088 117.711C36.0983 117.937 36.0983 118.31 35.7088 118.537C35.3192 118.763 34.67 118.763 34.2804 118.537C33.8909 118.31 33.8909 117.937 34.2804 117.711C34.6862 117.484 35.3192 117.484 35.7088 117.711Z" fill="#16110D"/>
<path d="M28.2588 117.711C28.6483 117.937 28.6483 118.31 28.2588 118.537C27.8693 118.763 27.22 118.763 26.8305 118.537C26.4409 118.31 26.4409 117.937 26.8305 117.711C27.2363 117.484 27.8693 117.484 28.2588 117.711Z" fill="#16110D"/>
<path d="M31.2778 116.561C31.8336 116.561 32.2841 116.3 32.2841 115.978C32.2841 115.656 31.8336 115.395 31.2778 115.395C30.722 115.395 30.2715 115.656 30.2715 115.978C30.2715 116.3 30.722 116.561 31.2778 116.561Z" fill="#16110D"/>
<path d="M23.8277 116.561C24.3835 116.561 24.834 116.3 24.834 115.978C24.834 115.656 24.3835 115.395 23.8277 115.395C23.272 115.395 22.8214 115.656 22.8214 115.978C22.8214 116.3 23.272 116.561 23.8277 116.561Z" fill="#16110D"/>
<path d="M28.2588 113.42C28.6483 113.647 28.6483 114.019 28.2588 114.246C27.8693 114.472 27.22 114.472 26.8305 114.246C26.4409 114.019 26.4409 113.647 26.8305 113.42C27.2363 113.193 27.8693 113.193 28.2588 113.42Z" fill="#16110D"/>
<path d="M20.7764 113.404C21.1659 113.63 21.1659 114.003 20.7764 114.229C20.3868 114.456 19.7376 114.456 19.3481 114.229C18.9585 114.003 18.9585 113.63 19.3481 113.404C19.7538 113.177 20.3868 113.177 20.7764 113.404Z" fill="#16110D"/>
<path d="M24.5095 111.25C24.8991 111.477 24.8991 111.849 24.5095 112.076C24.12 112.303 23.4708 112.303 23.0812 112.076C22.6917 111.849 22.6917 111.477 23.0812 111.25C23.4708 111.023 24.12 111.023 24.5095 111.25Z" fill="#16110D"/>
<path d="M20.7764 109.113C21.1659 109.339 21.1659 109.712 20.7764 109.939C20.3868 110.149 19.7538 110.149 19.3481 109.922C18.9585 109.696 18.9585 109.323 19.3481 109.097C19.7538 108.886 20.3868 108.886 20.7764 109.113Z" fill="#16110D"/>
<path d="M87.8909 96.2724C88.2804 96.4991 88.2804 96.8715 87.8909 97.0982C87.5013 97.3249 86.8521 97.3249 86.4626 97.0982C86.073 96.8715 86.073 96.4991 86.4626 96.2724C86.8521 96.0457 87.5013 96.0457 87.8909 96.2724Z" fill="#16110D"/>
<path d="M90.9099 95.1229C91.4656 95.1229 91.9162 94.8619 91.9162 94.5399C91.9162 94.218 91.4656 93.957 90.9099 93.957C90.3541 93.957 89.9036 94.218 89.9036 94.5399C89.9036 94.8619 90.3541 95.1229 90.9099 95.1229Z" fill="#16110D"/>
<path d="M82.7295 94.1351C83.1191 93.9084 83.7683 93.9084 84.1578 94.1351C84.5474 94.3618 84.5474 94.7342 84.1578 94.9609C83.7683 95.1876 83.1191 95.1876 82.7295 94.9609C82.34 94.7342 82.34 94.3618 82.7295 94.1351Z" fill="#16110D"/>
<path d="M87.8909 91.9815C88.2804 92.2082 88.2804 92.5806 87.8909 92.8073C87.5013 93.034 86.8521 93.034 86.4626 92.8073C86.073 92.5806 86.073 92.2082 86.4626 91.9815C86.8521 91.7549 87.5013 91.7549 87.8909 91.9815Z" fill="#16110D"/>
<path d="M91.624 89.8442C92.0136 90.0709 92.0136 90.4433 91.624 90.67C91.2345 90.8967 90.5853 90.8967 90.1957 90.67C89.8062 90.4433 89.8062 90.0709 90.1957 89.8442C90.5853 89.6175 91.2183 89.6175 91.624 89.8442Z" fill="#16110D"/>
<path d="M47.0703 124.317C47.4599 124.544 47.4599 124.916 47.0703 125.143C46.6808 125.37 46.0315 125.37 45.642 125.143C45.2525 124.916 45.2525 124.544 45.642 124.317C46.0315 124.09 46.6646 124.09 47.0703 124.317Z" fill="#16110D"/>
<path d="M50.7872 122.164C51.1768 122.39 51.1768 122.763 50.7872 122.989C50.3977 123.216 49.7485 123.216 49.3589 122.989C48.9694 122.763 48.9694 122.39 49.3589 122.164C49.7485 121.937 50.3977 121.937 50.7872 122.164Z" fill="#16110D"/>
<path d="M54.5203 120.01C54.9098 120.237 54.9098 120.609 54.5203 120.836C54.1307 121.063 53.4815 121.063 53.092 120.836C52.7024 120.609 52.7024 120.237 53.092 120.01C53.4815 119.783 54.1307 119.783 54.5203 120.01Z" fill="#16110D"/>
<path d="M57.5229 118.86C58.0787 118.86 58.5292 118.599 58.5292 118.277C58.5292 117.956 58.0787 117.695 57.5229 117.695C56.9671 117.695 56.5166 117.956 56.5166 118.277C56.5166 118.599 56.9671 118.86 57.5229 118.86Z" fill="#16110D"/>
<path d="M61.9702 115.719C62.3598 115.946 62.3598 116.318 61.9702 116.545C61.5807 116.772 60.9315 116.772 60.5419 116.545C60.1524 116.318 60.1524 115.946 60.5419 115.719C60.9315 115.492 61.5807 115.492 61.9702 115.719Z" fill="#16110D"/>
<path d="M65.7034 113.582C66.0929 113.808 66.0929 114.181 65.7034 114.408C65.3138 114.634 64.6646 114.634 64.2751 114.408C63.8855 114.181 63.8855 113.808 64.2751 113.582C64.6646 113.355 65.2976 113.355 65.7034 113.582Z" fill="#16110D"/>
<path d="M69.4202 111.428C69.8097 111.655 69.8097 112.027 69.4202 112.254C69.0306 112.481 68.3814 112.481 67.9919 112.254C67.6023 112.027 67.6023 111.655 67.9919 111.428C68.3976 111.202 69.0306 111.202 69.4202 111.428Z" fill="#16110D"/>
<path d="M73.1533 109.291C73.5429 109.518 73.5429 109.89 73.1533 110.117C72.7638 110.343 72.1146 110.343 71.725 110.117C71.3355 109.89 71.3355 109.518 71.725 109.291C72.1146 109.064 72.7476 109.064 73.1533 109.291Z" fill="#16110D"/>
<path d="M76.8702 107.137C77.2598 107.364 77.2598 107.736 76.8702 107.963C76.4807 108.19 75.8315 108.19 75.4419 107.963C75.0524 107.736 75.0524 107.364 75.4419 107.137C75.8477 106.911 76.4807 106.911 76.8702 107.137Z" fill="#16110D"/>
<path d="M80.6033 105C80.9928 105.227 80.9928 105.599 80.6033 105.826C80.2137 106.052 79.5645 106.052 79.175 105.826C78.7854 105.599 78.7854 105.227 79.175 105C79.5645 104.773 80.2137 104.773 80.6033 105Z" fill="#16110D"/>
<path d="M84.3201 102.846C84.7096 103.073 84.7096 103.446 84.3201 103.672C83.9305 103.899 83.2813 103.899 82.8918 103.672C82.5022 103.446 82.5022 103.073 82.8918 102.846C83.2975 102.62 83.9305 102.62 84.3201 102.846Z" fill="#16110D"/>
<path d="M88.0532 100.709C88.4428 100.936 88.4428 101.308 88.0532 101.535C87.6637 101.762 87.0145 101.762 86.6249 101.535C86.2354 101.308 86.2354 100.936 86.6249 100.709C87.0145 100.482 87.6637 100.482 88.0532 100.709Z" fill="#16110D"/>
<path d="M90.358 98.5879C90.7475 98.3612 91.3967 98.3612 91.7863 98.5879C92.1758 98.8146 92.1758 99.187 91.7863 99.4137C91.3967 99.6404 90.7475 99.6404 90.358 99.4137C89.9684 99.187 89.9684 98.8146 90.358 98.5879Z" fill="#16110D"/>
<path d="M95.3571 91.9815C95.7466 92.2082 95.7466 92.5806 95.3571 92.8073C94.9675 93.034 94.3183 93.034 93.9288 92.8073C93.5392 92.5806 93.5392 92.2082 93.9288 91.9815C94.3183 91.7549 94.9675 91.7549 95.3571 91.9815Z" fill="#16110D"/>
<path d="M95.5194 96.4182C95.909 96.6449 95.909 97.0173 95.5194 97.244C95.1299 97.4707 94.4806 97.4707 94.0911 97.244C93.7016 97.0173 93.7016 96.6449 94.0911 96.4182C94.4806 96.1915 95.1137 96.1915 95.5194 96.4182Z" fill="#16110D"/>
<path d="M90.0334 86.6544V59.5488L38.1921 89.3099V116.739L90.0334 86.6544Z" fill="#ECC550"/>
<path d="M90.0335 58.7554L70.7512 47.5829L18.9586 77.3277L38.1922 88.3221L90.0335 58.7554Z" fill="#ECC550"/>
<path d="M37.9163 88.5003L38.1922 90.8967L90.0335 61.411V58.885L37.9163 88.5003Z" fill="#ECC550"/>
<path d="M88.102 59.9375L70.7512 49.8984L18.9586 79.6594L36.2607 89.5042L88.102 59.9375Z" fill="#FFEECC"/>
<path d="M70.7512 47L90.5366 58.4478V86.9296L38.1921 117.322L18.4554 105.891V77.0363L70.7512 47ZM89.579 62.1558L85.8296 64.2931V88.5003L89.514 86.3629L89.579 62.1558ZM47.3301 86.1848L43.3373 88.4679V113.177L47.3626 110.845H47.3301V86.1848ZM48.0605 110.424L52.0533 108.109V83.4969L48.0605 85.78V110.424ZM52.7837 83.1407V107.672L56.7765 105.356V80.809L52.6701 83.1407H52.7837ZM57.5231 104.935L61.5159 102.62V78.1212L57.5231 80.4042V104.935ZM62.2462 102.199L66.239 99.8833V75.4333L62.2462 77.7164V102.199ZM66.9694 99.4461L70.9135 97.1468V72.7778L66.9694 75.0285V99.4461ZM71.6439 96.742L75.6367 94.4266V70.0899L71.6439 72.373V96.742ZM76.3671 93.9894L80.3599 91.6739V67.402L76.3671 69.6689V93.9894ZM81.1065 91.2529L85.0993 88.9375V64.7141L81.1065 66.9972V91.2529ZM38.6953 115.865L42.6069 113.598V88.8727L38.6953 91.091V115.865ZM38.6953 88.9051V89.0184V90.1033L89.579 61.1519V59.4679L38.6953 88.6136V88.9051V88.9051ZM38.1921 87.7393L89.0109 58.7554L70.7512 48.1658L19.9811 77.3277L38.1921 87.7393Z" fill="#16110D"/>
<path d="M18.4554 79.4651V78.5421L38.6304 90.1356V91.0748L28.4536 85.2133V111.687L27.7233 111.266V84.7923L18.4554 79.4651Z" fill="#ECC550"/>
<path d="M32.414 104.207C32.625 104.207 32.836 104.142 33.0308 104.045L33.3229 103.867C33.469 103.786 33.5177 103.591 33.4365 103.446C33.3554 103.3 33.1606 103.251 33.0145 103.332L32.7224 103.51C32.5276 103.624 32.3004 103.624 32.1056 103.51L30.1417 102.442L30.4663 102.247C30.6124 102.15 30.6611 101.972 30.5799 101.826C30.4987 101.681 30.304 101.632 30.1417 101.713L29.8333 101.891C29.6385 102.004 29.5087 102.215 29.5087 102.442C29.5087 102.668 29.6385 102.879 29.8333 102.992L31.7972 104.061C31.9758 104.158 32.1868 104.207 32.414 104.207Z" fill="#ECC550"/>
<path d="M25.5483 100.385C25.7593 100.385 25.9703 100.32 26.165 100.223L26.4572 100.045C26.6033 99.9642 26.652 99.7699 26.5708 99.6242C26.4897 99.4785 26.2949 99.4299 26.1488 99.5109L25.8567 99.689C25.6619 99.8023 25.4346 99.8023 25.2399 99.689L23.2759 98.6203L23.6006 98.426C23.7466 98.3288 23.7953 98.1507 23.7142 98.005C23.633 97.8593 23.4383 97.8107 23.2759 97.8917L22.9676 98.0698C22.7728 98.1831 22.6429 98.3936 22.6429 98.6203C22.6429 98.847 22.7728 99.0575 22.9676 99.1708L24.9315 100.24C25.11 100.337 25.321 100.385 25.5483 100.385Z" fill="#ECC550"/>
<path d="M119.265 189.701C119.821 189.701 120.271 189.44 120.271 189.118C120.271 188.796 119.821 188.535 119.265 188.535C118.709 188.535 118.259 188.796 118.259 189.118C118.259 189.44 118.709 189.701 119.265 189.701Z" fill="#16110D"/>
<path d="M123.696 186.559C124.086 186.786 124.086 187.159 123.696 187.385C123.307 187.612 122.657 187.612 122.268 187.385C121.878 187.159 121.878 186.786 122.268 186.559C122.657 186.333 123.307 186.333 123.696 186.559Z" fill="#16110D"/>
<path d="M127.429 184.422C127.819 184.649 127.819 185.021 127.429 185.248C127.04 185.475 126.39 185.475 126.001 185.248C125.611 185.021 125.611 184.649 126.001 184.422C126.39 184.195 127.023 184.195 127.429 184.422Z" fill="#16110D"/>
<path d="M131.146 182.269C131.536 182.495 131.536 182.868 131.146 183.094C130.757 183.321 130.107 183.321 129.718 183.094C129.328 182.868 129.328 182.495 129.718 182.269C130.124 182.042 130.757 182.042 131.146 182.269Z" fill="#16110D"/>
<path d="M134.165 181.119C134.721 181.119 135.171 180.858 135.171 180.536C135.171 180.214 134.721 179.953 134.165 179.953C133.609 179.953 133.159 180.214 133.159 180.536C133.159 180.858 133.609 181.119 134.165 181.119Z" fill="#16110D"/>
<path d="M137.882 178.982C138.438 178.982 138.888 178.721 138.888 178.399C138.888 178.077 138.438 177.816 137.882 177.816C137.326 177.816 136.876 178.077 136.876 178.399C136.876 178.721 137.326 178.982 137.882 178.982Z" fill="#16110D"/>
<path d="M141.615 176.828C142.171 176.828 142.621 176.567 142.621 176.245C142.621 175.923 142.171 175.662 141.615 175.662C141.059 175.662 140.609 175.923 140.609 176.245C140.609 176.567 141.059 176.828 141.615 176.828Z" fill="#16110D"/>
<path d="M145.332 174.691C145.888 174.691 146.338 174.43 146.338 174.108C146.338 173.786 145.888 173.525 145.332 173.525C144.776 173.525 144.325 173.786 144.325 174.108C144.325 174.43 144.776 174.691 145.332 174.691Z" fill="#16110D"/>
<path d="M149.779 171.549C150.169 171.776 150.169 172.149 149.779 172.375C149.39 172.602 148.74 172.602 148.351 172.375C147.961 172.149 147.961 171.776 148.351 171.549C148.74 171.323 149.39 171.323 149.779 171.549Z" fill="#16110D"/>
<path d="M153.496 169.396C153.885 169.623 153.885 169.995 153.496 170.222C153.106 170.448 152.457 170.448 152.068 170.222C151.678 169.995 151.678 169.623 152.068 169.396C152.473 169.169 153.106 169.169 153.496 169.396Z" fill="#16110D"/>
<path d="M157.229 167.259C157.619 167.485 157.619 167.858 157.229 168.084C156.839 168.311 156.19 168.311 155.801 168.084C155.411 167.858 155.411 167.485 155.801 167.259C156.19 167.032 156.839 167.032 157.229 167.259Z" fill="#16110D"/>
<path d="M160.962 165.105C161.352 165.332 161.352 165.704 160.962 165.931C160.573 166.157 159.923 166.157 159.534 165.931C159.144 165.704 159.144 165.332 159.534 165.105C159.923 164.878 160.556 164.878 160.962 165.105Z" fill="#16110D"/>
<path d="M111.799 189.701C112.355 189.701 112.805 189.44 112.805 189.118C112.805 188.796 112.355 188.535 111.799 188.535C111.243 188.535 110.793 188.796 110.793 189.118C110.793 189.44 111.243 189.701 111.799 189.701Z" fill="#16110D"/>
<path d="M116.246 186.559C116.636 186.786 116.636 187.159 116.246 187.385C115.857 187.612 115.207 187.612 114.818 187.385C114.428 187.159 114.428 186.786 114.818 186.559C115.207 186.333 115.857 186.333 116.246 186.559Z" fill="#16110D"/>
<path d="M119.265 185.41C119.821 185.41 120.271 185.149 120.271 184.827C120.271 184.505 119.821 184.244 119.265 184.244C118.709 184.244 118.259 184.505 118.259 184.827C118.259 185.149 118.709 185.41 119.265 185.41Z" fill="#16110D"/>
<path d="M122.982 183.273C123.538 183.273 123.988 183.012 123.988 182.69C123.988 182.368 123.538 182.107 122.982 182.107C122.426 182.107 121.976 182.368 121.976 182.69C121.976 183.012 122.426 183.273 122.982 183.273Z" fill="#16110D"/>
<path d="M126.715 181.119C127.271 181.119 127.721 180.858 127.721 180.536C127.721 180.214 127.271 179.953 126.715 179.953C126.159 179.953 125.709 180.214 125.709 180.536C125.709 180.858 126.159 181.119 126.715 181.119Z" fill="#16110D"/>
<path d="M131.146 177.978C131.536 178.204 131.536 178.577 131.146 178.803C130.757 179.03 130.107 179.03 129.718 178.803C129.328 178.577 129.328 178.204 129.718 177.978C130.124 177.751 130.757 177.751 131.146 177.978Z" fill="#16110D"/>
<path d="M134.879 175.84C135.269 176.067 135.269 176.439 134.879 176.666C134.49 176.893 133.84 176.893 133.451 176.666C133.061 176.439 133.061 176.067 133.451 175.84C133.84 175.614 134.473 175.614 134.879 175.84Z" fill="#16110D"/>
<path d="M138.596 173.687C138.986 173.913 138.986 174.286 138.596 174.513C138.207 174.739 137.557 174.739 137.168 174.513C136.778 174.286 136.778 173.913 137.168 173.687C137.574 173.46 138.207 173.46 138.596 173.687Z" fill="#16110D"/>
<path d="M142.329 171.549C142.719 171.776 142.719 172.149 142.329 172.375C141.94 172.602 141.29 172.602 140.901 172.375C140.511 172.149 140.511 171.776 140.901 171.549C141.29 171.323 141.94 171.323 142.329 171.549Z" fill="#16110D"/>
<path d="M146.046 169.396C146.435 169.623 146.435 169.995 146.046 170.222C145.656 170.448 145.007 170.448 144.618 170.222C144.228 169.995 144.228 169.623 144.618 169.396C145.023 169.169 145.656 169.169 146.046 169.396Z" fill="#16110D"/>
<path d="M149.779 167.259C150.169 167.485 150.169 167.858 149.779 168.084C149.39 168.311 148.74 168.311 148.351 168.084C147.961 167.858 147.961 167.485 148.351 167.259C148.74 167.032 149.39 167.032 149.779 167.259Z" fill="#16110D"/>
<path d="M153.496 165.105C153.885 165.332 153.885 165.704 153.496 165.931C153.106 166.157 152.457 166.157 152.068 165.931C151.678 165.704 151.678 165.332 152.068 165.105C152.473 164.878 153.106 164.878 153.496 165.105Z" fill="#16110D"/>
<path d="M157.229 162.951C157.619 163.178 157.619 163.551 157.229 163.777C156.839 164.004 156.19 164.004 155.801 163.777C155.411 163.551 155.411 163.178 155.801 162.951C156.19 162.725 156.839 162.725 157.229 162.951Z" fill="#16110D"/>
<path d="M108.796 186.559C109.186 186.786 109.186 187.159 108.796 187.385C108.407 187.612 107.757 187.612 107.368 187.385C106.978 187.159 106.978 186.786 107.368 186.559C107.757 186.333 108.391 186.333 108.796 186.559Z" fill="#16110D"/>
<path d="M111.799 185.41C112.355 185.41 112.805 185.149 112.805 184.827C112.805 184.505 112.355 184.244 111.799 184.244C111.243 184.244 110.793 184.505 110.793 184.827C110.793 185.149 111.243 185.41 111.799 185.41Z" fill="#16110D"/>
<path d="M105.063 184.422C105.453 184.649 105.453 185.021 105.063 185.248C104.674 185.475 104.024 185.475 103.635 185.248C103.245 185.021 103.245 184.649 103.635 184.422C104.041 184.195 104.674 184.195 105.063 184.422Z" fill="#16110D"/>
<path d="M108.796 182.269C109.186 182.495 109.186 182.868 108.796 183.094C108.407 183.321 107.757 183.321 107.368 183.094C106.978 182.868 106.978 182.495 107.368 182.269C107.757 182.042 108.391 182.042 108.796 182.269Z" fill="#16110D"/>
<path d="M101.346 182.269C101.736 182.495 101.736 182.868 101.346 183.094C100.957 183.321 100.307 183.321 99.9179 183.094C99.5283 182.868 99.5283 182.495 99.9179 182.269C100.307 182.042 100.94 182.042 101.346 182.269Z" fill="#16110D"/>
<path d="M105.063 180.131C105.453 180.358 105.453 180.73 105.063 180.957C104.674 181.184 104.024 181.184 103.635 180.957C103.245 180.73 103.245 180.358 103.635 180.131C104.041 179.905 104.674 179.905 105.063 180.131Z" fill="#16110D"/>
<path d="M97.5807 180.099C97.9702 180.325 97.9702 180.698 97.5807 180.925C97.1912 181.151 96.5419 181.151 96.1524 180.925C95.7628 180.698 95.7628 180.325 96.1524 180.099C96.5582 179.872 97.1912 179.872 97.5807 180.099Z" fill="#16110D"/>
<path d="M101.314 177.961C101.703 178.188 101.703 178.561 101.314 178.787C100.924 179.014 100.275 179.014 99.8855 178.787C99.496 178.561 99.496 178.188 99.8855 177.961C100.275 177.735 100.908 177.735 101.314 177.961Z" fill="#16110D"/>
<path d="M97.5807 175.808C97.9702 176.035 97.9702 176.407 97.5807 176.634C97.1912 176.86 96.5419 176.86 96.1524 176.634C95.7628 176.407 95.7628 176.035 96.1524 175.808C96.5582 175.581 97.1912 175.581 97.5807 175.808Z" fill="#16110D"/>
<path d="M164.695 162.984C165.085 163.21 165.085 163.583 164.695 163.81C164.306 164.036 163.656 164.036 163.267 163.81C162.877 163.583 162.877 163.21 163.267 162.984C163.656 162.757 164.306 162.757 164.695 162.984Z" fill="#16110D"/>
<path d="M168.412 160.846C168.802 161.073 168.802 161.446 168.412 161.672C168.023 161.899 167.373 161.899 166.984 161.672C166.594 161.446 166.594 161.073 166.984 160.846C167.373 160.62 168.023 160.62 168.412 160.846Z" fill="#16110D"/>
<path d="M159.534 160.846C159.923 160.62 160.573 160.62 160.962 160.846C161.352 161.073 161.352 161.446 160.962 161.672C160.573 161.899 159.923 161.899 159.534 161.672C159.144 161.446 159.144 161.073 159.534 160.846Z" fill="#16110D"/>
<path d="M163.981 159.681C164.537 159.681 164.987 159.42 164.987 159.098C164.987 158.776 164.537 158.515 163.981 158.515C163.425 158.515 162.975 158.776 162.975 159.098C162.975 159.42 163.425 159.681 163.981 159.681Z" fill="#16110D"/>
<path d="M168.412 156.556C168.802 156.782 168.802 157.155 168.412 157.381C168.023 157.608 167.373 157.608 166.984 157.381C166.594 157.155 166.594 156.782 166.984 156.556C167.39 156.329 168.023 156.329 168.412 156.556Z" fill="#16110D"/>
<path d="M127.592 188.875C127.981 189.102 127.981 189.474 127.592 189.701C127.202 189.927 126.553 189.927 126.163 189.701C125.774 189.474 125.774 189.102 126.163 188.875C126.569 188.648 127.202 188.648 127.592 188.875Z" fill="#16110D"/>
<path d="M131.325 186.721C131.714 186.948 131.714 187.321 131.325 187.547C130.935 187.774 130.286 187.774 129.896 187.547C129.507 187.321 129.507 186.948 129.896 186.721C130.286 186.495 130.919 186.495 131.325 186.721Z" fill="#16110D"/>
<path d="M134.327 185.572C134.883 185.572 135.334 185.311 135.334 184.989C135.334 184.667 134.883 184.406 134.327 184.406C133.771 184.406 133.321 184.667 133.321 184.989C133.321 185.311 133.771 185.572 134.327 185.572Z" fill="#16110D"/>
<path d="M138.775 182.431C139.164 182.657 139.164 183.03 138.775 183.256C138.385 183.483 137.736 183.483 137.346 183.256C136.957 183.03 136.957 182.657 137.346 182.431C137.736 182.204 138.385 182.204 138.775 182.431Z" fill="#16110D"/>
<path d="M141.777 181.281C142.333 181.281 142.784 181.02 142.784 180.698C142.784 180.376 142.333 180.115 141.777 180.115C141.222 180.115 140.771 180.376 140.771 180.698C140.771 181.02 141.222 181.281 141.777 181.281Z" fill="#16110D"/>
<path d="M146.224 178.14C146.614 178.366 146.614 178.739 146.224 178.965C145.835 179.192 145.186 179.192 144.796 178.965C144.407 178.739 144.407 178.366 144.796 178.14C145.186 177.913 145.835 177.913 146.224 178.14Z" fill="#16110D"/>
<path d="M149.941 176.002C150.331 176.229 150.331 176.601 149.941 176.828C149.552 177.055 148.903 177.055 148.513 176.828C148.124 176.601 148.124 176.229 148.513 176.002C148.919 175.776 149.552 175.776 149.941 176.002Z" fill="#16110D"/>
<path d="M152.96 174.836C153.516 174.836 153.967 174.575 153.967 174.253C153.967 173.932 153.516 173.671 152.96 173.671C152.405 173.671 151.954 173.932 151.954 174.253C151.954 174.575 152.405 174.836 152.96 174.836Z" fill="#16110D"/>
<path d="M157.408 171.695C157.797 171.922 157.797 172.294 157.408 172.521C157.018 172.748 156.369 172.748 155.979 172.521C155.59 172.294 155.59 171.922 155.979 171.695C156.369 171.468 157.002 171.468 157.408 171.695Z" fill="#16110D"/>
<path d="M161.124 169.558C161.514 169.784 161.514 170.157 161.124 170.384C160.735 170.61 160.086 170.61 159.696 170.384C159.307 170.157 159.307 169.784 159.696 169.558C160.102 169.331 160.735 169.331 161.124 169.558Z" fill="#16110D"/>
<path d="M164.858 167.404C165.247 167.631 165.247 168.003 164.858 168.23C164.468 168.457 163.819 168.457 163.429 168.23C163.04 168.003 163.04 167.631 163.429 167.404C163.819 167.178 164.452 167.178 164.858 167.404Z" fill="#16110D"/>
<path d="M167.162 165.299C167.552 165.073 168.201 165.073 168.591 165.299C168.98 165.526 168.98 165.898 168.591 166.125C168.201 166.352 167.552 166.352 167.162 166.125C166.773 165.882 166.773 165.526 167.162 165.299Z" fill="#16110D"/>
<path d="M171.447 159.681C172.003 159.681 172.454 159.42 172.454 159.098C172.454 158.776 172.003 158.515 171.447 158.515C170.891 158.515 170.441 158.776 170.441 159.098C170.441 159.42 170.891 159.681 171.447 159.681Z" fill="#16110D"/>
<path d="M172.324 163.113C172.713 163.34 172.713 163.712 172.324 163.939C171.934 164.166 171.285 164.166 170.895 163.939C170.506 163.712 170.506 163.34 170.895 163.113C171.285 162.887 171.918 162.887 172.324 163.113Z" fill="#16110D"/>
<path d="M90.082 132.186C90.4716 132.413 90.4716 132.786 90.082 133.012C89.6925 133.239 89.0433 133.239 88.6537 133.012C88.2642 132.786 88.2642 132.413 88.6537 132.186C89.0595 131.944 89.6925 131.944 90.082 132.186Z" fill="#16110D"/>
<path d="M93.8151 130.033C94.2046 130.26 94.2046 130.632 93.8151 130.859C93.4255 131.085 92.7763 131.085 92.3868 130.859C91.9972 130.632 91.9972 130.26 92.3868 130.033C92.7763 129.806 93.4255 129.806 93.8151 130.033Z" fill="#16110D"/>
<path d="M97.532 127.879C97.9215 128.106 97.9215 128.479 97.532 128.705C97.1424 128.932 96.4932 128.932 96.1037 128.705C95.7141 128.479 95.7141 128.106 96.1037 127.879C96.5094 127.653 97.1424 127.653 97.532 127.879Z" fill="#16110D"/>
<path d="M101.265 125.742C101.655 125.969 101.655 126.341 101.265 126.568C100.875 126.795 100.226 126.795 99.8367 126.568C99.4472 126.341 99.4472 125.969 99.8367 125.742C100.226 125.515 100.875 125.515 101.265 125.742Z" fill="#16110D"/>
<path d="M104.998 123.589C105.388 123.815 105.388 124.188 104.998 124.414C104.609 124.641 103.959 124.641 103.57 124.414C103.18 124.188 103.18 123.815 103.57 123.589C103.959 123.362 104.592 123.362 104.998 123.589Z" fill="#16110D"/>
<path d="M108.715 121.451C109.105 121.678 109.105 122.05 108.715 122.277C108.325 122.504 107.676 122.504 107.287 122.277C106.897 122.05 106.897 121.678 107.287 121.451C107.692 121.225 108.325 121.225 108.715 121.451Z" fill="#16110D"/>
<path d="M112.448 119.298C112.838 119.524 112.838 119.897 112.448 120.123C112.059 120.35 111.409 120.35 111.02 120.123C110.63 119.897 110.63 119.524 111.02 119.298C111.409 119.071 112.042 119.071 112.448 119.298Z" fill="#16110D"/>
<path d="M116.165 117.16C116.554 117.387 116.554 117.759 116.165 117.986C115.775 118.213 115.126 118.213 114.737 117.986C114.347 117.759 114.347 117.387 114.737 117.16C115.142 116.934 115.775 116.934 116.165 117.16Z" fill="#16110D"/>
<path d="M119.184 116.011C119.74 116.011 120.19 115.75 120.19 115.428C120.19 115.106 119.74 114.845 119.184 114.845C118.628 114.845 118.178 115.106 118.178 115.428C118.178 115.75 118.628 116.011 119.184 116.011Z" fill="#16110D"/>
<path d="M123.615 112.869C124.004 113.096 124.004 113.469 123.615 113.695C123.225 113.922 122.576 113.922 122.187 113.695C121.797 113.469 121.797 113.096 122.187 112.869C122.592 112.643 123.225 112.643 123.615 112.869Z" fill="#16110D"/>
<path d="M127.348 110.716C127.738 110.943 127.738 111.315 127.348 111.542C126.958 111.768 126.309 111.768 125.92 111.542C125.53 111.315 125.53 110.943 125.92 110.716C126.309 110.489 126.958 110.489 127.348 110.716Z" fill="#16110D"/>
<path d="M131.065 108.578C131.454 108.805 131.454 109.178 131.065 109.404C130.675 109.631 130.026 109.631 129.637 109.404C129.247 109.178 129.247 108.805 129.637 108.578C130.042 108.352 130.675 108.352 131.065 108.578Z" fill="#16110D"/>
<path d="M134.798 106.425C135.188 106.652 135.188 107.024 134.798 107.251C134.408 107.477 133.759 107.477 133.37 107.251C132.98 107.024 132.98 106.652 133.37 106.425C133.759 106.198 134.408 106.198 134.798 106.425Z" fill="#16110D"/>
<path d="M85.651 131.021C86.2067 131.021 86.6573 130.76 86.6573 130.438C86.6573 130.116 86.2067 129.855 85.651 129.855C85.0952 129.855 84.6447 130.116 84.6447 130.438C84.6447 130.76 85.0952 131.021 85.651 131.021Z" fill="#16110D"/>
<path d="M90.082 127.879C90.4716 128.106 90.4716 128.479 90.082 128.705C89.6925 128.932 89.0433 128.932 88.6537 128.705C88.2642 128.479 88.2642 128.106 88.6537 127.879C89.0595 127.653 89.6925 127.653 90.082 127.879Z" fill="#16110D"/>
<path d="M93.8151 125.742C94.2046 125.969 94.2046 126.341 93.8151 126.568C93.4255 126.795 92.7763 126.795 92.3868 126.568C91.9972 126.341 91.9972 125.969 92.3868 125.742C92.7763 125.515 93.4255 125.515 93.8151 125.742Z" fill="#16110D"/>
<path d="M97.532 123.589C97.9215 123.815 97.9215 124.188 97.532 124.414C97.1424 124.641 96.4932 124.641 96.1037 124.414C95.7141 124.188 95.7141 123.815 96.1037 123.589C96.5094 123.362 97.1424 123.362 97.532 123.589Z" fill="#16110D"/>
<path d="M101.265 121.451C101.655 121.678 101.655 122.05 101.265 122.277C100.875 122.504 100.226 122.504 99.8367 122.277C99.4472 122.05 99.4472 121.678 99.8367 121.451C100.226 121.225 100.875 121.225 101.265 121.451Z" fill="#16110D"/>
<path d="M104.998 119.298C105.388 119.524 105.388 119.897 104.998 120.123C104.609 120.35 103.959 120.35 103.57 120.123C103.18 119.897 103.18 119.524 103.57 119.298C103.959 119.071 104.592 119.071 104.998 119.298Z" fill="#16110D"/>
<path d="M108.715 117.16C109.105 117.387 109.105 117.759 108.715 117.986C108.325 118.213 107.676 118.213 107.287 117.986C106.897 117.759 106.897 117.387 107.287 117.16C107.692 116.934 108.325 116.934 108.715 117.16Z" fill="#16110D"/>
<path d="M112.448 115.007C112.838 115.233 112.838 115.606 112.448 115.833C112.059 116.059 111.409 116.059 111.02 115.833C110.63 115.606 110.63 115.233 111.02 115.007C111.409 114.78 112.042 114.78 112.448 115.007Z" fill="#16110D"/>
<path d="M116.165 112.869C116.554 113.096 116.554 113.469 116.165 113.695C115.775 113.922 115.126 113.922 114.737 113.695C114.347 113.469 114.347 113.096 114.737 112.869C115.142 112.643 115.775 112.643 116.165 112.869Z" fill="#16110D"/>
<path d="M119.898 110.716C120.288 110.943 120.288 111.315 119.898 111.542C119.509 111.768 118.859 111.768 118.47 111.542C118.08 111.315 118.08 110.943 118.47 110.716C118.859 110.489 119.509 110.489 119.898 110.716Z" fill="#16110D"/>
<path d="M122.901 109.566C123.456 109.566 123.907 109.305 123.907 108.983C123.907 108.661 123.456 108.4 122.901 108.4C122.345 108.4 121.894 108.661 121.894 108.983C121.894 109.305 122.345 109.566 122.901 109.566Z" fill="#16110D"/>
<path d="M127.348 106.425C127.738 106.652 127.738 107.024 127.348 107.251C126.958 107.477 126.309 107.477 125.92 107.251C125.53 107.024 125.53 106.652 125.92 106.425C126.309 106.198 126.958 106.198 127.348 106.425Z" fill="#16110D"/>
<path d="M131.065 104.288C131.454 104.514 131.454 104.887 131.065 105.113C130.675 105.34 130.026 105.34 129.637 105.113C129.247 104.887 129.247 104.514 129.637 104.288C130.042 104.061 130.675 104.061 131.065 104.288Z" fill="#16110D"/>
<path d="M82.6321 127.879C83.0216 128.106 83.0216 128.479 82.6321 128.705C82.2425 128.932 81.5933 128.932 81.2038 128.705C80.8142 128.479 80.8142 128.106 81.2038 127.879C81.6095 127.653 82.2425 127.653 82.6321 127.879Z" fill="#16110D"/>
<path d="M85.651 126.73C86.2067 126.73 86.6573 126.469 86.6573 126.147C86.6573 125.825 86.2067 125.564 85.651 125.564C85.0952 125.564 84.6447 125.825 84.6447 126.147C84.6447 126.469 85.0952 126.73 85.651 126.73Z" fill="#16110D"/>
<path d="M78.9152 125.742C79.3047 125.969 79.3047 126.341 78.9152 126.568C78.5256 126.795 77.8764 126.795 77.4869 126.568C77.0973 126.341 77.0973 125.969 77.4869 125.742C77.8764 125.515 78.5094 125.515 78.9152 125.742Z" fill="#16110D"/>
<path d="M82.6321 123.589C83.0216 123.815 83.0216 124.188 82.6321 124.414C82.2425 124.641 81.5933 124.641 81.2038 124.414C80.8142 124.188 80.8142 123.815 81.2038 123.589C81.6095 123.362 82.2425 123.362 82.6321 123.589Z" fill="#16110D"/>
<path d="M75.182 123.589C75.5716 123.815 75.5716 124.188 75.182 124.414C74.7925 124.641 74.1432 124.641 73.7537 124.414C73.3642 124.188 73.3642 123.815 73.7537 123.589C74.1432 123.362 74.7925 123.362 75.182 123.589Z" fill="#16110D"/>
<path d="M78.201 122.439C78.7568 122.439 79.2073 122.178 79.2073 121.856C79.2073 121.534 78.7568 121.273 78.201 121.273C77.6452 121.273 77.1947 121.534 77.1947 121.856C77.1947 122.178 77.6452 122.439 78.201 122.439Z" fill="#16110D"/>
<path d="M70.7179 122.423C71.2736 122.423 71.7242 122.162 71.7242 121.84C71.7242 121.518 71.2736 121.257 70.7179 121.257C70.1621 121.257 69.7115 121.518 69.7115 121.84C69.7115 122.162 70.1621 122.423 70.7179 122.423Z" fill="#16110D"/>
<path d="M75.1497 119.281C75.5392 119.508 75.5392 119.881 75.1497 120.107C74.7601 120.334 74.1109 120.334 73.7214 120.107C73.3318 119.881 73.3318 119.508 73.7214 119.281C74.1109 119.055 74.7601 119.055 75.1497 119.281Z" fill="#16110D"/>
<path d="M71.4159 117.128C71.8054 117.355 71.8054 117.727 71.4159 117.954C71.0264 118.18 70.3771 118.18 69.9876 117.954C69.598 117.727 69.598 117.355 69.9876 117.128C70.3934 116.901 71.0264 116.901 71.4159 117.128Z" fill="#16110D"/>
<path d="M137.817 105.308C138.373 105.308 138.823 105.047 138.823 104.725C138.823 104.403 138.373 104.142 137.817 104.142C137.261 104.142 136.811 104.403 136.811 104.725C136.811 105.047 137.261 105.308 137.817 105.308Z" fill="#16110D"/>
<path d="M142.264 102.166C142.654 102.393 142.654 102.766 142.264 102.992C141.875 103.219 141.225 103.219 140.836 102.992C140.446 102.766 140.446 102.393 140.836 102.166C141.225 101.94 141.875 101.94 142.264 102.166Z" fill="#16110D"/>
<path d="M133.386 102.166C133.775 101.94 134.425 101.94 134.814 102.166C135.204 102.393 135.204 102.766 134.814 102.992C134.425 103.219 133.775 103.219 133.386 102.992C132.98 102.766 132.98 102.393 133.386 102.166Z" fill="#16110D"/>
<path d="M138.531 100.013C138.921 100.24 138.921 100.612 138.531 100.839C138.141 101.065 137.492 101.065 137.103 100.839C136.713 100.612 136.713 100.24 137.103 100.013C137.508 99.7862 138.141 99.7862 138.531 100.013Z" fill="#16110D"/>
<path d="M142.264 97.8755C142.654 98.1022 142.654 98.4746 142.264 98.7013C141.875 98.928 141.225 98.928 140.836 98.7013C140.446 98.4746 140.446 98.1022 140.836 97.8755C141.225 97.6488 141.875 97.6488 142.264 97.8755Z" fill="#16110D"/>
<path d="M97.7105 132.332C98.1 132.559 98.1 132.931 97.7105 133.158C97.3209 133.385 96.6717 133.385 96.2821 133.158C95.8926 132.931 95.8926 132.559 96.2821 132.332C96.6717 132.106 97.3209 132.106 97.7105 132.332Z" fill="#16110D"/>
<path d="M101.444 130.195C101.833 130.422 101.833 130.794 101.444 131.021C101.054 131.247 100.405 131.247 100.015 131.021C99.6258 130.794 99.6258 130.422 100.015 130.195C100.405 129.968 101.038 129.968 101.444 130.195Z" fill="#16110D"/>
<path d="M105.161 128.041C105.55 128.268 105.55 128.64 105.161 128.867C104.771 129.094 104.122 129.094 103.732 128.867C103.343 128.64 103.343 128.268 103.732 128.041C104.138 127.815 104.771 127.815 105.161 128.041Z" fill="#16110D"/>
<path d="M108.894 125.904C109.283 126.131 109.283 126.503 108.894 126.73C108.504 126.956 107.855 126.956 107.465 126.73C107.076 126.503 107.076 126.131 107.465 125.904C107.855 125.677 108.488 125.677 108.894 125.904Z" fill="#16110D"/>
<path d="M111.896 124.754C112.452 124.754 112.903 124.493 112.903 124.171C112.903 123.849 112.452 123.589 111.896 123.589C111.34 123.589 110.89 123.849 110.89 124.171C110.89 124.493 111.34 124.754 111.896 124.754Z" fill="#16110D"/>
<path d="M115.629 122.601C116.185 122.601 116.636 122.34 116.636 122.018C116.636 121.696 116.185 121.435 115.629 121.435C115.074 121.435 114.623 121.696 114.623 122.018C114.623 122.34 115.074 122.601 115.629 122.601Z" fill="#16110D"/>
<path d="M119.346 120.447C119.902 120.447 120.352 120.186 120.352 119.864C120.352 119.542 119.902 119.281 119.346 119.281C118.79 119.281 118.34 119.542 118.34 119.864C118.34 120.186 118.79 120.447 119.346 120.447Z" fill="#16110D"/>
<path d="M123.793 117.322C124.183 117.549 124.183 117.921 123.793 118.148C123.404 118.375 122.755 118.375 122.365 118.148C121.976 117.921 121.976 117.549 122.365 117.322C122.755 117.096 123.404 117.096 123.793 117.322Z" fill="#16110D"/>
<path d="M127.51 115.169C127.9 115.395 127.9 115.768 127.51 115.994C127.121 116.221 126.471 116.221 126.082 115.994C125.692 115.768 125.692 115.395 126.082 115.169C126.488 114.942 127.121 114.942 127.51 115.169Z" fill="#16110D"/>
<path d="M131.243 113.015C131.633 113.242 131.633 113.614 131.243 113.841C130.854 114.068 130.205 114.068 129.815 113.841C129.426 113.614 129.426 113.242 129.815 113.015C130.205 112.788 130.854 112.788 131.243 113.015Z" fill="#16110D"/>
<path d="M134.976 110.878C135.366 111.104 135.366 111.477 134.976 111.704C134.587 111.93 133.938 111.93 133.548 111.704C133.159 111.477 133.159 111.104 133.548 110.878C133.938 110.651 134.571 110.651 134.976 110.878Z" fill="#16110D"/>
<path d="M138.693 108.724C139.083 108.951 139.083 109.323 138.693 109.55C138.304 109.777 137.655 109.777 137.265 109.55C136.876 109.323 136.876 108.951 137.265 108.724C137.671 108.498 138.304 108.498 138.693 108.724Z" fill="#16110D"/>
<path d="M140.998 106.619C141.388 106.393 142.037 106.393 142.426 106.619C142.816 106.846 142.816 107.218 142.426 107.445C142.037 107.672 141.388 107.672 140.998 107.445C140.609 107.202 140.609 106.846 140.998 106.619Z" fill="#16110D"/>
<path d="M145.997 100.013C146.387 100.24 146.387 100.612 145.997 100.839C145.608 101.065 144.958 101.065 144.569 100.839C144.179 100.612 144.179 100.24 144.569 100.013C144.975 99.7862 145.608 99.7862 145.997 100.013Z" fill="#16110D"/>
<path d="M146.16 104.433C146.549 104.66 146.549 105.032 146.16 105.259C145.77 105.486 145.121 105.486 144.731 105.259C144.342 105.032 144.342 104.66 144.731 104.433C145.121 104.207 145.77 104.207 146.16 104.433Z" fill="#16110D"/>
<path d="M127.916 135.279C128.472 135.279 128.922 135.018 128.922 134.696C128.922 134.374 128.472 134.113 127.916 134.113C127.36 134.113 126.91 134.374 126.91 134.696C126.91 135.018 127.36 135.279 127.916 135.279Z" fill="#16110D"/>
<path d="M132.347 132.154C132.737 132.381 132.737 132.753 132.347 132.98C131.958 133.207 131.308 133.207 130.919 132.98C130.529 132.753 130.529 132.381 130.919 132.154C131.325 131.927 131.958 131.927 132.347 132.154Z" fill="#16110D"/>
<path d="M135.366 130.988C135.922 130.988 136.372 130.727 136.372 130.405C136.372 130.083 135.922 129.822 135.366 129.822C134.81 129.822 134.36 130.083 134.36 130.405C134.36 130.727 134.81 130.988 135.366 130.988Z" fill="#16110D"/>
<path d="M139.813 127.847C140.203 128.074 140.203 128.446 139.813 128.673C139.424 128.899 138.775 128.899 138.385 128.673C137.996 128.446 137.996 128.074 138.385 127.847C138.775 127.62 139.408 127.62 139.813 127.847Z" fill="#16110D"/>
<path d="M143.53 125.71C143.92 125.936 143.92 126.309 143.53 126.535C143.141 126.762 142.492 126.762 142.102 126.535C141.712 126.309 141.712 125.936 142.102 125.71C142.508 125.483 143.141 125.483 143.53 125.71Z" fill="#16110D"/>
<path d="M147.263 123.556C147.653 123.783 147.653 124.155 147.263 124.382C146.874 124.609 146.225 124.609 145.835 124.382C145.445 124.155 145.445 123.783 145.835 123.556C146.225 123.329 146.858 123.329 147.263 123.556Z" fill="#16110D"/>
<path d="M150.98 121.419C151.37 121.645 151.37 122.018 150.98 122.245C150.591 122.471 149.941 122.471 149.552 122.245C149.162 122.018 149.162 121.645 149.552 121.419C149.958 121.192 150.591 121.192 150.98 121.419Z" fill="#16110D"/>
<path d="M153.999 120.269C154.555 120.269 155.005 120.008 155.005 119.686C155.005 119.364 154.555 119.103 153.999 119.103C153.443 119.103 152.993 119.364 152.993 119.686C152.993 120.008 153.443 120.269 153.999 120.269Z" fill="#16110D"/>
<path d="M158.43 117.128C158.82 117.355 158.82 117.727 158.43 117.954C158.041 118.18 157.391 118.18 157.002 117.954C156.612 117.727 156.612 117.355 157.002 117.128C157.408 116.901 158.041 116.901 158.43 117.128Z" fill="#16110D"/>
<path d="M161.449 115.978C162.005 115.978 162.455 115.717 162.455 115.395C162.455 115.073 162.005 114.812 161.449 114.812C160.893 114.812 160.443 115.073 160.443 115.395C160.443 115.717 160.893 115.978 161.449 115.978Z" fill="#16110D"/>
<path d="M165.182 113.825C165.738 113.825 166.188 113.564 166.188 113.242C166.188 112.92 165.738 112.659 165.182 112.659C164.626 112.659 164.176 112.92 164.176 113.242C164.176 113.564 164.626 113.825 165.182 113.825Z" fill="#16110D"/>
<path d="M169.613 110.683C170.003 110.91 170.003 111.282 169.613 111.509C169.224 111.736 168.574 111.736 168.185 111.509C167.795 111.282 167.795 110.91 168.185 110.683C168.591 110.457 169.224 110.457 169.613 110.683Z" fill="#16110D"/>
<path d="M173.346 108.546C173.736 108.773 173.736 109.145 173.346 109.372C172.957 109.599 172.308 109.599 171.918 109.372C171.528 109.145 171.528 108.773 171.918 108.546C172.308 108.319 172.941 108.319 173.346 108.546Z" fill="#16110D"/>
<path d="M124.897 132.154C125.287 132.381 125.287 132.753 124.897 132.98C124.508 133.207 123.858 133.207 123.469 132.98C123.079 132.753 123.079 132.381 123.469 132.154C123.875 131.927 124.508 131.927 124.897 132.154Z" fill="#16110D"/>
<path d="M127.916 130.988C128.472 130.988 128.922 130.727 128.922 130.405C128.922 130.083 128.472 129.822 127.916 129.822C127.36 129.822 126.91 130.083 126.91 130.405C126.91 130.727 127.36 130.988 127.916 130.988Z" fill="#16110D"/>
<path d="M132.347 127.847C132.737 128.074 132.737 128.446 132.347 128.673C131.958 128.899 131.308 128.899 130.919 128.673C130.529 128.446 130.529 128.074 130.919 127.847C131.325 127.62 131.958 127.62 132.347 127.847Z" fill="#16110D"/>
<path d="M136.08 125.71C136.47 125.936 136.47 126.309 136.08 126.535C135.691 126.762 135.041 126.762 134.652 126.535C134.262 126.309 134.262 125.936 134.652 125.71C135.041 125.483 135.691 125.483 136.08 125.71Z" fill="#16110D"/>
<path d="M139.813 123.556C140.203 123.783 140.203 124.155 139.813 124.382C139.424 124.609 138.775 124.609 138.385 124.382C137.996 124.155 137.996 123.783 138.385 123.556C138.775 123.329 139.408 123.329 139.813 123.556Z" fill="#16110D"/>
<path d="M143.53 121.419C143.92 121.645 143.92 122.018 143.53 122.245C143.141 122.471 142.492 122.471 142.102 122.245C141.712 122.018 141.712 121.645 142.102 121.419C142.508 121.192 143.141 121.192 143.53 121.419Z" fill="#16110D"/>
<path d="M147.263 119.265C147.653 119.492 147.653 119.864 147.263 120.091C146.874 120.318 146.225 120.318 145.835 120.091C145.445 119.864 145.445 119.492 145.835 119.265C146.225 119.038 146.858 119.038 147.263 119.265Z" fill="#16110D"/>
<path d="M150.98 117.128C151.37 117.355 151.37 117.727 150.98 117.954C150.591 118.18 149.941 118.18 149.552 117.954C149.162 117.727 149.162 117.355 149.552 117.128C149.958 116.901 150.591 116.901 150.98 117.128Z" fill="#16110D"/>
<path d="M154.713 114.974C155.103 115.201 155.103 115.573 154.713 115.8C154.324 116.027 153.674 116.027 153.285 115.8C152.895 115.573 152.895 115.201 153.285 114.974C153.674 114.748 154.324 114.748 154.713 114.974Z" fill="#16110D"/>
<path d="M158.43 112.837C158.82 113.064 158.82 113.436 158.43 113.663C158.041 113.889 157.391 113.889 157.002 113.663C156.612 113.436 156.612 113.064 157.002 112.837C157.408 112.61 158.041 112.61 158.43 112.837Z" fill="#16110D"/>
<path d="M161.449 111.687C162.005 111.687 162.455 111.426 162.455 111.104C162.455 110.782 162.005 110.521 161.449 110.521C160.893 110.521 160.443 110.782 160.443 111.104C160.443 111.426 160.893 111.687 161.449 111.687Z" fill="#16110D"/>
<path d="M165.182 109.534C165.738 109.534 166.188 109.273 166.188 108.951C166.188 108.629 165.738 108.368 165.182 108.368C164.626 108.368 164.176 108.629 164.176 108.951C164.176 109.273 164.626 109.534 165.182 109.534Z" fill="#16110D"/>
<path d="M169.613 106.392C170.003 106.619 170.003 106.992 169.613 107.218C169.224 107.445 168.574 107.445 168.185 107.218C167.795 106.992 167.795 106.619 168.185 106.392C168.591 106.166 169.224 106.166 169.613 106.392Z" fill="#16110D"/>
<path d="M121.18 130.001C121.57 130.227 121.57 130.6 121.18 130.826C120.791 131.053 120.142 131.053 119.752 130.826C119.363 130.6 119.363 130.227 119.752 130.001C120.142 129.774 120.791 129.774 121.18 130.001Z" fill="#16110D"/>
<path d="M124.897 127.847C125.287 128.074 125.287 128.446 124.897 128.673C124.508 128.899 123.858 128.899 123.469 128.673C123.079 128.446 123.079 128.074 123.469 127.847C123.875 127.62 124.508 127.62 124.897 127.847Z" fill="#16110D"/>
<path d="M116.733 128.851C117.289 128.851 117.739 128.59 117.739 128.268C117.739 127.946 117.289 127.685 116.733 127.685C116.177 127.685 115.727 127.946 115.727 128.268C115.727 128.59 116.177 128.851 116.733 128.851Z" fill="#16110D"/>
<path d="M121.18 125.71C121.57 125.936 121.57 126.309 121.18 126.535C120.791 126.762 120.142 126.762 119.752 126.535C119.363 126.309 119.363 125.936 119.752 125.71C120.142 125.483 120.791 125.483 121.18 125.71Z" fill="#16110D"/>
<path d="M113.73 125.71C114.12 125.936 114.12 126.309 113.73 126.535C113.341 126.762 112.692 126.762 112.302 126.535C111.913 126.309 111.913 125.936 112.302 125.71C112.692 125.483 113.325 125.483 113.73 125.71Z" fill="#16110D"/>
<path d="M117.447 123.556C117.837 123.783 117.837 124.155 117.447 124.382C117.058 124.609 116.409 124.609 116.019 124.382C115.629 124.155 115.629 123.783 116.019 123.556C116.425 123.329 117.058 123.329 117.447 123.556Z" fill="#16110D"/>
<path d="M109.965 123.54C110.354 123.767 110.354 124.139 109.965 124.366C109.575 124.592 108.926 124.592 108.537 124.366C108.147 124.139 108.147 123.767 108.537 123.54C108.942 123.313 109.575 123.313 109.965 123.54Z" fill="#16110D"/>
<path d="M113.698 121.386C114.088 121.613 114.088 121.985 113.698 122.212C113.308 122.439 112.659 122.439 112.27 122.212C111.88 121.985 111.88 121.613 112.27 121.386C112.659 121.16 113.292 121.16 113.698 121.386Z" fill="#16110D"/>
<path d="M109.251 120.237C109.806 120.237 110.257 119.976 110.257 119.654C110.257 119.332 109.806 119.071 109.251 119.071C108.695 119.071 108.244 119.332 108.244 119.654C108.244 119.976 108.695 120.237 109.251 120.237Z" fill="#16110D"/>
<path d="M177.079 106.425C177.469 106.652 177.469 107.024 177.079 107.251C176.69 107.477 176.041 107.477 175.651 107.251C175.262 107.024 175.262 106.652 175.651 106.425C176.041 106.198 176.69 106.198 177.079 106.425Z" fill="#16110D"/>
<path d="M180.796 104.271C181.186 104.498 181.186 104.87 180.796 105.097C180.407 105.324 179.758 105.324 179.368 105.097C178.978 104.87 178.978 104.498 179.368 104.271C179.774 104.045 180.407 104.045 180.796 104.271Z" fill="#16110D"/>
<path d="M171.918 104.271C172.308 104.045 172.957 104.045 173.346 104.271C173.736 104.498 173.736 104.87 173.346 105.097C172.957 105.324 172.308 105.324 171.918 105.097C171.528 104.87 171.528 104.498 171.918 104.271Z" fill="#16110D"/>
<path d="M176.365 103.122C176.921 103.122 177.371 102.861 177.371 102.539C177.371 102.217 176.921 101.956 176.365 101.956C175.809 101.956 175.359 102.217 175.359 102.539C175.359 102.861 175.809 103.122 176.365 103.122Z" fill="#16110D"/>
<path d="M180.796 99.9804C181.186 100.207 181.186 100.58 180.796 100.806C180.407 101.033 179.758 101.033 179.368 100.806C178.978 100.58 178.978 100.207 179.368 99.9804C179.774 99.7538 180.407 99.7538 180.796 99.9804Z" fill="#16110D"/>
<path d="M136.259 134.453C136.648 134.68 136.648 135.052 136.259 135.279C135.869 135.506 135.22 135.506 134.83 135.279C134.441 135.052 134.441 134.68 134.83 134.453C135.22 134.227 135.853 134.227 136.259 134.453Z" fill="#16110D"/>
<path d="M139.976 132.3C140.365 132.527 140.365 132.899 139.976 133.126C139.586 133.352 138.937 133.352 138.547 133.126C138.158 132.899 138.158 132.527 138.547 132.3C138.953 132.073 139.586 132.073 139.976 132.3Z" fill="#16110D"/>
<path d="M143.709 130.162C144.098 130.389 144.098 130.762 143.709 130.988C143.319 131.215 142.67 131.215 142.28 130.988C141.891 130.762 141.891 130.389 142.28 130.162C142.67 129.936 143.303 129.936 143.709 130.162Z" fill="#16110D"/>
<path d="M146.711 129.013C147.267 129.013 147.718 128.752 147.718 128.43C147.718 128.108 147.267 127.847 146.711 127.847C146.156 127.847 145.705 128.108 145.705 128.43C145.705 128.752 146.156 129.013 146.711 129.013Z" fill="#16110D"/>
<path d="M151.159 125.872C151.548 126.098 151.548 126.471 151.159 126.697C150.769 126.924 150.12 126.924 149.73 126.697C149.341 126.471 149.341 126.098 149.73 125.872C150.12 125.645 150.769 125.645 151.159 125.872Z" fill="#16110D"/>
<path d="M154.178 124.722C154.733 124.722 155.184 124.461 155.184 124.139C155.184 123.817 154.733 123.556 154.178 123.556C153.622 123.556 153.171 123.817 153.171 124.139C153.171 124.461 153.622 124.722 154.178 124.722Z" fill="#16110D"/>
<path d="M157.894 122.568C158.45 122.568 158.901 122.307 158.901 121.985C158.901 121.664 158.45 121.403 157.894 121.403C157.339 121.403 156.888 121.664 156.888 121.985C156.888 122.307 157.339 122.568 157.894 122.568Z" fill="#16110D"/>
<path d="M162.342 119.427C162.731 119.654 162.731 120.026 162.342 120.253C161.952 120.48 161.303 120.48 160.913 120.253C160.524 120.026 160.524 119.654 160.913 119.427C161.303 119.2 161.936 119.2 162.342 119.427Z" fill="#16110D"/>
<path d="M166.059 117.29C166.448 117.516 166.448 117.889 166.059 118.116C165.669 118.342 165.02 118.342 164.63 118.116C164.241 117.889 164.241 117.516 164.63 117.29C165.02 117.063 165.669 117.063 166.059 117.29Z" fill="#16110D"/>
<path d="M169.078 116.124C169.633 116.124 170.084 115.863 170.084 115.541C170.084 115.219 169.633 114.958 169.078 114.958C168.522 114.958 168.071 115.219 168.071 115.541C168.071 115.863 168.522 116.124 169.078 116.124Z" fill="#16110D"/>
<path d="M173.509 112.999C173.898 113.226 173.898 113.598 173.509 113.825C173.119 114.051 172.47 114.051 172.08 113.825C171.691 113.598 171.691 113.226 172.08 112.999C172.486 112.772 173.119 112.772 173.509 112.999Z" fill="#16110D"/>
<path d="M177.242 110.845C177.631 111.072 177.631 111.444 177.242 111.671C176.852 111.898 176.203 111.898 175.813 111.671C175.424 111.444 175.424 111.072 175.813 110.845C176.203 110.619 176.852 110.619 177.242 110.845Z" fill="#16110D"/>
<path d="M179.546 108.724C179.936 108.497 180.585 108.497 180.975 108.724C181.364 108.951 181.364 109.323 180.975 109.55C180.585 109.777 179.936 109.777 179.546 109.55C179.157 109.323 179.157 108.951 179.546 108.724Z" fill="#16110D"/>
<path d="M184.546 102.134C184.935 102.361 184.935 102.733 184.546 102.96C184.156 103.186 183.507 103.186 183.117 102.96C182.728 102.733 182.728 102.361 183.117 102.134C183.507 101.907 184.14 101.907 184.546 102.134Z" fill="#16110D"/>
<path d="M184.708 106.554C185.097 106.781 185.097 107.154 184.708 107.38C184.318 107.607 183.669 107.607 183.28 107.38C182.89 107.154 182.89 106.781 183.28 106.554C183.669 106.328 184.302 106.328 184.708 106.554Z" fill="#16110D"/>
<path d="M141.161 94.459V67.3696L89.3354 97.1307V124.56L141.161 94.459Z" fill="#ECC550"/>
<path d="M141.161 66.56L121.895 55.4037L70.1019 85.1485L89.3355 96.1429L141.161 66.56Z" fill="#ECC550"/>
<path d="M89.0596 96.3211L89.3355 98.7013L141.161 69.2155V66.6896L89.0596 96.3211Z" fill="#ECC550"/>
<path d="M139.359 67.6611L121.895 57.7192L70.1019 87.464L87.404 97.325L139.359 67.6611Z" fill="#FFEECC"/>
<path d="M121.895 54.8208L141.664 66.2686V94.7504L89.3356 125.143L69.5989 113.711V84.8571L121.895 54.8208ZM140.722 69.9766L136.973 72.1139V96.3211L140.657 94.1837L140.722 69.9766ZM98.4735 94.0056L94.4808 96.2887V120.998L98.506 118.666H98.4735V94.0056V94.0056ZM99.2039 118.245L103.197 115.93V91.3177L99.2039 93.6008V118.245ZM103.927 90.9615V115.492L107.92 113.177V88.6298L103.813 90.9615H103.927V90.9615ZM108.65 112.756L112.643 110.441V85.942L108.65 88.225V112.756V112.756ZM113.373 110.003L117.366 107.688V83.2541L113.373 85.5372V110.003ZM118.113 107.267L122.057 104.968V80.5824L118.113 82.8331V107.267ZM122.787 104.547L126.78 102.231V77.8945L122.787 80.1776V104.547ZM127.511 101.81L131.503 99.4947V75.2066L127.511 77.4897V101.81ZM132.234 99.0575L136.226 96.7421V72.5187L132.234 74.8018V99.0575ZM89.8387 123.669L93.7504 121.403V96.6935L89.8387 98.9118V123.669V123.669ZM89.8387 96.7097V96.823V97.9079L140.722 68.9565V67.2725L89.8387 96.4182V96.7097ZM89.3356 95.5601L140.154 66.5601L121.895 55.9866L71.1246 85.1485L89.3356 95.5601Z" fill="#16110D"/>
<path d="M69.5825 87.2859L69.5987 86.3629L89.7737 97.9564L89.7575 98.8794L79.5807 93.034V119.492L78.8503 119.071V92.6131L69.5825 87.2859Z" fill="#ECC550"/>
<path d="M83.5411 112.027C83.7521 112.027 83.9631 111.963 84.1578 111.865L84.45 111.687C84.5961 111.606 84.6448 111.412 84.5636 111.266C84.4825 111.121 84.2877 111.072 84.1416 111.153L83.8495 111.331C83.6547 111.444 83.4274 111.444 83.2327 111.331L81.2687 110.262L81.5934 110.068C81.7394 109.971 81.7881 109.793 81.707 109.647C81.6258 109.501 81.4311 109.453 81.2687 109.534L80.9604 109.712C80.7656 109.825 80.6357 110.036 80.6357 110.262C80.6357 110.489 80.7656 110.7 80.9604 110.813L82.9243 111.882C83.1191 111.979 83.3301 112.027 83.5411 112.027Z" fill="#ECC550"/>
<path d="M76.6753 108.206C76.8864 108.206 77.0974 108.141 77.2921 108.044L77.5843 107.866C77.7304 107.785 77.7791 107.591 77.6979 107.445C77.6167 107.299 77.422 107.251 77.2759 107.332L76.9837 107.51C76.789 107.623 76.5617 107.623 76.367 107.51L74.403 106.441L74.7276 106.247C74.8737 106.15 74.9224 105.972 74.8413 105.826C74.7601 105.68 74.5653 105.632 74.403 105.712L74.0946 105.891C73.8999 106.004 73.77 106.214 73.77 106.441C73.77 106.668 73.8999 106.878 74.0946 106.992L76.0586 108.06C76.2533 108.157 76.4643 108.206 76.6753 108.206Z" fill="#ECC550"/>
<path d="M83.4275 81.9263L93.6042 76.081L103.781 81.9263V84.7599L93.6042 90.5729V87.7717L83.4275 81.9263Z" fill="#ECC550"/>
<path d="M83.4275 81.5053L93.6043 75.66L104.138 81.6996V82.1206V84.9542L93.9613 90.7672L93.6043 90.9777L83.0704 84.9542V82.1368V81.7158L83.4275 81.5053ZM84.1579 81.9263L93.6043 87.3506L103.051 81.9263L93.6043 76.502L84.1579 81.9263ZM103.408 84.5494V82.5578L99.496 84.8085L93.9613 87.9821V89.9576L103.408 84.5494Z" fill="#16110D"/>
<path d="M88.1995 82.5578L93.6043 85.5533L99.0092 82.5578L93.6043 79.4489L88.1995 82.5578Z" fill="#FFEECC"/>
<path d="M93.6042 85.9905L100.697 81.9263L93.6042 77.8621L86.5114 81.9263L93.6042 85.9905ZM99.2363 81.9263L93.6042 85.1647L87.9721 81.9263L93.6042 78.6879L99.2363 81.9263Z" fill="#16110D"/>
<path d="M179.4 97.3897V70.3004L127.559 100.045V127.475L179.4 97.3897Z" fill="#ECC550"/>
<path d="M179.4 69.4908L160.118 58.3182L108.326 88.0793L127.559 99.0575L179.4 69.4908Z" fill="#ECC550"/>
<path d="M127.283 99.2357L127.559 101.632L179.4 72.1463V69.6204L127.283 99.2357Z" fill="#ECC550"/>
<path d="M177.469 70.6728L160.118 60.6499L108.326 90.3947L125.628 100.256L177.469 70.6728Z" fill="#FFEECC"/>
<path d="M160.118 57.7354L179.904 69.1831V97.6812L127.559 128.074L107.822 116.626V87.7878L160.118 57.7354ZM178.946 72.8911L175.197 75.0285V99.2356L178.881 97.0983L178.946 72.8911ZM136.697 96.9364L132.704 99.2194V123.912L136.73 121.581H136.697V96.9364V96.9364ZM137.427 121.16L141.42 118.844V94.2485L137.427 96.5316V121.16ZM142.151 93.8922V118.423L146.143 116.108V91.5444L142.037 93.8761H142.151V93.8922ZM146.89 115.671L150.883 113.355V88.8565L146.89 91.1396V115.671ZM151.613 112.934L155.606 110.619V86.1686L151.613 88.4517V112.934ZM156.336 110.181L160.28 107.882V83.5131L156.336 85.7638V110.181ZM161.011 107.477L165.004 105.162V80.8252L161.011 83.1083V107.477ZM165.734 104.725L169.727 102.409V78.1374L165.734 80.4204V104.725ZM170.473 101.988L174.466 99.6728V75.4495L170.473 77.7326V101.988ZM128.062 126.6L131.974 124.333V99.6242L128.062 101.843V126.6ZM128.062 99.6404V99.7538V100.839L178.946 71.8872V70.2032L128.062 99.349V99.6404ZM127.559 98.4746L178.378 69.4746L160.118 58.9174L109.348 88.0793L127.559 98.4746Z" fill="#16110D"/>
<path d="M107.822 90.2166V89.2775L127.997 100.887V101.81L117.821 95.9486V122.423L117.09 122.002V95.5438L107.822 90.2166Z" fill="#ECC550"/>
<path d="M121.781 114.942C121.992 114.942 122.203 114.877 122.398 114.78L122.69 114.602C122.836 114.521 122.885 114.327 122.803 114.181C122.722 114.035 122.528 113.987 122.381 114.068L122.089 114.246C121.895 114.359 121.667 114.359 121.473 114.246L119.509 113.177L119.833 112.983C119.979 112.886 120.028 112.707 119.947 112.562C119.866 112.416 119.671 112.367 119.509 112.448L119.2 112.626C119.005 112.74 118.876 112.95 118.876 113.177C118.876 113.404 119.005 113.614 119.2 113.728L121.164 114.796C121.343 114.893 121.554 114.942 121.781 114.942Z" fill="#ECC550"/>
<path d="M114.915 111.121C115.126 111.121 115.337 111.056 115.532 110.959L115.824 110.781C115.97 110.7 116.019 110.505 115.938 110.36C115.857 110.214 115.662 110.165 115.516 110.246L115.224 110.424C115.029 110.538 114.802 110.538 114.607 110.424L112.643 109.356L112.968 109.161C113.114 109.064 113.162 108.886 113.081 108.74C113 108.595 112.805 108.546 112.643 108.627L112.334 108.805C112.14 108.918 112.01 109.129 112.01 109.356C112.01 109.582 112.14 109.793 112.334 109.906L114.298 110.975C114.477 111.072 114.704 111.137 114.915 111.121Z" fill="#ECC550"/>
<path d="M167 152.815V125.726L115.175 155.487V182.916L167 152.815Z" fill="#ECC550"/>
<path d="M167 124.916L147.734 113.76L95.9414 143.505L115.175 154.499L167 124.916Z" fill="#ECC550"/>
<path d="M114.899 154.677L115.175 157.058L167 127.572V125.046L114.899 154.677Z" fill="#ECC550"/>
<path d="M165.069 126.098L147.734 116.075L95.9414 145.82L113.243 155.681L165.069 126.098Z" fill="#FFEECC"/>
<path d="M147.734 113.161L167.52 124.609V153.09L115.175 183.499L95.4385 172.068V143.213L147.734 113.161ZM166.562 128.333L162.813 130.47V154.677L166.497 152.54L166.562 128.333ZM124.313 152.362L120.32 154.645V179.354L124.346 177.022H124.313V152.362V152.362ZM125.044 176.601L129.036 174.286V149.674L125.044 151.957V176.601ZM129.767 149.318V173.849L133.759 171.533V146.986L129.653 149.318H129.767ZM134.49 171.112L138.483 168.797V144.298L134.49 146.581V171.112ZM139.213 168.36L143.206 166.044V141.594L139.213 143.877V168.36ZM143.952 165.623L147.897 163.324V138.939L143.952 141.189V165.623ZM148.627 162.903L152.62 160.587V136.251L148.627 138.534V162.903ZM153.35 160.166L157.343 157.851V133.563L153.35 135.846V160.166ZM158.073 157.414L162.066 155.098V130.875L158.073 133.158V157.414ZM115.678 182.026L119.59 179.759V155.05L115.678 157.268V182.026ZM115.678 155.066V155.179V156.264L166.562 127.313V125.629L115.678 154.774V155.066ZM115.159 153.916L165.978 124.916L147.718 114.343L96.9642 143.505L115.159 153.916Z" fill="#16110D"/>
<path d="M95.422 145.642L95.4382 144.719L115.613 156.313L115.597 157.236L105.42 151.39V177.848L104.69 177.427V150.969L95.422 145.642Z" fill="#ECC550"/>
<path d="M109.381 170.384C109.592 170.384 109.803 170.319 109.997 170.222L110.289 170.044C110.436 169.963 110.484 169.768 110.403 169.623C110.322 169.477 110.127 169.428 109.981 169.509L109.689 169.687C109.494 169.801 109.267 169.801 109.072 169.687L107.092 168.602L107.417 168.408C107.563 168.311 107.611 168.133 107.53 167.987C107.449 167.841 107.254 167.793 107.092 167.874L106.784 168.052C106.589 168.165 106.459 168.376 106.459 168.602C106.459 168.829 106.589 169.04 106.784 169.153L108.748 170.222C108.942 170.335 109.17 170.384 109.381 170.384Z" fill="#ECC550"/>
<path d="M102.515 166.562C102.726 166.562 102.937 166.497 103.132 166.4L103.424 166.222C103.57 166.141 103.619 165.947 103.537 165.801C103.456 165.655 103.261 165.607 103.115 165.688L102.823 165.866C102.628 165.979 102.401 165.979 102.206 165.866L100.242 164.797L100.567 164.603C100.713 164.506 100.762 164.328 100.681 164.182C100.6 164.036 100.405 163.988 100.242 164.069L99.9341 164.247C99.7393 164.36 99.6095 164.571 99.6095 164.797C99.6095 165.024 99.7393 165.234 99.9341 165.348L101.898 166.417C102.093 166.514 102.304 166.562 102.515 166.562Z" fill="#ECC550"/>
<path d="M137.59 123.637L147.75 117.808L157.927 123.637V126.471L147.75 132.3V129.482L137.59 123.637Z" fill="#ECC550"/>
<path d="M137.59 123.216L147.766 117.371L158.3 123.41V123.831V126.665L148.124 132.478L147.766 132.688L137.233 126.665V123.831V123.427L137.59 123.216ZM138.304 123.637L147.75 129.061L157.197 123.637L147.75 118.213L138.304 123.637ZM157.57 126.26V124.269L153.658 126.519L148.124 129.693V131.668L157.57 126.26Z" fill="#16110D"/>
<path d="M142.345 124.269L147.75 127.264L153.171 124.269L147.75 121.16L142.345 124.269Z" fill="#FFEECC"/>
<path d="M147.75 127.718L154.843 123.653L147.75 119.589L140.657 123.653L147.75 127.718ZM153.399 123.637L147.766 126.876L142.134 123.637L147.766 120.399L153.399 123.637Z" fill="#16110D"/>
<path d="M24.9963 170.691C25.5521 170.691 26.0026 170.43 26.0026 170.108C26.0026 169.786 25.5521 169.525 24.9963 169.525C24.4405 169.525 23.99 169.786 23.99 170.108C23.99 170.43 24.4405 170.691 24.9963 170.691Z" fill="#16110D"/>
<path d="M28.7132 168.554C29.269 168.554 29.7195 168.293 29.7195 167.971C29.7195 167.649 29.269 167.388 28.7132 167.388C28.1575 167.388 27.7069 167.649 27.7069 167.971C27.7069 168.293 28.1575 168.554 28.7132 168.554Z" fill="#16110D"/>
<path d="M33.1604 165.413C33.55 165.639 33.55 166.012 33.1604 166.238C32.7709 166.465 32.1216 166.465 31.7321 166.238C31.3426 166.012 31.3426 165.639 31.7321 165.413C32.1216 165.186 32.7546 165.186 33.1604 165.413Z" fill="#16110D"/>
<path d="M36.8773 163.259C37.2669 163.486 37.2669 163.858 36.8773 164.085C36.4878 164.312 35.8386 164.312 35.449 164.085C35.0595 163.858 35.0595 163.486 35.449 163.259C35.8548 163.032 36.4878 163.032 36.8773 163.259Z" fill="#16110D"/>
<path d="M40.6105 161.122C41 161.348 41 161.721 40.6105 161.948C40.2209 162.174 39.5717 162.174 39.1822 161.948C38.7926 161.721 38.7926 161.348 39.1822 161.122C39.5717 160.895 40.2047 160.895 40.6105 161.122Z" fill="#16110D"/>
<path d="M43.6131 159.956C44.1689 159.956 44.6194 159.695 44.6194 159.373C44.6194 159.051 44.1689 158.79 43.6131 158.79C43.0574 158.79 42.6068 159.051 42.6068 159.373C42.6068 159.695 43.0574 159.956 43.6131 159.956Z" fill="#16110D"/>
<path d="M48.0604 156.831C48.45 157.058 48.45 157.43 48.0604 157.657C47.6709 157.883 47.0217 157.883 46.6321 157.657C46.2426 157.43 46.2426 157.058 46.6321 156.831C47.0217 156.604 47.6709 156.604 48.0604 156.831Z" fill="#16110D"/>
<path d="M51.0631 155.665C51.6188 155.665 52.0694 155.404 52.0694 155.082C52.0694 154.76 51.6188 154.499 51.0631 154.499C50.5073 154.499 50.0568 154.76 50.0568 155.082C50.0568 155.404 50.5073 155.665 51.0631 155.665Z" fill="#16110D"/>
<path d="M54.7962 153.528C55.352 153.528 55.8025 153.267 55.8025 152.945C55.8025 152.623 55.352 152.362 54.7962 152.362C54.2405 152.362 53.7899 152.623 53.7899 152.945C53.7899 153.267 54.2405 153.528 54.7962 153.528Z" fill="#16110D"/>
<path d="M58.5293 151.374C59.085 151.374 59.5356 151.113 59.5356 150.791C59.5356 150.469 59.085 150.208 58.5293 150.208C57.9735 150.208 57.5229 150.469 57.5229 150.791C57.5229 151.113 57.9735 151.374 58.5293 151.374Z" fill="#16110D"/>
<path d="M62.9602 148.233C63.3498 148.46 63.3498 148.832 62.9602 149.059C62.5707 149.285 61.9214 149.285 61.5319 149.059C61.1424 148.832 61.1424 148.46 61.5319 148.233C61.9214 148.006 62.5707 148.006 62.9602 148.233Z" fill="#16110D"/>
<path d="M66.6934 146.095C67.0829 146.322 67.0829 146.695 66.6934 146.921C66.3038 147.148 65.6546 147.148 65.2651 146.921C64.8755 146.695 64.8755 146.322 65.2651 146.095C65.6546 145.869 66.2876 145.869 66.6934 146.095Z" fill="#16110D"/>
<path d="M70.4103 143.942C70.7998 144.169 70.7998 144.541 70.4103 144.768C70.0208 144.994 69.3715 144.994 68.982 144.768C68.5924 144.541 68.5924 144.169 68.982 143.942C69.3877 143.715 70.0208 143.715 70.4103 143.942Z" fill="#16110D"/>
<path d="M21.2633 168.554C21.819 168.554 22.2696 168.293 22.2696 167.971C22.2696 167.649 21.819 167.388 21.2633 167.388C20.7075 167.388 20.257 167.649 20.257 167.971C20.257 168.293 20.7075 168.554 21.2633 168.554Z" fill="#16110D"/>
<path d="M25.6942 165.413C26.0838 165.639 26.0838 166.012 25.6942 166.238C25.3047 166.465 24.6554 166.465 24.2659 166.238C23.8764 166.012 23.8764 165.639 24.2659 165.413C24.6717 165.186 25.3047 165.186 25.6942 165.413Z" fill="#16110D"/>
<path d="M28.7132 164.263C29.269 164.263 29.7195 164.002 29.7195 163.68C29.7195 163.358 29.269 163.097 28.7132 163.097C28.1575 163.097 27.7069 163.358 27.7069 163.68C27.7069 164.002 28.1575 164.263 28.7132 164.263Z" fill="#16110D"/>
<path d="M32.4463 162.109C33.002 162.109 33.4526 161.849 33.4526 161.527C33.4526 161.205 33.002 160.944 32.4463 160.944C31.8905 160.944 31.4399 161.205 31.4399 161.527C31.4399 161.849 31.8905 162.109 32.4463 162.109Z" fill="#16110D"/>
<path d="M36.1632 159.956C36.7189 159.956 37.1695 159.695 37.1695 159.373C37.1695 159.051 36.7189 158.79 36.1632 158.79C35.6074 158.79 35.1569 159.051 35.1569 159.373C35.1569 159.695 35.6074 159.956 36.1632 159.956Z" fill="#16110D"/>
<path d="M40.6105 156.831C41 157.058 41 157.43 40.6105 157.657C40.2209 157.883 39.5717 157.883 39.1822 157.657C38.7926 157.43 38.7926 157.058 39.1822 156.831C39.5717 156.604 40.2047 156.604 40.6105 156.831Z" fill="#16110D"/>
<path d="M44.3273 154.677C44.7168 154.904 44.7168 155.276 44.3273 155.503C43.9377 155.73 43.2885 155.73 42.899 155.503C42.5094 155.276 42.5094 154.904 42.899 154.677C43.3047 154.451 43.9377 154.451 44.3273 154.677Z" fill="#16110D"/>
<path d="M48.0604 152.524C48.45 152.75 48.45 153.123 48.0604 153.35C47.6709 153.576 47.0217 153.576 46.6321 153.35C46.2426 153.123 46.2426 152.75 46.6321 152.524C47.0217 152.297 47.6709 152.297 48.0604 152.524Z" fill="#16110D"/>
<path d="M51.7772 150.386C52.1668 150.613 52.1668 150.985 51.7772 151.212C51.3877 151.439 50.7385 151.439 50.3489 151.212C49.9594 150.985 49.9594 150.613 50.3489 150.386C50.7547 150.16 51.3877 150.16 51.7772 150.386Z" fill="#16110D"/>
<path d="M55.5104 148.233C55.8999 148.46 55.8999 148.832 55.5104 149.059C55.1208 149.285 54.4716 149.285 54.0821 149.059C53.6925 148.832 53.6925 148.46 54.0821 148.233C54.4716 148.006 55.1208 148.006 55.5104 148.233Z" fill="#16110D"/>
<path d="M58.5293 147.083C59.085 147.083 59.5356 146.822 59.5356 146.5C59.5356 146.178 59.085 145.917 58.5293 145.917C57.9735 145.917 57.5229 146.178 57.5229 146.5C57.5229 146.822 57.9735 147.083 58.5293 147.083Z" fill="#16110D"/>
<path d="M62.9602 143.942C63.3498 144.169 63.3498 144.541 62.9602 144.768C62.5707 144.994 61.9214 144.994 61.5319 144.768C61.1424 144.541 61.1424 144.169 61.5319 143.942C61.9214 143.715 62.5707 143.715 62.9602 143.942Z" fill="#16110D"/>
<path d="M66.6934 141.805C67.0829 142.031 67.0829 142.404 66.6934 142.63C66.3038 142.857 65.6546 142.857 65.2651 142.63C64.8755 142.404 64.8755 142.031 65.2651 141.805C65.6546 141.578 66.2876 141.578 66.6934 141.805Z" fill="#16110D"/>
<path d="M18.2444 165.413C18.6339 165.639 18.6339 166.012 18.2444 166.238C17.8549 166.465 17.2056 166.465 16.8161 166.238C16.4265 166.012 16.4265 165.639 16.8161 165.413C17.2219 165.186 17.8549 165.186 18.2444 165.413Z" fill="#16110D"/>
<path d="M21.2633 164.263C21.819 164.263 22.2696 164.002 22.2696 163.68C22.2696 163.358 21.819 163.097 21.2633 163.097C20.7075 163.097 20.257 163.358 20.257 163.68C20.257 164.002 20.7075 164.263 21.2633 164.263Z" fill="#16110D"/>
<path d="M14.5275 163.259C14.917 163.486 14.917 163.858 14.5275 164.085C14.1379 164.312 13.4887 164.312 13.0992 164.085C12.7096 163.858 12.7096 163.486 13.0992 163.259C13.4887 163.032 14.1217 163.032 14.5275 163.259Z" fill="#16110D"/>
<path d="M17.5302 162.109C18.086 162.109 18.5366 161.849 18.5366 161.527C18.5366 161.205 18.086 160.944 17.5302 160.944C16.9745 160.944 16.5239 161.205 16.5239 161.527C16.5239 161.849 16.9745 162.109 17.5302 162.109Z" fill="#16110D"/>
<path d="M10.0803 162.109C10.6361 162.109 11.0866 161.849 11.0866 161.527C11.0866 161.205 10.6361 160.944 10.0803 160.944C9.52452 160.944 9.07397 161.205 9.07397 161.527C9.07397 161.849 9.52452 162.109 10.0803 162.109Z" fill="#16110D"/>
<path d="M14.5275 158.968C14.917 159.195 14.917 159.567 14.5275 159.794C14.1379 160.021 13.4887 160.021 13.0992 159.794C12.7096 159.567 12.7096 159.195 13.0992 158.968C13.4887 158.741 14.1217 158.741 14.5275 158.968Z" fill="#16110D"/>
<path d="M7.04505 158.952C7.43459 159.179 7.43459 159.551 7.04505 159.778C6.65551 160.004 6.00628 160.004 5.61674 159.778C5.2272 159.551 5.2272 159.179 5.61674 158.952C6.00628 158.725 6.63928 158.725 7.04505 158.952Z" fill="#16110D"/>
<path d="M10.762 156.798C11.1515 157.025 11.1515 157.398 10.762 157.624C10.3724 157.851 9.7232 157.851 9.33366 157.624C8.94412 157.398 8.94412 157.025 9.33366 156.798C9.73943 156.572 10.3724 156.572 10.762 156.798Z" fill="#16110D"/>
<path d="M7.04505 154.661C7.43459 154.888 7.43459 155.26 7.04505 155.487C6.65551 155.714 6.00628 155.714 5.61674 155.487C5.2272 155.26 5.2272 154.888 5.61674 154.661C6.00628 154.434 6.63928 154.434 7.04505 154.661Z" fill="#16110D"/>
<path d="M74.1433 141.837C74.5329 142.064 74.5329 142.436 74.1433 142.663C73.7538 142.889 73.1045 142.889 72.715 142.663C72.3255 142.436 72.3255 142.064 72.715 141.837C73.1208 141.61 73.7538 141.61 74.1433 141.837Z" fill="#16110D"/>
<path d="M77.8765 139.683C78.266 139.91 78.266 140.283 77.8765 140.509C77.4869 140.736 76.8377 140.736 76.4482 140.509C76.0586 140.283 76.0586 139.91 76.4482 139.683C76.8377 139.457 77.4869 139.457 77.8765 139.683Z" fill="#16110D"/>
<path d="M68.9982 139.683C69.3877 139.457 70.037 139.457 70.4265 139.683C70.8161 139.91 70.8161 140.283 70.4265 140.509C70.037 140.736 69.3877 140.736 68.9982 140.509C68.6087 140.283 68.6087 139.91 68.9982 139.683Z" fill="#16110D"/>
<path d="M73.4454 138.534C74.0012 138.534 74.4517 138.273 74.4517 137.951C74.4517 137.629 74.0012 137.368 73.4454 137.368C72.8896 137.368 72.4391 137.629 72.4391 137.951C72.4391 138.273 72.8896 138.534 73.4454 138.534Z" fill="#16110D"/>
<path d="M77.8765 135.393C78.266 135.619 78.266 135.992 77.8765 136.218C77.4869 136.445 76.8377 136.445 76.4482 136.218C76.0586 135.992 76.0586 135.619 76.4482 135.393C76.8377 135.166 77.4869 135.166 77.8765 135.393Z" fill="#16110D"/>
<path d="M33.3228 169.865C33.7123 170.092 33.7123 170.465 33.3228 170.691C32.9332 170.918 32.284 170.918 31.8944 170.691C31.5049 170.465 31.5049 170.092 31.8944 169.865C32.3002 169.639 32.9332 169.639 33.3228 169.865Z" fill="#16110D"/>
<path d="M37.0559 167.712C37.4455 167.939 37.4455 168.311 37.0559 168.538C36.6664 168.764 36.0171 168.764 35.6276 168.538C35.2381 168.311 35.2381 167.939 35.6276 167.712C36.0171 167.485 36.6501 167.485 37.0559 167.712Z" fill="#16110D"/>
<path d="M40.7727 165.575C41.1623 165.801 41.1623 166.174 40.7727 166.4C40.3832 166.627 39.7339 166.627 39.3444 166.4C38.9549 166.174 38.9549 165.801 39.3444 165.575C39.7502 165.348 40.3832 165.348 40.7727 165.575Z" fill="#16110D"/>
<path d="M43.7916 164.409C44.3474 164.409 44.7979 164.148 44.7979 163.826C44.7979 163.504 44.3474 163.243 43.7916 163.243C43.2358 163.243 42.7853 163.504 42.7853 163.826C42.7853 164.148 43.2358 164.409 43.7916 164.409Z" fill="#16110D"/>
<path d="M48.2227 161.267C48.6122 161.494 48.6122 161.867 48.2227 162.093C47.8331 162.32 47.1839 162.32 46.7944 162.093C46.4048 161.867 46.4048 161.494 46.7944 161.267C47.2001 161.041 47.8331 161.041 48.2227 161.267Z" fill="#16110D"/>
<path d="M51.2417 160.118C51.7974 160.118 52.248 159.857 52.248 159.535C52.248 159.213 51.7974 158.952 51.2417 158.952C50.6859 158.952 50.2354 159.213 50.2354 159.535C50.2354 159.857 50.6859 160.118 51.2417 160.118Z" fill="#16110D"/>
<path d="M55.6726 156.977C56.0622 157.203 56.0622 157.576 55.6726 157.802C55.2831 158.029 54.6338 158.029 54.2443 157.802C53.8548 157.576 53.8548 157.203 54.2443 156.977C54.6501 156.75 55.2831 156.75 55.6726 156.977Z" fill="#16110D"/>
<path d="M59.4058 154.839C59.7953 155.066 59.7953 155.438 59.4058 155.665C59.0162 155.892 58.367 155.892 57.9775 155.665C57.5879 155.438 57.5879 155.066 57.9775 154.839C58.367 154.613 59.0162 154.613 59.4058 154.839Z" fill="#16110D"/>
<path d="M62.4248 153.69C62.9805 153.69 63.4311 153.429 63.4311 153.107C63.4311 152.785 62.9805 152.524 62.4248 152.524C61.869 152.524 61.4185 152.785 61.4185 153.107C61.4185 153.429 61.869 153.69 62.4248 153.69Z" fill="#16110D"/>
<path d="M66.8557 150.548C67.2453 150.775 67.2453 151.147 66.8557 151.374C66.4662 151.601 65.817 151.601 65.4274 151.374C65.0379 151.147 65.0379 150.775 65.4274 150.548C65.8332 150.322 66.4662 150.322 66.8557 150.548Z" fill="#16110D"/>
<path d="M70.5888 148.395C70.9783 148.621 70.9783 148.994 70.5888 149.221C70.1992 149.447 69.55 149.447 69.1604 149.221C68.7709 148.994 68.7709 148.621 69.1604 148.395C69.55 148.168 70.183 148.168 70.5888 148.395Z" fill="#16110D"/>
<path d="M74.3057 146.257C74.6952 146.484 74.6952 146.857 74.3057 147.083C73.9161 147.31 73.2669 147.31 72.8774 147.083C72.4878 146.857 72.4878 146.484 72.8774 146.257C73.2831 146.031 73.9161 146.031 74.3057 146.257Z" fill="#16110D"/>
<path d="M76.6104 144.136C76.9999 143.91 77.6492 143.91 78.0387 144.136C78.4282 144.363 78.4282 144.735 78.0387 144.962C77.6492 145.189 76.9999 145.189 76.6104 144.962C76.2209 144.735 76.2209 144.363 76.6104 144.136Z" fill="#16110D"/>
<path d="M80.8954 138.534C81.4511 138.534 81.9017 138.273 81.9017 137.951C81.9017 137.629 81.4511 137.368 80.8954 137.368C80.3396 137.368 79.889 137.629 79.889 137.951C79.889 138.273 80.3396 138.534 80.8954 138.534Z" fill="#16110D"/>
<path d="M81.7719 141.967C82.1614 142.193 82.1614 142.566 81.7719 142.792C81.3823 143.019 80.7331 143.019 80.3435 142.792C79.954 142.566 79.954 142.193 80.3435 141.967C80.7493 141.74 81.3823 141.74 81.7719 141.967Z" fill="#16110D"/>
<path d="M76.578 132.332V105.227L24.7367 134.988V162.417L76.578 132.332Z" fill="#ECC550"/>
<path d="M76.578 104.433L57.2958 93.2607L5.50317 123.006L24.7367 134L76.578 104.433Z" fill="#ECC550"/>
<path d="M24.4608 134.178L24.7367 136.575L76.578 107.089V104.563L24.4608 134.178Z" fill="#ECC550"/>
<path d="M74.7602 105.534L57.2958 95.5762L5.50317 125.337L22.8052 135.182L74.7602 105.534Z" fill="#FFEECC"/>
<path d="M57.312 92.6779L77.0974 104.126V132.608L24.7367 163L5 151.568V122.714L57.312 92.6779ZM76.1235 107.834L72.3742 109.971V134.178L76.0586 132.041L76.1235 107.834ZM33.8747 131.863L29.8819 134.146V158.855L33.9071 156.523H33.8747V131.863ZM34.605 156.102L38.5978 153.787V129.175L34.605 131.458V156.102ZM39.3282 128.819V153.35L43.321 151.034V126.487L39.2146 128.819H39.3282ZM44.0676 150.613L48.0604 148.298V123.799L44.0676 126.082V150.613ZM48.7908 147.877L52.7836 145.561V121.111L48.7908 123.394V147.877ZM53.514 145.124L57.4581 142.825V118.456L53.514 120.706V145.124ZM58.1885 142.42L62.1812 140.104V115.768L58.1885 118.051V142.42ZM62.9279 139.667L66.9207 137.352V113.08L62.9279 115.363V139.667ZM67.651 136.931L71.6438 134.615V110.376L67.651 112.659V136.931ZM25.2399 161.543L29.1515 159.276V134.551L25.2399 136.769V161.543ZM25.2399 134.583V134.696V135.781L76.1235 106.83V105.146L25.2399 134.291V134.583V134.583ZM24.7367 133.417L75.5555 104.417L57.2958 93.8437L6.5257 123.006L24.7367 133.417Z" fill="#16110D"/>
<path d="M5 125.143V124.22L25.1749 135.813V136.753L14.9982 130.891V157.365L14.2678 156.944V130.47L5 125.143Z" fill="#ECC550"/>
<path d="M18.9585 149.884C19.1695 149.884 19.3805 149.82 19.5753 149.723L19.8675 149.544C20.0135 149.463 20.0622 149.269 19.9811 149.123C19.8837 148.978 19.7052 148.929 19.5428 149.01L19.2507 149.172C19.0559 149.285 18.8287 149.285 18.6339 149.172L16.67 148.103L16.9946 147.909C17.1407 147.812 17.1894 147.634 17.1082 147.488C17.0271 147.342 16.8323 147.294 16.67 147.375L16.3454 147.553C16.1506 147.666 16.0208 147.877 16.0208 148.103C16.0208 148.33 16.1506 148.541 16.3454 148.654L18.3093 149.723C18.5203 149.836 18.7313 149.884 18.9585 149.884Z" fill="#ECC550"/>
<path d="M12.0928 146.063C12.3038 146.063 12.5148 145.998 12.7096 145.901L13.0017 145.723C13.1478 145.642 13.1965 145.448 13.1154 145.302C13.0342 145.156 12.8394 145.108 12.6934 145.189L12.4012 145.367C12.2064 145.48 11.9792 145.48 11.7844 145.367L9.8205 144.298L10.1451 144.104C10.2912 144.007 10.3399 143.829 10.2587 143.683C10.1776 143.537 9.98281 143.489 9.8205 143.57L9.51212 143.748C9.31735 143.861 9.1875 144.072 9.1875 144.298C9.1875 144.525 9.31735 144.735 9.51212 144.849L11.476 145.917C11.6546 146.015 11.8818 146.063 12.0928 146.063Z" fill="#ECC550"/>
<path d="M18.845 119.783L29.0217 113.954L39.1822 119.783V122.617L29.0217 128.446V125.629L18.845 119.783Z" fill="#ECC550"/>
<path d="M18.845 119.379L29.0217 113.533L39.5555 119.573V119.994V122.828L29.3788 128.64L29.0217 128.851L18.4717 122.828V119.994V119.573L18.845 119.379ZM19.5754 119.783L29.0217 125.208L38.4681 119.783L29.0217 114.359L19.5754 119.783ZM38.8252 122.407V120.415L34.9135 122.666L29.3788 125.839V127.815L38.8252 122.407Z" fill="#16110D"/>
<path d="M23.6006 120.415L29.0217 123.427L34.4266 120.415L29.0217 117.306L23.6006 120.415Z" fill="#FFEECC"/>
<path d="M29.0217 123.864L36.1146 119.8L29.0217 115.735L21.9288 119.8L29.0217 123.864ZM34.6538 119.783L29.0217 123.022L23.3896 119.783L29.0217 116.545L34.6538 119.783Z" fill="#16110D"/>
<path d="M116.552 41.9434L116.54 41.9071C116.528 41.8769 116.522 41.8467 116.51 41.8165L115.58 37.8486L115.142 39.896C114.572 39.0988 113.732 38.3499 112.616 37.6976C108.074 35.0584 100.713 35.0584 96.1712 37.6976C95.0553 38.3439 94.2154 39.0927 93.6454 39.896L93.2794 37.9151L92.8655 39.6242C92.8535 39.6544 92.4695 41.3394 92.4635 41.3696L92.4515 41.4059C91.7975 43.5136 93.3754 46.0925 96.1772 47.7231C100.719 50.3624 108.08 50.3624 112.622 47.7231C115.418 46.0925 117.206 44.0451 116.552 41.9434Z" fill="#ECC550"/>
<path d="M99.3989 44.6189L98.859 48.8223L93.8914 46.0744L94.8753 42.348L99.3989 44.6189Z" fill="#FFEECC"/>
<path d="M116.846 41.8467L115.742 37.4741L114.974 39.1833C114.404 38.531 113.666 37.9452 112.772 37.4258C108.152 34.7383 100.635 34.7383 96.0152 37.4258C95.1273 37.9392 94.3953 38.525 93.8254 39.1652L92.9795 37.7097L92.5715 39.5215C92.5595 39.5457 92.5595 39.5517 92.3495 40.4878C92.2595 40.8744 92.1755 41.2428 92.1575 41.3152C91.4736 43.5257 93.0635 46.2736 96.0212 47.9949C98.331 49.3356 101.367 50.006 104.397 50.006C107.432 50.006 110.462 49.3356 112.772 47.9949C116.042 46.0925 117.487 43.9122 116.846 41.8467ZM115.658 39.5336L115.442 39.9745L115.592 39.2679L115.658 39.5336ZM92.7575 41.4662C92.7635 41.4481 92.8535 41.0495 92.9495 40.6267C93.0455 40.204 93.1474 39.7571 93.1654 39.6967L93.2374 39.3947L93.4774 40.669L93.8974 40.0711C94.4553 39.286 95.2773 38.5733 96.3272 37.9633C100.773 35.3785 108.014 35.3785 112.46 37.9633C113.51 38.5733 114.326 39.286 114.89 40.0711L115.19 40.4939L114.77 41.3636L111.572 43.7914L106.508 45.1805L106.79 49.233C106.004 49.3296 105.2 49.384 104.403 49.384V45.3738L103.233 45.2832L103.071 49.3356C100.605 49.1665 98.217 48.5445 96.3332 47.4453C93.6214 45.875 92.1455 43.423 92.7575 41.4662Z" fill="#16110D"/>
<path d="M104.397 45.3013C110.603 45.3013 115.634 42.3756 115.634 38.7666C115.634 35.1576 110.603 32.2319 104.397 32.2319C98.1904 32.2319 93.1594 35.1576 93.1594 38.7666C93.1594 42.3756 98.1904 45.3013 104.397 45.3013Z" fill="#ECC550"/>
<path d="M104.397 44.9329C109.761 44.9329 114.11 42.4047 114.11 39.286C114.11 36.1673 109.761 33.6391 104.397 33.6391C99.0321 33.6391 94.6833 36.1673 94.6833 39.286C94.6833 42.4047 99.0321 44.9329 104.397 44.9329Z" fill="#FFEECC"/>
<path d="M112.496 33.8807C108.026 31.2837 100.761 31.2837 96.2912 33.8807C94.0713 35.1732 92.8414 36.9065 92.8414 38.7727C92.8414 40.6328 94.0653 42.3722 96.2912 43.6646C98.523 44.9631 101.457 45.6093 104.391 45.6093C107.324 45.6093 110.258 44.9631 112.49 43.6646C114.71 42.3722 115.94 40.6389 115.94 38.7727C115.946 36.9065 114.722 35.1732 112.496 33.8807ZM111.11 34.5994C112.844 35.608 113.798 36.9306 113.798 38.3197C113.798 39.7088 112.844 41.0314 111.11 42.04C107.408 44.1901 101.385 44.1901 97.683 42.04C95.9492 41.0314 94.9953 39.7088 94.9953 38.3197C94.9953 36.9306 95.9492 35.608 97.683 34.5994C99.5309 33.5244 101.967 32.9869 104.397 32.9869C106.826 32.9869 109.262 33.5244 111.11 34.5994ZM112.19 43.115C107.894 45.6093 100.905 45.6093 96.6091 43.115C94.5873 41.9373 93.4714 40.3973 93.4714 38.7666C93.4714 37.136 94.5873 35.5959 96.6091 34.4182C96.9991 34.1948 97.4131 33.9955 97.839 33.8082C97.683 33.8867 97.5211 33.9653 97.3771 34.0498C95.4392 35.1732 94.3773 36.6891 94.3773 38.3137C94.3773 39.9383 95.4452 41.4542 97.3771 42.5775C99.3149 43.7009 101.859 44.2686 104.403 44.2686C106.946 44.2686 109.49 43.7069 111.428 42.5775C113.366 41.4542 114.428 39.9383 114.428 38.3137C114.428 36.6891 113.36 35.1732 111.428 34.0498C111.278 33.9653 111.122 33.8867 110.966 33.8082C111.392 33.9955 111.812 34.1887 112.196 34.4182C114.218 35.5959 115.334 37.136 115.334 38.7666C115.322 40.3973 114.212 41.9373 112.19 43.115Z" fill="#16110D"/>
<path d="M110.126 35.9462C109.952 35.6986 109.73 35.463 109.454 35.2456L106.808 32.4675H102.153L99.2309 35.4691L98.991 35.7288C97.5931 37.0937 98.133 38.6217 100.155 39.7933C102.537 41.1764 106.4 41.1764 108.788 39.7933C110.582 38.7485 111.026 37.2266 110.126 35.9462Z" fill="#ECC550"/>
<path d="M104.475 41.134C102.855 41.134 101.235 40.7777 100.005 40.059C98.751 39.3343 98.0311 38.4646 97.9231 37.5527C97.8331 36.84 98.1331 36.1273 98.781 35.4992L99.009 35.2516L102.027 32.1473H106.946L109.682 35.0221C109.952 35.2456 110.198 35.4992 110.378 35.7589L110.126 35.9401L110.378 35.7589C110.822 36.3991 110.978 37.0997 110.828 37.7942C110.636 38.6699 109.982 39.449 108.938 40.059C107.714 40.7777 106.094 41.134 104.475 41.134ZM102.291 32.7754L99.225 35.9401C98.703 36.4474 98.4751 36.9608 98.5411 37.4802C98.6251 38.1808 99.255 38.9055 100.317 39.5215C102.609 40.8562 106.34 40.8562 108.638 39.5215C109.526 39.0082 110.078 38.3619 110.228 37.6674C110.342 37.148 110.222 36.6165 109.88 36.1273C109.73 35.916 109.526 35.6985 109.268 35.4872L106.688 32.7815H102.291V32.7754Z" fill="#16110D"/>
<path d="M106.13 31.6944C107.042 32.2259 107.042 33.0895 106.13 33.621C105.219 34.1524 103.731 34.1524 102.819 33.621C101.907 33.0895 101.907 32.2259 102.819 31.6944C103.731 31.1629 105.219 31.1629 106.13 31.6944Z" fill="#ECC550"/>
<path d="M106.13 32.2802C107.042 32.8117 107.042 33.6753 106.13 34.2068C105.219 34.7383 103.731 34.7383 102.819 34.2068C101.907 33.6753 101.907 32.8117 102.819 32.2802C103.731 31.7487 105.219 31.7487 106.13 32.2802Z" fill="#FFEECC"/>
<path d="M104.475 34.3336C103.821 34.3336 103.173 34.1887 102.663 33.8927C102.123 33.5787 101.823 33.1378 101.823 32.6607C101.823 32.1836 102.123 31.7427 102.663 31.4286C103.677 30.8368 105.272 30.8368 106.286 31.4286C106.826 31.7427 107.126 32.1836 107.126 32.6607C107.126 33.1378 106.826 33.5787 106.286 33.8927C105.776 34.1887 105.128 34.3336 104.475 34.3336ZM104.475 31.6098C103.929 31.6098 103.383 31.7306 102.975 31.9662C102.639 32.1594 102.447 32.4131 102.447 32.6607C102.447 32.9023 102.639 33.1559 102.975 33.3492C103.785 33.8203 105.158 33.8203 105.974 33.3492C106.31 33.1559 106.502 32.9023 106.502 32.6607C106.502 32.4191 106.31 32.1655 105.974 31.9662C105.566 31.7306 105.02 31.6098 104.475 31.6098Z" fill="#16110D"/>
<path d="M103.971 5L103.875 31.7608C103.875 32.1051 104.15 32.3889 104.492 32.3889C104.834 32.3889 105.116 32.1111 105.116 31.7669L105.212 5H103.971Z" fill="#16110D"/>
</svg>
