<svg width="91" height="77" viewBox="0 0 91 77" fill="none" xmlns="http://www.w3.org/2000/svg">
<path d="M80.2569 32.5457L78.5076 33.1805L72.7516 29.8291L26.3126 56.6503L8.23343 63.2153C8.23343 63.2153 0.943137 69.4703 2.07675 70.4103C3.20547 71.3503 13.105 74.9822 13.105 74.9822L13.1148 74.9773C16.4277 76.2371 22.6968 76.2371 27.9104 74.8395C31.6484 73.8355 35.2349 72.3394 38.5869 70.4004L86.7361 42.5704C87.2296 42.2849 87.5667 41.7928 87.6498 41.2269L89.8633 31.3498L80.2569 32.5457Z" fill="#ECC550"/>
<path d="M78.5076 33.087L74.9553 31.02L73.8168 31.4334L71.8232 30.272L26.3126 56.5568L8.2334 63.1218C8.2334 63.1218 0.82583 69.3965 1.95456 70.3414C2.62886 70.9073 6.4206 72.4477 9.3719 73.5796C12.8509 74.3178 18.5287 73.3385 23.2147 72.0835C26.9527 71.0796 30.5392 69.5835 33.8911 67.6445L88.8567 35.8134L89.8535 31.3596L80.252 32.4571L78.5076 33.087Z" fill="#ECC550"/>
<path d="M21.1233 75.6367C21.1233 75.6367 15.3477 75.2873 12.4453 72.9891C11.9713 72.615 11.5853 72.2558 11.2579 71.9113C11.0527 71.9408 10.8377 71.9703 10.5934 72.0048C8.84901 72.2459 6.36679 72.0638 4.85693 71.9113C8.09164 73.245 12.6065 74.8346 12.6065 74.8346L12.6163 74.8296C14.6539 75.6023 18.0107 75.9665 21.3529 75.7548L21.1233 75.6367Z" fill="#FFEECC"/>
<path d="M90 31.2907L88.969 35.8922L87.767 41.2564C87.6791 41.8519 87.3224 42.3785 86.7946 42.6836L38.6454 70.5136C35.2641 72.4674 31.663 73.9635 27.9396 74.9625C25.3011 75.6712 22.3156 76.0255 19.5744 76.0255C17.0531 76.0255 14.7419 75.7253 13.1098 75.1151L13.061 75.1003C12.6799 74.9576 4.12401 71.8178 2.25258 70.681C2.09133 70.5875 1.96429 70.5038 1.88122 70.4349C1.77372 70.3463 1.71997 70.2184 1.71997 70.0609C1.71509 68.5008 7.89621 63.2449 8.16006 63.0185L8.19915 62.9939L26.2783 56.4288L71.8329 30.1145L71.916 30.1637L72.7613 29.6765L74.8771 30.9069L74.9748 30.8724L78.5271 32.9394L80.2177 32.3242L90 31.2907ZM72.1603 30.3212L73.8314 31.2956L74.5594 31.0299L72.7515 29.9767L72.1603 30.3212ZM9.42072 73.4615C12.758 74.1653 17.8935 73.2351 21.1966 72.4576C20.2047 71.9113 19.2226 71.2026 18.3088 70.2873C13.1343 65.0953 13.1343 65.0953 13.1343 65.0953L85.4607 32.0289L80.2813 32.6687L78.488 33.3183L74.838 31.1923L73.7972 31.5712L71.8964 30.4639L26.376 56.7586L8.30177 63.3285C6.55248 64.8295 2.07667 68.9388 2.08644 70.1347C2.08644 70.243 2.13042 70.2873 2.15974 70.3168C2.20371 70.3562 2.26723 70.3955 2.34053 70.4447C3.2738 70.991 5.74136 72.0245 8.20893 72.994C8.61937 73.1515 9.02493 73.3089 9.42072 73.4615ZM29.7134 74.1702C28.0716 74.303 24.7636 74.2932 21.5386 72.6347C19.0369 73.2302 15.3575 73.9586 12.1961 73.9586C11.6146 73.9586 11.0527 73.929 10.5201 73.8749C11.8541 74.3818 12.8753 74.7558 13.1001 74.8395L13.1538 74.8542C16.5009 76.1239 22.8286 76.0649 27.8712 74.7115C28.4869 74.5491 29.1026 74.367 29.7134 74.1702Z" fill="#16110D"/>
<path d="M89.8584 31.3547L29.2541 66.4388C24.4118 69.2341 7.65686 73.6584 2.07676 70.4103C-3.50335 67.1622 4.19739 57.4721 9.04456 54.6768L69.6488 19.6862L89.8584 31.3547Z" fill="#ECC550"/>
<path d="M86.7067 31.8419H89.1107L89.4235 31.6057L77.4863 24.7158L81.625 28.9088L86.7067 31.8419Z" fill="#FFEECC"/>
<path d="M29.3176 66.552L89.9707 31.4384L90.0049 31.2907L69.6488 19.5386L8.97608 54.5686C5.40911 56.6257 0.00491244 62.6395 2.61775e-05 67.0146C-0.00486008 68.5648 0.67433 69.7459 2.01316 70.5235C3.43018 71.3453 5.54104 71.6849 7.98906 71.6849C15.3282 71.6849 25.692 68.6435 29.3176 66.552ZM89.5993 31.3547L29.1905 66.3305C24.3971 69.0963 7.7252 73.555 2.14021 70.302C0.889325 69.5737 0.254112 68.4664 0.254112 67.0146C0.263884 62.733 5.58502 56.8176 9.10313 54.79L69.6439 19.8339L89.5993 31.3547Z" fill="#16110D"/>
<path d="M69.6878 25.6214L9.14709 60.5775C6.83589 61.9112 4.23152 65.6366 2.94643 68.4713L2.91711 68.5353C3.15654 68.8404 3.46926 69.116 3.86505 69.3473C8.36529 71.9654 23.6202 68.4024 27.5243 66.1484L83.7309 33.7366L69.6878 25.6214Z" fill="#FFEECC"/>
<path d="M86.9999 31.3645L69.5169 21.266L9.07384 56.1139C9.03475 56.1385 8.99077 56.168 8.95168 56.1926C8.86373 56.2418 8.78066 56.2959 8.69271 56.355C8.57055 56.4337 8.44351 56.5174 8.31647 56.606C8.27738 56.6355 8.23829 56.6601 8.19431 56.6897C7.71057 57.0341 7.22194 57.4377 6.72843 57.8905C6.71377 57.9052 6.69423 57.92 6.67957 57.9347L7.02649 61.547C7.61773 60.9614 8.21874 60.4741 8.80021 60.1395L69.341 25.1834L83.2619 33.2297L27.1188 65.5972C23.2586 67.8266 8.08681 71.4192 3.58657 68.7961C3.19078 68.5648 2.87317 68.2843 2.63375 67.9595C3.55725 65.9417 5.1404 63.4909 6.80661 61.7734L6.44992 58.1562L6.4548 58.1464C6.44503 58.1562 6.43037 58.166 6.4206 58.1759C6.35708 58.2399 6.29356 58.2989 6.23003 58.3629C4.04099 60.5086 1.97899 63.486 1.83729 65.9122C1.83729 65.927 1.83729 65.9467 1.83729 65.9614C1.8324 66.0303 1.82751 66.0992 1.82751 66.1681C1.82751 66.2026 1.8324 66.2321 1.8324 66.2665C1.8324 66.3354 1.83729 66.3994 1.84217 66.4634C1.84706 66.5421 1.85195 66.6209 1.86172 66.6947C1.8666 66.7439 1.87638 66.7882 1.88615 66.8325C1.94478 67.1622 2.0474 67.4673 2.19398 67.7479V67.7528C2.24285 67.8463 2.30148 67.9349 2.36012 68.0185C2.36989 68.0284 2.37478 68.0431 2.37966 68.053L2.42364 68.117C2.4383 68.1366 2.45296 68.1613 2.4725 68.1859L2.51159 68.24L2.51648 68.2301C2.76568 68.5353 3.0784 68.801 3.46441 69.0225C4.6078 69.6869 6.4206 69.9625 8.56567 69.9625C14.9862 69.9625 24.3336 67.5116 27.2556 65.8285L86.8191 31.4876L86.9999 31.3645Z" fill="#16110D"/>
<path d="M69.3409 25.0308L69.512 21.4087L86.7458 31.3646L83.516 33.2248L69.3409 25.0308Z" fill="#ECC550"/>
<path d="M86.9656 31.3645L69.4142 21.2266L69.2285 25.0948L83.5159 33.3528L86.9656 31.3645ZM69.6145 21.5957L86.5259 31.3645L83.5159 33.0969L69.4533 24.9717L69.6145 21.5957Z" fill="#16110D"/>
<path d="M73.2499 42.4227V42.1472L72.1652 42.782V43.0576L72.5756 42.8165L72.5805 44.2387L72.8444 44.0862L72.8395 42.6639L73.2499 42.4227Z" fill="#ECC550"/>
<path d="M74.5692 43.0773L74.2223 42.5655C74.3053 42.4867 74.3737 42.3932 74.4275 42.2751C74.4763 42.1619 74.5008 42.0438 74.5008 41.9208C74.5008 41.7584 74.4568 41.655 74.3786 41.6157C74.2956 41.5763 74.1783 41.6009 74.0268 41.6895L73.3965 42.0586L73.4014 43.7564L73.6652 43.6039V42.9592L73.9779 42.7771L74.276 43.2495L74.5692 43.0773ZM74.1783 42.3145C74.1392 42.3834 74.0854 42.4375 74.0073 42.4818L73.6603 42.6836V42.1816L73.9975 41.9848C74.1539 41.8913 74.232 41.9306 74.232 42.093C74.232 42.1767 74.2174 42.2505 74.1783 42.3145Z" fill="#ECC550"/>
<path d="M75.8837 42.3096L75.4195 40.8824L75.1068 41.0645L74.6523 43.033L74.9162 42.8804L75.0286 42.3834L75.5123 42.1029L75.6247 42.472L75.8837 42.3096ZM75.2827 41.3056L75.3218 41.4483L75.4488 41.8617L75.0872 42.0733C75.1801 41.6501 75.2289 41.4139 75.2387 41.3745C75.2485 41.3351 75.2534 41.2958 75.2582 41.2613L75.2631 41.2318L75.2827 41.3056Z" fill="#ECC550"/>
<path d="M77.1394 41.5763L77.1297 39.8784L76.8951 40.0162L76.9 41.0005C76.9 41.0989 76.9049 41.2072 76.9196 41.3204L76.3528 40.3312L76.0498 40.5084L76.0547 42.2062L76.2892 42.0684L76.2843 41.0694C76.2843 40.9907 76.2795 40.8922 76.2648 40.7741L76.8218 41.7584L77.1394 41.5763Z" fill="#ECC550"/>
<path d="M78.3903 40.1639C78.3756 40.1196 78.3512 40.0851 78.3219 40.0654C78.2925 40.0458 78.2486 40.0359 78.1948 40.0359C78.1411 40.0359 78.0531 40.0556 77.9359 40.095C77.8332 40.1245 77.7648 40.1393 77.7306 40.1393C77.6964 40.1393 77.672 40.1294 77.6525 40.1097C77.6329 40.0901 77.628 40.0605 77.628 40.0162C77.628 39.8834 77.7062 39.7652 77.8674 39.6717C77.9407 39.6274 77.9994 39.6127 78.0434 39.6274C78.0824 39.6422 78.1118 39.6816 78.1264 39.7456L78.3854 39.5487C78.361 39.4109 78.3121 39.3322 78.2339 39.3125C78.1557 39.2928 78.0385 39.3272 77.8821 39.4208C77.716 39.5192 77.5938 39.6324 77.5059 39.7603C77.4179 39.8932 77.3788 40.0359 77.3788 40.1885C77.3788 40.2475 77.3837 40.2967 77.3984 40.3361C77.4081 40.3755 77.4277 40.405 77.4472 40.4296C77.4668 40.4542 77.4961 40.4641 77.5254 40.4739C77.5547 40.4788 77.5889 40.4838 77.628 40.4788C77.6671 40.4739 77.7306 40.4591 77.8235 40.4345C77.9359 40.4001 78.0091 40.3804 78.0482 40.3804C78.0873 40.3804 78.1166 40.3853 78.1362 40.405C78.1557 40.4247 78.1704 40.4591 78.1704 40.5034C78.1704 40.656 78.0776 40.784 77.8919 40.8922C77.8039 40.9464 77.7306 40.966 77.6818 40.9513C77.6329 40.9414 77.5987 40.8922 77.5792 40.8135L77.3251 41.0202C77.3544 41.1629 77.413 41.2416 77.5059 41.2662C77.5987 41.2909 77.7257 41.2515 77.887 41.158C78.0629 41.0546 78.1997 40.9316 78.2925 40.7889C78.3854 40.6462 78.4294 40.4936 78.4294 40.3263C78.4147 40.2672 78.4049 40.2082 78.3903 40.1639Z" fill="#ECC550"/>
<path d="M79.5238 38.6186C79.4408 38.5743 79.3235 38.594 79.172 38.6826L78.6052 39.0172L78.6101 40.7151L78.874 40.5625V39.967L79.1867 39.7849C79.2795 39.7308 79.3626 39.657 79.431 39.5684C79.4994 39.4798 79.5532 39.3814 79.5874 39.278C79.6265 39.1698 79.6411 39.0615 79.6411 38.9532C79.646 38.7711 79.6069 38.6629 79.5238 38.6186ZM79.3235 39.3519C79.2844 39.4257 79.2258 39.4798 79.1574 39.5241L78.874 39.6865V39.1353L79.1476 38.9729C79.304 38.8794 79.3821 38.9237 79.3821 39.1009C79.3821 39.1993 79.3626 39.278 79.3235 39.3519Z" fill="#ECC550"/>
<path d="M80.892 37.8853C80.7796 37.7967 80.6233 37.8115 80.4229 37.9296C80.2226 38.0477 80.0662 38.215 79.9539 38.4316C79.8415 38.6481 79.7877 38.8942 79.7877 39.1698C79.7877 39.4404 79.8464 39.6225 79.9587 39.716C80.0711 39.8095 80.2275 39.7948 80.4278 39.6767C80.5549 39.6028 80.6721 39.4995 80.765 39.3715C80.8627 39.2436 80.936 39.0959 80.9897 38.9335C81.0435 38.7711 81.0679 38.5989 81.0679 38.4217C81.063 38.1511 81.0093 37.9739 80.892 37.8853ZM80.7015 39.0812C80.6379 39.2239 80.5451 39.3272 80.4278 39.3961C80.3154 39.465 80.2226 39.4601 80.1542 39.3961C80.0858 39.3272 80.0565 39.1993 80.0516 39.0123C80.0516 38.8253 80.0809 38.6629 80.1444 38.5251C80.2079 38.3824 80.3008 38.279 80.4181 38.2101C80.5353 38.1412 80.6233 38.1412 80.6917 38.2052C80.7552 38.2692 80.7894 38.3971 80.7894 38.5792C80.7943 38.7711 80.765 38.9385 80.7015 39.0812Z" fill="#ECC550"/>
<path d="M82.4361 38.4759L82.0892 37.9641C82.1723 37.8853 82.2407 37.7918 82.2944 37.6737C82.3433 37.5556 82.3677 37.4424 82.3677 37.3194C82.3677 37.157 82.3238 37.0536 82.2407 37.0142C82.1576 36.9749 82.0403 36.9995 81.8889 37.0881L81.2585 37.4572L81.2634 39.155L81.5273 39.0025V38.3578L81.84 38.1757L82.1381 38.6481L82.4361 38.4759ZM82.0452 37.7131C82.0061 37.782 81.9524 37.8361 81.8791 37.8804L81.5322 38.0822V37.5802L81.8693 37.3833C82.0257 37.2948 82.1039 37.3292 82.1039 37.4916C82.1039 37.5753 82.0843 37.6491 82.0452 37.7131Z" fill="#ECC550"/>
<path d="M83.5746 36.3843V36.1087L82.4899 36.7436V37.0192L82.9003 36.778L82.9052 38.2003L83.1691 38.0477L83.1642 36.6254L83.5746 36.3843Z" fill="#ECC550"/>
<path d="M33.8276 67.5362C30.4659 69.4802 26.8843 70.9664 23.1805 71.9605C22.6528 72.1032 21.9736 72.2755 21.1967 72.4576C21.309 72.5215 21.4214 72.5806 21.5387 72.6397C22.2032 72.4822 22.7847 72.3296 23.2489 72.2066C26.9722 71.2076 30.5734 69.7115 33.9547 67.7577L88.9691 35.8922L89.0472 35.5526L33.8276 67.5362Z" fill="#ECC550"/>
<path d="M60.3111 30.6116L60.316 15.075L82.5094 17.8112V33.4364C82.5387 33.6087 82.1527 34.0122 81.9475 34.1303L74.6181 38.3528C74.2174 38.589 73.5138 38.5595 73.0496 38.2937L60.6971 31.1529C60.4235 31.0004 60.2916 30.7986 60.3111 30.6116Z" fill="#ECC550"/>
<path d="M74.6132 22.7276L82.2407 18.2689C82.6413 18.0327 82.5876 17.6291 82.1234 17.3634L69.7709 10.2226C69.3067 9.9568 68.6031 9.93219 68.2025 10.1635L60.575 14.6222C60.1743 14.8584 60.2281 15.262 60.6923 15.5277L73.0447 22.6686C73.5089 22.9343 74.2126 22.9589 74.6132 22.7276Z" fill="#FFEECC"/>
<path d="M60.3112 13.5198C60.3356 13.6822 60.4626 13.8446 60.6923 13.9726L73.0448 21.1134C73.509 21.3792 74.2126 21.4038 74.6132 21.1725L82.2407 16.7138C82.3922 16.6252 82.4801 16.512 82.5046 16.389V18.2197C82.5339 18.3919 82.4508 18.5593 82.2407 18.6774L74.6132 23.1361C74.2126 23.3723 73.509 23.3428 73.0448 23.077L60.6923 15.9362C60.4235 15.7836 60.2916 15.5769 60.3063 15.3899L60.3112 13.5198Z" fill="#ECC550"/>
<path d="M62.1483 13.131L68.3685 9.49419C68.6959 9.30226 69.2676 9.32195 69.6487 9.54341L80.6672 15.9067C81.0483 16.1232 81.0874 16.4529 80.7601 16.6449L79.3577 17.4667L69.7464 11.9155C69.3653 11.6989 68.7936 11.6793 68.4662 11.8663L63.6533 14.6813L62.246 13.8692C61.8649 13.6527 61.8209 13.323 62.1483 13.131Z" fill="#ECC550"/>
<path d="M60.6923 14.4155L73.0447 21.5564C73.5089 21.8221 74.2126 21.8467 74.6132 21.6154L82.2407 17.1567C82.6413 16.9205 82.5876 16.5169 82.1234 16.2512L69.7709 9.11034C69.3067 8.84459 68.6031 8.81998 68.2025 9.05128L60.575 13.51C60.1743 13.7413 60.2281 14.1449 60.6923 14.4155ZM62.1484 13.5444L68.3686 9.90759C68.696 9.71566 69.2677 9.74027 69.6488 9.95681L80.6673 16.3201C81.0484 16.5366 81.0875 16.8663 80.7601 17.0583L74.5399 20.6951C74.2126 20.8871 73.6409 20.8674 73.2597 20.6459L62.2412 14.2826C61.865 14.0661 61.821 13.7364 62.1484 13.5444Z" fill="#FFEECC"/>
<path d="M72.1603 24.0711L70.6113 23.1755V25.582L72.1603 26.5072V24.0711ZM70.8312 23.5544L71.9453 24.1991V26.1233L70.8312 25.459V23.5544Z" fill="#16110D"/>
<path d="M70.279 22.9934L68.7301 22.0977V24.5042L70.279 25.4294V22.9934ZM68.95 22.4766L70.064 23.1213V25.0456L68.95 24.3812V22.4766Z" fill="#16110D"/>
<path d="M68.3978 21.9156L66.8489 21.0199V23.4265L68.3978 24.3517V21.9156ZM67.0688 21.3989L68.1828 22.0436V23.9678L67.0688 23.3034V21.3989Z" fill="#16110D"/>
<path d="M66.5167 20.8427L64.9678 19.9471V22.3536L66.5167 23.2788V20.8427ZM65.1877 20.3211L66.3017 20.9658V22.89L65.1877 22.2256V20.3211Z" fill="#16110D"/>
<path d="M64.6355 19.765L63.0865 18.8693V21.2758L64.6355 22.201V19.765ZM63.3064 19.2433L64.4205 19.888V21.8123L63.3064 21.1479V19.2433Z" fill="#16110D"/>
<path d="M62.7542 18.6872L61.2053 17.7915V20.1931L62.7542 21.1183V18.6872ZM61.4252 18.1705L62.5393 18.8152V20.7394L61.4252 20.075V18.1705Z" fill="#16110D"/>
<path d="M72.1603 26.9058L70.6113 26.0101V28.4167L72.1603 29.3419V26.9058ZM70.8312 26.3891L71.9453 27.0338V28.9531L70.8312 28.2887V26.3891Z" fill="#16110D"/>
<path d="M70.279 25.8281L68.7301 24.9324V27.3389L70.279 28.2641V25.8281ZM68.95 25.3113L70.064 25.956V27.8802L68.95 27.2159V25.3113Z" fill="#16110D"/>
<path d="M68.3978 24.7503L66.8489 23.8546V26.2611L68.3978 27.1863V24.7503ZM67.0688 24.2335L68.1828 24.8782V26.7976L67.0688 26.1332V24.2335Z" fill="#16110D"/>
<path d="M66.5167 23.6725L64.9678 22.7768V25.1834L66.5167 26.1086V23.6725ZM65.1877 23.1558L66.3017 23.8005V25.7247L65.1877 25.0603V23.1558Z" fill="#16110D"/>
<path d="M64.6355 22.5997L63.0865 21.704V24.1105L64.6355 25.0357V22.5997ZM63.3064 22.078L64.4205 22.7227V24.642L63.3064 23.9776V22.078Z" fill="#16110D"/>
<path d="M62.7542 21.5219L61.2053 20.6262V23.0327L62.7542 23.958V21.5219ZM61.4252 21.0002L62.5393 21.6449V23.5692L61.4252 22.9048V21.0002Z" fill="#16110D"/>
<path d="M81.1071 16.3299C81.1071 16.5021 81.0094 16.6547 80.8237 16.763L79.3578 17.6193L74.6084 20.3949C74.4374 20.4933 74.2126 20.5425 73.983 20.5425C73.7142 20.5425 73.4308 20.4786 73.206 20.3457L63.6583 14.8289L62.1875 13.9775C62.0067 13.8742 61.8846 13.7413 61.8357 13.5986C61.8211 13.5493 61.8113 13.5001 61.8113 13.4509C61.8113 13.2787 61.909 13.1261 62.0947 13.0178L68.3149 9.38099C68.5006 9.27272 68.7449 9.2235 68.999 9.23335C69.126 9.23827 69.2531 9.25795 69.3752 9.28748C69.4974 9.32193 69.6146 9.36622 69.7221 9.42528L80.7407 15.7935C80.9703 15.9411 81.1071 16.133 81.1071 16.3299ZM79.1038 17.4766L69.683 12.0336C69.3459 11.8416 68.8182 11.817 68.5299 11.9844L63.9075 14.6862L73.3282 20.1292C73.6653 20.3211 74.1931 20.3457 74.4813 20.1784L79.1038 17.4766ZM80.853 16.3299C80.853 16.2265 80.7602 16.1134 80.6038 16.0248L69.5853 9.65658C69.5413 9.63197 69.4925 9.60737 69.4436 9.58768C69.429 9.58276 69.4094 9.57784 69.3948 9.57292C69.3606 9.56308 69.3263 9.54831 69.2921 9.53847C69.2726 9.53355 69.2531 9.52863 69.2286 9.52371C69.1944 9.51878 69.1602 9.50894 69.126 9.50402C69.1065 9.4991 69.082 9.4991 69.0625 9.4991C69.0283 9.49418 68.9941 9.49418 68.9599 9.49418C68.9452 9.49418 68.9257 9.49418 68.911 9.49418C68.8279 9.49418 68.7449 9.50402 68.6716 9.51878C68.6618 9.51878 68.6569 9.52371 68.6472 9.52371C68.569 9.54339 68.5006 9.568 68.4419 9.60245L68.4468 11.7481C68.6081 11.6694 68.8279 11.6054 69.0332 11.6054C69.3019 11.6054 69.5853 11.6694 69.8101 11.8023L79.3578 17.3191L80.6967 16.5366C80.77 16.5021 80.853 16.4283 80.853 16.3299Z" fill="#16110D"/>
<path d="M82.6316 18.3821V33.4561C82.6804 33.7071 82.1869 34.1549 82.0061 34.2632L74.6767 38.4857C74.4715 38.6038 74.2028 38.6628 73.9243 38.6628C73.5969 38.6628 73.2548 38.5841 72.9812 38.4266L60.6287 31.2858C60.3258 31.1135 60.1645 30.8724 60.1841 30.6263L60.189 15.4047C60.189 15.3998 60.189 15.3948 60.189 15.385L60.1939 13.5247C60.1939 13.5149 60.189 13.5051 60.189 13.4952C60.189 13.2934 60.3062 13.1163 60.5212 12.9883L68.1487 8.52961C68.5885 8.26878 69.3361 8.2983 69.8442 8.58866L82.1967 15.7295C82.4801 15.8919 82.6462 16.1183 82.6462 16.3496C82.6462 16.3643 82.6413 16.3791 82.6413 16.3939V18.2246C82.6316 18.2837 82.6365 18.3033 82.6316 18.3821ZM73.0496 23.2247C73.0252 23.2148 73.0008 23.205 72.9812 23.1902L60.6287 16.0494C60.5554 16.01 60.4919 15.9608 60.4382 15.9116L60.4333 30.6362C60.4186 30.7789 60.5408 30.9364 60.7558 31.0594L73.0545 38.1658V23.2247H73.0496ZM73.0496 21.2857C73.0252 21.2758 73.0008 21.266 72.9812 21.2512L60.6287 14.1104C60.5554 14.071 60.4919 14.0267 60.4382 13.9775V15.3948C60.4235 15.5474 60.5457 15.7049 60.7558 15.8279L73.0496 22.9343V21.2857ZM74.0415 38.402L73.9243 38.3873V23.4264C73.7532 23.4264 73.5822 23.4018 73.4161 23.3625V38.3282C73.6164 38.3873 73.8363 38.4119 74.0415 38.402ZM73.9243 23.1705V21.4924C73.7679 21.4924 73.6409 21.4776 73.5187 21.4481C73.4845 21.4431 73.4503 21.4333 73.4161 21.4284V23.0967C73.5773 23.141 73.7532 23.1705 73.9243 23.1705ZM82.3873 16.3496C82.3873 16.2118 82.27 16.0641 82.0648 15.951L69.7123 8.81012C69.4826 8.67724 69.1797 8.60835 68.8963 8.60835C68.6618 8.60835 68.437 8.65264 68.2709 8.75106L60.6434 13.2098C60.5506 13.2639 60.4382 13.3574 60.4382 13.4952C60.4382 13.5001 60.4382 13.5051 60.4431 13.5051C60.4626 13.633 60.5799 13.7659 60.7607 13.8692L73.1131 21.0101C73.5334 21.2512 74.193 21.2758 74.5546 21.0691L82.182 16.6104C82.2993 16.5415 82.3677 16.4579 82.3824 16.3693C82.3824 16.3594 82.3873 16.3545 82.3873 16.3496Z" fill="#16110D"/>
<path d="M72.4145 15.9608L71.1489 3.1506L69.2238 3.66242L69.2335 16.6892C69.2238 16.7285 69.2238 16.7679 69.2335 16.8073V16.8171C69.258 16.9352 69.3557 17.0583 69.5218 17.1567C69.8834 17.3683 70.4307 17.3978 70.7483 17.2157L72.2239 16.3791C72.4096 16.2758 72.4731 16.1183 72.4145 15.9608Z" fill="#ECC550"/>
<path d="M71.0218 2.02854L70.1374 2.53052C69.9468 2.63879 69.6194 2.6191 69.4044 2.49607C69.1894 2.36812 69.165 2.17618 69.3556 2.06792L70.24 1.56594C70.4306 1.45767 70.7579 1.47244 70.9729 1.60039C71.1879 1.72834 71.2124 1.92028 71.0218 2.02854Z" fill="#FFEECC"/>
<path d="M72.2874 16.5021L70.8117 17.3388C70.6505 17.4323 70.4404 17.4766 70.2205 17.4766C69.9518 17.4766 69.6684 17.4077 69.4485 17.2797C69.3117 17.201 69.2139 17.1025 69.1504 16.9943L69.0918 16.822C69.082 16.7777 69.082 16.7187 69.0967 16.6596L69.0869 3.60829V3.5886L69.0918 1.9252C69.0918 1.91043 69.0869 1.90059 69.0869 1.88583C69.0869 1.76279 69.1602 1.65453 69.2872 1.58071L70.1716 1.07873C70.4013 0.945855 70.7873 0.96554 71.0414 1.1181C71.1733 1.19684 71.2564 1.30511 71.2759 1.4183H71.2857L71.2808 3.13584L72.5464 15.9264C72.6197 16.1577 72.5219 16.3693 72.2874 16.5021ZM69.3605 1.89567C69.3605 1.9252 69.3947 1.97441 69.4729 2.0187C69.6439 2.12205 69.9224 2.13681 70.069 2.05315L70.9534 1.55118C70.9925 1.53149 71.0121 1.50689 71.0121 1.4872C71.0121 1.45767 70.9779 1.40846 70.9046 1.36417C70.8069 1.30511 70.6749 1.27558 70.5479 1.27558C70.455 1.27558 70.3671 1.29527 70.3085 1.32972L69.424 1.83169C69.3849 1.85138 69.3605 1.87598 69.3605 1.89567ZM69.3605 3.564V3.5886C69.3605 3.61321 69.3898 3.66242 69.468 3.70672C69.6146 3.79038 69.8296 3.81498 69.9811 3.77069V2.3632C69.9273 2.37304 69.8736 2.38288 69.8198 2.38288C69.6635 2.38288 69.4973 2.34351 69.3605 2.26969V3.564ZM70.5381 17.1567L69.986 4.05613C69.9322 4.06597 69.8785 4.07581 69.8198 4.07581C69.6586 4.07581 69.4973 4.03644 69.3605 3.96262L69.3654 16.699C69.3605 16.7433 69.3605 16.763 69.3605 16.7827L69.3654 16.7974C69.385 16.886 69.4631 16.9746 69.5853 17.0435C69.8589 17.201 70.2596 17.2403 70.5381 17.1567Z" fill="#16110D"/>
<path d="M71.2173 3.1014L70.069 3.75102C70.0446 3.76578 70.0153 3.7707 69.986 3.78054L69.9909 4.06598C70.069 4.05122 70.1423 4.03153 70.2058 3.99708L71.3101 3.37207L71.2906 3.01282C71.2906 3.03742 71.2368 3.08664 71.2173 3.1014Z" fill="#ECC550"/>
<path d="M81.8351 22.639V20.2374L80.2617 21.1331V23.5642L81.8351 22.639ZM81.6152 20.6114V22.516L80.4767 23.1853V21.2611L81.6152 20.6114Z" fill="#ECC550"/>
<path d="M79.9539 23.7069V21.3053L78.3805 22.201V24.6322L79.9539 23.7069ZM79.734 21.6794V23.5839L78.5955 24.2532V22.329L79.734 21.6794Z" fill="#ECC550"/>
<path d="M78.0531 24.8339V22.4323L76.4797 23.328V25.7592L78.0531 24.8339ZM77.8332 22.8014V24.706L76.6947 25.3753V23.4511L77.8332 22.8014Z" fill="#ECC550"/>
<path d="M76.1524 25.8527V23.451L74.579 24.3467V26.7779L76.1524 25.8527ZM75.9374 23.8251V25.7296L74.7989 26.3989V24.4747L75.9374 23.8251Z" fill="#ECC550"/>
<path d="M81.8351 25.454V23.0524L80.2617 23.9481V26.3792L81.8351 25.454ZM81.6152 23.4264V25.331L80.4767 26.0003V24.0761L81.6152 23.4264Z" fill="#ECC550"/>
<path d="M79.9539 26.517V24.1154L78.3805 25.0111V27.4422L79.9539 26.517ZM79.734 24.4895V26.394L78.5955 27.0633V25.1391L79.734 24.4895Z" fill="#ECC550"/>
<path d="M78.0531 27.644V25.2424L76.4797 26.1381V28.5692L78.0531 27.644ZM77.8332 25.6164V27.521L76.6947 28.1903V26.266L77.8332 25.6164Z" fill="#ECC550"/>
<path d="M76.1524 28.6676V26.266L74.579 27.1617V29.5929L76.1524 28.6676ZM75.9374 26.6401V28.5446L74.7989 29.2139V27.2897L75.9374 26.6401Z" fill="#ECC550"/>
<path d="M64.3911 28.6086L61.6011 26.8911V31.8025L64.3911 33.4266V28.6086ZM61.7819 27.2159L64.2103 28.7119V33.1067L61.7819 31.6943V27.2159Z" fill="#16110D"/>
<path d="M62.1973 30.1342V28.0968L63.7365 29.0466V31.025L62.1973 30.1342Z" fill="#16110D"/>
<path d="M78.141 16.197L75.6051 14.7255L73.0642 16.197V16.9106L75.6051 18.3772V17.6685L78.141 16.197Z" fill="#ECC550"/>
<path d="M78.2339 16.1429V16.2462V16.9598L75.6051 18.4805L75.5123 18.4264L72.9714 16.9598V16.2462V16.1429L75.6002 14.6173L78.1411 16.0888L78.2339 16.1429ZM75.6051 14.8338L73.25 16.2019L75.6051 17.5701L77.9603 16.2019L75.6051 14.8338ZM75.5123 18.2197V17.7226L74.1344 16.9205L73.1571 16.3545V16.8565L75.5123 18.2197Z" fill="#16110D"/>
<path d="M76.9537 16.3545L75.6051 17.1124L74.2565 16.3545L75.6051 15.572L76.9537 16.3545Z" fill="#FFEECC"/>
<path d="M77.374 16.197L75.6051 15.1734L73.8363 16.197L75.6051 17.2207L77.374 16.197ZM75.6051 15.3801L77.0124 16.197L75.6051 17.014L74.1979 16.197L75.6051 15.3801Z" fill="#16110D"/>
<path d="M82.6364 18.2984L74.5496 23.0278C74.3884 23.1213 74.1587 23.1656 73.9242 23.1656V23.4264C74.2027 23.4264 74.4763 23.3674 74.6767 23.2493L82.6364 18.5937V18.2984Z" fill="#ECC550"/>
<path d="M7.25616 67.8315L5.99062 55.0213L4.06543 55.5331L4.0752 68.5599C4.06543 68.5992 4.06543 68.6386 4.0752 68.678V68.6878C4.09963 68.8059 4.19736 68.929 4.36349 69.0274C4.72507 69.239 5.27234 69.2685 5.58994 69.0864L7.06559 68.2498C7.25616 68.1415 7.31479 67.9841 7.25616 67.8315Z" fill="#ECC550"/>
<path d="M5.86347 53.8943L4.97905 54.3963C4.78849 54.5046 4.46111 54.4898 4.24611 54.3618C4.03112 54.2339 4.00669 54.042 4.19725 53.9337L5.08167 53.4317C5.27223 53.3235 5.59961 53.3431 5.8146 53.4662C6.03449 53.599 6.05403 53.791 5.86347 53.8943Z" fill="#FFEECC"/>
<path d="M7.13394 68.3728L5.65829 69.2095C5.49705 69.303 5.28694 69.3473 5.06706 69.3473C4.79831 69.3473 4.51491 69.2784 4.29503 69.1504C4.15821 69.0717 4.06049 68.9732 3.99696 68.865L3.93833 68.6927C3.92856 68.6484 3.92856 68.5894 3.94322 68.5303L3.93344 55.479V55.4593L3.93833 53.7959C3.93833 53.7811 3.93344 53.7713 3.93344 53.7565C3.93344 53.6335 4.00674 53.5252 4.13378 53.4514L5.01819 52.9494C5.24785 52.8166 5.63386 52.8362 5.88795 52.9888C6.01988 53.0675 6.10294 53.1758 6.12249 53.289H6.13226L6.12737 55.0065L7.39292 67.797C7.46621 68.0234 7.36848 68.24 7.13394 68.3728ZM4.20707 53.7664C4.20707 53.7959 4.24128 53.8451 4.31946 53.8894C4.49048 53.9927 4.76899 54.0075 4.91558 53.9239L5.79999 53.4219C5.83908 53.4022 5.85863 53.3776 5.85863 53.3579C5.85863 53.3284 5.82443 53.2792 5.75113 53.2349C5.65341 53.1758 5.52148 53.1463 5.39443 53.1463C5.3016 53.1463 5.21364 53.166 5.15501 53.2004L4.27059 53.7024C4.2315 53.7221 4.20707 53.7467 4.20707 53.7664ZM4.20707 55.4298V55.4544C4.20707 55.479 4.23639 55.5282 4.31457 55.5725C4.46116 55.6562 4.67615 55.6808 4.82763 55.6365V54.229C4.77388 54.2388 4.72013 54.2487 4.66638 54.2487C4.51002 54.2487 4.34389 54.2093 4.20707 54.1355V55.4298ZM5.38466 69.0274L4.83252 55.9219C4.77877 55.9317 4.72502 55.9416 4.66638 55.9416C4.50514 55.9416 4.34389 55.9022 4.20707 55.8284L4.21196 68.5648C4.20707 68.6091 4.20707 68.6288 4.20707 68.6484L4.21196 68.6632C4.2315 68.7518 4.30968 68.8404 4.43184 68.9093C4.70547 69.0668 5.10615 69.111 5.38466 69.0274Z" fill="#16110D"/>
<path d="M6.05897 54.9672L4.9107 55.6168C4.88627 55.6316 4.85695 55.6365 4.82764 55.6463L4.83252 55.9318C4.9107 55.917 4.984 55.8973 5.04752 55.8629L6.15181 55.2379L6.13227 54.8786C6.13227 54.9032 6.0834 54.9573 6.05897 54.9672Z" fill="#ECC550"/>
<path d="M9.3866 62.1178L14.1751 59.2881L18.8806 62.1178L14.2729 64.8492L9.3866 62.1178Z" fill="#ECC550"/>
<path d="M9.3866 62.5263L14.1751 59.7015L18.8806 62.5263L14.2729 65.2626L9.3866 62.5263Z" fill="#FFEECC"/>
<path d="M9.3866 64.2783V62.1129L14.2729 64.8492L14.1947 67.0687L9.3866 64.2783Z" fill="#ECC550"/>
<path d="M14.478 61.4978C14.8591 61.5421 15.0106 61.7094 15.0106 61.9407C15.0106 61.9702 15.0204 61.9407 15.0106 61.9702L16.1589 62.5312C16.2761 62.3639 16.3397 62.1818 16.3397 61.9899C16.3397 61.2763 15.4601 60.6907 14.3412 60.6414L14.478 61.4978Z" fill="#ECC550"/>
<path d="M16.2616 62.6001C16.3935 62.4082 16.4619 62.2015 16.4619 61.985C16.4619 61.1976 15.5531 60.5627 14.3413 60.5086L14.2435 60.5036L14.3657 61.6109L14.4634 61.6208C14.8836 61.67 14.8836 61.8619 14.8836 61.9357L14.8543 62.0293L16.2322 62.6346L16.2616 62.6001ZM14.5856 61.3846L14.4878 60.7792C15.4651 60.8727 16.2078 61.3846 16.2078 61.9899C16.2078 62.1178 16.1736 62.2409 16.1101 62.3639L15.1328 61.8865C15.1182 61.7094 15.0156 61.4633 14.5856 61.3846Z" fill="#16110D"/>
<path d="M14.6735 62.3147C14.5221 62.4082 14.5807 62.1129 14.3364 62.1129C14.1116 62.1129 13.8282 62.3984 13.6816 62.3147L12.4845 62.8265C12.8803 63.1366 13.4911 63.3383 14.1751 63.3383C14.9081 63.3383 15.5531 63.112 15.944 62.7625L14.6735 62.3147Z" fill="#ECC550"/>
<path d="M16.0269 62.861L16.1442 62.7576L14.7125 62.1966L14.649 62.1769L14.6441 62.1818C14.605 62.1129 14.522 61.985 14.3363 61.985C14.1995 61.985 14.0675 62.0539 13.9503 62.1179C13.8819 62.1523 13.7744 62.2114 13.7402 62.2015L13.6864 62.172L12.2792 62.8265L12.4062 62.925C12.8411 63.2694 13.4861 63.4663 14.175 63.4663C14.908 63.4712 15.6018 63.2399 16.0269 62.861ZM13.6864 62.4525C13.8086 62.4771 13.9405 62.4131 14.0675 62.3442C14.1604 62.295 14.263 62.2409 14.3363 62.2409C14.3803 62.2409 14.3949 62.2557 14.4291 62.3196C14.4584 62.3688 14.4927 62.4328 14.5708 62.4574C14.605 62.4673 14.6392 62.4673 14.6734 62.4525L15.6751 62.8068C15.2891 63.0627 14.7467 63.2153 14.1702 63.2153C13.6278 63.2153 13.1245 63.0874 12.7434 62.8561L13.6864 62.4525Z" fill="#16110D"/>
<path d="M13.3444 61.9407C13.3298 61.9013 13.3444 61.9751 13.3444 61.9407C13.3444 61.7094 13.5008 61.4387 13.8819 61.3944L14.0139 60.6414C12.8949 60.6956 12.0154 61.2763 12.0154 61.9899C12.0154 62.2113 12.1033 62.418 12.2499 62.6051L13.3444 61.9407Z" fill="#ECC550"/>
<path d="M13.364 62.0736L13.4715 62.0539V62.0096L13.5057 61.9899L13.4763 61.9161C13.4861 61.7487 13.6034 61.5568 13.9014 61.5224L13.9943 61.5125L14.1116 60.5086L14.0138 60.5135C12.8069 60.5726 11.8932 61.2025 11.8932 61.9899C11.8932 62.231 11.986 62.4722 12.157 62.6838L12.1961 62.733L13.364 62.0736ZM13.7744 61.2812C13.4421 61.355 13.2662 61.5962 13.2271 61.8373L13.1978 61.8767L12.289 62.4279C12.1961 62.2852 12.1473 62.1375 12.1473 61.985C12.1473 61.3797 12.89 60.8678 13.8672 60.7743L13.7744 61.2812Z" fill="#16110D"/>
<path d="M15.0156 61.9407C15.0156 62.2015 14.6442 62.4131 14.1849 62.4131C13.7256 62.4131 13.3542 62.2015 13.3542 61.9407C13.3542 61.7488 13.5741 61.2566 13.8624 61.1828C13.9699 61.1533 14.0628 61.4682 14.1898 61.4682C14.3168 61.4682 14.4048 61.1483 14.5123 61.1779C14.7859 61.2517 15.0156 61.7488 15.0156 61.9407Z" fill="#ECC550"/>
<path d="M15.1426 61.9407C15.1426 61.6995 14.8836 61.1483 14.5367 61.0548C14.395 61.0204 14.307 61.1434 14.2435 61.2418C14.224 61.2665 14.1995 61.3058 14.18 61.3304C14.1605 61.3058 14.1311 61.2714 14.1116 61.2418C14.0481 61.1483 13.9601 61.0204 13.8184 61.0598C13.4519 61.1582 13.2174 61.7291 13.2174 61.9456C13.2174 62.2802 13.6376 62.546 14.1751 62.546C14.7224 62.5411 15.1426 62.2753 15.1426 61.9407ZM13.9113 61.3846C13.9748 61.4781 14.0578 61.5913 14.1849 61.5913C14.3168 61.5913 14.395 61.4732 14.4585 61.3796C14.4732 61.36 14.4927 61.3304 14.5074 61.3107C14.7077 61.4043 14.8885 61.8029 14.8885 61.9358C14.8885 62.0982 14.6002 62.2802 14.1849 62.2802C13.7696 62.2802 13.4764 62.0982 13.4764 61.9358C13.4764 61.793 13.6523 61.3993 13.8575 61.3107C13.8722 61.3304 13.8917 61.3649 13.9113 61.3846Z" fill="#16110D"/>
<path d="M14.1849 61.7783C14.5033 61.7783 14.7614 61.6307 14.7614 61.4485C14.7614 61.2664 14.5033 61.1188 14.1849 61.1188C13.8664 61.1188 13.6083 61.2664 13.6083 61.4485C13.6083 61.6307 13.8664 61.7783 14.1849 61.7783Z" fill="#ECC550"/>
<path d="M14.7614 61.6946C14.7614 61.8767 14.5025 62.0243 14.1849 62.0243C13.8672 62.0243 13.6083 61.8767 13.6083 61.6946C13.6083 61.5125 13.8672 61.3649 14.1849 61.3649C14.5025 61.3698 14.7614 61.5174 14.7614 61.6946Z" fill="#FFEECC"/>
<path d="M14.8884 61.4485C14.8884 61.1926 14.5806 60.9909 14.1848 60.9909C13.7841 60.9909 13.4812 61.1877 13.4812 61.4485C13.4812 61.7094 13.7841 61.9062 14.1848 61.9062C14.5757 61.9062 14.8884 61.7044 14.8884 61.4485ZM14.6344 61.4485C14.6344 61.5322 14.4585 61.6503 14.1848 61.6503C13.9112 61.6503 13.7353 61.5322 13.7353 61.4485C13.7353 61.3649 13.9112 61.2468 14.1848 61.2468C14.4585 61.2468 14.6344 61.3698 14.6344 61.4485Z" fill="#16110D"/>
<path d="M19.0125 62.044V64.4013L14.1995 67.2163L9.25952 64.3521L9.26441 62.0489L9.39145 61.9702L14.18 59.1454L18.8855 61.9702L19.0125 62.044ZM9.64554 62.1129L14.2728 64.7065L15.0644 64.2389L18.6363 62.1178L14.1751 59.4406L9.64554 62.1129ZM9.51849 64.2045L14.136 66.8915L14.1458 64.923L10.3736 62.8117L9.51361 62.3295L9.51849 64.2045Z" fill="#16110D"/>
<path d="M61.6255 36.1973L66.414 33.3724L71.1195 36.1973L66.5069 38.9335L61.6255 36.1973Z" fill="#ECC550"/>
<path d="M61.6255 36.6106L66.414 33.7858L71.1195 36.6106L66.5069 39.3469L61.6255 36.6106Z" fill="#FFEECC"/>
<path d="M61.6255 38.3577V36.1973L66.5069 38.9335L66.4336 41.1481L61.6255 38.3577Z" fill="#ECC550"/>
<path d="M66.712 35.5772C67.0931 35.6215 67.2446 35.7888 67.2446 36.0201C67.2446 36.0496 67.2544 36.0201 67.2446 36.0496L68.3929 36.6107C68.5102 36.4433 68.5737 36.2613 68.5737 36.0693C68.5737 35.3557 67.6942 34.7701 66.5752 34.7209L66.712 35.5772Z" fill="#ECC550"/>
<path d="M68.4956 36.6845C68.6275 36.4926 68.6959 36.2859 68.6959 36.0693C68.6959 35.2819 67.7871 34.6471 66.5753 34.5929L66.4775 34.588L66.5948 35.6953L66.6925 35.7051C67.1128 35.7544 67.1128 35.9463 67.1128 36.0201L67.0834 36.1136L68.4614 36.7189L68.4956 36.6845ZM66.8245 35.464L66.7267 34.8587C67.704 34.9522 68.4467 35.464 68.4467 36.0693C68.4467 36.1973 68.4125 36.3203 68.349 36.4433L67.3717 35.966C67.3571 35.7937 67.2545 35.5427 66.8245 35.464Z" fill="#16110D"/>
<path d="M66.9124 36.399C66.761 36.4925 66.8196 36.1973 66.5753 36.1973C66.3505 36.1973 66.0671 36.4827 65.9205 36.399L64.7234 36.9109C65.1192 37.2209 65.73 37.4227 66.414 37.4227C67.147 37.4227 67.792 37.1963 68.1829 36.8469L66.9124 36.399Z" fill="#ECC550"/>
<path d="M68.266 36.9404L68.3832 36.837L66.9516 36.276L66.888 36.2563L66.8831 36.2612C66.8441 36.1923 66.761 36.0644 66.5753 36.0644C66.4385 36.0644 66.3066 36.1333 66.1893 36.1973C66.1209 36.2317 66.0134 36.2908 65.9792 36.2809L65.9254 36.2514L64.5182 36.9059L64.6452 37.0044C65.0801 37.3489 65.7251 37.5457 66.4141 37.5457C67.147 37.5506 67.836 37.3243 68.266 36.9404ZM65.9254 36.5368C66.0476 36.5614 66.1795 36.4975 66.3066 36.4286C66.3994 36.3794 66.502 36.3252 66.5753 36.3252C66.6193 36.3252 66.6339 36.34 66.6681 36.404C66.6975 36.4532 66.7317 36.5172 66.8098 36.5418C66.8441 36.5516 66.8783 36.5516 66.9125 36.5368L67.9141 36.8912C67.5281 37.1471 66.9858 37.2996 66.4092 37.2996C65.8668 37.2996 65.3635 37.1717 64.9824 36.9404L65.9254 36.5368Z" fill="#16110D"/>
<path d="M65.5785 36.0201C65.5638 35.9857 65.5785 36.0595 65.5785 36.0201C65.5785 35.7888 65.7348 35.5181 66.1159 35.4739L66.2479 34.7209C65.1289 34.775 64.2494 35.3557 64.2494 36.0693C64.2494 36.2908 64.3373 36.4975 64.4839 36.6845L65.5785 36.0201Z" fill="#ECC550"/>
<path d="M65.6028 36.1579L65.7103 36.1382V36.0939L65.7445 36.0742L65.7152 36.0004C65.725 35.8331 65.8423 35.6412 66.1403 35.6067L66.2332 35.5969L66.3504 34.5929L66.2527 34.5978C65.0458 34.6569 64.1321 35.2868 64.1321 36.0742C64.1321 36.3154 64.2249 36.5565 64.3959 36.7681L64.435 36.8174L65.6028 36.1579ZM66.0084 35.3656C65.6761 35.4394 65.5002 35.6805 65.4611 35.9217L65.4318 35.961L64.523 36.5122C64.4301 36.3695 64.3813 36.2219 64.3813 36.0693C64.3813 35.464 65.124 34.9522 66.1012 34.8587L66.0084 35.3656Z" fill="#16110D"/>
<path d="M67.2496 36.0201C67.2496 36.2809 66.8782 36.4925 66.4189 36.4925C65.9596 36.4925 65.5883 36.2809 65.5883 36.0201C65.5883 35.8282 65.8081 35.336 66.0964 35.2622C66.2039 35.2327 66.2968 35.5477 66.4238 35.5477C66.5509 35.5477 66.6388 35.2278 66.7463 35.2573C67.0199 35.336 67.2496 35.8331 67.2496 36.0201Z" fill="#ECC550"/>
<path d="M67.3766 36.0201C67.3766 35.779 67.1176 35.2278 66.7707 35.1343C66.629 35.0998 66.541 35.2228 66.4775 35.3213C66.458 35.3459 66.4336 35.3852 66.414 35.4099C66.3945 35.3852 66.3651 35.3508 66.3456 35.3213C66.2821 35.2278 66.1941 35.0998 66.0524 35.1392C65.686 35.2376 65.4514 35.8085 65.4514 36.025C65.4514 36.3597 65.8716 36.6254 66.4091 36.6254C66.9564 36.6205 67.3766 36.3547 67.3766 36.0201ZM66.1453 35.4689C66.2088 35.5624 66.2918 35.6756 66.4189 35.6756C66.5508 35.6756 66.629 35.5575 66.6925 35.464C66.7072 35.4443 66.7267 35.4148 66.7414 35.3951C66.9417 35.4886 67.1274 35.8872 67.1274 36.0201C67.1274 36.1825 66.8391 36.3646 66.4238 36.3646C66.0084 36.3646 65.7153 36.1825 65.7153 36.0201C65.7153 35.8774 65.8912 35.4837 66.0964 35.3951C66.1062 35.4148 66.1306 35.4443 66.1453 35.4689Z" fill="#16110D"/>
<path d="M66.9954 35.5329C66.9954 35.715 66.7365 35.8626 66.4189 35.8626C66.1013 35.8626 65.8423 35.715 65.8423 35.5329C65.8423 35.3508 66.1013 35.2032 66.4189 35.2032C66.7365 35.2032 66.9954 35.3508 66.9954 35.5329Z" fill="#ECC550"/>
<path d="M66.9954 35.779C66.9954 35.9611 66.7365 36.1087 66.4189 36.1087C66.1013 36.1087 65.8423 35.9611 65.8423 35.779C65.8423 35.5969 66.1013 35.4492 66.4189 35.4492C66.7365 35.4492 66.9954 35.5969 66.9954 35.779Z" fill="#FFEECC"/>
<path d="M67.1225 35.5329C67.1225 35.277 66.8146 35.0752 66.4188 35.0752C66.0182 35.0752 65.7152 35.272 65.7152 35.5329C65.7152 35.7937 66.0182 35.9906 66.4188 35.9906C66.8146 35.9856 67.1225 35.7888 67.1225 35.5329ZM66.8684 35.5329C66.8684 35.6165 66.6925 35.7347 66.4188 35.7347C66.1452 35.7347 65.9693 35.6165 65.9693 35.5329C65.9693 35.4492 66.1452 35.3311 66.4188 35.3311C66.6925 35.3311 66.8684 35.4492 66.8684 35.5329Z" fill="#16110D"/>
<path d="M71.2465 36.1234V38.4808L66.4335 41.2958L61.4935 38.4315L61.4984 36.1284L61.6255 36.0496L66.414 33.2248L71.1195 36.0496L71.2465 36.1234ZM61.8844 36.1923L66.5117 38.7859L67.3033 38.3184L70.8751 36.1973L66.414 33.5201L61.8844 36.1923ZM61.7525 38.2888L66.37 40.9759L66.3798 39.0073L62.6076 36.8961L61.7476 36.4138L61.7525 38.2888Z" fill="#16110D"/>
<path d="M45.5448 38.9237V32.0929L58.4836 39.593V46.5025L45.5448 38.9237Z" fill="#ECC550"/>
<path d="M45.5448 31.8911L50.3578 29.081L63.2819 36.5762L58.4836 39.342L45.5448 31.8911Z" fill="#ECC550"/>
<path d="M58.552 39.3863L58.4836 39.9916L45.5448 32.5604V31.9256L58.552 39.3863Z" fill="#ECC550"/>
<path d="M46.0286 32.1913L50.3578 29.6618L63.2819 37.1569L58.9625 39.6422L46.0286 32.1913Z" fill="#FFEECC"/>
<path d="M63.4089 36.5024V43.7712L58.4836 46.6502L45.4226 38.9975V31.8173L50.3577 28.9334L63.4089 36.5024ZM45.6718 38.8499L46.5904 39.3912V33.2888L45.6523 32.7524L45.6718 38.8499ZM56.2017 45.0163H56.1968L57.2034 45.6068V39.3814L56.2066 38.8105V45.0163H56.2017ZM56.0209 38.7022L55.0241 38.1264V44.3273L56.0209 44.9129V38.7022ZM54.8678 38.0379L53.8416 37.4473V43.6334L54.8384 44.219V38.0379H54.8678ZM53.6608 37.3439L52.664 36.7731V42.9444L53.6608 43.53V37.3439ZM52.4784 36.6697L51.4816 36.0989V42.2554L52.4784 42.8411V36.6697ZM51.3008 35.9906L50.3138 35.4246V41.5664L51.3008 42.1422V35.9906ZM50.133 35.3213L49.1362 34.7504V40.8824L50.133 41.468V35.3213ZM48.9554 34.6421L47.9586 34.0713V40.1885L48.9554 40.7741V34.6421ZM47.7729 33.9679L46.7761 33.3971V39.4995L47.7729 40.0851V33.9679ZM58.3565 40.0408L57.3793 39.4798V45.7053L58.3565 46.2761V40.0408ZM58.3565 39.4158L45.6571 32.0732V32.4964L58.3565 39.7898V39.5143V39.4847V39.4158ZM63.0278 36.5762L50.3577 29.2287L45.8037 31.896L58.4885 39.1993L63.0278 36.5762Z" fill="#16110D"/>
<path d="M63.4089 37.1126V36.8813L58.3761 39.7997V40.0359L60.9169 38.5595V45.2279L61.0977 45.1246V38.4562L63.4089 37.1126Z" fill="#ECC550"/>
<path d="M59.925 43.343C59.8712 43.343 59.8175 43.3283 59.7735 43.3037L59.7002 43.2594C59.6611 43.2397 59.6514 43.1905 59.6709 43.1511C59.6905 43.1117 59.7393 43.1019 59.7784 43.1216L59.8517 43.1659C59.9006 43.1954 59.9592 43.1954 60.0081 43.1659L60.5016 42.8952L60.4234 42.846C60.3892 42.8214 60.3745 42.7771 60.399 42.7377C60.4185 42.6983 60.4674 42.6885 60.5065 42.7082L60.5846 42.7525C60.6335 42.782 60.6628 42.8361 60.6628 42.8903C60.6628 42.9493 60.6286 42.9985 60.5798 43.0281L60.0862 43.2987C60.0325 43.3332 59.9787 43.3479 59.925 43.343Z" fill="#ECC550"/>
<path d="M61.6401 42.3834C61.5863 42.3834 61.5326 42.3686 61.4886 42.344L61.4153 42.2997C61.3762 42.28 61.3664 42.2308 61.386 42.1914C61.4055 42.1521 61.4544 42.1422 61.4935 42.1619L61.5668 42.2062C61.6156 42.2357 61.6743 42.2357 61.7231 42.2062L62.2167 41.9355L62.1385 41.8863C62.1043 41.8617 62.0896 41.8174 62.114 41.7781C62.1336 41.7387 62.1825 41.7289 62.2215 41.7485L62.2997 41.7928C62.3486 41.8224 62.3779 41.8765 62.3779 41.9306C62.3779 41.9897 62.3437 42.0389 62.2948 42.0684L61.8013 42.3391C61.7476 42.3686 61.6938 42.3834 61.6401 42.3834Z" fill="#ECC550"/>
<path d="M40.3116 41.9946V35.1687L53.2505 42.6688V49.5783L40.3116 41.9946Z" fill="#ECC550"/>
<path d="M40.3116 34.9669L45.1246 32.1519L58.0488 39.6471L53.2505 42.4178L40.3116 34.9669Z" fill="#ECC550"/>
<path d="M53.3189 42.4621L53.2505 43.0625L40.3116 35.6362V35.0014L53.3189 42.4621Z" fill="#ECC550"/>
<path d="M40.7954 35.2671L45.1246 32.7376L58.0488 40.2327L53.7293 42.718L40.7954 35.2671Z" fill="#FFEECC"/>
<path d="M58.1758 39.5733V46.8421L53.2504 49.7211L40.1846 42.0684V34.8931L45.1197 32.0043L58.1758 39.5733ZM40.4387 41.9208L41.3573 42.4621V36.3646L40.4191 35.8282L40.4387 41.9208ZM50.9685 48.0872H50.9637L51.9702 48.6777V42.4523L50.9734 41.8814V48.0872H50.9685ZM50.7878 41.778L49.791 41.2072V47.408L50.7878 47.9937V41.778ZM49.6346 41.1137L48.6085 40.5231V46.7092L49.6053 47.2948V41.1137H49.6346ZM48.4277 40.4198L47.4309 39.8489V46.0202L48.4277 46.6059V40.4198ZM47.2452 39.7455L46.2484 39.1697V45.3263L47.2452 45.912V39.7455ZM46.0676 39.0664L45.0806 38.5004V44.6423L46.0676 45.2181V39.0664ZM44.8998 38.3971L43.903 37.8213V43.9533L44.8998 44.5389V38.3971ZM43.7222 37.718L42.7254 37.1471V43.2643L43.7222 43.8499V37.718ZM42.5397 37.0388L41.543 36.4679V42.5704L42.5397 43.156V37.0388ZM53.1234 43.1166L52.1461 42.5556V48.786L53.1234 49.3569V43.1166ZM53.1234 42.4916L40.424 35.149V35.5723L53.1234 42.8657V42.5901V42.5605V42.4916ZM57.7947 39.6471L45.1246 32.2996L40.5706 34.9669L53.2504 42.2702L57.7947 39.6471Z" fill="#16110D"/>
<path d="M58.1758 40.1885V39.9522L53.1381 42.8755L53.1429 43.1068L55.6838 41.6353V48.3037L55.8646 48.1955V41.5271L58.1758 40.1885Z" fill="#ECC550"/>
<path d="M54.6918 46.4189C54.6381 46.4189 54.5843 46.4041 54.5404 46.3795L54.4671 46.3352C54.428 46.3155 54.4182 46.2663 54.4378 46.2269C54.4573 46.1876 54.5062 46.1777 54.5452 46.1974L54.6185 46.2417C54.6674 46.2712 54.726 46.2712 54.7749 46.2417L55.2684 45.971L55.1902 45.9218C55.156 45.8972 55.1414 45.8529 55.1658 45.8135C55.1854 45.7742 55.2342 45.7643 55.2733 45.784L55.3515 45.8283C55.4003 45.8578 55.4297 45.912 55.4297 45.9661C55.4297 46.0252 55.3955 46.0744 55.3466 46.1039L54.8531 46.3746C54.7993 46.409 54.7456 46.4189 54.6918 46.4189Z" fill="#ECC550"/>
<path d="M56.4069 45.4592C56.3532 45.4592 56.2994 45.4444 56.2554 45.4198L56.1822 45.3755C56.1431 45.3558 56.1333 45.3066 56.1528 45.2673C56.1724 45.2279 56.2212 45.218 56.2603 45.2377L56.3336 45.282C56.3825 45.3115 56.4411 45.3115 56.49 45.282L56.9835 45.0113L56.9053 44.9621C56.8711 44.9375 56.8565 44.8932 56.8809 44.8539C56.9004 44.8145 56.9493 44.8047 56.9884 44.8243L57.0666 44.8686C57.1154 44.8982 57.1448 44.9523 57.1448 45.0064C57.1448 45.0655 57.1105 45.1147 57.0617 45.1442L56.5682 45.4149C56.5144 45.4444 56.4607 45.4592 56.4069 45.4592Z" fill="#ECC550"/>
<path d="M35.0785 45.0655V38.2396L48.0173 45.7397V52.6492L35.0785 45.0655Z" fill="#ECC550"/>
<path d="M35.0785 38.0378L39.8915 35.2228L52.8156 42.718L48.0173 45.4887L35.0785 38.0378Z" fill="#ECC550"/>
<path d="M48.0857 45.533L48.0173 46.1334L35.0785 38.7071V38.0723L48.0857 45.533Z" fill="#ECC550"/>
<path d="M35.5623 38.338L39.8915 35.8085L52.8156 43.3037L48.4962 45.7889L35.5623 38.338Z" fill="#FFEECC"/>
<path d="M52.9426 42.6442V49.9179L48.0173 52.7969L34.9514 45.1393V37.964L39.8865 35.0801L52.9426 42.6442ZM35.2055 44.9917L36.129 45.533V39.4355L35.1908 38.8941L35.2055 44.9917ZM45.7354 51.1581H45.7305L46.7371 51.7486V45.5232L45.7403 44.9523V51.1581H45.7354ZM45.5546 44.8489L44.5578 44.2781V50.4789L45.5546 51.0646V44.8489ZM44.4014 44.1846L43.3753 43.594V49.7801L44.3721 50.3657V44.1846H44.4014ZM43.1945 43.4907L42.1977 42.9149V49.0862L43.1945 49.6718V43.4907ZM42.0121 42.8164L41.0153 42.2406V48.3972L42.0121 48.9829V42.8164ZM40.8345 42.1373L39.8474 41.5713V47.7132L40.8345 48.2889V42.1373ZM39.6667 41.468L38.6699 40.8922V47.0242L39.6667 47.6098V41.468ZM38.4891 40.7889L37.4923 40.218V46.3352L38.4891 46.9208V40.7889ZM37.3066 40.1097L36.3098 39.5388V45.6413L37.3066 46.2269V40.1097ZM47.8902 46.1875L46.913 45.6265V51.852L47.8902 52.4229V46.1875ZM47.8902 45.5625L35.1908 38.2199V38.6432L47.8902 45.9366V45.661V45.6364V45.5625ZM52.5615 42.718L39.8914 35.3705L35.3374 38.0378L48.0173 45.3411L52.5615 42.718Z" fill="#16110D"/>
<path d="M52.9426 43.2593V43.0231L47.9049 45.9464V46.1777L50.4458 44.7062V51.3746L50.6314 51.2663V44.5979L52.9426 43.2593Z" fill="#ECC550"/>
<path d="M49.4587 49.4898C49.4049 49.4898 49.3512 49.475 49.3072 49.4504L49.2339 49.4061C49.1948 49.3864 49.1851 49.3372 49.2046 49.2978C49.2241 49.2585 49.273 49.2486 49.3121 49.2683L49.3854 49.3126C49.4343 49.3421 49.4929 49.3421 49.5417 49.3126L50.0353 49.0419L49.9571 48.9927C49.9229 48.9681 49.9082 48.9238 49.9326 48.8844C49.9522 48.8451 50.0011 48.8352 50.0401 48.8549L50.1183 48.8992C50.1672 48.9287 50.1965 48.9829 50.1965 49.037C50.1965 49.096 50.1623 49.1453 50.1134 49.1748L49.6199 49.4455C49.5662 49.4799 49.5124 49.4898 49.4587 49.4898Z" fill="#ECC550"/>
<path d="M51.1738 48.5301C51.12 48.5301 51.0663 48.5153 51.0223 48.4907L50.949 48.4464C50.9099 48.4267 50.9001 48.3775 50.9197 48.3382C50.9392 48.2988 50.9881 48.2889 51.0272 48.3086L51.1005 48.3529C51.1493 48.3825 51.208 48.3825 51.2568 48.3529L51.7504 48.0823L51.6722 48.033C51.638 48.0084 51.6233 47.9641 51.6477 47.9248C51.6673 47.8854 51.7161 47.8756 51.7552 47.8952L51.8334 47.9395C51.8823 47.9691 51.9116 48.0232 51.9116 48.0773C51.9116 48.1364 51.8774 48.1856 51.8285 48.2151L51.335 48.4858C51.2813 48.5153 51.2275 48.5301 51.1738 48.5301Z" fill="#ECC550"/>
<path d="M29.8453 48.1413V41.3154L42.7841 48.8106V55.7251L29.8453 48.1413Z" fill="#ECC550"/>
<path d="M29.8453 41.1137L34.6534 38.2987L47.5824 45.7938L42.7841 48.5645L29.8453 41.1137Z" fill="#ECC550"/>
<path d="M42.8526 48.6088L42.7841 49.2092L29.8453 41.783V41.1432L42.8526 48.6088Z" fill="#ECC550"/>
<path d="M30.3291 41.409L34.6534 38.8843L47.5825 46.3795L43.263 48.8598L30.3291 41.409Z" fill="#FFEECC"/>
<path d="M47.7095 45.72V52.9888L42.7841 55.8678L29.7183 48.2151V41.0349L34.6534 38.151L47.7095 45.72ZM29.9723 48.0675L30.891 48.6088V42.5064L29.9528 41.97L29.9723 48.0675ZM40.5022 54.2339H40.4973L41.5039 54.8245V48.599L40.5071 48.0232V54.2339H40.5022ZM40.3214 47.9199L39.3246 47.3441V53.5449L40.3214 54.1306V47.9199ZM39.1634 47.2604L38.1373 46.6698V52.8559L39.1341 53.4416V47.2604H39.1634ZM37.9614 46.5665L36.9646 45.9956V52.167L37.9614 52.7526V46.5665ZM36.7789 45.8873L35.7821 45.3165V51.473L36.7789 52.0587V45.8873ZM35.6013 45.2131L34.6143 44.6472V50.789L35.6013 51.3648V45.2131ZM34.4335 44.5389L33.4367 43.9631V50.0951L34.4335 50.6807V44.5389ZM33.2559 43.8647L32.2591 43.2889V49.4061L33.2559 49.9917V43.8647ZM32.0734 43.1855L31.0766 42.6098V48.7122L32.0734 49.2978V43.1855ZM42.6571 49.2634L41.6798 48.7023V54.9278L42.6571 55.4987V49.2634ZM42.6571 48.6384L29.9528 41.2958V41.719L42.6571 49.0124V48.7368V48.7073V48.6384ZM47.3283 45.7938L34.6534 38.4463L30.0994 41.1137L42.7792 48.4169L47.3283 45.7938Z" fill="#16110D"/>
<path d="M47.7095 46.3303V46.099L42.6718 49.0222V49.2535L45.2126 47.7821V54.4505L45.3934 54.3422V47.6738L47.7095 46.3303Z" fill="#ECC550"/>
<path d="M44.2255 52.5656C44.1718 52.5656 44.118 52.5508 44.0741 52.5262L44.0008 52.4819C43.9617 52.4622 43.9519 52.413 43.9714 52.3736C43.991 52.3343 44.0399 52.3244 44.0789 52.3441L44.1522 52.3884C44.2011 52.4179 44.2597 52.4179 44.3086 52.3884L44.8021 52.1177L44.7239 52.0685C44.6897 52.0439 44.6751 51.9996 44.6995 51.9603C44.719 51.9209 44.7679 51.911 44.807 51.9307L44.8852 51.975C44.934 52.0045 44.9634 52.0587 44.9634 52.1128C44.9634 52.1719 44.9292 52.2211 44.8803 52.2506L44.3868 52.5213C44.333 52.5508 44.2793 52.5656 44.2255 52.5656Z" fill="#ECC550"/>
<path d="M45.9406 51.601C45.8869 51.601 45.8331 51.5862 45.7891 51.5616L45.7158 51.5173C45.6768 51.4976 45.667 51.4484 45.6865 51.4091C45.7061 51.3697 45.7549 51.3599 45.794 51.3795L45.8673 51.4238C45.9162 51.4534 45.9748 51.4534 46.0237 51.4238L46.5172 51.1532L46.439 51.1039C46.4048 51.0793 46.3902 51.035 46.4146 50.9957C46.4341 50.9563 46.483 50.9465 46.5221 50.9661L46.6003 51.0104C46.6491 51.04 46.6784 51.0941 46.6784 51.1482C46.6784 51.2073 46.6442 51.2565 46.5954 51.286L46.1019 51.5567C46.0481 51.5912 45.9944 51.6059 45.9406 51.601Z" fill="#ECC550"/>
<path d="M24.6122 51.2171V44.3913L37.5461 51.8864V58.796L24.6122 51.2171Z" fill="#ECC550"/>
<path d="M24.6122 44.1895L29.4203 41.3745L42.3444 48.8697L37.5461 51.6404L24.6122 44.1895Z" fill="#ECC550"/>
<path d="M37.6145 51.6846L37.5461 52.285L24.6122 44.8539V44.219L37.6145 51.6846Z" fill="#ECC550"/>
<path d="M25.0959 44.4848L29.4203 41.9601L42.3444 49.4553L38.0299 51.9357L25.0959 44.4848Z" fill="#FFEECC"/>
<path d="M42.4714 48.7958V56.0646L37.5461 58.9436L24.4851 51.286V44.1107L29.4202 41.2269L42.4714 48.7958ZM24.7392 51.1433L25.6627 51.6847V45.5822L24.7245 45.0458L24.7392 51.1433ZM35.2642 57.3097H35.2593L36.2659 57.9003V51.6748L35.2691 51.099V57.3097H35.2642ZM35.0834 50.9957L34.0866 50.4199V56.6207L35.0834 57.2064V50.9957ZM33.9302 50.3313L32.9041 49.7407V55.9268L33.9009 56.5125V50.3313H33.9302ZM32.7233 49.6423L31.7265 49.0665V55.2379L32.7233 55.8235V49.6423ZM31.5457 48.9632L30.549 48.3874V54.5439L31.5457 55.1296V48.9632ZM30.3633 48.284L29.3763 47.7181V53.8599L30.3633 54.4357V48.284ZM29.2003 47.6147L28.2036 47.0439V53.1758L29.2003 53.7615V47.6147ZM28.0179 46.9405L27.0211 46.3696V52.4868L28.0179 53.0725V46.9405ZM26.8403 46.2614L25.8435 45.6905V51.7929L26.8403 52.3786V46.2614ZM37.419 52.3392L36.4418 51.7782V58.0036L37.419 58.5745V52.3392ZM37.419 51.7093L24.7196 44.3667V44.7899L37.419 52.0833V51.8077V51.7782V51.7093ZM42.0903 48.8697L29.4202 41.5221L24.8662 44.1895L37.5461 51.4927L42.0903 48.8697Z" fill="#16110D"/>
<path d="M42.4763 49.4061L42.4714 49.1748L37.4386 52.0981V52.3294L39.9795 50.853V57.5213L40.1602 57.418V50.7496L42.4763 49.4061Z" fill="#ECC550"/>
<path d="M38.9924 55.6414C38.9386 55.6414 38.8849 55.6266 38.8409 55.602L38.7676 55.5577C38.7285 55.538 38.7187 55.4888 38.7383 55.4495C38.7578 55.4101 38.8067 55.4002 38.8458 55.4199L38.9191 55.4642C38.9679 55.4938 39.0266 55.4938 39.0754 55.4642L39.569 55.1936L39.4908 55.1443C39.4566 55.1197 39.4419 55.0754 39.4663 55.0361C39.4859 54.9967 39.5348 54.9869 39.5738 55.0065L39.652 55.0508C39.7009 55.0804 39.7302 55.1345 39.7302 55.1886C39.7302 55.2477 39.696 55.2969 39.6471 55.3264L39.1536 55.5971C39.0999 55.6266 39.0461 55.6414 38.9924 55.6414Z" fill="#ECC550"/>
<path d="M40.7026 54.6768C40.6488 54.6768 40.5951 54.6621 40.5511 54.6375L40.4778 54.5932C40.4387 54.5735 40.4289 54.5243 40.4485 54.4849C40.468 54.4455 40.5169 54.4357 40.556 54.4554L40.6293 54.4997C40.6781 54.5292 40.7368 54.5292 40.7856 54.4997L41.2792 54.229L41.201 54.1798C41.1668 54.1552 41.1521 54.1109 41.1765 54.0715C41.1961 54.0321 41.2449 54.0223 41.284 54.042L41.3622 54.0863C41.4111 54.1158 41.4404 54.1699 41.4404 54.2241C41.4404 54.2831 41.4062 54.3323 41.3573 54.3619L40.8638 54.6325C40.8101 54.667 40.7563 54.6768 40.7026 54.6768Z" fill="#ECC550"/>
<path d="M40.3312 34.9276V28.1017L53.2651 35.5969V42.5113L40.3312 34.9276Z" fill="#ECC550"/>
<path d="M40.3312 27.8999L45.1393 25.0849L58.0634 32.5801L53.2651 35.3508L40.3312 27.8999Z" fill="#ECC550"/>
<path d="M53.3335 35.3951L53.2651 35.9955L40.3312 28.5692V27.9294L53.3335 35.3951Z" fill="#ECC550"/>
<path d="M40.8149 28.1952L45.1393 25.6706L58.0634 33.1657L53.7489 35.651L40.8149 28.1952Z" fill="#FFEECC"/>
<path d="M58.1904 32.5063V39.7751L53.2651 42.654L40.2041 35.0014V27.8261L45.1392 24.9422L58.1904 32.5063ZM40.4582 34.8538L41.3768 35.3951V29.2976L40.4386 28.7612L40.4582 34.8538ZM50.9832 41.0202H50.9783L51.9849 41.6107V35.3853L50.9881 34.8095V41.0202H50.9832ZM50.8024 34.7061L49.8056 34.1303V40.3312L50.8024 40.9168V34.7061ZM49.6492 34.0467L48.6231 33.4561V39.6422L49.6199 40.2278V34.0467H49.6492ZM48.4423 33.3527L47.4455 32.777V38.9483L48.4423 39.5339V33.3527ZM47.2648 32.6736L46.268 32.0978V38.2544L47.2648 38.84V32.6736ZM46.0872 31.9994L45.1001 31.4334V37.5752L46.0872 38.151V31.9994ZM44.9193 31.3301L43.9225 30.7592V36.8912L44.9193 37.4768V31.3301ZM43.7369 30.6509L42.7401 30.0752V36.1923L43.7369 36.778V30.6509ZM42.5593 29.9718L41.5625 29.4009V35.5034L42.5593 36.089V29.9718ZM53.138 36.0496L52.1608 35.4886V41.7141L53.138 42.2849V36.0496ZM53.138 35.4246L40.4386 28.082V28.5052L53.138 35.7986V35.5231V35.4935V35.4246ZM57.8093 32.5801L45.1392 25.2326L40.5852 27.8999L53.27 35.2032L57.8093 32.5801Z" fill="#16110D"/>
<path d="M58.1953 33.1214L58.1904 32.8852L53.1576 35.8085V36.0398L55.6984 34.5683V41.2367L55.8792 41.1284V34.46L58.1953 33.1214Z" fill="#ECC550"/>
<path d="M54.7114 39.3518C54.6576 39.3518 54.6039 39.3371 54.5599 39.3125L54.4866 39.2682C54.4475 39.2485 54.4377 39.1993 54.4573 39.1599C54.4768 39.1205 54.5257 39.1107 54.5648 39.1304L54.6381 39.1747C54.6869 39.2042 54.7456 39.2042 54.7944 39.1747L55.288 38.904L55.2098 38.8548C55.1756 38.8302 55.1609 38.7859 55.1805 38.7465C55.2049 38.7071 55.2489 38.6973 55.288 38.717L55.3661 38.7613C55.415 38.7908 55.4443 38.8449 55.4443 38.8991C55.4443 38.9581 55.4101 39.0073 55.3613 39.0369L54.8677 39.3075C54.8189 39.342 54.7651 39.3518 54.7114 39.3518Z" fill="#ECC550"/>
<path d="M56.4216 38.3922C56.3678 38.3922 56.3141 38.3774 56.2701 38.3528L56.1968 38.3085C56.1577 38.2888 56.1479 38.2396 56.1675 38.2002C56.187 38.1609 56.2359 38.151 56.275 38.1707L56.3483 38.215C56.3971 38.2445 56.4558 38.2445 56.5046 38.215L56.9982 37.9443L56.92 37.8951C56.8858 37.8705 56.8711 37.8262 56.8955 37.7869C56.9151 37.7475 56.964 37.7376 57.003 37.7573L57.0812 37.8016C57.1301 37.8311 57.1594 37.8853 57.1594 37.9394C57.1594 37.9985 57.1252 38.0477 57.0763 38.0772L56.5828 38.3479C56.5291 38.3774 56.4753 38.3922 56.4216 38.3922Z" fill="#ECC550"/>
<path d="M54.5893 31.7189L52.0484 30.2474L49.5125 31.7189V32.4325L52.0484 33.899V33.1903L54.5893 31.7189Z" fill="#ECC550"/>
<path d="M54.6772 31.6697V31.773V32.4866L52.0484 34.0073L51.9555 33.9531L49.4147 32.4866V31.773V31.6697L52.0435 30.144L54.5843 31.6155L54.6772 31.6697ZM52.0484 30.3557L49.6932 31.7238L52.0484 33.0919L54.4035 31.7238L52.0484 30.3557ZM51.9604 33.7415V33.2445L50.5825 32.4423L49.6052 31.8763V32.3783L51.9604 33.7415Z" fill="#16110D"/>
<path d="M53.397 31.8763L52.0484 32.6342L50.6998 31.8763L52.0484 31.0939L53.397 31.8763Z" fill="#FFEECC"/>
<path d="M53.8172 31.7189L52.0484 30.6952L50.2795 31.7189L52.0484 32.7425L53.8172 31.7189ZM52.0484 30.9068L53.4556 31.7238L52.0484 32.5407L50.6411 31.7238L52.0484 30.9068Z" fill="#16110D"/>
<path d="M19.3691 54.293V47.4622L32.3031 54.9623V61.8718L19.3691 54.293Z" fill="#ECC550"/>
<path d="M19.3691 47.2604L24.1772 44.4503L37.1063 51.9455L32.3031 54.7113L19.3691 47.2604Z" fill="#ECC550"/>
<path d="M32.3715 54.7556L32.3031 55.3609L19.3691 47.9297V47.2948L32.3715 54.7556Z" fill="#ECC550"/>
<path d="M19.8529 47.5606L24.1772 45.031L37.1063 52.5262L32.7868 55.0115L19.8529 47.5606Z" fill="#FFEECC"/>
<path d="M37.2284 51.8717V59.1405L32.303 62.0194L19.2421 54.3619V47.1866L24.1772 44.3027L37.2284 51.8717ZM19.4962 54.2191L20.4148 54.7605V48.6581L19.4766 48.1216L19.4962 54.2191ZM30.026 60.3856H30.0212L31.0277 60.9761V54.7507L30.0309 54.1798V60.3856H30.026ZM29.8404 54.0715L28.8436 53.4957V59.6966L29.8404 60.2822V54.0715ZM28.6872 53.4071L27.6611 52.8166V59.0027L28.6579 59.5883V53.4071H28.6872ZM27.4803 52.7132L26.4835 52.1374V58.3088L27.4803 58.8944V52.7132ZM26.3027 52.039L25.3059 51.4632V57.6198L26.3027 58.2054V52.039ZM25.1251 51.3599L24.1381 50.7939V56.9357L25.1251 57.5115V51.3599ZM23.9573 50.6906L22.9605 50.1197V56.2517L23.9573 56.8373V50.6906ZM22.7748 50.0114L21.778 49.4405V55.5577L22.7748 56.1434V50.0114ZM21.5972 49.3372L20.6004 48.7614V54.8638L21.5972 55.4495V49.3372ZM32.1809 55.4101L31.2036 54.8491V61.0745L32.1809 61.6454V55.4101ZM32.1809 54.7851L19.4766 47.4425V47.8657L32.176 55.1591V54.8835V54.854V54.7851H32.1809ZM36.8473 51.9455L24.1772 44.598L19.6232 47.2604L32.303 54.5636L36.8473 51.9455Z" fill="#16110D"/>
<path d="M37.2333 52.4819L37.2284 52.2506L32.1956 55.169V55.4052L34.7364 53.9288V60.5972L34.9172 60.4938V53.8254L37.2333 52.4819Z" fill="#ECC550"/>
<path d="M33.7493 58.7123C33.6956 58.7123 33.6418 58.6976 33.5979 58.6729L33.5246 58.6287C33.4855 58.609 33.4757 58.5598 33.4952 58.5204C33.5148 58.481 33.5637 58.4712 33.6027 58.4909L33.676 58.5352C33.7249 58.5647 33.7835 58.5647 33.8324 58.5352L34.3259 58.2645L34.2477 58.2153C34.2135 58.1907 34.1989 58.1464 34.2184 58.107C34.2428 58.0676 34.2868 58.0578 34.3259 58.0775L34.4041 58.1218C34.453 58.1513 34.4823 58.2054 34.4823 58.2596C34.4823 58.3186 34.4481 58.3678 34.3992 58.3974L33.9057 58.668C33.8568 58.7025 33.8031 58.7172 33.7493 58.7123Z" fill="#ECC550"/>
<path d="M35.4595 57.7527C35.4058 57.7527 35.352 57.7379 35.3081 57.7133L35.2348 57.669C35.1957 57.6493 35.1859 57.6001 35.2055 57.5607C35.225 57.5214 35.2739 57.5115 35.3129 57.5312L35.3862 57.5755C35.4351 57.605 35.4937 57.605 35.5426 57.5755L36.0361 57.3048L35.9579 57.2556C35.9237 57.231 35.9091 57.1867 35.9335 57.1473C35.953 57.108 36.0019 57.0981 36.041 57.1178L36.1192 57.1621C36.168 57.1916 36.1974 57.2458 36.1974 57.2999C36.1974 57.359 36.1632 57.4131 36.1143 57.4377L35.6208 57.7084C35.5719 57.7379 35.5133 57.7527 35.4595 57.7527Z" fill="#ECC550"/>
<path d="M26.7083 46.97L24.1723 45.4986L21.6315 46.97V47.6836L24.1723 49.1502V48.4415L26.7083 46.97Z" fill="#ECC550"/>
<path d="M26.8011 46.9159V47.0193V47.7329L24.1723 49.2535L24.0794 49.1994L21.5386 47.7329V47.0193V46.9159L24.1674 45.3903L26.7082 46.8618L26.8011 46.9159ZM24.1723 45.6068L21.8171 46.975L24.1723 48.3431L26.5274 46.975L24.1723 45.6068ZM24.0794 48.9927V48.4957L22.7015 47.6935L21.7243 47.1275V47.6295L24.0794 48.9927Z" fill="#16110D"/>
<path d="M25.5208 47.1275L24.1722 47.8854L22.8236 47.1275L24.1722 46.345L25.5208 47.1275Z" fill="#FFEECC"/>
<path d="M25.9411 46.9701L24.1723 45.9464L22.4034 46.9701L24.1723 47.9937L25.9411 46.9701ZM24.1723 46.1531L25.5795 46.9701L24.1723 47.787L22.765 46.9701L24.1723 46.1531Z" fill="#16110D"/>
<path d="M14.136 57.3639V50.538L27.0699 58.0381V64.9476L14.136 57.3639Z" fill="#ECC550"/>
<path d="M14.136 50.3362L18.9441 47.5212L31.8682 55.0164L27.0699 57.7871L14.136 50.3362Z" fill="#ECC550"/>
<path d="M27.1383 57.8314L27.0699 58.4318L14.136 51.0055V50.3707L27.1383 57.8314Z" fill="#ECC550"/>
<path d="M14.6149 50.6364L18.9441 48.1069L31.8682 55.602L27.5537 58.0873L14.6149 50.6364Z" fill="#FFEECC"/>
<path d="M31.9952 54.9426V62.2114L27.0699 65.0903L14.0089 57.4328V50.2624L18.944 47.3785L31.9952 54.9426ZM14.263 57.295L15.1816 57.8363V51.7388L14.2435 51.2024L14.263 57.295ZM24.788 63.4565H24.7831L25.7897 64.047V57.8215L24.7929 57.2507V63.4565H24.788ZM24.6072 57.1473L23.6104 56.5764V62.7773L24.6072 63.3629V57.1473ZM23.454 56.4829L22.4279 55.8924V62.0785L23.4247 62.6641V56.4829H23.454ZM22.2471 55.789L21.2503 55.2182V61.3895L22.2471 61.9751V55.789ZM21.0696 55.1148L20.0728 54.539V60.6956L21.0696 61.2812V55.1148ZM19.8871 54.4357L18.9001 53.8697V60.0115L19.8871 60.5873V54.4357ZM18.7241 53.7664L17.7274 53.1906V59.3225L18.7241 59.9082V53.7664ZM17.5417 53.0872L16.5449 52.5164V58.6336L17.5417 59.2192V53.0872ZM16.3641 52.4081L15.3673 51.8372V57.9396L16.3641 58.5253V52.4081ZM26.9428 58.4859L25.9656 57.9249V64.1504L26.9428 64.7212V58.4859ZM26.9428 57.8609L14.2435 50.5183V50.9415L26.9428 58.2349V57.9593V57.9298V57.8609ZM31.6141 55.0164L18.944 47.6689L14.39 50.3362L27.0748 57.6394L31.6141 55.0164Z" fill="#16110D"/>
<path d="M31.9953 55.5577V55.3215L26.9624 58.2448V58.481L29.5033 57.0046V63.673L29.684 63.5647V56.8963L31.9953 55.5577Z" fill="#ECC550"/>
<path d="M28.5162 61.7881C28.4624 61.7881 28.4087 61.7734 28.3647 61.7488L28.2914 61.7045C28.2523 61.6848 28.2425 61.6356 28.2621 61.5962C28.2816 61.5568 28.3305 61.547 28.3696 61.5667L28.4429 61.611C28.4917 61.6405 28.5504 61.6405 28.5992 61.611L29.0928 61.3403L29.0146 61.2911C28.9804 61.2665 28.9657 61.2222 28.9853 61.1828C29.0048 61.1434 29.0537 61.1336 29.0928 61.1533L29.1709 61.1976C29.2198 61.2271 29.2491 61.2812 29.2491 61.3354C29.2491 61.3944 29.2149 61.4436 29.166 61.4732L28.6725 61.7438C28.6237 61.7783 28.5699 61.7881 28.5162 61.7881Z" fill="#ECC550"/>
<path d="M30.2264 60.8285C30.1726 60.8285 30.1189 60.8137 30.0749 60.7891L30.0016 60.7448C29.9625 60.7251 29.9528 60.6759 29.9723 60.6365C29.9918 60.5972 30.0407 60.5873 30.0798 60.607L30.1531 60.6513C30.2019 60.6808 30.2606 60.6808 30.3094 60.6513L30.803 60.3806L30.7248 60.3314C30.6906 60.3068 30.6759 60.2625 30.7003 60.2231C30.7199 60.1838 30.7688 60.1739 30.8078 60.1936L30.886 60.2379C30.9349 60.2674 30.9642 60.3216 30.9642 60.3757C30.9642 60.4348 30.93 60.484 30.8811 60.5135L30.3876 60.7842C30.3339 60.8137 30.2801 60.8285 30.2264 60.8285Z" fill="#ECC550"/>
<path d="M35.098 38.0034V31.1775L48.0319 38.6727V45.5872L35.098 38.0034Z" fill="#ECC550"/>
<path d="M35.098 30.9758L39.9061 28.1608L52.8303 35.6559L48.0319 38.4266L35.098 30.9758Z" fill="#ECC550"/>
<path d="M48.1004 38.4709L48.0319 39.0713L35.098 31.6401V31.0053L48.1004 38.4709Z" fill="#ECC550"/>
<path d="M35.5769 31.271L39.9061 28.7464L52.8303 36.2416L48.5157 38.7219L35.5769 31.271Z" fill="#FFEECC"/>
<path d="M52.9573 35.5821V42.8509L48.0319 45.7348L34.9709 38.0772V30.897L39.9061 28.0131L52.9573 35.5821ZM35.225 37.9296L36.1437 38.4709V32.3685L35.2055 31.8321L35.225 37.9296ZM45.75 44.096H45.7451L46.7517 44.6866V38.4611L45.7549 37.8853V44.096H45.75ZM45.5692 37.7819L44.5724 37.2061V43.407L45.5692 43.9926V37.7819ZM44.4161 37.1225L43.39 36.5319V42.718L44.3868 43.3037V37.1225H44.4161ZM43.2092 36.4286L42.2124 35.8528V42.0241L43.2092 42.6098V36.4286ZM42.0316 35.7494L41.0348 35.1736V41.3302L42.0316 41.9158V35.7494ZM40.8491 35.0752L39.8621 34.5093V40.6511L40.8491 41.2269V35.0752ZM39.6862 34.401L38.6894 33.8301V39.9621L39.6862 40.5477V34.401ZM38.5037 33.7268L37.5069 33.1559V39.2731L38.5037 39.8587V33.7268ZM37.3261 33.0476L36.3293 32.4768V38.5792L37.3261 39.1648V33.0476ZM47.9049 39.1255L46.9276 38.5644V44.7899L47.9049 45.3608V39.1255ZM47.9049 38.5005L35.2055 31.1578V31.5811L47.9049 38.8745V38.5989V38.5694V38.5005ZM52.5761 35.6559L39.9061 28.3084L35.3521 30.9758L48.0319 38.279L52.5761 35.6559Z" fill="#16110D"/>
<path d="M52.9573 36.1924V35.9611L47.9244 38.8843V39.1156L50.4653 37.6392V44.3076L50.6461 44.2043V37.5359L52.9573 36.1924Z" fill="#ECC550"/>
<path d="M49.4782 42.4277C49.4245 42.4277 49.3707 42.4129 49.3267 42.3883L49.2534 42.344C49.2144 42.3243 49.2046 42.2751 49.2241 42.2357C49.2437 42.1964 49.2925 42.1865 49.3316 42.2062L49.4049 42.2505C49.4538 42.28 49.5124 42.28 49.5613 42.2505L50.0548 41.9798L49.9766 41.9306C49.9424 41.906 49.9277 41.8617 49.9473 41.8223C49.9668 41.783 50.0157 41.7731 50.0548 41.7928L50.133 41.8371C50.1818 41.8666 50.2111 41.9208 50.2111 41.9749C50.2111 42.034 50.1769 42.0832 50.1281 42.1127L49.6346 42.3834C49.5857 42.4129 49.532 42.4277 49.4782 42.4277Z" fill="#ECC550"/>
<path d="M51.1884 41.4631C51.1347 41.4631 51.0809 41.4483 51.0369 41.4237L50.9637 41.3794C50.9246 41.3597 50.9148 41.3105 50.9343 41.2712C50.9539 41.2318 51.0027 41.2219 51.0418 41.2416L51.1151 41.2859C51.164 41.3154 51.2226 41.3154 51.2715 41.2859L51.765 41.0152L51.6868 40.966C51.6526 40.9414 51.638 40.8971 51.6624 40.8578C51.6819 40.8184 51.7308 40.8085 51.7699 40.8282L51.8481 40.8725C51.8969 40.9021 51.9262 40.9562 51.9262 41.0103C51.9262 41.0694 51.892 41.1186 51.8432 41.1481L51.3497 41.4188C51.2959 41.4532 51.2422 41.4631 51.1884 41.4631Z" fill="#ECC550"/>
<path d="M42.4372 30.6509L39.9012 29.1795L37.3604 30.6509V31.3645L39.9012 32.8311V32.1224L42.4372 30.6509Z" fill="#ECC550"/>
<path d="M42.53 30.5968V30.7002V31.4138L39.9012 32.9344L39.8083 32.8803L37.2675 31.4138V30.7002V30.5968L39.8963 29.0712L42.4371 30.5427L42.53 30.5968ZM39.9012 29.2878L37.546 30.6559L39.9012 32.024L42.2563 30.6559L39.9012 29.2878ZM39.8083 32.6736V32.1766L38.4304 31.3744L37.4531 30.8084V31.3104L39.8083 32.6736Z" fill="#16110D"/>
<path d="M41.2497 30.8084L39.9011 31.5663L38.5476 30.8084L39.9011 30.0259L41.2497 30.8084Z" fill="#FFEECC"/>
<path d="M41.67 30.651L39.9012 29.6273L38.1323 30.651L39.9012 31.6746L41.67 30.651ZM39.9012 29.834L41.3084 30.651L39.9012 31.4679L38.4939 30.651L39.9012 29.834Z" fill="#16110D"/>
<path d="M29.8649 41.0792V34.2534L42.7988 41.7485V48.6581L29.8649 41.0792Z" fill="#ECC550"/>
<path d="M29.8649 34.0467L34.6729 31.2366L47.5971 38.7318L42.7988 41.4975L29.8649 34.0467Z" fill="#ECC550"/>
<path d="M42.8672 41.5467L42.7988 42.1471L29.8649 34.716V34.0811L42.8672 41.5467Z" fill="#ECC550"/>
<path d="M30.3438 34.3469L34.673 31.8173L47.5971 39.3125L43.2826 41.7977L30.3438 34.3469Z" fill="#FFEECC"/>
<path d="M47.7241 38.6579V45.9267L42.7988 48.8057L29.7378 41.153V33.9728L34.6729 31.0889L47.7241 38.6579ZM29.9919 41.0054L30.9105 41.5467V35.4443L29.9723 34.9079L29.9919 41.0054ZM40.5169 47.1718H40.512L41.5186 47.7624V41.5369L40.5218 40.966V47.1718H40.5169ZM40.3361 40.8578L39.3393 40.2869V46.4878L40.3361 47.0734V40.8578ZM39.1829 40.1934L38.1568 39.6028V45.7889L39.1536 46.3746V40.1934H39.1829ZM37.976 39.5044L36.9792 38.9335V45.1049L37.976 45.6905V39.5044ZM36.7984 38.8253L35.8016 38.2544V44.411L36.7984 44.9966V38.8253ZM35.616 38.1461L34.6289 37.5802V43.722L35.616 44.2978V38.1461ZM34.4481 37.4768L33.4513 36.9059V43.0379L34.4481 43.6235V37.4768ZM33.2706 36.7977L32.2738 36.2268V42.344L33.2706 42.9296V36.7977ZM32.0881 36.1235L31.0913 35.5526V41.655L32.0881 42.2407V36.1235ZM42.6717 42.2013L41.6945 41.6403V47.8657L42.6717 48.4366V42.2013ZM42.6717 41.5714L29.9723 34.2287V34.652L42.6717 41.9454V41.6698V41.6403V41.5714ZM47.343 38.7318L34.6729 31.3842L30.1189 34.0516L42.7988 41.3548L47.343 38.7318Z" fill="#16110D"/>
<path d="M47.7241 39.2682V39.0369L42.6913 41.9552V42.1914L45.2321 40.715V47.3834L45.4129 47.2801V40.6117L47.7241 39.2682Z" fill="#ECC550"/>
<path d="M44.2402 45.5035C44.1864 45.5035 44.1327 45.4887 44.0887 45.4641L44.0154 45.4198C43.9763 45.4001 43.9665 45.3509 43.9861 45.3115C44.0056 45.2722 44.0545 45.2623 44.0936 45.282L44.1669 45.3263C44.2157 45.3558 44.2744 45.3558 44.3232 45.3263L44.8168 45.0556L44.7386 45.0064C44.7044 44.9818 44.6897 44.9375 44.7141 44.8981C44.7337 44.8588 44.7826 44.8489 44.8216 44.8686L44.8998 44.9129C44.9487 44.9424 44.978 44.9966 44.978 45.0507C44.978 45.1098 44.9438 45.159 44.8949 45.1885L44.4014 45.4592C44.3477 45.4887 44.2939 45.5035 44.2402 45.5035Z" fill="#ECC550"/>
<path d="M45.9553 44.5389C45.9015 44.5389 45.8478 44.5242 45.8038 44.4995L45.7305 44.4553C45.6914 44.4356 45.6816 44.3864 45.7012 44.347C45.7207 44.3076 45.7696 44.2978 45.8087 44.3175L45.882 44.3618C45.9308 44.3913 45.9895 44.3913 46.0383 44.3618L46.5319 44.0911L46.4537 44.0419C46.4195 44.0173 46.4048 43.973 46.4292 43.9336C46.4488 43.8942 46.4976 43.8844 46.5367 43.9041L46.6149 43.9484C46.6638 43.9779 46.6931 44.032 46.6931 44.0862C46.6931 44.1452 46.6589 44.1944 46.61 44.224L46.1165 44.4946C46.0628 44.5291 46.009 44.5389 45.9553 44.5389Z" fill="#ECC550"/>
<path d="M24.6219 44.155V37.3242L37.5559 44.8243V51.7339L24.6219 44.155Z" fill="#ECC550"/>
<path d="M24.6219 37.1225L29.43 34.3124L42.3542 41.8026L37.5559 44.5733L24.6219 37.1225Z" fill="#ECC550"/>
<path d="M37.6243 44.6177L37.5559 45.223L24.6219 37.7918V37.1569L37.6243 44.6177Z" fill="#ECC550"/>
<path d="M25.0714 37.403L29.43 34.8931L42.3541 42.3883L38.0395 44.8735L25.0714 37.403Z" fill="#FFEECC"/>
<path d="M42.4812 41.7288V48.9976L37.5558 51.8766L24.4949 44.2239V37.0487L29.43 34.1648L42.4812 41.7288ZM24.749 44.0812L25.6676 44.6226V38.5201L24.7294 37.9837L24.749 44.0812ZM35.274 50.2476H35.2691L36.2756 50.8382V44.6078L35.2788 44.032V50.2476H35.274ZM35.0932 43.9336L34.0964 43.3627V49.5636L35.0932 50.1492V43.9336ZM33.94 43.2692L32.9139 42.6786V48.8647L33.9107 49.4504V43.2692H33.94ZM32.7331 42.5753L31.7363 42.0044V48.1758L32.7331 48.7614V42.5753ZM31.5555 41.9011L30.5587 41.3302V47.4868L31.5555 48.0724V41.9011ZM30.373 41.2219L29.386 40.656V46.7978L30.373 47.3736V41.2219ZM29.2052 40.5526L28.2084 39.9768V46.1088L29.2052 46.6944V40.5526ZM28.0276 39.8735L27.0308 39.2977V45.4149L28.0276 46.0005V39.8735ZM26.85 39.1993L25.8533 38.6235V44.7259L26.85 45.3116V39.1993ZM37.4288 45.2722L36.4515 44.7112V50.9366L37.4288 51.5075V45.2722ZM37.4288 44.6472L24.7294 37.3046V37.7278L37.4288 45.0212V44.7505V44.721V44.6472ZM42.1001 41.8027L29.43 34.4551L24.876 37.1225L37.5558 44.4257L42.1001 41.8027Z" fill="#16110D"/>
<path d="M42.4812 42.344V42.1127L37.4484 45.031V45.2673L39.9892 43.7909V50.4593L40.17 50.351V43.6875L42.4812 42.344Z" fill="#ECC550"/>
<path d="M39.0021 48.5744C38.9484 48.5744 38.8946 48.5596 38.8507 48.535L38.7774 48.4907C38.7383 48.471 38.7285 48.4218 38.7481 48.3825C38.7676 48.3431 38.8165 48.3332 38.8555 48.3529L38.9288 48.3972C38.9777 48.4267 39.0363 48.4267 39.0852 48.3972L39.5787 48.1266L39.5005 48.0773C39.4663 48.0527 39.4517 48.0084 39.4761 47.9691C39.4957 47.9297 39.5445 47.9199 39.5836 47.9395L39.6618 47.9838C39.7106 48.0134 39.74 48.0675 39.74 48.1216C39.74 48.1807 39.7058 48.2299 39.6569 48.2594L39.1634 48.5301C39.1096 48.5645 39.0559 48.5744 39.0021 48.5744Z" fill="#ECC550"/>
<path d="M40.7123 47.6147C40.6586 47.6147 40.6048 47.6 40.5609 47.5754L40.4876 47.5311C40.4485 47.5114 40.4387 47.4622 40.4583 47.4228C40.4778 47.3834 40.5267 47.3736 40.5658 47.3933L40.639 47.4376C40.6879 47.4671 40.7465 47.4671 40.7954 47.4376L41.2889 47.1669L41.2107 47.1177C41.1765 47.0931 41.1619 47.0488 41.1863 47.0094C41.2059 46.97 41.2547 46.9602 41.2938 46.9799L41.372 47.0242C41.4208 47.0537 41.4502 47.1078 41.4502 47.162C41.4502 47.221 41.416 47.2702 41.3671 47.2998L40.8736 47.5704C40.8198 47.6 40.7661 47.6147 40.7123 47.6147Z" fill="#ECC550"/>
<path d="M39.0267 40.9956L36.4907 39.5241L33.9498 40.9956V41.7091L36.4907 43.1757V42.4621L39.0267 40.9956Z" fill="#ECC550"/>
<path d="M39.1194 40.9414V41.0448V41.7584L36.4906 43.279L36.3978 43.2249L33.8569 41.7584V41.0448V40.9414L36.4857 39.4158L39.0266 40.8873L39.1194 40.9414ZM36.4906 39.6274L34.1355 40.9955L36.4906 42.3637L38.8458 40.9955L36.4906 39.6274ZM36.3978 43.0182V42.5212L35.0199 41.719L34.0426 41.153V41.655L36.3978 43.0182Z" fill="#16110D"/>
<path d="M37.8392 41.153L36.4906 41.906L35.1371 41.153L36.4906 40.3705L37.8392 41.153Z" fill="#FFEECC"/>
<path d="M38.2595 40.9955L36.4906 39.9719L34.7218 40.9955L36.4906 42.0192L38.2595 40.9955ZM36.4906 40.1786L37.8979 40.9955L36.4906 41.8125L35.0834 40.9955L36.4906 40.1786Z" fill="#16110D"/>
</svg>
