<svg width="84" height="70" viewBox="0 0 84 70" fill="none" xmlns="http://www.w3.org/2000/svg">
<path d="M17.2739 29.0341L7.48633 14.2826L32.0839 0.214386L41.885 14.9659L17.2739 29.0341Z" fill="#ECC550"/>
<path d="M16.7595 31.8477L6.97192 17.0962L31.5695 3.02802L41.3706 17.7795L16.7595 31.8477Z" fill="#FFEECC"/>
<path d="M17.2197 29.2485L7.2561 14.229L32.138 0L42.1151 15.0195L17.2197 29.2485ZM7.71638 14.3362L17.3144 28.8063L41.6413 14.9123L32.0297 0.442144L7.71638 14.3362Z" fill="#16110D"/>
<path d="M66.618 29.1145L76.392 14.363L51.7944 0.294769L42.0068 15.0463L66.618 29.1145Z" fill="#ECC550"/>
<path d="M67.0918 31.8477L76.8794 17.0962L52.2818 3.02802L42.4807 17.7795L67.0918 31.8477Z" fill="#FFEECC"/>
<path d="M66.6721 29.3289L41.7632 15.0999L51.7403 0.0803833L76.6357 14.3094L76.5409 14.4568L66.6721 29.3289ZM42.237 14.9927L66.5638 28.8867L76.1619 14.4166L51.8486 0.522527L42.237 14.9927Z" fill="#16110D"/>
<path d="M17.3955 29.1145V55.1474L42.0066 69.2156V43.1827L17.3955 29.1145Z" fill="#ECC550"/>
<path d="M42.0067 42.9951L17.2332 28.8331V55.2412L42.0067 69.4032L66.6991 55.2948L66.7803 55.2412V28.8331L42.0067 42.9951ZM17.5581 55.0536V29.3959L41.8443 43.2765V68.9342L17.5581 55.0536Z" fill="#16110D"/>
<path d="M66.6177 29.1145L42.0066 43.1827L17.3955 29.1145L42.0066 15.0463L66.6177 29.1145Z" fill="#ECC550"/>
<path d="M42.0067 43.3703L17.0571 29.1145L42.0067 14.8587L42.0879 14.9123L66.9562 29.1279L42.0067 43.3703ZM17.734 29.1145L42.0067 42.9817L66.2794 29.1145L42.0067 15.2473L17.734 29.1145Z" fill="#16110D"/>
<path d="M47.2594 62.6906V58.0816L44.9309 59.408L49.0463 50.4848L53.1617 54.7052L50.9686 55.9647V60.5737L47.2594 62.6906ZM47.6926 57.3447V61.9537L50.549 60.3191V55.7101L52.4848 54.6114L49.1952 51.2351L45.9056 58.3764L47.6926 57.3447Z" fill="#ECC550"/>
<path d="M42.0067 15.0463L17.0571 29.1145L41.9255 43.3167L42.1827 43.1827L42.0067 43.3435V15.0463Z" fill="#16110D"/>
<path d="M42.0068 43.1827L25.6942 43.7186L0.595703 29.6236L17.3822 29.1145L42.0068 43.1827Z" fill="#ECC550"/>
<path d="M41.8442 45.3934L25.5316 45.9293L0.433105 31.8477L17.2196 31.3252L41.8442 45.3934Z" fill="#FFEECC"/>
<path d="M25.6535 43.8794L25.6129 43.8526L0 29.4897L17.4227 28.9537L17.4633 28.9805L42.5753 43.3301L25.6535 43.8794ZM1.1913 29.771L25.7347 43.5445L41.4247 43.0219L17.3415 29.2753L1.1913 29.771Z" fill="#16110D"/>
<path d="M62.7057 57.5725L62.2725 57.8136V43.6114L62.7057 43.3703V57.5725Z" fill="#ECC550"/>
<path d="M42.0066 43.1827L58.3192 43.7186L83.4042 29.6236L66.6177 29.1145L42.0066 43.1827Z" fill="#ECC550"/>
<path d="M41.8442 45.3934L58.1569 45.9294L83.2418 31.8478L66.4554 31.3252L41.8442 45.3934Z" fill="#FFEECC"/>
<path d="M58.3599 43.8794H58.3193L41.4246 43.3167L66.5772 28.9403H66.6178L83.9999 29.4763L58.3599 43.8794ZM42.5888 43.0353L58.2787 43.5579L82.8221 29.7844L66.6719 29.2887L42.5888 43.0353Z" fill="#16110D"/>
<path d="M28.8618 35.7734L41.8713 28.5116L54.4882 35.8538L41.8713 43.2095L28.8618 35.7734Z" fill="#ECC550"/>
<path d="M30.6487 36.7649L42.5075 30.1462L53.3375 36.4032L41.8712 43.1023L30.6487 36.7649Z" fill="#FFEECC"/>
<path d="M41.8713 43.4239L41.7765 43.3703L28.6858 35.6663L41.8848 28.2972L41.966 28.3508L54.8537 35.8538L41.8713 43.4239ZM29.2544 35.7734L41.8713 42.9817L54.1092 35.8404L41.8713 28.7125L29.2544 35.7734Z" fill="#16110D"/>
</svg>
