<svg width="81" height="79" viewBox="0 0 81 79" fill="none" xmlns="http://www.w3.org/2000/svg">
<path d="M25.1401 22.32V25.02L73.8501 53.07V50.45L25.1401 22.32Z" fill="#ECC550"/>
<path d="M73.8501 50.45L25.1401 22.32L30.9701 18.96L79.6801 47.08L73.8501 50.45Z" fill="#ECC550"/>
<path d="M73.8501 50.45L26.1101 22.88L30.9701 20.08L78.8401 47.72L73.8501 50.45Z" fill="#FFEECC"/>
<path d="M80.03 47.29V46.88L79.67 46.67L31.14 18.65L30.96 18.55L25.13 21.91L24.77 22.12V22.53V25.23L73.48 53.27L73.84 53.48L74.2 53.27L80.03 49.91V47.29ZM78.96 47.08L77.56 47.89L73.85 50.03L56.56 40.05L25.86 22.32L30.97 19.37L78.96 47.08ZM25.5 24.82V22.94L73.5 50.65V52.45L25.5 24.82Z" fill="#16110D"/>
<path d="M17.1899 26.59V29.29L65.8999 57.33V54.71L17.1899 26.59Z" fill="#ECC550"/>
<path d="M65.8999 54.71L17.1899 26.59L23.0099 23.23L71.7199 51.35L65.8999 54.71Z" fill="#ECC550"/>
<path d="M65.8999 54.71L18.1599 27.15L23.0099 24.35L70.8799 51.98L65.8999 54.71Z" fill="#FFEECC"/>
<path d="M72.0798 51.56V51.15L71.7198 50.94L23.1898 22.92L23.0098 22.82L17.1798 26.18L16.8198 26.39V26.8V29.5L65.5298 57.54L65.8898 57.75L66.2498 57.54L72.0798 54.18V51.56ZM71.0098 51.35L69.6098 52.16L65.8998 54.3L48.5998 44.32L17.8998 26.59L23.0098 23.64L71.0098 51.35ZM17.5398 29.08V27.2L65.5398 54.91V56.71L17.5398 29.08Z" fill="#16110D"/>
<path d="M9.22998 31.19V33.89L57.94 61.93V59.31L9.22998 31.19Z" fill="#ECC550"/>
<path d="M57.94 59.31L9.22998 31.19L15.06 27.83L63.77 55.95L57.94 59.31Z" fill="#ECC550"/>
<path d="M57.9399 59.31L10.2 31.75L15.06 28.95L62.93 56.58L57.9399 59.31Z" fill="#FFEECC"/>
<path d="M64.1299 56.16V55.75L63.7699 55.54L15.2399 27.52L15.0599 27.42L9.22987 30.78L8.86987 30.99V31.4V34.1L57.5799 62.14L57.9399 62.35L58.2999 62.14L64.1299 58.78V56.16ZM63.0599 55.95L61.6599 56.76L57.9499 58.9L40.6599 48.92L9.94987 31.19L15.0599 28.24L63.0599 55.95ZM9.58987 33.68V31.8L57.5899 59.51V61.31L9.58987 33.68Z" fill="#16110D"/>
<path d="M1.28003 35.8V38.5L49.99 66.55V63.93L1.28003 35.8Z" fill="#ECC550"/>
<path d="M49.99 63.93L1.28003 35.8L7.10003 32.44L55.82 60.56L49.99 63.93Z" fill="#ECC550"/>
<path d="M49.99 63.93L2.25 36.36L7.1 33.56L54.98 61.2L49.99 63.93Z" fill="#FFEECC"/>
<path d="M56.1699 60.77V60.36L55.8099 60.15L7.27992 32.13L7.09992 32.03L1.26992 35.39L0.919922 35.6V36.01V38.71L49.6299 66.75L49.9899 66.96L50.3499 66.75L56.1799 63.39V60.77H56.1699ZM55.0999 60.56L53.6999 61.37L49.9899 63.51L32.6999 53.53L1.98992 35.8L7.09992 32.85L55.0999 60.56ZM1.63992 38.3V36.42L49.6399 64.13V65.93L1.63992 38.3Z" fill="#16110D"/>
<path d="M25.1401 13.84V16.53L73.8501 44.58V41.96L25.1401 13.84Z" fill="#ECC550"/>
<path d="M73.8501 41.96L25.1401 13.84L30.9701 10.47L79.6801 38.6L73.8501 41.96Z" fill="#ECC550"/>
<path d="M73.8501 41.96L26.1101 14.4L30.9701 11.59L78.8401 39.23L73.8501 41.96Z" fill="#FFEECC"/>
<path d="M80.03 38.8V38.39L79.67 38.18L31.14 10.16L30.96 10.06L25.13 13.42L24.77 13.63V14.04V16.74L73.48 44.78L73.84 44.99L74.2 44.78L80.03 41.42V38.8ZM78.96 38.6L77.56 39.41L73.85 41.55L56.56 31.57L25.86 13.84L30.97 10.89L78.96 38.6ZM25.5 16.33V14.45L73.5 42.16V43.96L25.5 16.33Z" fill="#16110D"/>
<path d="M17.1899 18.1V20.8L65.8999 48.84V46.22L17.1899 18.1Z" fill="#ECC550"/>
<path d="M65.8999 46.22L17.1899 18.1L23.0099 14.74L71.7199 42.86L65.8999 46.22Z" fill="#ECC550"/>
<path d="M65.8999 46.22L18.1599 18.66L23.0099 15.86L70.8799 43.5L65.8999 46.22Z" fill="#FFEECC"/>
<path d="M72.0798 43.07V42.66L71.7198 42.45L23.1898 14.43L23.0098 14.33L17.1798 17.69L16.8198 17.9V18.31V21.01L65.5298 49.05L65.8898 49.26L66.2498 49.05L72.0798 45.69V43.07ZM71.0098 42.86L69.6098 43.67L65.8998 45.81L48.5998 35.83L17.8998 18.1L23.0098 15.15L71.0098 42.86ZM17.5398 20.59V18.71L65.5398 46.42V48.22L17.5398 20.59Z" fill="#16110D"/>
<path d="M9.22998 22.7V25.4L57.94 53.44V50.82L9.22998 22.7Z" fill="#ECC550"/>
<path d="M57.94 50.82L9.22998 22.7L15.06 19.34L63.77 47.46L57.94 50.82Z" fill="#ECC550"/>
<path d="M57.9399 50.82L10.2 23.26L15.06 20.46L62.93 48.1L57.9399 50.82Z" fill="#FFEECC"/>
<path d="M64.1299 47.67V47.26L63.7699 47.05L15.2399 19.03L15.0599 18.93L9.22988 22.29L8.87988 22.5V22.91V25.61L57.5899 53.65L57.9499 53.86L58.3099 53.65L64.1399 50.29V47.67H64.1299ZM63.0599 47.46L61.6599 48.27L57.9499 50.41L40.6599 40.43L9.94988 22.7L15.0599 19.75L63.0599 47.46ZM9.58988 25.19V23.31L57.5899 51.02V52.82L9.58988 25.19Z" fill="#16110D"/>
<path d="M1.28003 27.31V30.01L49.99 58.06V55.44L1.28003 27.31Z" fill="#ECC550"/>
<path d="M49.99 55.44L1.28003 27.31L7.10003 23.95L55.82 52.07L49.99 55.44Z" fill="#ECC550"/>
<path d="M49.99 55.44L2.25 27.87L7.1 25.07L54.97 52.71L49.99 55.44Z" fill="#FFEECC"/>
<path d="M56.1699 52.28V51.87L55.8099 51.66L7.27992 23.64L7.09992 23.54L1.27992 26.9L0.919922 27.11V27.52V30.22L49.6299 58.26L49.9899 58.47L50.3499 58.26L56.1799 54.9V52.28H56.1699ZM55.0999 52.07L53.6999 52.88L49.9899 55.02L32.6999 45.04L1.98992 27.31L7.09992 24.36L55.0999 52.07ZM1.63992 29.81V27.93L49.6399 55.64V57.44L1.63992 29.81Z" fill="#16110D"/>
<path d="M36.8098 56.36V50.45L44.1798 54.71V60.57L36.8098 56.36Z" fill="#ECC550"/>
<path d="M49.27 57.64L44.54 54.91V54.5L36.45 49.82V56.56L44.54 61.18V60.36L49.27 57.64ZM43.83 59.96L37.1699 56.15V51.06L43.83 54.91V59.96Z" fill="#16110D"/>
<path d="M6.44995 38.75V32.99L13.83 37.3V43.04L6.44995 38.75Z" fill="#ECC550"/>
<path d="M18.9199 40.11L14.1899 37.39V37.1L6.09985 32.37V38.96L14.1899 43.67V42.85L18.9199 40.11ZM13.4699 42.42L6.80985 38.54V33.61L13.4699 37.5V42.42Z" fill="#16110D"/>
<path d="M21.2698 47.29V41.54L28.6498 45.85V51.59L21.2698 47.29Z" fill="#ECC550"/>
<path d="M33.7399 48.66L28.9999 45.93V45.64L20.9099 40.91V47.49L28.9999 52.21V51.39L33.7399 48.66ZM28.2899 50.97L21.6299 47.09V42.16L28.2899 46.05V50.97Z" fill="#16110D"/>
<path d="M28.2898 33.64L14.7698 25.84V10.22L28.2898 18.03V33.64Z" fill="#ECC550"/>
<path d="M41.8098 10.22L28.2898 18.03L14.7698 10.22L28.2898 2.41L41.8098 10.22Z" fill="#ECC550"/>
<path d="M41.81 12.92L30.76 19.25L17.23 11.44L28.29 5.11002L41.81 12.92Z" fill="#FFEECC"/>
<path d="M28.2899 1.95001L14.7699 9.76001L14.3699 10V26.06L27.8899 33.87L28.2899 34.1L28.6899 33.87L42.2099 26.06V10.45V9.99001L28.2899 1.95001ZM28.2899 2.87001L41.0199 10.22L34.6299 13.91L28.2899 17.57L26.2899 16.42L15.5599 10.22L28.2899 2.87001ZM15.1599 25.61V10.91L27.8899 18.26V32.96L15.1599 25.61Z" fill="#16110D"/>
<path d="M71.0699 13.19L49.0999 0.51001L27.1399 13.19V38.55L49.0999 51.23V25.93L71.0699 13.19Z" fill="#FFEECC"/>
<path d="M27.1399 38.47L49.0999 51.15V25.85L27.1399 13.11V38.47Z" fill="#ECC550"/>
<path d="M71.51 12.94L49.0999 0L26.77 12.9L26.7 12.94V13.45V38.8L48.66 51.48L49.0999 51.73L49.54 51.48L71.2799 38.93L71.5 38.8V13.44L71.51 12.94ZM49.0999 1.02L59.4199 6.98L38.34 19.15L28.02 13.19L49.0999 1.02ZM48.66 50.47L27.58 38.29V13.95L48.66 26.12V50.47ZM58.04 20.2L49.0999 25.36L38.7799 19.4L59.86 7.23L70.18 13.19L58.04 20.2Z" fill="#16110D"/>
<path d="M40.3799 25.9L36.3099 23.55C35.8599 23.29 35.3999 23.26 35.0299 23.48C34.6099 23.73 34.3599 24.24 34.3599 24.91C34.3599 26.02 35.0199 27.27 35.8699 27.76L39.9399 30.11C40.1899 30.25 40.4399 30.33 40.6699 30.33C40.8699 30.33 41.0499 30.28 41.2199 30.18C41.6399 29.94 41.8899 29.42 41.8899 28.75C41.8899 27.64 41.2299 26.39 40.3799 25.9ZM40.7799 29.41C40.6599 29.48 40.4699 29.4 40.3799 29.34L36.3099 26.99C35.7299 26.65 35.2399 25.7 35.2399 24.9C35.2399 24.51 35.3599 24.3 35.4699 24.24C35.5999 24.17 35.7799 24.25 35.8699 24.31L36.1499 24.47C36.2499 25.42 36.8199 26.42 37.5299 26.83L40.9999 28.84C40.9799 29.17 40.8799 29.35 40.7799 29.41Z" fill="#16110D"/>
<path d="M23.2798 77.55L9.75977 69.74V54.12L23.2798 61.93V77.55Z" fill="#ECC550"/>
<path d="M36.7998 54.12L23.2798 61.93L9.75977 54.12L23.2798 46.32L36.7998 54.12Z" fill="#ECC550"/>
<path d="M36.8 56.83L25.75 63.15L12.22 55.35L23.28 49.02L36.8 56.83Z" fill="#FFEECC"/>
<path d="M23.2799 45.86L9.75986 53.67L9.35986 53.91V69.97L22.8799 77.78L23.2799 78.01L23.6799 77.78L37.1999 69.97V54.35V53.89L23.2799 45.86ZM23.2799 46.77L36.0099 54.12L29.6199 57.81L23.2799 61.47L21.2799 60.32L10.5499 54.12L23.2799 46.77ZM10.1499 69.51V54.81L22.8799 62.16V76.86L10.1499 69.51Z" fill="#16110D"/>
<path d="M20.0199 72.87L17.9599 71.68C17.6299 71.49 17.3599 70.98 17.3599 70.54V68.37C17.3599 67.93 17.6299 67.73 17.9599 67.92L20.0199 69.11C20.3499 69.3 20.6199 69.81 20.6199 70.25V72.42C20.6199 72.86 20.3499 73.06 20.0199 72.87Z" fill="#16110D"/>
</svg>
