<svg width="90" height="65" viewBox="0 0 90 65" fill="none" xmlns="http://www.w3.org/2000/svg">
<path d="M39.0429 44.7701L34.6518 42.13L32.5596 39.0499L34.583 37.8783L39.0429 44.7701Z" fill="#ECC550"/>
<path d="M39.4297 45.1412L34.5513 42.1936L32.3901 39.0075L34.6307 37.7139L39.4297 45.1412ZM34.7367 42.0346L38.6563 44.3884L34.546 38.0373L32.7344 39.087L34.7367 42.0346Z" fill="#16110D"/>
<path d="M32.8623 41.5632L34.7003 39.7978L31.2202 37.7939C30.2085 37.2161 28.8155 37.3009 27.2794 38.1915C24.1913 39.9728 21.6912 44.3146 21.6912 47.8824C21.6912 49.5206 22.2208 50.7081 23.0895 51.3442L26.8291 53.5125L27.8143 50.777C30.6058 48.8526 32.7987 44.8978 32.8623 41.5632Z" fill="#ECC550"/>
<path d="M31.5322 38.8644C30.5205 38.2865 29.1274 38.3713 27.5913 39.262C25.695 40.3593 24.0212 42.4163 23.0095 44.6694L26.3889 46.615L29.8213 50.3471C31.76 48.2478 33.1265 45.2525 33.1742 42.6336L35.0122 40.8683L31.5322 38.8644Z" fill="#FFEECC"/>
<path d="M26.871 53.6393L22.9831 51.3862V51.3756C22.0879 50.6917 21.6006 49.4512 21.6006 47.8767C21.6006 44.2877 24.1272 39.9087 27.2312 38.1116C28.7461 37.2368 30.1762 37.0937 31.2621 37.714L34.8428 39.7762L32.9465 41.5946C32.8723 44.9185 30.6953 48.8734 27.8774 50.8243L26.871 53.6393ZM23.1367 51.2749L26.7756 53.3848L27.7344 50.7182L27.7556 50.7023C30.5576 48.7779 32.7134 44.8496 32.7717 41.5628V41.5257L34.5514 39.8186L31.172 37.873C30.1444 37.2846 28.7779 37.4277 27.3159 38.2706C24.2596 40.036 21.7701 44.3513 21.7701 47.882C21.7754 49.4247 22.2574 50.6281 23.1367 51.2749Z" fill="#16110D"/>
<path d="M34.6838 39.6861C33.598 39.0605 32.1678 39.1983 30.6423 40.0784C27.5383 41.8755 25.0117 46.2545 25.0117 49.8435C25.0117 51.6035 25.6103 52.913 26.6908 53.5385C27.1358 53.7983 27.6443 53.9256 28.1898 53.9256C28.9685 53.9256 29.8372 53.6658 30.7323 53.1462C33.8363 51.3491 36.3629 46.9702 36.3629 43.3811C36.3629 41.6264 35.7644 40.3116 34.6838 39.6861Z" fill="#16110D"/>
<path d="M28.6507 52.5896C28.2005 52.5896 27.7874 52.4836 27.4219 52.2715C26.532 51.7573 26.0447 50.6811 26.0447 49.2444C26.0447 46.3128 28.1105 42.7344 30.6477 41.2712C31.8924 40.5502 33.0683 40.4389 33.9582 40.9531C34.8481 41.4673 35.3354 42.5435 35.3354 43.9802C35.3354 46.9118 33.2696 50.4903 30.7377 51.9534C30.0014 52.3776 29.2917 52.5896 28.6507 52.5896ZM32.724 40.81C32.1149 40.81 31.4369 41.0167 30.7324 41.4249C28.2429 42.8616 26.2195 46.3711 26.2195 49.2497C26.2195 50.6228 26.6803 51.646 27.5119 52.1284C28.3435 52.6108 29.4559 52.4942 30.6477 51.8103C33.1372 50.3736 35.1606 46.8641 35.1606 43.9855C35.1606 42.6124 34.6998 41.5893 33.8682 41.1068C33.5239 40.9054 33.1425 40.81 32.724 40.81Z" fill="#ECC550"/>
<path d="M29.4082 50.4426C29.1222 50.4426 28.852 50.3736 28.619 50.2411C28.0522 49.9124 27.7344 49.2232 27.7344 48.3061C27.7344 46.4506 29.0374 44.1869 30.6424 43.2645C31.4369 42.8086 32.189 42.7344 32.7558 43.063C33.3279 43.3917 33.6404 44.0809 33.6404 44.998C33.6404 46.8535 32.3374 49.1172 30.7324 50.0449C30.2663 50.31 29.816 50.4426 29.4082 50.4426ZM31.9666 43.0312C31.5905 43.0312 31.1667 43.1585 30.7324 43.4129C29.1751 44.3142 27.9092 46.5089 27.9092 48.3061C27.9092 49.1596 28.1899 49.7905 28.7037 50.0874C29.2175 50.3842 29.9061 50.3153 30.6424 49.8859C32.1996 48.9847 33.4656 46.7899 33.4656 44.9927C33.4656 44.1392 33.1849 43.5084 32.6711 43.2115C32.4592 43.0948 32.2261 43.0312 31.9666 43.0312Z" fill="#ECC550"/>
<path d="M29.6887 49.6261C29.461 49.6261 29.2491 49.5731 29.0637 49.4671C28.6135 49.2073 28.3645 48.6666 28.3645 47.9456C28.3645 46.493 29.3868 44.7224 30.6422 44.0014C31.2672 43.6409 31.8604 43.5826 32.3054 43.8423C32.7556 44.1021 33.0046 44.6428 33.0046 45.3638C33.0046 46.8164 31.9823 48.5871 30.7269 49.3081C30.3667 49.5201 30.0118 49.6261 29.6887 49.6261ZM31.6856 43.8529C31.3943 43.8529 31.0712 43.9537 30.7322 44.1498C29.5245 44.8496 28.5446 46.5513 28.5446 47.9456C28.5446 48.603 28.7618 49.0907 29.1537 49.3187C29.5457 49.5466 30.0754 49.4936 30.6475 49.1596C31.8551 48.4598 32.8351 46.7581 32.8351 45.3638C32.8351 44.7065 32.6179 44.2187 32.2259 43.9908C32.0617 43.8954 31.8816 43.8529 31.6856 43.8529Z" fill="#ECC550"/>
<path d="M25.5043 52.1443L22.1196 50.2305L22.1726 50.1298L25.5626 52.0383L25.5043 52.1443Z" fill="#16110D"/>
<path d="M21.8914 49.3528L21.835 49.4548L25.2276 51.3334L25.284 51.2314L21.8914 49.3528Z" fill="#16110D"/>
<path d="M25.0755 50.204L21.6643 48.2637L21.7226 48.1629L25.1338 50.1032L25.0755 50.204Z" fill="#16110D"/>
<path d="M25.102 49.1702L21.6643 47.2564L21.7226 47.1557L25.1602 49.0695L25.102 49.1702Z" fill="#16110D"/>
<path d="M25.3191 47.8396L21.9026 45.894L21.9609 45.7932L25.3773 47.7389L25.3191 47.8396Z" fill="#16110D"/>
<path d="M22.8665 43.2427L22.8076 43.3434L26.2044 45.3325L26.2633 45.2318L22.8665 43.2427Z" fill="#16110D"/>
<path d="M24.2726 40.9292L24.2148 41.0304L27.6325 42.9838L27.6903 42.8825L24.2726 40.9292Z" fill="#16110D"/>
<path d="M29.6943 49.6208C29.2865 49.6208 28.9369 49.4512 28.6985 49.1225L28.6296 48.9741L28.7727 48.9847C29.0905 49.0059 29.4454 48.9052 29.8108 48.6931C31.0185 47.9933 31.9985 46.2916 31.9985 44.8973C31.9985 44.4573 31.8978 44.0809 31.7018 43.8158L31.6171 43.6992L31.776 43.678C32.5334 43.731 32.9996 44.3725 32.9996 45.3585C32.9996 46.8111 31.9773 48.5818 30.7219 49.3028C30.367 49.5148 30.0121 49.6208 29.6943 49.6208Z" fill="#ECC550"/>
<path d="M29.6305 48.6507L28.4281 47.9456L28.3645 47.8555C28.3963 46.5302 29.2332 44.9822 30.3561 44.1763L30.4621 44.1816L31.6751 44.8973C31.7174 44.9238 31.7439 44.9609 31.7545 45.0087C31.7651 45.0564 31.7598 45.1041 31.7333 45.1412L29.6305 48.6507Z" fill="#ECC550"/>
<path d="M32.0838 45.9209C32.0838 46.8486 31.4323 47.9725 30.6325 48.4337C29.8327 48.895 29.1812 48.5239 29.1812 47.5961C29.1812 46.6684 29.8327 45.5445 30.6325 45.0833C31.4323 44.6221 32.0838 44.9932 32.0838 45.9209Z" fill="#16110D"/>
<path d="M29.9805 48.7196C29.8268 48.7196 29.6838 48.6825 29.5567 48.6083C29.2548 48.4333 29.0906 48.0728 29.0906 47.5957C29.0906 46.6415 29.7633 45.4805 30.5843 45.0086C30.9975 44.7701 31.3947 44.733 31.6966 44.9079C31.9986 45.0829 32.1628 45.4434 32.1628 45.9205C32.1628 46.8747 31.4954 48.0357 30.669 48.5076C30.4307 48.6507 30.1976 48.7196 29.9805 48.7196ZM31.2782 44.9715C31.0928 44.9715 30.8915 45.0352 30.6743 45.1571C29.901 45.6024 29.2654 46.6998 29.2654 47.5957C29.2654 48.0092 29.4031 48.3167 29.6467 48.4598C29.8957 48.603 30.2241 48.5659 30.5843 48.3591C31.3576 47.9085 31.9933 46.8164 31.9933 45.9205C31.9933 45.507 31.8555 45.1995 31.6119 45.0564C31.5165 44.998 31.4 44.9715 31.2782 44.9715Z" fill="#ECC550"/>
<path d="M32.9095 39.4528L29.4453 37.4807L29.5036 37.38L32.9624 39.3521L32.9095 39.4528Z" fill="#16110D"/>
<path d="M52.5767 30.1277L56.9678 32.7678L39.8748 42.6601L37.4382 38.8909L52.5767 30.1277Z" fill="#ECC550"/>
<path d="M20.1492 41.0432L24.5403 43.6833V42.0611L20.1492 39.421V41.0432Z" fill="#ECC550"/>
<path d="M31.029 33.1336L35.4201 35.7736L24.5403 42.0611L20.1492 39.421L31.029 33.1336Z" fill="#ECC550"/>
<path d="M30.976 34.0295L35.3671 36.6696L24.4926 42.9623L20.0962 40.3169L30.976 34.0295Z" fill="#FFEECC"/>
<path d="M57.2114 32.7731L57.0949 32.7041V32.561L56.9731 32.6299L52.5819 29.9898L37.4753 38.7265L35.5896 35.8107L35.6584 35.7736L35.5048 35.6835L35.4571 35.6093L35.4201 35.6305L31.029 32.9904L20.0273 39.3521V41.1121L24.5403 43.8264L34.5461 38.0426L39.0008 44.9291L57.026 34.496L57.0843 34.4589V32.8367L57.2114 32.7731ZM52.5766 30.2708L56.7294 32.7678L39.9171 42.5011L37.6077 38.9333L52.5766 30.2708ZM31.0237 33.2767L35.1764 35.7736L24.5403 41.9232L20.3875 39.4263L31.0237 33.2767ZM20.271 40.9743V39.633L24.4185 42.1247V42.4534V43.4606L20.271 40.9743Z" fill="#16110D"/>
<path d="M67.7155 21.5823L69.5536 19.817L66.0735 17.8131C65.0618 17.2352 63.6687 17.32 62.1326 18.2107C59.0446 19.9919 56.5444 24.3337 56.5444 27.9016C56.5444 29.5397 57.0741 30.7272 57.9428 31.3634L61.6824 33.5316L62.6676 30.7961C65.4591 28.8664 67.652 24.9116 67.7155 21.5823Z" fill="#ECC550"/>
<path d="M66.3855 18.8782C65.3738 18.3003 63.9807 18.3852 62.4446 19.2758C60.5483 20.3732 58.8745 22.4301 57.8628 24.6832L61.2422 26.6288L64.6746 30.361C66.6132 28.2616 67.9798 25.2663 68.0275 22.6475L69.8655 20.8821L66.3855 18.8782Z" fill="#FFEECC"/>
<path d="M61.7242 33.6531L57.8363 31.4V31.3894C56.9412 30.7055 56.4539 29.465 56.4539 27.8905C56.4539 24.3015 58.9805 19.9226 62.0844 18.1254C63.5993 17.2507 65.0295 17.1075 66.1154 17.7278L69.696 19.79L67.7998 21.619C67.7256 24.943 65.5486 28.8978 62.7307 30.8487L61.7242 33.6531ZM57.99 31.2887L61.6289 33.3986L62.5876 30.7321L62.6088 30.7161C65.4109 28.7917 67.5667 24.8634 67.625 21.5766V21.5395L69.4047 19.8324L66.0253 17.8868C64.9977 17.2984 63.6311 17.4415 62.1692 18.2844C59.1129 20.0498 56.6234 24.3651 56.6234 27.8958C56.6234 29.4385 57.1107 30.6472 57.99 31.2887Z" fill="#16110D"/>
<path d="M69.5317 19.6999C68.4459 19.0743 67.0157 19.2122 65.4902 20.0922C62.3862 21.8894 59.8596 26.2683 59.8596 29.8573C59.8596 31.6174 60.4582 32.9268 61.5387 33.5524C61.9837 33.8121 62.4922 33.9394 63.0377 33.9394C63.8164 33.9394 64.6851 33.6796 65.5802 33.1601C68.6842 31.3629 71.2108 26.984 71.2108 23.395C71.2161 21.6402 70.6176 20.3255 69.5317 19.6999Z" fill="#16110D"/>
<path d="M63.504 32.6034C63.0538 32.6034 62.6406 32.4974 62.2751 32.2854C61.3853 31.7711 60.8979 30.6949 60.8979 29.2583C60.8979 26.3266 62.9637 22.7482 65.4956 21.285C66.7404 20.564 67.9163 20.4527 68.8062 20.9669C69.6961 21.4812 70.1834 22.5573 70.1834 23.994C70.1834 26.9257 68.1176 30.5041 65.5857 31.9673C64.8494 32.3914 64.1449 32.6034 63.504 32.6034ZM67.572 20.8238C66.9629 20.8238 66.2849 21.0305 65.5804 21.4387C63.0909 22.8754 61.0674 26.3849 61.0674 29.2636C61.0674 30.6366 61.5283 31.6598 62.3599 32.1422C63.1915 32.6246 64.3038 32.508 65.4956 31.8241C67.9852 30.3875 70.0086 26.878 70.0086 23.9993C70.0086 22.6263 69.5477 21.6031 68.7161 21.1207C68.3771 20.9245 67.9905 20.8238 67.572 20.8238Z" fill="#ECC550"/>
<path d="M64.2561 30.4564C63.9701 30.4564 63.6999 30.3875 63.4669 30.2549C62.9001 29.9263 62.5823 29.2371 62.5823 28.3199C62.5823 26.4645 63.8853 24.2008 65.4903 23.2783C66.2848 22.8224 67.0369 22.7482 67.6037 23.0769C68.1758 23.4056 68.4883 24.0947 68.4883 25.0119C68.4883 26.8674 67.1853 29.131 65.5803 30.0588C65.1142 30.3239 64.6639 30.4564 64.2561 30.4564ZM66.8198 23.0504C66.4437 23.0504 66.0199 23.1776 65.5856 23.4321C64.0283 24.3333 62.7624 26.5281 62.7624 28.3252C62.7624 29.1788 63.0431 29.8096 63.5569 30.1065C64.0707 30.4034 64.7593 30.3345 65.4956 29.905C67.0528 29.0038 68.3188 26.809 68.3188 25.0119C68.3188 24.1584 68.0381 23.5275 67.5243 23.2306C67.3124 23.1087 67.074 23.0504 66.8198 23.0504Z" fill="#ECC550"/>
<path d="M64.542 29.64C64.3142 29.64 64.1024 29.5869 63.917 29.4809C63.4667 29.2212 63.2178 28.6804 63.2178 27.9594C63.2178 26.5068 64.2401 24.7362 65.4954 24.0152C66.1205 23.6547 66.7137 23.5964 67.1586 23.8615C67.6089 24.1212 67.8578 24.662 67.8578 25.383C67.8578 26.8355 66.8355 28.6062 65.5802 29.3272C65.2147 29.5339 64.8598 29.64 64.542 29.64ZM66.5336 23.8668C66.2423 23.8668 65.9192 23.9675 65.5802 24.1636C64.3725 24.8634 63.3926 26.5652 63.3926 27.9594C63.3926 28.6168 63.6097 29.1045 64.0017 29.3325C64.3937 29.5604 64.9234 29.5074 65.4954 29.1734C66.7031 28.4737 67.683 26.7719 67.683 25.3777C67.683 24.7203 67.4659 24.2326 67.0739 24.0046C66.915 23.9145 66.7349 23.8668 66.5336 23.8668Z" fill="#ECC550"/>
<path d="M60.3575 32.1581L56.9675 30.2496L57.0258 30.1489L60.4158 32.0574L60.3575 32.1581Z" fill="#16110D"/>
<path d="M56.7461 29.3694L56.6897 29.4715L60.0824 31.3501L60.1388 31.248L56.7461 29.3694Z" fill="#16110D"/>
<path d="M59.9285 30.2178L56.5173 28.2828L56.5756 28.1821L59.9868 30.1171L59.9285 30.2178Z" fill="#16110D"/>
<path d="M59.955 29.184L56.5173 27.2703L56.5756 27.1695L60.0133 29.0833L59.955 29.184Z" fill="#16110D"/>
<path d="M60.1723 27.8534L56.7559 25.9131L56.8141 25.8071L60.2306 27.7527L60.1723 27.8534Z" fill="#16110D"/>
<path d="M61.0567 25.3459L57.6614 23.3579L57.7196 23.2571L61.1149 25.2451L61.0567 25.3459Z" fill="#16110D"/>
<path d="M59.1225 20.9428L59.0647 21.0441L62.4823 22.9974L62.5401 22.8962L59.1225 20.9428Z" fill="#16110D"/>
<path d="M64.5422 29.6347C64.1344 29.6347 63.7848 29.465 63.5464 29.1363L63.4775 28.9879L63.6206 28.9985C63.9384 29.0197 64.2933 28.919 64.6587 28.7069C65.8664 28.0072 66.8464 26.3054 66.8464 24.9112C66.8464 24.4711 66.7457 24.0947 66.5497 23.8297L66.465 23.713L66.6239 23.6918C67.3813 23.7448 67.8475 24.3863 67.8475 25.3724C67.8475 26.8249 66.8252 28.5956 65.5698 29.3166C65.2202 29.5286 64.8653 29.6347 64.5422 29.6347Z" fill="#ECC550"/>
<path d="M64.4837 28.6645L63.2813 27.9594L63.2178 27.8693C63.2496 26.544 64.0865 24.996 65.2094 24.1902L65.3153 24.1955L66.5283 24.9112C66.5707 24.9377 66.5972 24.9748 66.6078 25.0225C66.6184 25.0702 66.6131 25.1179 66.5866 25.155L64.4837 28.6645Z" fill="#ECC550"/>
<path d="M66.9313 25.9347C66.9313 26.8624 66.2797 27.9863 65.4799 28.4475C64.6801 28.9087 64.0286 28.5377 64.0286 27.6099C64.0286 26.6822 64.6801 25.5583 65.4799 25.0971C66.285 24.6358 66.9313 25.0122 66.9313 25.9347Z" fill="#16110D"/>
<path d="M64.8332 28.7387C64.6796 28.7387 64.5366 28.7016 64.4095 28.6274C64.1076 28.4525 63.9434 28.092 63.9434 27.6148C63.9434 26.6606 64.6161 25.4996 65.4371 25.0278C65.8502 24.7892 66.2475 24.7521 66.5494 24.927C66.8513 25.102 67.0155 25.4625 67.0155 25.9396C67.0155 26.8938 66.3481 28.0548 65.5218 28.5267C65.2835 28.6645 65.0504 28.7387 64.8332 28.7387ZM66.131 24.9854C65.9456 24.9854 65.7443 25.049 65.5271 25.1709C64.7538 25.6162 64.1182 26.7136 64.1182 27.6095C64.1182 28.023 64.2559 28.3305 64.4995 28.4737C64.7485 28.6168 65.0769 28.5797 65.4371 28.3729C66.2104 27.9223 66.846 26.8302 66.846 25.9343C66.846 25.5208 66.7083 25.2133 66.4647 25.0702C66.364 25.0172 66.2528 24.9854 66.131 24.9854Z" fill="#ECC550"/>
<path d="M67.7574 19.4666L64.2986 17.4945L64.3568 17.3938L67.8157 19.3659L67.7574 19.4666Z" fill="#16110D"/>
<path d="M88.7494 32.429L88.7335 30.1441L86.0215 30.2873L73.3885 22.9873C72.5304 22.4942 71.238 22.4412 70.4964 22.8653L38.0954 41.5898L36.9354 41.9715L23.4019 49.1177L22.173 49.1707L22.1783 51.0792C22.1518 51.1853 22.1518 51.2966 22.1783 51.4026C22.2419 51.6783 22.4749 51.9593 22.8669 52.1819L37.5234 60.6482C38.3814 61.1412 39.6739 61.1942 40.4155 60.7701L88.2621 33.1288C88.5746 32.9432 88.7388 32.6941 88.7494 32.429Z" fill="#ECC550"/>
<path d="M39.1491 61.1778C38.5558 61.1778 37.9361 61.0347 37.4541 60.7537L22.7976 52.2874C22.3951 52.0542 22.1302 51.752 22.0561 51.4286C22.0243 51.3014 22.0243 51.1688 22.0561 51.0469L22.0508 49.0536L23.3697 49.0006L36.8767 41.8649L38.0579 41.4779L70.4377 22.7694C71.2111 22.3241 72.5618 22.3771 73.4516 22.8913L86.0529 30.1754L88.5213 30.0482C88.7013 30.0376 88.855 30.1807 88.8603 30.3662L88.8761 32.4497C88.8603 32.7625 88.6643 33.0487 88.3147 33.2502L40.468 60.8756C40.1184 61.0771 39.647 61.1778 39.1491 61.1778ZM22.2891 49.2868L22.2944 51.0787C22.2679 51.1953 22.2679 51.2855 22.2944 51.3756C22.3527 51.63 22.5805 51.8792 22.9247 52.0807L37.5812 60.547C38.4022 61.0241 39.647 61.0771 40.3515 60.6689L88.1982 33.0275C88.4736 32.8685 88.1664 32.3914 88.177 32.1634L88.6219 30.2814L85.9999 30.4193L85.9682 30.4034L73.3351 23.1034C72.5141 22.6262 71.2693 22.5732 70.5648 22.9814L38.1533 41.6953L36.9668 42.0823L23.4333 49.2391L22.2891 49.2868Z" fill="#16110D"/>
<path d="M88.2677 31.0825L40.421 58.7239C39.6794 59.1533 38.387 59.1003 37.5289 58.6019L22.8777 50.1356C22.0197 49.6426 21.9296 48.8951 22.6712 48.4657L70.5178 20.8244C71.2594 20.3949 72.5518 20.448 73.4099 20.9463L88.0664 29.4126C88.9192 29.9056 89.0092 30.6584 88.2677 31.0825Z" fill="#ECC550"/>
<path d="M86.8474 32.5982L40.3726 59.5715C39.631 60.0009 38.3386 59.9479 37.4805 59.4496L22.824 50.978C21.9659 50.485 21.8759 49.7375 22.6175 49.3081L69.0922 22.3347C69.8338 21.9053 71.1262 21.9583 71.9843 22.4566L86.6408 30.9229C87.4936 31.4213 87.5889 32.1687 86.8474 32.5982Z" fill="#FFEECC"/>
<path d="M39.1702 59.1315C38.577 59.1315 37.9572 58.9883 37.4752 58.7074L22.8135 50.2411C22.3261 49.9601 22.0454 49.5731 22.0454 49.1914C22.0454 48.8627 22.2467 48.5712 22.6069 48.3591L70.4536 20.7178C71.2269 20.2724 72.5776 20.3255 73.4675 20.8397L88.1239 29.306C88.6112 29.587 88.892 29.974 88.892 30.3556C88.892 30.6843 88.6907 30.9759 88.3305 31.188L40.4838 58.8293C40.1342 59.0308 39.6628 59.1315 39.1702 59.1315ZM71.7672 20.6541C71.3169 20.6541 70.8932 20.7443 70.5701 20.9298L22.7287 48.5712C22.4427 48.7355 22.2891 48.9529 22.2891 49.1914C22.2891 49.4883 22.5274 49.7958 22.9353 50.029L37.5917 58.4953C38.4128 58.9724 39.6575 59.0255 40.362 58.6173L88.2087 30.9759C88.4894 30.8116 88.6483 30.5942 88.6483 30.3556C88.6483 30.0588 88.41 29.7513 88.0021 29.518L73.3456 21.0517C72.8954 20.792 72.3181 20.6541 71.7672 20.6541Z" fill="#16110D"/>
<path d="M85.7038 32.0526L87.5418 30.2872L84.0618 28.2833C83.0501 27.7054 81.657 27.7902 80.1209 28.6809C77.0328 30.4621 74.5327 34.804 74.5327 38.3718C74.5327 40.0099 75.0624 41.1974 75.9311 41.8336L79.6707 44.0018L80.6559 41.2663C83.4474 39.3366 85.6403 35.3818 85.7038 32.0526Z" fill="#ECC550"/>
<path d="M84.3737 29.3484C83.362 28.7705 81.969 28.8554 80.4329 29.746C78.5366 30.8434 76.8628 32.9003 75.8511 35.1534L79.2305 37.099L82.6629 40.8312C84.6015 38.7318 85.9681 35.7366 86.0158 33.1177L87.8538 31.3523L84.3737 29.3484Z" fill="#FFEECC"/>
<path d="M79.7125 44.1233L75.8245 41.8702V41.8596C74.9294 41.1757 74.4368 39.9352 74.4368 38.3607C74.4368 34.7717 76.9634 30.3928 80.0673 28.5956C81.5823 27.7209 83.0124 27.5777 84.0983 28.198L87.679 30.2602L85.7827 32.0786C85.7085 35.4026 83.5315 39.3574 80.7136 41.3083L79.7125 44.1233ZM75.9782 41.7589L79.6171 43.8688L80.5758 41.2023L80.597 41.1863C83.3938 39.262 85.5549 35.3336 85.6132 32.0468V32.0097L87.3929 30.3026L84.0135 28.357C82.9859 27.7686 81.6193 27.9117 80.1574 28.7546C77.1011 30.52 74.6116 34.8353 74.6116 38.366C74.6169 39.914 75.0989 41.1174 75.9782 41.7589Z" fill="#16110D"/>
<path d="M87.5254 30.1701C86.4395 29.5445 85.0094 29.6824 83.4839 30.5624C80.3799 32.3596 77.8533 36.7385 77.8533 40.3275C77.8533 42.0876 78.4518 43.397 79.5324 44.0226C79.9773 44.2824 80.4858 44.4096 81.0314 44.4096C81.81 44.4096 82.6787 44.1498 83.5739 43.6303C86.6779 41.8331 89.2045 37.4542 89.2045 33.8652C89.2045 32.1104 88.6059 30.7957 87.5254 30.1701Z" fill="#16110D"/>
<path d="M81.4923 43.0736C81.0421 43.0736 80.6289 42.9676 80.2634 42.7556C79.3735 42.2413 78.8862 41.1652 78.8862 39.7285C78.8862 36.7968 80.952 33.2184 83.4892 31.7552C84.734 31.0342 85.9099 30.9229 86.7998 31.4371C87.6896 31.9514 88.177 33.0276 88.177 34.4642C88.177 37.3959 86.1112 40.9743 83.5793 42.4375C82.8377 42.8616 82.1332 43.0736 81.4923 43.0736ZM85.5603 31.294C84.9512 31.294 84.2732 31.5008 83.5687 31.909C81.0791 33.3456 79.0557 36.8551 79.0557 39.7338C79.0557 41.1068 79.5166 42.13 80.3482 42.6124C81.1798 43.0949 82.2921 42.9782 83.4839 42.2943C85.9735 40.8577 87.9969 37.3482 87.9969 34.4695C87.9969 33.0965 87.536 32.0733 86.7044 31.5909C86.3654 31.3947 85.9788 31.294 85.5603 31.294Z" fill="#ECC550"/>
<path d="M82.2497 40.9266C81.9637 40.9266 81.6936 40.8577 81.4605 40.7251C80.8937 40.3964 80.5759 39.7073 80.5759 38.7901C80.5759 36.9347 81.879 34.671 83.4839 33.7485C84.2784 33.2926 85.0306 33.2184 85.5974 33.5471C86.1694 33.8758 86.4819 34.5649 86.4819 35.4821C86.4819 37.3376 85.1789 39.6012 83.574 40.5237C83.1078 40.7941 82.6576 40.9266 82.2497 40.9266ZM84.8081 33.5206C84.4321 33.5206 84.0083 33.6478 83.574 33.9023C82.0167 34.8035 80.7507 36.9983 80.7507 38.7954C80.7507 39.649 81.0315 40.2798 81.5453 40.5767C82.0591 40.8736 82.7476 40.8047 83.4839 40.3752C85.0412 39.474 86.3072 37.2792 86.3072 35.4821C86.3072 34.6286 86.0264 33.9977 85.5126 33.7008C85.3007 33.5789 85.0624 33.5206 84.8081 33.5206Z" fill="#ECC550"/>
<path d="M82.5305 40.1102C82.3028 40.1102 82.0909 40.0572 81.9055 39.9511C81.4553 39.6914 81.2063 39.1506 81.2063 38.4296C81.2063 36.9771 82.2286 35.2064 83.484 34.4854C84.109 34.1249 84.7022 34.0666 85.1472 34.3264C85.5974 34.5861 85.8464 35.1269 85.8464 35.8479C85.8464 37.3004 84.8241 39.0711 83.5687 39.7921C83.2032 40.0041 82.8536 40.1102 82.5305 40.1102ZM84.5221 34.337C84.2308 34.337 83.9077 34.4377 83.5687 34.6339C82.361 35.3336 81.3811 37.0354 81.3811 38.4296C81.3811 39.087 81.5983 39.5747 81.9902 39.8027C82.3822 40.0306 82.9119 39.9776 83.484 39.6436C84.6916 38.9439 85.6716 37.2421 85.6716 35.8479C85.6716 35.1905 85.4544 34.7028 85.0624 34.4748C84.9035 34.3847 84.7234 34.337 84.5221 34.337Z" fill="#ECC550"/>
<path d="M78.3461 42.6283L74.9561 40.7198L75.0143 40.6191L78.4043 42.5276L78.3461 42.6283Z" fill="#16110D"/>
<path d="M74.7344 39.8399L74.678 39.9419L78.0706 41.8205L78.127 41.7185L74.7344 39.8399Z" fill="#16110D"/>
<path d="M77.9168 40.688L74.5056 38.753L74.5639 38.6523L77.9751 40.5873L77.9168 40.688Z" fill="#16110D"/>
<path d="M77.9433 39.6543L74.5056 37.7405L74.5639 37.6397L78.0015 39.5535L77.9433 39.6543Z" fill="#16110D"/>
<path d="M78.1606 38.3236L74.7441 36.3833L74.8024 36.2773L78.2189 38.2229L78.1606 38.3236Z" fill="#16110D"/>
<path d="M79.0452 35.8161L75.6499 33.8281L75.7082 33.7273L79.1035 35.7153L79.0452 35.8161Z" fill="#16110D"/>
<path d="M77.111 31.413L77.0532 31.5143L80.4709 33.4676L80.5287 33.3663L77.111 31.413Z" fill="#16110D"/>
<path d="M82.5305 40.1049C82.1226 40.1049 81.773 39.9352 81.5347 39.6066L81.4658 39.4581L81.6088 39.4687C81.9267 39.4899 82.2815 39.3892 82.647 39.1771C83.8547 38.4774 84.8346 36.7756 84.8346 35.3814C84.8346 34.9413 84.734 34.5649 84.538 34.2999L84.4533 34.1833L84.6122 34.162C85.3696 34.2151 85.8357 34.8565 85.8357 35.8426C85.8357 37.2952 84.8134 39.0658 83.5581 39.7868C83.2085 39.9989 82.8536 40.1049 82.5305 40.1049Z" fill="#ECC550"/>
<path d="M82.4723 39.1347L81.2699 38.4297L81.2063 38.3395C81.2381 37.0142 82.075 35.4662 83.1979 34.6604L83.3039 34.6657L84.5168 35.3814C84.5592 35.4079 84.5857 35.445 84.5963 35.4927C84.6069 35.5404 84.6016 35.5881 84.5751 35.6252L82.4723 39.1347Z" fill="#ECC550"/>
<path d="M84.9198 36.4049C84.9198 37.3327 84.2683 38.4566 83.4684 38.9178C82.6686 39.379 82.0171 39.0079 82.0171 38.0802C82.0171 37.1524 82.6686 36.0285 83.4684 35.5673C84.2736 35.1061 84.9198 35.4825 84.9198 36.4049Z" fill="#16110D"/>
<path d="M82.822 39.2089C82.6684 39.2089 82.5254 39.1718 82.3983 39.0976C82.0963 38.9227 81.9321 38.5622 81.9321 38.0851C81.9321 37.1308 82.6048 35.9698 83.4259 35.498C83.839 35.2594 84.2363 35.2223 84.5382 35.3973C84.8401 35.5722 85.0043 35.9327 85.0043 36.4098C85.0043 37.3641 84.3369 38.5251 83.5106 38.9969C83.2722 39.1347 83.0392 39.2089 82.822 39.2089ZM84.1197 35.4556C83.9343 35.4556 83.7331 35.5192 83.5159 35.6411C82.7426 36.0864 82.1069 37.1838 82.1069 38.0798C82.1069 38.4933 82.2446 38.8007 82.4883 38.9439C82.7373 39.087 83.0657 39.0499 83.4259 38.8431C84.1992 38.3925 84.8348 37.3005 84.8348 36.4045C84.8348 35.991 84.6971 35.6835 84.4534 35.5404C84.3528 35.4874 84.2416 35.4556 84.1197 35.4556Z" fill="#ECC550"/>
<path d="M85.7457 29.9369L82.2869 27.9647L82.3451 27.864L85.804 29.8361L85.7457 29.9369Z" fill="#16110D"/>
<path d="M57.4505 55.4796L53.0594 52.8395L50.9724 49.7647L52.9958 48.5931L57.4505 55.4796Z" fill="#ECC550"/>
<path d="M57.4127 55.6432L52.958 52.9077L50.7969 49.7215L53.0375 48.428L57.4127 55.6432ZM53.1434 52.7486L57.0631 55.1024L52.9527 48.7514L51.1412 49.8011L53.1434 52.7486Z" fill="#16110D"/>
<path d="M50.8503 52.0334L52.6883 50.2681L49.2083 48.2641C48.1966 47.6863 46.8035 47.7711 45.2674 48.6617C42.1793 50.443 39.6792 54.7848 39.6792 58.3527C39.6792 59.9908 40.2089 61.1783 41.0776 61.8144L44.8172 63.9827L45.8024 61.2472C48.5938 59.3228 50.792 55.368 50.8503 52.0334Z" fill="#ECC550"/>
<path d="M49.5254 49.3346C48.5137 48.7567 47.1206 48.8415 45.5845 49.7322C43.6882 50.8296 42.0144 52.8865 41.0027 55.1396L44.3821 57.0852L47.8145 60.8173C49.7531 58.718 51.1197 55.7227 51.1674 53.1039L53.0054 51.3385L49.5254 49.3346Z" fill="#FFEECC"/>
<path d="M44.8589 64.1095L40.971 61.8564V61.8458C40.0759 61.1619 39.5833 59.9214 39.5833 58.3469C39.5833 54.7579 42.1099 50.3789 45.2138 48.5818C46.7287 47.7071 48.1589 47.5639 49.2448 48.1842L52.8254 50.2464L50.9292 52.0648C50.855 55.3887 48.678 59.3436 45.86 61.2945L44.8589 64.1095ZM41.1246 61.7451L44.7636 63.855L45.7223 61.1884L45.7435 61.1725C48.5456 59.2481 50.7014 55.3198 50.7597 52.033V51.9959L52.5394 50.2888L49.16 48.3432C48.1324 47.7548 46.7658 47.8979 45.3039 48.7408C42.2476 50.5062 39.758 54.8215 39.758 58.3522C39.7633 59.8949 40.2454 61.0983 41.1246 61.7451Z" fill="#16110D"/>
<path d="M52.6719 50.1563C51.586 49.5307 50.1558 49.6686 48.6303 50.5486C45.5264 52.3458 42.9998 56.7247 42.9998 60.3137C42.9998 62.0738 43.5983 63.3832 44.6789 64.0088C45.1238 64.2685 45.6323 64.3958 46.1779 64.3958C46.9565 64.3958 47.8252 64.136 48.7204 63.6165C51.8244 61.8193 54.351 57.4404 54.351 53.8513C54.351 52.0966 53.7577 50.7818 52.6719 50.1563Z" fill="#16110D"/>
<path d="M46.6385 63.0598C46.1883 63.0598 45.7751 62.9538 45.4097 62.7417C44.5198 62.2275 44.0325 61.1513 44.0325 59.7147C44.0325 56.783 46.0983 53.2046 48.6302 51.7414C49.8749 51.0204 51.0508 50.9091 51.9407 51.4233C52.8306 51.9375 53.3179 53.0137 53.3179 54.4504C53.3179 57.3821 51.2521 60.9605 48.7202 62.4237C47.9892 62.8478 47.2795 63.0598 46.6385 63.0598ZM50.7118 51.2802C50.1027 51.2802 49.4247 51.4869 48.7202 51.8951C46.2307 53.3318 44.2073 56.8413 44.2073 59.72C44.2073 61.093 44.6681 62.1162 45.4997 62.5986C46.3313 63.081 47.4437 62.9644 48.6355 62.2805C51.125 60.8438 53.1484 57.3343 53.1484 54.4557C53.1484 53.0826 52.6876 52.0595 51.856 51.5771C51.517 51.3756 51.1303 51.2802 50.7118 51.2802Z" fill="#ECC550"/>
<path d="M47.396 60.9128C47.11 60.9128 46.8398 60.8439 46.6067 60.7113C46.04 60.3826 45.7222 59.6935 45.7222 58.7763C45.7222 56.9208 47.0252 54.6572 48.6302 53.7347C49.4247 53.2788 50.1768 53.2046 50.7436 53.5333C51.3157 53.862 51.6282 54.5511 51.6282 55.4683C51.6282 57.3238 50.3252 59.5874 48.7202 60.5152C48.2541 60.7803 47.8038 60.9128 47.396 60.9128ZM49.9544 53.5015C49.5783 53.5015 49.1545 53.6287 48.7202 53.8832C47.1629 54.7844 45.897 56.9792 45.897 58.7763C45.897 59.6299 46.1777 60.2607 46.6915 60.5576C47.2053 60.8545 47.8939 60.7856 48.6302 60.3561C50.1874 59.4549 51.4534 57.2601 51.4534 55.463C51.4534 54.6094 51.1727 53.9786 50.6589 53.6817C50.4523 53.5651 50.2139 53.5015 49.9544 53.5015Z" fill="#ECC550"/>
<path d="M47.677 60.0964C47.4492 60.0964 47.2374 60.0433 47.052 59.9373C46.6017 59.6776 46.3528 59.1368 46.3528 58.4158C46.3528 56.9633 47.3751 55.1926 48.6304 54.4716C49.2555 54.1111 49.8487 54.0528 50.299 54.3126C50.7492 54.5723 50.9981 55.1131 50.9981 55.8341C50.9981 57.2866 49.9758 59.0573 48.7205 59.7783C48.355 59.9903 48.0001 60.0964 47.677 60.0964ZM49.6739 54.3232C49.3826 54.3232 49.0595 54.4239 48.7205 54.62C47.5128 55.3198 46.5329 57.0216 46.5329 58.4158C46.5329 59.0732 46.75 59.5609 47.142 59.7889C47.534 60.0168 48.0637 59.9585 48.6357 59.6298C49.8434 58.9301 50.8233 57.2283 50.8233 55.8341C50.8233 55.1767 50.6062 54.689 50.2142 54.461C50.05 54.3656 49.8699 54.3232 49.6739 54.3232Z" fill="#ECC550"/>
<path d="M43.4974 62.6145L40.1074 60.706L40.1657 60.6L43.5504 62.5138L43.4974 62.6145Z" fill="#16110D"/>
<path d="M39.8816 59.819L39.8252 59.9211L43.2178 61.7997L43.2743 61.6976L39.8816 59.819Z" fill="#16110D"/>
<path d="M43.0633 60.6742L39.6521 58.7339L39.7104 58.6332L43.1216 60.5735L43.0633 60.6742Z" fill="#16110D"/>
<path d="M43.0949 59.6404L39.6572 57.7266L39.7102 57.6259L43.1479 59.5397L43.0949 59.6404Z" fill="#16110D"/>
<path d="M43.3069 58.3098L39.8904 56.3642L39.9486 56.2634L43.3651 58.209L43.3069 58.3098Z" fill="#16110D"/>
<path d="M40.8572 53.7103L40.7983 53.8109L44.1951 55.8001L44.254 55.6994L40.8572 53.7103Z" fill="#16110D"/>
<path d="M42.2673 51.3985L42.2095 51.4998L45.6271 53.4535L45.6849 53.3522L42.2673 51.3985Z" fill="#16110D"/>
<path d="M47.6821 60.0911C47.2742 60.0911 46.9246 59.9214 46.6863 59.5927L46.6174 59.4443L46.7604 59.4549C47.0783 59.4761 47.4331 59.3754 47.7986 59.1633C49.0063 58.4635 49.9862 56.7618 49.9862 55.3675C49.9862 54.9275 49.8856 54.5511 49.6896 54.2861L49.6049 54.1694L49.7638 54.1482C50.5212 54.2012 50.9874 54.8427 50.9874 55.8288C50.9874 57.2813 49.9651 59.052 48.7097 59.773C48.3548 59.985 47.9999 60.0911 47.6821 60.0911Z" fill="#ECC550"/>
<path d="M47.6239 59.1209L46.4215 58.4158L46.3579 58.3257C46.3897 57.0004 47.2266 55.4524 48.3495 54.6466L48.4555 54.6519L49.6685 55.3675C49.7108 55.3941 49.7373 55.4312 49.7479 55.4789C49.7585 55.5266 49.7532 55.5743 49.7267 55.6114L47.6239 59.1209Z" fill="#ECC550"/>
<path d="M50.0711 56.3911C50.0711 57.3189 49.4196 58.4428 48.6198 58.904C47.82 59.3652 47.1685 58.9941 47.1685 58.0664C47.1685 57.1386 47.82 56.0147 48.6198 55.5535C49.4196 55.0923 50.0711 55.4687 50.0711 56.3911Z" fill="#16110D"/>
<path d="M47.9734 59.1898C47.8198 59.1898 47.6767 59.1527 47.5496 59.0785C47.2477 58.9036 47.0835 58.5431 47.0835 58.0659C47.0835 57.1117 47.7562 55.9507 48.5772 55.4789C48.9904 55.2403 49.3876 55.2032 49.6896 55.3781C49.9915 55.5531 50.1557 55.9136 50.1557 56.3907C50.1557 57.3449 49.4883 58.5059 48.662 58.9778C48.4183 59.1209 48.1852 59.1898 47.9734 59.1898ZM49.2658 55.4418C49.0804 55.4418 48.8791 55.5054 48.662 55.6273C47.8886 56.0726 47.253 57.17 47.253 58.0659C47.253 58.4794 47.3907 58.7869 47.6344 58.9301C47.8833 59.0732 48.2117 59.0361 48.5719 58.8293C49.3453 58.3787 49.9809 57.2866 49.9809 56.3907C49.9809 55.9772 49.8432 55.6697 49.5995 55.5266C49.5042 55.4683 49.3876 55.4418 49.2658 55.4418Z" fill="#ECC550"/>
<path d="M50.8973 49.923L47.4385 47.9509L47.4914 47.8502L50.9556 49.8223L50.8973 49.923Z" fill="#16110D"/>
<path d="M29.3655 4.34183L29.3125 50.8667L27.2043 49.6049L27.2573 5.56114L29.3655 4.34183Z" fill="#ECC550"/>
<path d="M24.6301 4.60158L26.7383 5.86331V4.54327L24.6301 3.28154V4.60158Z" fill="#ECC550"/>
<path d="M30.0655 0.143829L32.1736 1.40025L26.739 4.54397L24.6309 3.28224L30.0655 0.143829Z" fill="#ECC550"/>
<path d="M30.0647 0.911835L32.1729 2.17356L27.2944 4.97269L25.1863 3.71096L30.0647 0.911835Z" fill="#FFEECC"/>
<path d="M32.2417 30.7161L32.2947 2.7196V1.33064L30.07 0L24.5083 3.21263V4.67051L26.733 6.00115L27.1355 5.76789L27.0826 49.6738L29.3073 51.0045L34.6147 47.9403L34.6253 38.2123L32.2417 30.7161ZM30.0647 0.280973L31.9345 1.39956L26.7383 4.40014L24.8685 3.28685L30.0647 0.280973ZM24.752 4.53267V3.4989L26.6165 4.61219V5.64596L24.752 4.53267ZM29.1907 32.1369V50.6493L27.3262 49.536L27.3792 5.63006L29.2437 4.55388L29.1907 32.1369Z" fill="#16110D"/>
<path d="M34.5992 42.57L29.7578 39.7656L31.5429 38.7371L36.3789 41.5415L34.5992 42.57Z" fill="#ECC550"/>
<path d="M34.5992 43.2433L29.7578 40.4389L31.5429 39.4104L36.3789 42.2148L34.5992 43.2433Z" fill="#FFEECC"/>
<path d="M34.5992 42.7079L34.5356 42.676L29.5142 39.7656L31.5376 38.594L31.5958 38.6311L36.6173 41.5416L34.5992 42.7079ZM30.0015 39.7656L34.5939 42.4269L36.13 41.5363L31.5376 38.875L30.0015 39.7656Z" fill="#16110D"/>
<path d="M29.7578 39.7656V40.635L34.5992 43.4395V42.57L29.7578 39.7656Z" fill="#ECC550"/>
<path d="M34.7211 43.6515L29.6414 40.7039V39.5482L34.7211 42.4958V43.6515ZM29.8797 40.5661L34.4721 43.2274V42.6336L29.8797 39.9723V40.5661Z" fill="#16110D"/>
<path d="M36.3789 41.5416V42.411L34.5991 43.4395V42.57L36.3789 41.5416Z" fill="#ECC550"/>
<path d="M34.4773 43.6515V42.4958L36.5007 41.3242V42.4799L34.4773 43.6515ZM34.721 42.6389V43.2327L36.257 42.3421V41.7483L34.721 42.6389Z" fill="#16110D"/>
<path d="M34.5989 46.3022L29.7576 43.4977L31.5426 42.4693L36.3787 45.2737L34.5989 46.3022Z" fill="#ECC550"/>
<path d="M34.5989 46.9754L29.7576 44.171L31.5426 43.1425L36.3787 45.947L34.5989 46.9754Z" fill="#FFEECC"/>
<path d="M34.599 46.44L34.5407 46.4029L29.5193 43.4924L31.5427 42.3208L31.601 42.358L36.6224 45.2684L34.599 46.44ZM30.0013 43.4978L34.5937 46.159L36.1298 45.2684L31.5374 42.6071L30.0013 43.4978Z" fill="#16110D"/>
<path d="M29.7576 43.4977V44.3672L34.5989 47.1716V46.3021L29.7576 43.4977Z" fill="#ECC550"/>
<path d="M34.7208 47.3836L29.6411 44.4361V43.2804L34.7208 46.2279V47.3836ZM29.8795 44.2982L34.4719 46.9595V46.3658L29.8795 43.7045V44.2982Z" fill="#16110D"/>
<path d="M36.3786 45.2737V46.1431L34.5989 47.1716V46.3021L36.3786 45.2737Z" fill="#ECC550"/>
<path d="M34.4771 47.3836V46.2279L36.5005 45.0616V46.2173L34.4771 47.3836ZM34.7207 46.3711V46.9648L36.2568 46.0742V45.4804L34.7207 46.3711Z" fill="#16110D"/>
<path d="M34.5989 38.8378L29.7576 36.0334L31.5426 35.005L36.3787 37.8094L34.5989 38.8378Z" fill="#ECC550"/>
<path d="M34.5989 39.5111L29.7576 36.7067L31.5426 35.6782L36.3787 38.4827L34.5989 39.5111Z" fill="#FFEECC"/>
<path d="M34.599 38.9757L34.5407 38.9386L29.5193 36.0281L31.5427 34.8565L31.601 34.8936L36.6224 37.8041L34.599 38.9757ZM30.0013 36.0334L34.5937 38.6947L36.1298 37.8041L31.5374 35.1428L30.0013 36.0334Z" fill="#16110D"/>
<path d="M29.7576 36.0335V36.9029L34.5989 39.7073V38.8379L29.7576 36.0335Z" fill="#ECC550"/>
<path d="M34.7208 39.9193L29.6411 36.9718V35.8161L34.7208 38.7637V39.9193ZM29.8795 36.834L34.4719 39.4952V38.9015L29.8795 36.2402V36.834Z" fill="#16110D"/>
<path d="M36.3786 37.8094V38.6788L34.5989 39.7073V38.8379L36.3786 37.8094Z" fill="#ECC550"/>
<path d="M34.4771 39.9193V38.7636L36.5005 37.592V38.7477L34.4771 39.9193ZM34.7207 38.9068V39.5005L36.2568 38.6099V38.0161L34.7207 38.9068Z" fill="#16110D"/>
<path d="M34.5989 50.0344L29.7576 47.2299L31.5426 46.2015L36.3787 49.0059L34.5989 50.0344Z" fill="#ECC550"/>
<path d="M34.5989 50.8031L29.7576 47.9986L31.5426 46.9702L36.3787 49.7746L34.5989 50.8031Z" fill="#FFEECC"/>
<path d="M34.599 50.1722L34.5407 50.1351L29.5193 47.2246L31.5427 46.053L31.601 46.0901L36.6224 49.0006L34.599 50.1722ZM30.0013 47.2299L34.5937 49.8912L36.1298 49.0006L31.5374 46.3393L30.0013 47.2299Z" fill="#16110D"/>
<path d="M29.7576 47.2299V48.0994L34.5989 50.9038V50.0344L29.7576 47.2299Z" fill="#ECC550"/>
<path d="M34.7208 51.1158L29.6411 48.1683V47.0126L34.7208 49.9601V51.1158ZM29.8795 48.0304L34.4719 50.6917V50.098L29.8795 47.4367V48.0304Z" fill="#16110D"/>
<path d="M36.3786 49.0059V49.8753L34.5989 50.9038V50.0344L36.3786 49.0059Z" fill="#ECC550"/>
<path d="M34.4771 51.1158V49.9601L36.5005 48.7885V49.9442L34.4771 51.1158ZM34.7207 50.1033V50.697L36.2568 49.8064V49.2127L34.7207 50.1033Z" fill="#16110D"/>
<path d="M36.209 8.24896L36.156 54.7738L34.0479 53.5121L34.1008 9.46298L36.209 8.24896Z" fill="#ECC550"/>
<path d="M31.4739 8.50342L33.582 9.76514V8.4504L31.4739 7.18867V8.50342Z" fill="#ECC550"/>
<path d="M36.9143 4.04561L39.0171 5.30733L33.5825 8.45105L31.4744 7.18932L36.9143 4.04561Z" fill="#ECC550"/>
<path d="M36.9136 4.77657L39.0164 6.03829L34.281 8.82151L32.1729 7.55979L36.9136 4.77657Z" fill="#FFEECC"/>
<path d="M39.0854 34.6233L39.1384 6.62672V5.23776L36.9084 3.90712L31.3467 7.11975V8.57763L33.5714 9.90827L33.9739 9.67501L33.921 53.581L36.1456 54.9116L41.4531 51.8474L41.4637 42.1194L39.0854 34.6233ZM36.9084 4.18809L38.7782 5.30668L33.582 8.30726L31.7122 7.18867L36.9084 4.18809ZM31.5956 8.43449V7.40072L33.4601 8.51401V9.54778L31.5956 8.43449ZM36.0344 36.044V54.5564L34.1699 53.4431L34.2229 9.53718L36.0874 8.461L36.0344 36.044Z" fill="#16110D"/>
<path d="M70.9885 40.8418L75.3796 43.4818L58.2866 53.3742L55.8447 49.6049L70.9885 40.8418Z" fill="#ECC550"/>
<path d="M61.3908 47.4261L65.7872 50.0661L58.4563 54.3231L56.0198 50.5486L61.3908 47.4261Z" fill="#FFEECC"/>
<path d="M75.3796 45.1041L57.4497 55.4788L52.995 48.5924L42.9521 54.3974V52.7751L53.8266 46.4877L58.2866 53.3742L75.3796 43.4818V45.1041Z" fill="#16110D"/>
<path d="M38.5613 51.7573L42.9524 54.3974V52.7751L38.5613 50.1351V51.7573Z" fill="#ECC550"/>
<path d="M49.4355 43.8476L53.8266 46.4877L42.9521 52.7752L38.561 50.1351L49.4355 43.8476Z" fill="#ECC550"/>
<path d="M49.3983 44.7224L53.0691 46.9277L42.952 52.7752L42.9097 53.6499L38.5186 51.0098L49.3983 44.7224Z" fill="#FFEECC"/>
<path d="M75.5014 43.4129L70.9885 40.6986L55.8871 49.4406L53.9167 46.3976L49.4408 43.7045L38.4392 50.0662V51.8262L42.9521 54.5405L52.9579 48.7567L57.4126 55.6432L75.4379 45.2101L75.5014 43.4129ZM56.0195 49.6473L70.9885 40.9849L75.1413 43.4818L58.329 53.2152L56.0195 49.6473ZM49.4355 43.9855L53.5883 46.4824L42.9521 52.632L38.7994 50.1351L49.4355 43.9855ZM38.6829 51.6884V50.3471L42.8303 52.8388V53.1675V54.1747L38.6829 51.6884ZM75.2578 43.6939V45.0351L57.4921 55.3145L53.0374 48.428L43.0793 54.1853V53.1728V52.8441L53.7896 46.6521L58.2442 53.5385L75.2578 43.6939Z" fill="#16110D"/>
<path d="M45.2354 36.9188L64.9503 48.269V35.7154L45.2354 26.3956V36.9188Z" fill="#ECC550"/>
<path d="M64.9503 35.5775L45.1135 26.2047V36.993L64.9503 48.4121L75.5759 42.2732L75.6182 42.2519L79.289 31.3046L87.6845 26.4539V24.8635L87.568 24.7945L64.9503 35.5775ZM45.3572 36.8499V26.5864L64.8285 35.7896V48.057L45.3572 36.8499Z" fill="#16110D"/>
<path d="M67.8422 13.3277L87.5571 24.9217L64.9501 37.9843L45.2351 26.3955L67.8422 13.3277Z" fill="#ECC550"/>
<path d="M67.9268 14.4462L86.646 25.4519L64.8281 37.9843V38.981L45.3145 27.5141L67.9268 14.4462Z" fill="#FFEECC"/>
<path d="M64.9448 38.1275L64.8865 38.0904L44.9915 26.3955L67.8475 13.1898L67.9057 13.2269L87.679 24.8528V24.9907L64.9448 38.1275ZM45.4735 26.3955L64.9501 37.8465L87.3188 24.9218L67.8422 13.4708L45.4735 26.3955Z" fill="#16110D"/>
<path d="M67.8582 17.7808L81.6565 25.8919L65.0985 35.4768L51.3054 27.3604L67.8582 17.7808Z" fill="#ECC550"/>
<path d="M65.0985 34.5437L51.0618 26.2948L51.2419 26.1888L67.8582 16.5721L67.9164 16.6092L81.8949 24.8263L81.7148 24.9324L65.0985 34.5437ZM51.5438 26.2948L65.0985 34.2628L81.4129 24.821L67.8582 16.8531L51.5438 26.2948Z" fill="#16110D"/>
<path d="M67.8582 16.7152V20.0392L78.9392 26.3955L81.6565 24.8263L67.8582 16.7152Z" fill="#ECC550"/>
<path d="M78.9392 26.5387L67.7363 20.1081V16.4979L81.8949 24.821L78.9392 26.5387ZM67.98 19.965L78.9392 26.2524L81.4129 24.821L67.98 16.922V19.965Z" fill="#16110D"/>
<path d="M51.3054 26.2948L67.8582 16.7153V20.0392L54.0174 27.8905L51.3054 26.2948Z" fill="#16110D"/>
<path d="M54.0121 28.0284L51.0618 26.2948L51.2419 26.1888L67.98 16.5032V20.1081L67.9164 20.1452L54.0121 28.0284ZM51.5438 26.2948L54.0174 27.7474L67.7363 19.965V16.922L51.5438 26.2948Z" fill="#16110D"/>
<path d="M50.4851 15.8728C50.3739 15.8039 50.2203 15.8145 50.0455 15.9153L46.6873 17.8556C46.3801 18.0305 46.094 18.3751 45.9192 18.7674L42.0949 27.4616C41.9413 27.8115 41.8618 28.1614 41.8618 28.4742V30.8174C41.8618 31.0295 41.9148 31.1673 42.0313 31.2415L42.0472 31.2574L42.2167 31.3581C42.222 31.3634 42.4074 31.4695 42.418 31.4748L55.3371 38.6952C55.4801 38.7801 55.6655 38.7377 55.7608 38.5998L60.5545 31.5755L61.7145 26.5763L63.8703 23.5545C63.9233 23.4803 63.9021 23.3796 63.8227 23.3319L50.4851 15.8728Z" fill="#ECC550"/>
<path d="M63.2023 24.0099L50.4845 16.9008C50.3732 16.8319 50.2196 16.8425 50.0448 16.9379L46.6866 18.8782C46.3794 19.0531 46.0934 19.3977 45.9186 19.79L42.4597 27.652C42.3273 27.9541 42.4438 28.304 42.7298 28.4684L55.4159 35.5563C55.4529 35.5775 55.4794 35.6146 55.49 35.657C55.5218 35.7843 55.6171 35.885 55.7231 35.9645L56.9043 36.7968C57.1956 37.0036 57.6035 36.9294 57.8047 36.6325L60.4797 32.7095C60.522 32.6459 60.5591 32.5716 60.575 32.4921L61.6768 27.7368C61.698 27.6573 61.7297 27.5778 61.7774 27.5088L63.4459 25.1709C63.7267 24.7786 63.6101 24.2432 63.2023 24.0099Z" fill="#FFEECC"/>
<path d="M55.4952 38.8591C55.4211 38.8591 55.3469 38.8378 55.2781 38.8007L42.359 31.5803C42.3537 31.5803 42.163 31.4689 42.1577 31.4636L41.9511 31.3364C41.8134 31.2463 41.7393 31.0713 41.7393 30.8222V28.479C41.7393 28.1503 41.824 27.7792 41.9829 27.4187L45.8126 18.7191C45.9926 18.3056 46.2999 17.9451 46.6283 17.7543L49.9865 15.814C50.1878 15.6974 50.3891 15.6815 50.5427 15.7769L63.8802 23.2412C63.9491 23.2783 63.9967 23.3419 64.0126 23.4215C64.0285 23.4957 64.0126 23.5752 63.9702 23.6388L61.8303 26.6394L60.6597 31.6545L55.866 38.6788C55.776 38.7901 55.6383 38.8591 55.4952 38.8591ZM50.3149 15.9465C50.2513 15.9465 50.1825 15.9677 50.103 16.0154L46.7448 17.9557C46.4588 18.1201 46.1939 18.4382 46.0297 18.8093L42.2001 27.5088C42.0518 27.8428 41.9776 28.1768 41.9776 28.4737V30.8169C41.9776 31.0395 42.0412 31.1084 42.0941 31.1403L42.1259 31.1668L42.2795 31.2516C42.2954 31.2622 42.4649 31.3576 42.4755 31.3629L55.3999 38.5834C55.4899 38.6364 55.6065 38.6099 55.6647 38.5198L60.4425 31.5113L61.6131 26.491L63.769 23.4692C63.7743 23.4586 63.7743 23.448 63.7743 23.4427C63.7743 23.4374 63.769 23.4268 63.7584 23.4215L50.4208 15.973C50.3891 15.9518 50.3573 15.9465 50.3149 15.9465Z" fill="#16110D"/>
<path d="M64.0287 23.3155C63.875 23.2253 63.6791 23.2412 63.4778 23.3579L60.1196 25.2982C59.7912 25.489 59.4892 25.8495 59.3038 26.263L55.4795 34.9626C55.3206 35.3284 55.2358 35.6941 55.2358 36.0228V38.366C55.2358 38.6258 55.3312 38.822 55.5007 38.9227C55.5748 38.9651 55.6543 38.9863 55.739 38.9863C55.8556 38.9863 55.9827 38.9492 56.1151 38.875L62.625 35.0898C63.5308 34.5597 64.2723 33.2767 64.2723 32.2271V23.8138C64.267 23.5805 64.1823 23.4056 64.0287 23.3155Z" fill="#16110D"/>
<path d="M58.5514 33.0381C58.4985 33.0381 58.4508 33.0275 58.4084 33.001C58.3078 32.9427 58.2495 32.8261 58.2495 32.683V31.575C58.2495 31.4106 58.2919 31.2304 58.3713 31.0501L60.1776 26.9469C60.2676 26.7401 60.4212 26.5599 60.5907 26.4644L62.7095 25.2239C62.826 25.1603 62.9425 25.1497 63.0326 25.2027C63.1226 25.2557 63.1756 25.3618 63.1756 25.4943V29.465C63.1756 29.9899 62.8207 30.6048 62.3652 30.8699L58.7633 32.9798C58.6892 33.0169 58.6203 33.0381 58.5514 33.0381ZM60.3947 27.0423L58.5885 31.1456C58.5249 31.294 58.4879 31.4424 58.4879 31.575V32.683C58.4879 32.736 58.5038 32.7784 58.5249 32.7943C58.5461 32.8049 58.5938 32.7996 58.6415 32.7731L62.2434 30.6631C62.6247 30.4405 62.932 29.905 62.932 29.465V25.4943C62.932 25.4466 62.9214 25.4201 62.9055 25.4095C62.8949 25.4042 62.8631 25.4042 62.8207 25.4307L60.702 26.6712C60.5854 26.7401 60.4689 26.8833 60.3947 27.0423Z" fill="#ECC550"/>
<path d="M61.2532 33.7326V32.6724L62.7416 31.8135V32.8738L61.2532 33.7326ZM61.4915 32.8102V33.3191L62.5032 32.736V32.227L61.4915 32.8102Z" fill="#ECC550"/>
<path d="M47.1371 19.5308L58.0963 25.6486C58.2499 25.7387 58.3135 25.9296 58.2446 26.0939L54.9129 33.659C54.8387 33.8286 54.6322 33.8975 54.4733 33.8021L43.4769 27.6366C43.3233 27.5465 43.2598 27.3504 43.3339 27.1913L46.7027 19.674C46.7769 19.5043 46.9782 19.4407 47.1371 19.5308Z" fill="#ECC550"/>
<path d="M54.6318 33.9659C54.5577 33.9659 54.4835 33.9447 54.4146 33.9076L43.4183 27.7421C43.2118 27.6202 43.127 27.3604 43.2276 27.143L46.5965 19.6257C46.6441 19.5144 46.7395 19.4295 46.856 19.3924C46.9725 19.3553 47.0997 19.3712 47.2003 19.4295L58.1595 25.5473C58.3661 25.6693 58.4509 25.9237 58.3555 26.1411L55.0238 33.7114C54.9761 33.8228 54.8808 33.9076 54.7642 33.95C54.7219 33.9606 54.6795 33.9659 54.6318 33.9659ZM46.9831 19.6098C46.9619 19.6098 46.9461 19.6151 46.9249 19.6204C46.8719 19.6363 46.8295 19.6734 46.8083 19.7264L43.4395 27.2438C43.3919 27.3551 43.4289 27.4823 43.5349 27.5406L54.5312 33.7061C54.5788 33.7326 54.6318 33.7379 54.6848 33.722C54.7378 33.7061 54.7801 33.669 54.8013 33.616L58.1331 26.0456C58.1807 25.9396 58.1383 25.8124 58.0377 25.7541L47.0785 19.631C47.052 19.6151 47.0149 19.6098 46.9831 19.6098Z" fill="#16110D"/>
<path d="M45.0183 26.7089C44.8647 26.6188 44.8012 26.4226 44.8753 26.2636L47.7356 19.8754L47.1424 19.5308C46.9835 19.4407 46.7769 19.5043 46.7027 19.674L43.3339 27.1913C43.2598 27.3557 43.3233 27.5465 43.4769 27.6366L54.4733 33.8021C54.6322 33.8975 54.8387 33.8286 54.9129 33.659L55.4108 32.5298L45.0183 26.7089Z" fill="#ECC550"/>
<path d="M54.6318 33.9659C54.5577 33.9659 54.4835 33.9447 54.4146 33.9076L43.4183 27.7421C43.2118 27.6202 43.127 27.3604 43.2276 27.143L46.5965 19.6257C46.6441 19.5144 46.7395 19.4295 46.856 19.3924C46.9725 19.3553 47.0997 19.3712 47.2003 19.4295L47.8889 19.8271L44.9809 26.316C44.9332 26.4273 44.9703 26.5546 45.0763 26.6129L55.5694 32.4868L55.0291 33.7167C54.9814 33.8281 54.8861 33.9129 54.7695 33.9553C54.7219 33.9606 54.6795 33.9659 54.6318 33.9659ZM46.9831 19.6098C46.9619 19.6098 46.9461 19.6151 46.9249 19.6204C46.8719 19.6363 46.8295 19.6734 46.8083 19.7264L43.4395 27.2438C43.3919 27.3551 43.4289 27.4823 43.5349 27.5406L54.5312 33.7061C54.5788 33.7326 54.6318 33.7379 54.6848 33.722C54.7378 33.7061 54.7801 33.669 54.8013 33.616L55.2569 32.5822L44.9544 26.8143C44.7479 26.6924 44.6631 26.4326 44.7637 26.2153L47.5817 19.9226L47.0785 19.631C47.052 19.6151 47.0149 19.6098 46.9831 19.6098Z" fill="#16110D"/>
<path d="M58.5514 33.0382C58.4985 33.0382 58.4508 33.0276 58.4084 33.001C58.3078 32.9427 58.2495 32.8261 58.2495 32.683V32.1051L61.4435 30.2337C61.8249 30.0111 62.1321 29.4756 62.1321 29.0356V25.5526L62.6989 25.2186C62.8154 25.155 62.932 25.1444 63.022 25.1974C63.1121 25.2504 63.165 25.3565 63.165 25.489V29.4597C63.165 29.9846 62.8101 30.5995 62.3546 30.8646L58.7527 32.9745C58.6892 33.0169 58.6203 33.0382 58.5514 33.0382ZM58.4932 32.2429V32.683C58.4932 32.736 58.5091 32.7784 58.5302 32.7943C58.5514 32.8049 58.5991 32.7996 58.6468 32.7731L62.2487 30.6631C62.63 30.4405 62.9373 29.905 62.9373 29.465V25.4943C62.9373 25.4466 62.9267 25.4201 62.9108 25.4095C62.9002 25.4042 62.8684 25.4042 62.826 25.4307L62.3758 25.6958V29.0409C62.3758 29.5658 62.0209 30.1807 61.5654 30.4458L58.4932 32.2429Z" fill="#ECC550"/>
<path d="M54.3193 37.0725L43.3707 30.96C43.1429 30.8275 42.9575 30.4723 42.9575 30.1648C42.9575 29.8573 43.1429 29.7195 43.3707 29.852L54.3193 35.9645C54.5471 36.097 54.7325 36.4522 54.7325 36.7597C54.7378 37.0672 54.5471 37.205 54.3193 37.0725Z" fill="#FFEECC"/>
<path d="M54.224 36.7173C54.1498 36.7173 54.0757 36.6961 54.0015 36.6537L43.0529 30.5412C42.788 30.3875 42.5762 29.9952 42.5762 29.6453C42.5762 29.4385 42.6503 29.2795 42.7775 29.2053C42.8887 29.1416 43.0317 29.1469 43.1694 29.2265L54.1181 35.3389C54.3829 35.4927 54.5948 35.885 54.5948 36.2349C54.5948 36.4416 54.5206 36.6007 54.3935 36.6749C54.3405 36.7067 54.2823 36.7173 54.224 36.7173ZM42.947 29.3961C42.9311 29.3961 42.9152 29.4014 42.8993 29.4067C42.8463 29.4385 42.8145 29.5233 42.8145 29.64C42.8145 29.905 42.9787 30.2178 43.1694 30.3292L54.1181 36.4416C54.1551 36.4628 54.2187 36.4946 54.2717 36.4628C54.3246 36.431 54.3564 36.3462 54.3564 36.2296C54.3564 35.9645 54.1922 35.6517 54.0015 35.5404L43.0529 29.4332C43.0264 29.4173 42.9893 29.3961 42.947 29.3961Z" fill="#16110D"/>
<path d="M43.4238 27.3233L44.7374 26.5175L45.0764 25.9078L47.7354 19.8748C47.7354 19.8748 46.9833 19.5303 46.925 19.5303C46.8668 19.5303 46.2735 20.6329 46.2735 20.6329L43.3337 27.1907L43.4238 27.3233Z" fill="#16110D"/>
<path d="M75.4332 36.7073L73.5581 35.6365L73.5528 35.6311C73.4787 35.594 73.3833 35.5993 73.2721 35.663L69.4477 37.8736C69.2253 38.0009 69.0452 38.3136 69.0452 38.5681V40.132C68.5367 40.4978 68.1394 41.293 68.1394 41.9928V45.2319C68.1394 45.5818 68.24 45.8416 68.4042 45.9847C68.4042 45.9847 68.5102 46.0536 68.5632 46.0749L69.0452 46.3452V48.8687C69.0452 49.033 69.1193 49.0913 69.2306 49.1496L71.0103 50.1675C71.0315 50.1781 71.0527 50.1675 71.058 50.1463L71.344 49.314L71.6406 44.5746L75.4597 36.8028C75.4809 36.7709 75.4703 36.7285 75.4332 36.7073Z" fill="#ECC550"/>
<path d="M75.4325 37.5549L73.5574 36.484L73.5521 36.4787C73.4779 36.4416 73.3826 36.4469 73.2713 36.5105L69.447 38.7212C69.2245 38.8484 69.0444 39.1612 69.0444 39.4157V39.4634L73.4038 41.849L75.4589 37.6609C75.4801 37.6185 75.4695 37.5708 75.4325 37.5549Z" fill="#FFEECC"/>
<path d="M71.0309 50.2941C71.0045 50.2941 70.978 50.2888 70.9515 50.2729L69.1717 49.255C69.0552 49.1914 68.9228 49.1066 68.9228 48.868V46.4135L68.5043 46.1749C68.4567 46.159 68.356 46.0901 68.3348 46.0795C68.123 45.8993 68.0117 45.5971 68.0117 45.226V41.9869C68.0117 41.2818 68.3984 40.4707 68.9175 40.0625V38.5622C68.9175 38.2653 69.1188 37.9101 69.3783 37.7617L73.2027 35.551C73.3457 35.4715 73.4887 35.4556 73.5999 35.5192L75.4803 36.5954C75.5704 36.6484 75.6074 36.7597 75.5598 36.8551L71.7513 44.6057L71.4494 49.3505L71.1422 50.2358L71.068 50.2782C71.068 50.2941 71.0521 50.2941 71.0309 50.2941ZM73.4463 35.7312C73.4145 35.7312 73.3722 35.7418 73.3298 35.7684L69.5054 37.979C69.3201 38.0851 69.1664 38.3554 69.1664 38.5675V40.1897L69.1135 40.2268C68.6262 40.5767 68.2554 41.3348 68.2554 41.9922V45.2313C68.2554 45.5335 68.3348 45.7667 68.4778 45.894C68.5096 45.9152 68.5732 45.9523 68.5997 45.9629L69.1611 46.2757V48.868C69.1611 48.9635 69.1876 48.99 69.283 49.043L70.9727 50.0131L71.2216 49.2975L71.5288 44.5315L75.3267 36.7968L73.4887 35.7471C73.4834 35.7365 73.4675 35.7312 73.4463 35.7312Z" fill="#16110D"/>
<path d="M69.0505 46.3347L70.2741 47.0397C70.3377 47.0769 70.4171 47.0291 70.4171 46.9602L70.4701 45.7091L70.9574 41.2029L69.0505 40.1215C68.542 40.4873 68.1448 41.2825 68.1448 41.9822V45.2214C68.1448 45.5713 68.2454 45.831 68.4096 45.9742C68.4096 45.9742 68.5156 46.0431 68.5685 46.0643L69.0505 46.3347Z" fill="#ECC550"/>
<path d="M70.5964 44.5315L70.8401 42.0293L69.4629 41.2447C68.9544 41.6105 68.5571 42.4057 68.5571 43.1054V43.2592L70.5964 44.5315Z" fill="#FFEECC"/>
<path d="M70.321 47.1716C70.2839 47.1716 70.2468 47.161 70.215 47.1451L68.5095 46.1696C68.4618 46.1537 68.3611 46.0848 68.34 46.0742C68.1281 45.894 68.0168 45.5918 68.0168 45.2207V41.9815C68.0168 41.2553 68.43 40.4123 68.9756 40.02L69.0391 39.9723L71.0837 41.1333L70.5858 45.719L70.5329 46.9648C70.5276 47.039 70.4852 47.108 70.4216 47.1451C70.3951 47.161 70.3581 47.1716 70.321 47.1716ZM69.0603 40.2586C68.6048 40.6244 68.2658 41.3507 68.2658 41.9762V45.2154C68.2658 45.5176 68.3453 45.7508 68.4883 45.878C68.52 45.8993 68.5836 45.9364 68.6101 45.947L70.2945 46.9118L70.3475 45.6978L70.8295 41.2659L69.0603 40.2586Z" fill="#16110D"/>
<path d="M75.1788 36.7444L71.3545 38.9551C71.132 39.0823 70.9519 39.3951 70.9519 39.6496V41.2135C70.4434 41.5793 70.0461 42.3745 70.0461 43.0743V46.3134C70.0461 47.0132 70.4434 47.3472 70.9519 47.1245V49.9554C70.9519 50.2099 71.132 50.3159 71.3545 50.1887L73.3779 49.0171C73.4785 48.9588 73.5792 48.8581 73.6533 48.7308L75.4542 45.7302C75.5337 45.5977 75.5814 45.4493 75.5814 45.322V36.9777C75.5814 36.7179 75.4013 36.6172 75.1788 36.7444Z" fill="#16110D"/>
<path d="M71.1793 50.3577C71.121 50.3577 71.0627 50.3418 71.0151 50.3153C70.9038 50.2517 70.835 50.1192 70.835 49.9495V47.2882C70.639 47.3306 70.4589 47.3041 70.3053 47.2087C70.0616 47.0497 69.9292 46.7316 69.9292 46.3075V43.0683C69.9292 42.3632 70.3159 41.5521 70.835 41.1439V39.6436C70.835 39.3468 71.0362 38.9916 71.2958 38.8431L75.1201 36.6325C75.2631 36.5476 75.4115 36.537 75.5227 36.606C75.6339 36.6696 75.7028 36.8021 75.7028 36.9717V45.3161C75.7028 45.4698 75.6498 45.6342 75.5598 45.7879L73.7588 48.7885C73.6741 48.9316 73.5628 49.0483 73.441 49.1172L71.4176 50.2888C71.3382 50.3312 71.2534 50.3577 71.1793 50.3577ZM71.0786 46.933V49.9495C71.0786 50.0237 71.0998 50.082 71.1369 50.1032C71.174 50.1245 71.2322 50.1139 71.3011 50.0767L73.3245 48.9051C73.4092 48.8574 73.494 48.7673 73.5576 48.6613L75.3585 45.6607C75.4274 45.5441 75.4644 45.4221 75.4644 45.3108V36.977C75.4644 36.9028 75.4432 36.8445 75.4062 36.8233C75.3691 36.8021 75.3108 36.8127 75.242 36.8498L71.4176 39.0605C71.2322 39.1665 71.0786 39.4369 71.0786 39.6489V41.2712L71.0256 41.3083C70.5383 41.6582 70.1676 42.4163 70.1676 43.0683V46.3075C70.1676 46.6361 70.2629 46.8906 70.4377 47.0019C70.5648 47.0868 70.7237 47.0868 70.9091 47.0072L71.0786 46.933Z" fill="#16110D"/>
<path d="M74.2354 39.2566C74.1931 39.2566 74.1507 39.246 74.1136 39.2248C74.0289 39.1771 73.9812 39.0764 73.9812 38.9492C73.9812 38.7159 74.1401 38.4455 74.3361 38.3289C74.4473 38.2653 74.5533 38.2547 74.6433 38.3077C74.7281 38.3554 74.7757 38.4561 74.7757 38.5834C74.7757 38.8166 74.6168 39.087 74.4208 39.2036C74.3573 39.2354 74.2937 39.2566 74.2354 39.2566ZM74.5215 38.4349C74.495 38.4349 74.4579 38.4455 74.4208 38.4667C74.2725 38.5516 74.1454 38.7742 74.1454 38.9439C74.1454 39.0128 74.1666 39.0605 74.1984 39.0764C74.2302 39.0976 74.2831 39.087 74.3414 39.0552C74.4897 38.9704 74.6168 38.7477 74.6168 38.5781C74.6168 38.5091 74.5956 38.4614 74.5639 38.4455C74.5533 38.4402 74.5374 38.4349 74.5215 38.4349Z" fill="#ECC550"/>
<path d="M74.2354 42.0876C74.1931 42.0876 74.1507 42.077 74.1136 42.0558C74.0289 42.008 73.9812 41.9073 73.9812 41.7801C73.9812 41.5468 74.1401 41.2765 74.3361 41.1598C74.4473 41.0962 74.5533 41.0856 74.6433 41.1386C74.7281 41.1863 74.7757 41.2871 74.7757 41.4143C74.7757 41.6476 74.6168 41.9179 74.4208 42.0345C74.3573 42.0717 74.2937 42.0876 74.2354 42.0876ZM74.5215 41.2712C74.495 41.2712 74.4579 41.2818 74.4208 41.303C74.2725 41.3878 74.1454 41.6104 74.1454 41.7801C74.1454 41.849 74.1666 41.8967 74.1984 41.9126C74.2302 41.9338 74.2831 41.9232 74.3414 41.8914C74.4897 41.8066 74.6168 41.5839 74.6168 41.4143C74.6168 41.3454 74.5956 41.2977 74.5639 41.2818C74.5533 41.2765 74.5374 41.2712 74.5215 41.2712Z" fill="#ECC550"/>
<path d="M74.2514 44.9026L73.6476 44.5368C73.4304 44.3672 73.0384 44.3459 72.5829 44.7966C72.3445 45.0298 72.175 45.3214 72.085 45.6448C71.9843 46.0212 72.0108 46.334 72.1591 46.5407L72.3339 46.6839L72.9961 47.108L73.155 46.6202L73.2927 46.4241C73.4622 46.2597 73.6105 46.053 73.7164 45.8303L74.2461 45.0775L74.2779 45.0192L74.2514 44.9026Z" fill="#ECC550"/>
<path d="M74.3845 45.5075C74.3845 46.0271 74.019 46.6526 73.5741 46.9124C73.1239 47.1722 72.7637 46.9601 72.7637 46.4459C72.7637 45.9263 73.1239 45.3008 73.5741 45.041C74.0243 44.7812 74.3845 44.988 74.3845 45.5075Z" fill="#16110D"/>
<path d="M73.2133 47.1451C73.1126 47.1451 73.0226 47.1239 72.9431 47.0761C72.7524 46.9648 72.6465 46.7422 72.6465 46.4453C72.6465 45.878 73.0279 45.2154 73.5152 44.9344C73.7694 44.786 74.0184 44.7647 74.2091 44.8761C74.3998 44.9874 74.5057 45.2101 74.5057 45.5069C74.5057 46.0689 74.1243 46.7369 73.6317 47.0178C73.4887 47.1027 73.3457 47.1451 73.2133 47.1451ZM73.9336 45.051C73.8436 45.051 73.7429 45.0828 73.6317 45.1464C73.2185 45.385 72.8795 45.9682 72.8795 46.4453C72.8795 46.652 72.9431 46.8005 73.0543 46.8641C73.1709 46.9277 73.3298 46.9118 73.5046 46.8058C73.9177 46.5672 74.2567 45.9841 74.2567 45.5069C74.2567 45.3002 74.1932 45.1517 74.0819 45.0881C74.0449 45.0616 73.9919 45.051 73.9336 45.051Z" fill="#ECC550"/>
<path d="M67.8322 25.0814C67.3819 25.0814 67.0217 24.7156 67.0217 24.2703V19.9655C67.0217 19.5149 67.3872 19.1544 67.8322 19.1544C68.2824 19.1544 68.6426 19.5202 68.6426 19.9655V24.2703C68.6426 24.7156 68.2771 25.0814 67.8322 25.0814Z" fill="#16110D"/>
<path d="M67.7365 19.1598C67.3339 19.2075 67.0161 19.5468 67.0161 19.9603V24.265C67.0161 24.546 67.1591 24.7951 67.3816 24.9436C67.7842 24.8959 68.102 24.5566 68.102 24.1431V19.8383C68.102 19.5521 67.959 19.3029 67.7365 19.1598Z" fill="#ECC550"/>
<path d="M67.8314 25.2027C67.3176 25.2027 66.8992 24.7839 66.8992 24.2697V19.965C66.8992 19.4507 67.3176 19.0319 67.8314 19.0319C68.3452 19.0319 68.7637 19.4507 68.7637 19.965V24.2697C68.7637 24.7839 68.3452 25.2027 67.8314 25.2027ZM67.8314 19.2705C67.45 19.2705 67.1428 19.578 67.1428 19.9597V24.2644C67.1428 24.6461 67.45 24.9536 67.8314 24.9536C68.2128 24.9536 68.52 24.6461 68.52 24.2644V19.9597C68.52 19.578 68.2128 19.2705 67.8314 19.2705Z" fill="#16110D"/>
<path d="M38.0206 8.42918C37.9782 8.42918 37.9359 8.41857 37.8988 8.39737C37.814 8.34966 37.7664 8.24893 37.7664 8.1217C37.7664 7.88844 37.9253 7.61807 38.1212 7.50144C38.2325 7.43782 38.3384 7.42722 38.4285 7.48023C38.5132 7.52794 38.5609 7.62867 38.5609 7.7559C38.5609 7.98916 38.402 8.25953 38.206 8.37616C38.1371 8.41327 38.0789 8.42918 38.0206 8.42918ZM38.3013 7.61277C38.2749 7.61277 38.2378 7.62337 38.2007 7.64458C38.0524 7.7294 37.9253 7.95205 37.9253 8.1217C37.9253 8.19062 37.9464 8.23833 37.9782 8.25423C38.01 8.27544 38.063 8.26484 38.1212 8.23303C38.2696 8.1482 38.3967 7.92555 38.3967 7.7559C38.3967 7.68699 38.3755 7.63927 38.3437 7.62337C38.3331 7.61807 38.3172 7.61277 38.3013 7.61277Z" fill="#ECC550"/>
<path d="M38.0206 11.1488C37.9782 11.1488 37.9359 11.1382 37.8988 11.117C37.814 11.0693 37.7664 10.9686 37.7664 10.8413C37.7664 10.6081 37.9253 10.3377 38.1212 10.2211C38.2325 10.1574 38.3384 10.1468 38.4285 10.1999C38.5132 10.2476 38.5609 10.3483 38.5609 10.4755C38.5609 10.7088 38.402 10.9792 38.206 11.0958C38.1371 11.1329 38.0789 11.1488 38.0206 11.1488ZM38.3013 10.3324C38.2749 10.3324 38.2378 10.343 38.2007 10.3642C38.0524 10.449 37.9253 10.6717 37.9253 10.8413C37.9253 10.9102 37.9464 10.9579 37.9782 10.9739C38.01 10.9951 38.063 10.9845 38.1212 10.9526C38.2696 10.8678 38.3967 10.6452 38.3967 10.4755C38.3967 10.4066 38.3755 10.3589 38.3437 10.343C38.3331 10.3377 38.3172 10.3324 38.3013 10.3324Z" fill="#ECC550"/>
<path d="M72.61 27.8275C72.1597 27.8275 71.7996 27.4617 71.7996 27.0164V22.7117C71.7996 22.2611 72.165 21.9006 72.61 21.9006C73.0602 21.9006 73.4204 22.2664 73.4204 22.7117V27.0164C73.4204 27.4617 73.0602 27.8275 72.61 27.8275Z" fill="#16110D"/>
<path d="M72.5199 21.9059C72.1174 21.9536 71.7996 22.2929 71.7996 22.7064V27.0111C71.7996 27.2921 71.9426 27.5413 72.165 27.6897C72.5676 27.642 72.8854 27.3027 72.8854 26.8892V22.5845C72.8801 22.2982 72.7371 22.0491 72.5199 21.9059Z" fill="#ECC550"/>
<path d="M72.6092 27.9488C72.0955 27.9488 71.677 27.53 71.677 27.0158V22.7111C71.677 22.1969 72.0955 21.778 72.6092 21.778C73.123 21.778 73.5415 22.1969 73.5415 22.7111V27.0158C73.5415 27.53 73.123 27.9488 72.6092 27.9488ZM72.6092 22.0166C72.2279 22.0166 71.9207 22.3241 71.9207 22.7058V27.0105C71.9207 27.3922 72.2279 27.6997 72.6092 27.6997C72.9906 27.6997 73.2978 27.3922 73.2978 27.0105V22.7058C73.3031 22.3241 72.9906 22.0166 72.6092 22.0166Z" fill="#16110D"/>
<path d="M83.1083 24.3921C83.14 24.2914 83.1453 24.1854 83.1083 24.0794V24.0741V19.3399L81.8953 18.9741C81.8476 18.9317 81.7893 18.8946 81.7311 18.8628L73.9606 14.3726C73.7328 14.24 73.4415 14.1499 73.1237 14.1181L68.3935 13.6198C67.938 13.572 67.4719 13.6569 67.1488 13.8424L66.3542 14.3036L66.0205 14.2029L62.5034 13.6039V18.6508H62.5087C62.4928 18.7939 62.5723 18.9423 62.763 19.0537L77.0804 27.3238C77.43 27.5253 78.0021 27.5253 78.3517 27.3238L82.7269 24.795C82.9229 24.6943 83.0553 24.5459 83.1083 24.3921Z" fill="#ECC550"/>
<path d="M77.7102 27.6148C77.4612 27.6148 77.207 27.5565 77.0163 27.4452L62.6988 19.175C62.5134 19.069 62.4022 18.9153 62.381 18.7562V18.7509C62.381 18.7297 62.3757 18.7085 62.381 18.6873V18.6608V13.6775C62.381 13.5662 62.4764 13.4867 62.5876 13.5026L66.0412 14.091L66.3378 14.1811L67.0846 13.7464C67.4342 13.545 67.9268 13.4549 68.4036 13.5079L73.1337 14.0062C73.4674 14.0433 73.7746 14.1334 74.0236 14.2766L81.7941 18.7668C81.8523 18.7986 81.9053 18.8357 81.953 18.8729L83.2295 19.2546V24.0629C83.2666 24.1848 83.2613 24.3015 83.2295 24.4128V24.4711L83.203 24.4817C83.1289 24.6514 82.9859 24.7998 82.7846 24.9164L78.4094 27.4452C78.2134 27.5565 77.9644 27.6148 77.7102 27.6148ZM62.6194 18.5707L62.63 18.576L62.6194 18.6767C62.6035 18.7774 62.6776 18.8782 62.8154 18.963L77.1328 27.2331C77.4453 27.4134 77.9697 27.4134 78.2822 27.2331L82.6575 24.7044C82.827 24.6036 82.9435 24.4817 82.9859 24.3545C83.0123 24.275 83.0123 24.2007 82.9859 24.1212L82.9806 24.0788V19.4348L81.8153 19.0743C81.7729 19.0372 81.7199 19.0054 81.6669 18.9736L73.8964 14.4833C73.6793 14.3614 73.4091 14.2766 73.1072 14.2448L68.3771 13.7464C67.948 13.704 67.5084 13.7782 67.2012 13.9585L66.359 14.4409L65.9776 14.3243L62.6141 13.7517V18.5707H62.6194Z" fill="#16110D"/>
<path d="M77.0753 22.2928L62.7578 14.0227C62.4082 13.8212 62.4082 13.4926 62.7578 13.2858L67.1436 10.7517C67.472 10.5609 67.9381 10.4814 68.3884 10.5291L73.1185 11.0274C73.4363 11.0592 73.7276 11.1494 73.9554 11.2819L81.7259 15.7721C81.9484 15.8994 82.102 16.069 82.1603 16.244L83.0978 19.0325C83.1879 19.2976 83.0448 19.5732 82.7111 19.7641L78.3359 22.2928C77.9969 22.4943 77.4301 22.4943 77.0753 22.2928Z" fill="#ECC550"/>
<path d="M77.0693 23.3472L62.8843 15.1513C62.5347 14.9498 62.5347 14.6265 62.8843 14.425L67.2277 11.9122C67.5508 11.7266 68.0116 11.6418 68.4619 11.6895L73.1496 12.1825C73.4621 12.2143 73.7535 12.3045 73.9812 12.4317L81.6829 16.8795C81.9054 17.0068 82.0537 17.1711 82.1172 17.3514L83.0495 20.1187C83.1395 20.3837 82.9965 20.6541 82.6681 20.845L78.33 23.3525C77.9804 23.5487 77.4136 23.5487 77.0693 23.3472Z" fill="#FFEECC"/>
<path d="M77.7102 22.5679C77.4612 22.5679 77.207 22.5096 77.0163 22.3983L62.6988 14.1282C62.4923 14.0062 62.3757 13.8419 62.3757 13.6563C62.3757 13.4708 62.4923 13.3064 62.6988 13.1845L67.0847 10.6505C67.4342 10.449 67.9269 10.3589 68.4036 10.4119L73.1337 10.9102C73.4674 10.9473 73.7746 11.0375 74.0236 11.1806L81.7941 15.6709C82.043 15.814 82.2125 16.0048 82.2867 16.2116L83.2242 19.0001C83.3302 19.3182 83.1607 19.6575 82.7846 19.8748L78.4094 22.4036C78.2134 22.5096 77.9644 22.5679 77.7102 22.5679ZM77.1381 22.1862C77.4506 22.3665 77.975 22.3665 78.2875 22.1862L82.6628 19.6575C82.9382 19.4984 83.0653 19.2758 82.9965 19.069L82.0589 16.2805C82.0059 16.1268 81.8735 15.9889 81.6775 15.8723L73.907 11.382C73.6899 11.2601 73.4197 11.1753 73.1178 11.1435L68.3877 10.6452C67.9586 10.6027 67.519 10.677 67.2118 10.8572L62.826 13.3913C62.6988 13.4655 62.6247 13.5609 62.6247 13.651C62.6247 13.7412 62.6988 13.8366 62.826 13.9108L77.1381 22.1862Z" fill="#16110D"/>
<path d="M66.7986 10.9526L82.3661 19.9703L82.721 19.7635C83.0494 19.5727 83.1977 19.297 83.1077 19.0319L82.1701 16.2434C82.1119 16.0632 81.9582 15.8988 81.7358 15.7716L73.9653 11.2813C73.7375 11.1488 73.4462 11.0587 73.1283 11.0269L68.3982 10.5285C67.9427 10.4808 67.4766 10.5656 67.1535 10.7512L66.7986 10.9526Z" fill="#ECC550"/>
<path d="M82.3661 20.1081L66.5549 10.9526L67.0846 10.6451C67.4342 10.4437 67.9268 10.3536 68.4035 10.4066L73.1337 10.9049C73.4727 10.942 73.7746 11.0321 74.0235 11.1753L81.794 15.6655C82.043 15.8087 82.2125 15.9995 82.2867 16.2063L83.2242 18.9948C83.3301 19.3129 83.1606 19.6522 82.7846 19.8695L82.3661 20.1081ZM67.0422 10.9526L82.3661 19.8271L82.6627 19.6575C82.9382 19.4984 83.0653 19.2758 82.9964 19.069L82.0589 16.2805C82.0059 16.1268 81.8735 15.9889 81.6775 15.8723L73.907 11.382C73.6898 11.2601 73.4197 11.1753 73.1178 11.1435L68.3877 10.6451C67.9586 10.6027 67.519 10.677 67.2117 10.8572L67.0422 10.9526Z" fill="#16110D"/>
<path d="M69.2885 12.3999L71.9369 13.932L71.5237 10.8572L69.0713 10.6028L69.2885 12.3999Z" fill="#16110D"/>
<path d="M73.3245 11.0587L73.7959 15.0135L76.4602 16.5562L75.904 12.4052L73.9495 11.276C73.7747 11.1753 73.5575 11.1011 73.3245 11.0587Z" fill="#16110D"/>
<path d="M78.3723 17.6642L81.0472 19.2122L80.4857 15.0559L77.8796 13.5503L78.3723 17.6642Z" fill="#16110D"/>
<path d="M39.4884 42.1147C39.3189 41.9662 39.0594 42.0352 38.8263 42.226L37.6981 43.1272C37.3908 43.3711 37.1896 43.8323 37.2478 44.1504L37.3379 44.6328C37.3803 44.8608 37.4809 45.0198 37.6186 45.1153L38.3443 45.5924L39.6685 44.0974L40.1611 42.5812C40.1664 42.56 40.1611 42.5388 40.1399 42.5282L39.4884 42.1147Z" fill="#ECC550"/>
<path d="M37.4964 44.0067L39.2073 44.9981L39.6682 44.4785L40.1608 42.9623C40.1661 42.9411 40.1608 42.9199 40.1396 42.9093L39.4881 42.4958C39.3186 42.3474 39.059 42.4163 38.826 42.6072L37.6977 43.5084C37.56 43.6197 37.4435 43.7735 37.364 43.9378C37.417 43.9537 37.4594 43.9749 37.4964 44.0067Z" fill="#FFEECC"/>
<path d="M38.3651 45.7455L37.5546 45.2154C37.3798 45.0882 37.2633 44.8973 37.2209 44.6535L37.1309 44.171C37.062 43.8052 37.2792 43.3016 37.6235 43.0312L38.7517 42.13C39.0537 41.8914 39.3609 41.849 39.5622 42.0187L40.2084 42.4269C40.2772 42.4693 40.3037 42.5488 40.2772 42.623L39.7581 44.1816L38.3651 45.7455ZM39.2708 42.1512C39.1543 42.1512 39.0166 42.2254 38.9053 42.3156L37.7771 43.2168C37.507 43.4341 37.3216 43.8476 37.3745 44.1233L37.4646 44.6057C37.4964 44.7913 37.5758 44.9291 37.6977 45.014L38.328 45.4275L39.5675 44.0332L40.0336 42.5965L39.4138 42.2042C39.3715 42.1671 39.3238 42.1512 39.2708 42.1512Z" fill="#16110D"/>
<path d="M39.4564 45.391C38.8155 45.9052 38.1958 45.778 38.074 45.11L37.9839 44.6276C37.9257 44.3095 38.1269 43.8483 38.4341 43.6044L39.6418 42.6395C39.9491 42.3957 40.2457 42.454 40.3039 42.7774L40.394 43.2598C40.5158 43.9225 40.0974 44.882 39.4564 45.391Z" fill="#16110D"/>
<path d="M38.7092 45.8304C38.6138 45.8304 38.5291 45.8145 38.4443 45.7827C38.1901 45.6872 38.0206 45.454 37.957 45.1306L37.867 44.6482C37.7981 44.2824 38.0153 43.7787 38.3596 43.5084L39.5673 42.5435C39.7686 42.3845 39.9804 42.3262 40.1499 42.3898C40.2929 42.4428 40.3883 42.57 40.4254 42.7503L40.5154 43.2327C40.6478 43.9378 40.2082 44.9503 39.5355 45.4858C39.2548 45.7084 38.9634 45.8304 38.7092 45.8304ZM40.0016 42.6071C39.9222 42.6071 39.8215 42.6496 39.7209 42.7291L38.5132 43.6939C38.2431 43.9113 38.0577 44.3248 38.1106 44.6005L38.2007 45.0829C38.2431 45.3267 38.3596 45.4858 38.5344 45.5494C38.7674 45.6395 39.08 45.5441 39.3872 45.2949C39.9963 44.8072 40.3936 43.9007 40.2771 43.2751L40.187 42.7927C40.1764 42.7291 40.1446 42.6443 40.0705 42.6177C40.0493 42.6124 40.0281 42.6071 40.0016 42.6071Z" fill="#16110D"/>
<path d="M40.4257 42.7503C40.3939 42.5753 40.2985 42.4534 40.1608 42.3951L40.1026 42.639C40.1555 42.6761 40.1767 42.7397 40.1873 42.7927L40.2774 43.2751C40.3939 43.9007 39.9913 44.8072 39.3875 45.2949C39.075 45.5441 38.7625 45.6395 38.5347 45.5494C38.4976 45.5388 38.2698 45.3957 38.2434 45.3745L38.1003 45.5706C38.148 45.6024 38.397 45.7562 38.4552 45.7774C38.54 45.8092 38.63 45.8251 38.7201 45.8251C38.9796 45.8251 39.2657 45.7085 39.5464 45.4858C40.2191 44.9504 40.6587 43.9378 40.5263 43.2327L40.4257 42.7503Z" fill="#ECC550"/>
<path d="M25.3135 50.5486L21.5474 48.375C21.4256 48.3061 21.3144 48.3061 21.2349 48.3697L19.3333 49.4777C19.3227 49.483 19.3174 49.5042 19.328 49.5148L23.6927 54.6677L25.5942 53.5703C25.6896 53.5173 25.7479 53.3954 25.7479 53.2204V51.3915C25.7479 51.0575 25.5519 50.6864 25.3135 50.5486Z" fill="#ECC550"/>
<path d="M25.3135 51.1476L21.5474 48.9688C21.4256 48.8998 21.3144 48.8998 21.2349 48.9635L19.3333 50.0714C19.3227 50.0767 19.3174 50.0979 19.328 50.1085L23.5444 54.7154L25.1334 53.7082L25.287 53.6287C25.3824 53.5756 25.7161 53.0243 25.7161 52.8494L25.7479 51.9799C25.7479 51.6619 25.5519 51.2908 25.3135 51.1476Z" fill="#FFEECC"/>
<path d="M23.6671 54.795L23.6088 54.7313L19.2124 49.5413L19.2177 49.4724C19.223 49.4353 19.2442 49.4035 19.276 49.3823L21.1828 48.2743C21.2888 48.1895 21.4424 48.1895 21.596 48.2796L25.3621 50.4584C25.6375 50.6175 25.8494 51.0204 25.8494 51.3809V53.2099C25.8494 53.4166 25.7752 53.5756 25.6428 53.6499L23.6671 54.795ZM19.4667 49.5148L23.7147 54.5299L25.5422 53.4749C25.6057 53.4378 25.6428 53.3424 25.6428 53.2152V51.3862C25.6428 51.1052 25.468 50.7606 25.2614 50.644L21.4954 48.4651C21.4424 48.4333 21.3629 48.4015 21.2994 48.4545L19.4667 49.5148Z" fill="#16110D"/>
<path d="M23.3596 54.6788L19.5935 52.5C19.3552 52.3621 19.1592 51.9857 19.1592 51.6676V49.8387C19.1592 49.5153 19.3552 49.3721 19.5935 49.51L23.3596 51.6888C23.598 51.8267 23.7939 52.2031 23.7939 52.5212V54.3501C23.7939 54.6682 23.598 54.8167 23.3596 54.6788Z" fill="#ECC550"/>
<path d="M23.5339 54.8321C23.4597 54.8321 23.3856 54.8108 23.3061 54.7631L19.54 52.5896C19.2646 52.4305 19.0527 52.0276 19.0527 51.6671V49.8382C19.0527 49.6314 19.1269 49.4724 19.254 49.3981C19.3652 49.3345 19.503 49.3398 19.6407 49.4194L23.4068 51.5982C23.6822 51.7573 23.8941 52.1602 23.8941 52.5207V54.3496C23.8941 54.5564 23.8199 54.7154 23.6928 54.7896C23.6451 54.8161 23.5922 54.8321 23.5339 54.8321ZM19.4182 49.5572C19.397 49.5572 19.3758 49.5625 19.3547 49.5731C19.2911 49.6102 19.254 49.7056 19.254 49.8382V51.6671C19.254 51.9481 19.4288 52.2927 19.6354 52.4093L23.4015 54.5882C23.4491 54.6147 23.5233 54.6465 23.5816 54.6094C23.6451 54.5723 23.6822 54.4769 23.6822 54.3443V52.5154C23.6822 52.2344 23.5074 51.8898 23.2955 51.7732L19.5295 49.5996C19.5083 49.5784 19.4606 49.5572 19.4182 49.5572Z" fill="#16110D"/>
<path d="M21.2405 52.3351C21.2405 52.8016 20.9121 52.9925 20.5095 52.7592C20.107 52.5259 19.7786 51.9587 19.7786 51.4922C19.7786 51.0256 20.107 50.8348 20.5095 51.0681C20.9121 51.3013 21.2405 51.8686 21.2405 52.3351Z" fill="#FFEECC"/>
<path d="M20.7958 52.632C20.6792 52.632 20.5468 52.5949 20.4197 52.5154C19.98 52.2609 19.6357 51.6671 19.6357 51.1582C19.6357 50.8931 19.7311 50.6917 19.9006 50.5963C20.0701 50.4955 20.2926 50.5167 20.5203 50.6493C20.96 50.9037 21.3043 51.4975 21.3043 52.0064C21.3043 52.2715 21.2089 52.473 21.0394 52.5684C20.9653 52.6161 20.8858 52.632 20.7958 52.632ZM20.1442 50.7447C20.0913 50.7447 20.0436 50.7553 20.0065 50.7818C19.9006 50.8401 19.8423 50.978 19.8423 51.1688C19.8423 51.6035 20.1495 52.1284 20.5203 52.3457C20.6845 52.4411 20.8275 52.457 20.9335 52.3987C21.0394 52.3404 21.0977 52.2026 21.0977 52.017C21.0977 51.5823 20.7905 51.0575 20.4197 50.8401C20.319 50.7712 20.2237 50.7447 20.1442 50.7447Z" fill="#16110D"/>
<path d="M20.7901 52.6312C20.6736 52.6312 20.5465 52.5941 20.4141 52.5199C19.9744 52.2654 19.6301 51.6716 19.6301 51.1627C19.6301 50.9401 19.699 50.7598 19.8261 50.6485C19.9373 50.5584 20.0751 50.5212 20.234 50.5477L20.3452 50.6114L20.3187 50.6856C20.2922 50.7545 20.2816 50.8287 20.2816 50.9029C20.2816 51.3377 20.5889 51.8625 20.9596 52.0798C21.0285 52.1223 21.0974 52.1435 21.1715 52.1594L21.2722 52.1753L21.2563 52.2972C21.198 52.4509 21.0974 52.5517 20.9649 52.6047C20.9067 52.6206 20.8484 52.6312 20.7901 52.6312ZM20.0857 50.7492C20.038 50.7598 20.0009 50.7757 19.9638 50.8075C19.8844 50.8764 19.842 51.0037 19.842 51.1627C19.842 51.5974 20.1492 52.1223 20.52 52.3396C20.6577 52.4191 20.7901 52.4456 20.8908 52.4085C20.9332 52.3926 20.9702 52.3661 21.002 52.329C20.9543 52.3131 20.9067 52.2919 20.859 52.2601C20.4194 52.0056 20.0751 51.4119 20.0751 50.9029C20.0751 50.8499 20.0804 50.7969 20.0857 50.7492Z" fill="#16110D"/>
<path d="M23.1734 53.4484C23.1734 53.9149 22.845 54.1058 22.4424 53.8725C22.0398 53.6393 21.7114 53.072 21.7114 52.6055C21.7114 52.139 22.0398 51.9481 22.4424 52.1814C22.845 52.4146 23.1734 52.9819 23.1734 53.4484Z" fill="#FFEECC"/>
<path d="M22.7342 53.7506C22.6177 53.7506 22.4853 53.7135 22.3582 53.634C21.9185 53.3795 21.5742 52.7858 21.5742 52.2768C21.5742 52.0118 21.6696 51.8103 21.8391 51.7149C22.0086 51.6142 22.231 51.6354 22.4588 51.7679C22.8984 52.0224 23.2427 52.6161 23.2427 53.125C23.2427 53.3901 23.1474 53.5916 22.9779 53.687C22.8984 53.7294 22.819 53.7506 22.7342 53.7506ZM22.0774 51.858C22.0245 51.858 21.9768 51.8686 21.9397 51.8951C21.8338 51.9534 21.7755 52.0913 21.7755 52.2768C21.7755 52.7115 22.0827 53.2364 22.4535 53.4537C22.6124 53.5492 22.7607 53.5651 22.8667 53.5067C22.9726 53.4484 23.0309 53.3106 23.0309 53.1197C23.0309 52.685 22.7236 52.1602 22.3529 51.9428C22.2522 51.8845 22.1622 51.858 22.0774 51.858Z" fill="#16110D"/>
<path d="M22.7286 53.7458C22.6121 53.7458 22.485 53.7087 22.3525 53.6345C21.9129 53.38 21.5686 52.7863 21.5686 52.2774C21.5686 52.0547 21.6375 51.8745 21.7646 51.7631C21.8705 51.673 22.0135 51.6359 22.1724 51.6624L22.2837 51.7154L22.2519 51.8055C22.2254 51.8745 22.2148 51.9487 22.2148 52.0229C22.2148 52.4576 22.522 52.9824 22.8928 53.1998C22.9617 53.2422 23.0305 53.2634 23.1047 53.2793L23.1789 53.2899L23.1841 53.4172C23.1259 53.5709 23.0252 53.6716 22.8928 53.7246C22.8451 53.7352 22.7869 53.7458 22.7286 53.7458ZM22.0241 51.8639C21.9765 51.8745 21.9394 51.8904 21.9023 51.9222C21.8229 51.9911 21.7752 52.1183 21.7752 52.2774C21.7752 52.7121 22.0824 53.2369 22.4532 53.4543C22.5909 53.5338 22.7233 53.5603 22.824 53.5232C22.8663 53.5073 22.9034 53.4808 22.9352 53.4437C22.8875 53.4278 22.8399 53.4066 22.7922 53.3747C22.3525 53.1203 22.0082 52.5265 22.0082 52.0176C22.0082 51.9646 22.0135 51.9169 22.0241 51.8639Z" fill="#16110D"/>
<path d="M23.6929 52.2026L25.6421 51.0999L25.7481 51.6512V53.4166L23.7935 54.6041L23.7882 52.4252L23.6929 52.2026Z" fill="#16110D"/>
<path d="M37.878 57.891L34.1119 55.7174C33.9901 55.6485 33.8788 55.6485 33.7994 55.7121L31.8978 56.8201C31.8872 56.8254 31.8819 56.8466 31.8925 56.8572L36.2571 62.0101L38.1587 60.9128C38.254 60.8597 38.3123 60.7378 38.3123 60.5629V58.7339C38.3123 58.3999 38.1163 58.0288 37.878 57.891Z" fill="#ECC550"/>
<path d="M37.878 58.49L34.1119 56.3111C33.9901 56.2422 33.8788 56.2422 33.7994 56.3058L31.8978 57.4138C31.8872 57.4191 31.8819 57.4403 31.8925 57.4509L36.1088 62.0578L37.6979 61.0506L37.8515 60.971C37.9468 60.918 38.2805 60.3667 38.2805 60.1917L38.3123 59.3223C38.3123 59.0042 38.1163 58.6331 37.878 58.49Z" fill="#FFEECC"/>
<path d="M36.2313 62.1374L36.173 62.0737L31.7766 56.8837L31.7819 56.8148C31.7872 56.7777 31.8084 56.7459 31.8402 56.7247L33.747 55.6167C33.853 55.5319 34.0066 55.5319 34.1602 55.622L37.9263 57.8008C38.2017 57.9599 38.4136 58.3628 38.4136 58.7233V60.5523C38.4136 60.759 38.3394 60.9181 38.207 60.9923L36.2313 62.1374ZM32.0309 56.8572L36.279 61.8723L38.1064 60.8173C38.1699 60.7802 38.207 60.6848 38.207 60.5576V58.7286C38.207 58.4476 38.0322 58.103 37.8256 57.9864L34.0596 55.8075C34.0066 55.7757 33.9271 55.7492 33.8636 55.7969L32.0309 56.8572Z" fill="#16110D"/>
<path d="M35.9238 62.0212L32.1577 59.8424C31.9194 59.7045 31.7234 59.3281 31.7234 59.01V57.1811C31.7234 56.8577 31.9194 56.7146 32.1577 56.8524L35.9238 59.0312C36.1622 59.1691 36.3582 59.5455 36.3582 59.8636V61.6925C36.3582 62.0106 36.1622 62.1591 35.9238 62.0212Z" fill="#ECC550"/>
<path d="M36.0981 62.1745C36.0239 62.1745 35.9498 62.1533 35.8703 62.1056L32.1043 59.932C31.8288 59.773 31.6169 59.3701 31.6169 59.0096V57.1806C31.6169 56.9738 31.6911 56.8148 31.8182 56.7406C31.9295 56.677 32.0672 56.6823 32.2049 56.7618L35.971 58.9354C36.2464 59.0944 36.4583 59.4973 36.4583 59.8578V61.6868C36.4583 61.8935 36.3841 62.0526 36.257 62.1268C36.2093 62.1586 36.1511 62.1745 36.0981 62.1745ZM31.9824 56.8996C31.9612 56.8996 31.9401 56.9049 31.9189 56.9155C31.8553 56.9526 31.8182 57.0481 31.8182 57.1806V59.0096C31.8182 59.2905 31.993 59.6351 32.1996 59.7518L35.9657 61.9306C36.0134 61.9571 36.0875 61.9889 36.1458 61.9518C36.2093 61.9147 36.2464 61.8193 36.2464 61.6868V59.8578C36.2464 59.5768 36.0716 59.2322 35.8597 59.1156L32.0937 56.942C32.0725 56.9208 32.0248 56.8996 31.9824 56.8996Z" fill="#16110D"/>
<path d="M33.8047 59.6775C33.8047 60.1441 33.4763 60.3349 33.0737 60.1017C32.6712 59.8684 32.3428 59.3011 32.3428 58.8346C32.3428 58.3681 32.6712 58.1773 33.0737 58.4105C33.4763 58.6438 33.8047 59.211 33.8047 59.6775Z" fill="#FFEECC"/>
<path d="M33.36 59.9744C33.2434 59.9744 33.111 59.9373 32.9839 59.8578C32.5442 59.6033 32.2 59.0096 32.2 58.5006C32.2 58.2356 32.2953 58.0341 32.4648 57.9387C32.6343 57.838 32.8568 57.8592 33.0845 57.9917C33.5242 58.2462 33.8685 58.8399 33.8685 59.3489C33.8685 59.6139 33.7731 59.8154 33.6036 59.9108C33.5295 59.9532 33.4447 59.9744 33.36 59.9744ZM32.7085 58.0871C32.6555 58.0871 32.6078 58.0977 32.5707 58.1242C32.4648 58.1826 32.4065 58.3204 32.4065 58.5059C32.4065 58.9407 32.7137 59.4655 33.0845 59.6828C33.2487 59.7783 33.3917 59.7942 33.4977 59.7359C33.6036 59.6775 33.6619 59.5397 33.6619 59.3542C33.6619 58.9194 33.3547 58.3946 32.9839 58.1773C32.8832 58.1136 32.7879 58.0871 32.7085 58.0871Z" fill="#16110D"/>
<path d="M33.3544 59.9736C33.2378 59.9736 33.1107 59.9365 32.9783 59.8623C32.5386 59.6078 32.1943 59.0141 32.1943 58.5051C32.1943 58.2825 32.2632 58.1022 32.3903 57.9909C32.4963 57.9008 32.6393 57.8637 32.7982 57.8902L32.9041 57.9538L32.8776 58.028C32.8512 58.0969 32.8406 58.1658 32.8406 58.2454C32.8406 58.6801 33.1478 59.2049 33.5186 59.4223C33.5874 59.4647 33.6563 59.4859 33.7304 59.5018L33.8311 59.5177L33.8152 59.6396C33.7569 59.7934 33.6563 59.8941 33.5239 59.9471C33.4709 59.963 33.4126 59.9736 33.3544 59.9736ZM32.6499 58.0916C32.6022 58.1022 32.5651 58.1181 32.528 58.1499C32.4486 58.2189 32.4009 58.3461 32.4009 58.5051C32.4009 58.9398 32.7081 59.4647 33.0789 59.682C33.2166 59.7616 33.3491 59.7881 33.4497 59.751C33.4921 59.7351 33.5292 59.7085 33.5609 59.6714C33.5133 59.6555 33.4656 59.6343 33.4179 59.6025C32.9783 59.3481 32.634 58.7543 32.634 58.2454C32.6393 58.1924 32.6393 58.1393 32.6499 58.0916Z" fill="#16110D"/>
<path d="M35.7381 60.7908C35.7381 61.2573 35.4097 61.4482 35.0071 61.2149C34.6045 60.9817 34.2761 60.4144 34.2761 59.9479C34.2761 59.4814 34.6045 59.2905 35.0071 59.5238C35.4097 59.7571 35.7381 60.3243 35.7381 60.7908Z" fill="#FFEECC"/>
<path d="M35.2931 61.093C35.1765 61.093 35.0441 61.0559 34.917 60.9764C34.4774 60.7219 34.1331 60.1282 34.1331 59.6192C34.1331 59.3542 34.2284 59.1527 34.3979 59.0573C34.5674 58.9566 34.7899 58.9778 35.0176 59.1103C35.4573 59.3648 35.8016 59.9585 35.8016 60.4674C35.8016 60.7325 35.7062 60.934 35.5367 61.0294C35.4626 61.0718 35.3831 61.093 35.2931 61.093ZM34.6416 59.2004C34.5886 59.2004 34.5409 59.211 34.5038 59.2375C34.3979 59.2958 34.3396 59.4337 34.3396 59.6192C34.3396 60.0539 34.6469 60.5788 35.0176 60.7961C35.1765 60.8916 35.3249 60.9075 35.4308 60.8491C35.5367 60.7908 35.595 60.653 35.595 60.4621C35.595 60.0274 35.2878 59.5026 34.917 59.2852C34.8164 59.2269 34.7263 59.2004 34.6416 59.2004Z" fill="#16110D"/>
<path d="M35.2931 61.0882C35.1765 61.0882 35.0494 61.0511 34.917 60.9769C34.4774 60.7224 34.1331 60.1287 34.1331 59.6198C34.1331 59.3971 34.2019 59.2169 34.329 59.1055C34.4403 59.0154 34.578 58.9783 34.7369 59.0048L34.8481 59.0578L34.8164 59.1479C34.7899 59.2169 34.7793 59.2911 34.7793 59.3653C34.7793 59.8 35.0865 60.3248 35.4573 60.5422C35.5261 60.5846 35.595 60.6058 35.6691 60.6217L35.7433 60.6323L35.7486 60.7596C35.6903 60.9133 35.5897 61.014 35.4573 61.067C35.4043 61.0776 35.3513 61.0882 35.2931 61.0882ZM34.5886 59.2063C34.5409 59.2169 34.5038 59.2328 34.4668 59.2646C34.3873 59.3335 34.3396 59.4607 34.3396 59.6198C34.3396 60.0545 34.6469 60.5793 35.0176 60.7967C35.1554 60.8762 35.2878 60.9027 35.3884 60.8656C35.4308 60.8497 35.4679 60.8232 35.4996 60.7861C35.452 60.7702 35.4043 60.749 35.3566 60.7171C34.917 60.4627 34.5727 59.8689 34.5727 59.36C34.5727 59.307 34.578 59.2593 34.5886 59.2063Z" fill="#16110D"/>
<path d="M36.2571 59.545L38.2063 58.4423L38.3123 58.9936V60.759L36.3577 61.9465L36.3524 59.7676L36.2571 59.545Z" fill="#16110D"/>
<path d="M58.3615 21.2803C58.3668 21.2697 58.3721 21.2591 58.3773 21.2485C58.5839 20.4639 58.0648 19.6475 58.0648 19.6475L56.0149 19.4885L55.8666 19.4037C55.4959 19.075 54.1028 17.8928 53.6896 18.3487C53.3082 18.7728 53.2659 19.5521 53.2659 19.8384C53.2659 19.8437 53.2712 19.9497 53.2712 19.9497C53.2924 20.1034 53.393 20.2466 53.5784 20.3526L56.1103 21.8158C56.5817 22.0862 57.3974 22.0543 57.943 21.7416C58.1178 21.6408 58.2396 21.5189 58.3138 21.397C58.3191 21.3917 58.3191 21.3864 58.3244 21.3811C58.3403 21.3387 58.3509 21.3069 58.3615 21.2803Z" fill="#ECC550"/>
<path d="M56.9094 22.112C56.5916 22.112 56.2844 22.0431 56.0513 21.9106L53.5194 20.4474C53.2492 20.2884 53.1698 20.0922 53.1486 19.9544C53.1486 19.9438 53.1433 19.8219 53.1433 19.8165C53.1433 19.5038 53.1963 18.7033 53.5988 18.2579C54.0491 17.7596 55.2621 18.698 55.9454 19.3076L56.0513 19.3659L58.133 19.5303L58.1648 19.5833C58.1859 19.6204 58.7103 20.4527 58.4879 21.2797L58.472 21.3221C58.4614 21.3592 58.4455 21.3964 58.4243 21.4282L58.4084 21.4547C58.3237 21.5978 58.1859 21.7303 58.0006 21.8364C57.688 22.0166 57.2908 22.112 56.9094 22.112ZM53.9537 18.3587C53.8796 18.3587 53.8213 18.3799 53.7842 18.4223C53.424 18.8199 53.3923 19.5992 53.3923 19.8325L53.3976 19.9385C53.4134 20.0498 53.4982 20.1558 53.6465 20.2407L56.1784 21.7038C56.6128 21.953 57.3808 21.9212 57.8893 21.6296C58.0376 21.5448 58.1489 21.4441 58.2124 21.3274C58.2336 21.2903 58.2442 21.2691 58.2495 21.2426L58.2654 21.2108C58.4296 20.5959 58.1012 19.9438 58.0006 19.7635L55.9666 19.5939L55.8182 19.5091C54.9919 18.7828 54.2927 18.3587 53.9537 18.3587Z" fill="#16110D"/>
<path d="M56.0782 20.3155L53.8588 19.0325C53.4456 18.794 53.4986 18.3805 53.9753 18.1048C54.452 17.8291 55.1671 17.8026 55.5803 18.0359L57.7997 19.3188C58.2128 19.5574 58.1599 19.9709 57.6831 20.2466C57.2064 20.5275 56.486 20.554 56.0782 20.3155Z" fill="#ECC550"/>
<path d="M56.157 20.9245L53.9376 19.6416C53.5245 19.403 53.5775 18.9895 54.0542 18.7138C54.5309 18.4382 55.246 18.4117 55.6591 18.6449L57.8785 19.9279C58.2917 20.1664 58.2387 20.5799 57.762 20.8556C57.2853 21.1313 56.5649 21.1631 56.157 20.9245Z" fill="#FFEECC"/>
<path d="M56.7768 20.6011C56.496 20.6011 56.2259 20.5428 56.0193 20.4209L53.7999 19.138C53.5828 19.0107 53.4609 18.8305 53.4609 18.629C53.4609 18.3958 53.6251 18.1678 53.9165 17.9982C54.4356 17.7013 55.193 17.6695 55.6433 17.9293L57.8626 19.2122C58.0798 19.3394 58.2016 19.5197 58.2016 19.7211C58.2016 19.9544 58.0374 20.1823 57.7461 20.352C57.4601 20.5163 57.1105 20.6011 56.7768 20.6011ZM54.8805 18.0035C54.5839 18.0035 54.2714 18.0724 54.033 18.2102C53.8211 18.3322 53.6993 18.4859 53.6993 18.629C53.6993 18.7722 53.8158 18.8676 53.9165 18.9259L56.1359 20.2088C56.5066 20.4209 57.1846 20.3944 57.619 20.1399C57.8309 20.018 57.9527 19.8643 57.9527 19.7211C57.9527 19.578 57.8362 19.4826 57.7355 19.4242L55.5161 18.1413C55.3519 18.0512 55.1242 18.0035 54.8805 18.0035Z" fill="#16110D"/>
<path d="M55.9824 20.3997C55.9824 20.3997 56.4803 20.6647 56.5014 21.0677C56.5226 21.5236 55.9135 21.5448 55.5268 21.3221C55.1402 21.0995 55.8446 21.6455 55.8446 21.6455L56.7928 21.9477L57.8892 21.7515L58.1964 21.4387L58.4136 21.0146L58.2547 19.9968L58.1223 19.8536L57.4602 20.3414L56.6921 20.4474L55.9824 20.3997Z" fill="#16110D"/>
<path d="M71.3487 23.061L69.4366 21.953C69.1188 21.7727 68.8645 21.2797 68.8645 20.8556C68.8645 20.4315 69.1188 20.2406 69.4366 20.4209L71.3487 21.5289C71.6665 21.7144 71.9208 22.2021 71.9208 22.6263C71.9208 23.0504 71.6613 23.2465 71.3487 23.061Z" fill="#FFEECC"/>
<path d="M71.2799 22.5414C71.1898 22.5414 71.0892 22.5149 70.9938 22.4566L69.0817 21.3486C68.7268 21.1419 68.446 20.617 68.446 20.1452C68.446 19.8801 68.5414 19.6734 68.7056 19.578C68.8486 19.4931 69.0234 19.5038 69.2035 19.6098L71.1157 20.7178C71.4706 20.9245 71.7513 21.4494 71.7513 21.9212C71.7513 22.1862 71.656 22.393 71.4917 22.4884C71.4229 22.5255 71.354 22.5414 71.2799 22.5414ZM68.9122 19.7688C68.8804 19.7688 68.8539 19.7741 68.8274 19.79C68.7427 19.8377 68.6897 19.9756 68.6897 20.1505C68.6897 20.5269 68.9228 20.9828 69.2035 21.1419L71.1157 22.2499C71.1845 22.2923 71.2852 22.3294 71.3699 22.2817C71.4547 22.234 71.5076 22.0961 71.5076 21.9212C71.5076 21.5448 71.2746 21.0942 70.9938 20.9298L69.0817 19.8218C69.034 19.7953 68.9704 19.7688 68.9122 19.7688Z" fill="#16110D"/>
<path d="M75.4697 36.9665V41.3507L75.7134 41.1174V36.9665C75.7134 36.871 75.6869 36.7862 75.6498 36.7173L75.4539 36.8657C75.4592 36.8922 75.4697 36.9241 75.4697 36.9665Z" fill="#ECC550"/>
<path d="M77.7102 22.4407V27.4929L78.3458 27.3392L82.721 24.8104L83.1077 24.3916V19.4666L78.2452 22.2658L77.7102 22.4407Z" fill="#16110D"/>
<path d="M39.0432 58.9884V61.0347L39.5888 61.0877L40.2562 60.881L39.8272 59.9267L39.6524 58.9301L39.0432 58.9884Z" fill="#16110D"/>
<path d="M46.3951 52.5631L46.3157 52.4252L50.6485 49.8541L50.7333 49.9919L46.3951 52.5631Z" fill="#ECC550"/>
<path d="M62.7519 45.1942L61.4859 44.4626C61.2794 44.3406 61.1099 44.0173 61.1099 43.7416C61.1099 43.4606 61.2794 43.3334 61.4859 43.4553L62.7519 44.1869C62.9585 44.3088 63.128 44.6322 63.128 44.9079C63.1333 45.1889 62.9638 45.3161 62.7519 45.1942Z" fill="#FFEECC"/>
<path d="M62.6883 44.8125C62.6194 44.8125 62.5506 44.7913 62.4764 44.7489L61.2158 44.0173C60.9721 43.8741 60.7761 43.5083 60.7761 43.1902C60.7761 42.9994 60.845 42.851 60.9668 42.7767C61.0727 42.7131 61.2052 42.7237 61.3376 42.7979L62.5982 43.5295C62.8419 43.6727 63.0379 44.0385 63.0379 44.3566C63.0379 44.5474 62.969 44.6958 62.8472 44.7701C62.7995 44.7966 62.7466 44.8125 62.6883 44.8125ZM62.5982 44.5368C62.63 44.5527 62.683 44.5792 62.7254 44.558C62.7572 44.5368 62.7942 44.4732 62.7942 44.3566C62.7942 44.1233 62.6512 43.837 62.4764 43.7363L61.2158 43.0047C61.184 42.9888 61.131 42.9623 61.0886 42.9835C61.0569 43.0047 61.0198 43.0683 61.0198 43.1849C61.0198 43.4182 61.1628 43.7045 61.3376 43.8052L62.5982 44.5368Z" fill="#16110D"/>
<path d="M31.5164 48.5023L47.5765 39.3415V21.8576L31.5164 31.0183V48.5023Z" fill="#16110D"/>
<path d="M16.1666 3.90767L47.5823 21.8316L31.5169 30.9977L0.106445 13.0737L16.1666 3.90767Z" fill="#ECC550"/>
<path d="M47.5818 21.725L47.6824 21.8099V39.1559V39.3945V40.6244L45.5266 41.8543L44.5043 41.2076L34.0694 47.1663L33.6086 48.6613L31.6223 49.7958L31.4104 49.7693V48.6825V48.4439V30.9547L47.3752 21.8417L47.5818 21.725ZM31.6223 48.322L31.7494 48.2478L34.7527 46.5354V45.9364L36.8185 44.7595V45.3585L42.269 42.2466V41.6476L44.3348 40.4707V41.0697L47.4652 39.2832V22.0378L31.6223 31.0767V48.322Z" fill="#16110D"/>
<path d="M16.1767 4.41075L47.2111 22.1226L31.3522 31.1562L0.32312 13.4549L16.1767 4.41075ZM31.5164 29.5711L45.2671 21.8841L16.1767 5.27487L2.48425 13.0891L31.5164 29.5711Z" fill="#FFEECC"/>
<path d="M0.105938 12.9513L31.5694 30.9017L31.6223 30.9335V48.4174V48.656V49.7905L31.5376 49.8382L29.4241 48.6348L28.9633 47.1398L3.14634 32.4073L2.15583 33.07L0 31.8454V30.6154V30.3769V13.0149L0.105938 12.9513ZM2.35711 32.6459L2.92917 32.2854L2.61136 32.1051L2.59017 32.1528L2.35711 32.6459Z" fill="#16110D"/>
<path d="M29.9168 31.4053L29.9697 31.4371V46.228L28.3595 45.3161L28.3065 45.2843L27.2154 44.6641L27.1783 44.6429L25.8117 43.8689L25.7269 43.8265L24.5987 43.1797L23.2427 42.411L23.1474 42.3686L22.0191 41.7165L20.6737 40.9531L20.5731 40.9107L19.4448 40.2533L18.11 39.4952L17.9988 39.4528L16.8706 38.7901L15.4934 38.0108L15.4192 37.9684L15.2921 37.8995L14.291 37.3429V37.3323L12.9456 36.5689L12.8396 36.5265L11.7114 35.8691L10.3766 35.111L10.2654 35.0686L9.13713 34.4059L7.81291 33.6531L7.69108 33.6107L6.56284 32.9427L5.24392 32.1952L5.1115 32.1528L3.98326 31.4796L2.55311 30.6684H2.53192V30.6578L1.45666 30.0482L1.40369 30.0164V30.0005V15.4111V15.2043L29.9168 31.4053ZM15.4086 37.7087L15.4192 37.714V23.4056L14.5029 22.886V37.1944L15.4086 37.7087ZM28.3118 30.7321L27.3955 30.2125V44.5209L28.3118 45.0299V30.7321ZM27.1836 30.0906L25.9441 29.3855V43.6515L27.1836 43.6621V30.0906ZM25.7322 43.572V29.2689L24.8159 28.7494V43.0578L25.7322 43.572ZM24.6093 28.6274L23.3645 27.9223V42.1936L24.604 42.2042V28.6274H24.6093ZM23.1527 42.1088V27.8004L22.2363 27.2809V41.5893L23.1527 42.1088ZM22.0403 27.1695L20.785 26.4592V40.7411L22.0244 40.7517V27.1695H22.0403ZM20.5731 40.6456V26.3372L19.6567 25.8177V40.1261L20.5731 40.6456ZM19.4713 25.7117L18.2054 24.9907V39.2779L19.4448 39.2885V25.7117H19.4713ZM17.9988 39.1825V24.874L17.0824 24.3545V38.6629L17.9988 39.1825ZM16.9076 24.2538L15.6311 23.5275V37.7882L16.8706 37.7988V24.2538H16.9076ZM14.291 22.7694L13.0515 22.0643V36.3462L14.291 36.3568V22.7694ZM12.8396 36.2508V21.9424L11.9233 21.4229V35.7313L12.8396 36.2508ZM11.7379 21.3168L10.4719 20.5958V34.883L11.7114 34.8936V21.3168H11.7379ZM10.2654 34.7876V20.4792L9.349 19.9597V34.2681L10.2654 34.7876ZM9.13713 19.8377L7.89766 19.1327V33.4252L9.13713 33.4358V19.8377ZM7.68578 33.3244V19.016L6.76942 18.4965V32.8049L7.68578 33.3244ZM6.55755 18.3746L5.31808 17.6695V31.9673L6.55755 31.9779V18.3746ZM5.1062 31.856V17.5476L4.18984 17.028V31.3364L5.1062 31.856ZM3.97797 16.9114L2.7385 16.2063V30.4405L3.97797 30.4511V16.9114ZM2.52662 30.361V16.0844L1.61026 15.5648V29.852L2.52662 30.361ZM28.5237 30.8487V45.0988L29.7632 45.1094V31.5538L28.5237 30.8487Z" fill="#ECC550"/>
<path d="M41.3368 19.8272L40.4046 19.2917L27.0776 26.8091L28.0099 27.3392L41.3368 19.8272Z" fill="#FFEECC"/>
<path d="M43.6623 21.179L42.73 20.6489L29.4031 28.1662L30.33 28.6964L43.6623 21.179Z" fill="#FFEECC"/>
<path d="M38.9004 18.4541L37.9681 17.9187L24.6465 25.4413L25.5734 25.9715L38.9004 18.4541Z" fill="#FFEECC"/>
<path d="M36.5219 17.044L35.5896 16.5138L22.2627 24.0312L23.1896 24.5613L36.5219 17.044Z" fill="#FFEECC"/>
<path d="M34.1806 15.6762L33.2483 15.1408L19.9214 22.6581L20.8536 23.1882L34.1806 15.6762Z" fill="#FFEECC"/>
<path d="M31.7494 14.3031L30.8172 13.773L17.4902 21.2903L18.4172 21.8205L31.7494 14.3031Z" fill="#FFEECC"/>
<path d="M29.3659 12.8983L28.4336 12.3628L15.1067 19.8802L16.0336 20.4103L29.3659 12.8983Z" fill="#FFEECC"/>
<path d="M26.9134 11.5676L25.9812 11.0322L12.6595 18.5496L13.5865 19.0797L26.9134 11.5676Z" fill="#FFEECC"/>
<path d="M24.5352 10.1575L23.6029 9.62204L10.276 17.1447L11.203 17.6748L24.5352 10.1575Z" fill="#FFEECC"/>
<path d="M22.0456 8.78971L21.1133 8.25427L7.78638 15.7716L8.71333 16.3018L22.0456 8.78971Z" fill="#FFEECC"/>
<path d="M19.6089 7.41665L18.6767 6.88121L5.34973 14.4039L6.27668 14.9287L19.6089 7.41665Z" fill="#FFEECC"/>
<path d="M17.2254 6.00649L16.2931 5.47635L2.96619 12.9937L3.89844 13.5238L17.2254 6.00649Z" fill="#FFEECC"/>
<path d="M31.5164 31.119L31.5694 31.0872L47.6719 21.9L47.5765 21.7303L16.1661 3.79048L16.1131 3.82229L0 13.0149V13.1368L31.5164 31.119ZM47.37 21.831L31.5164 30.8752L0.317813 13.0732L16.1661 4.02904L47.37 21.831Z" fill="#16110D"/>
<path d="M2.48425 13.0891L2.64316 12.999L16.1767 5.27488L16.2296 5.24307L21.0816 8.02629L21.0975 8.01569L22.4535 8.78969L22.4323 8.80029L23.497 9.40995L23.5393 9.38874L24.8953 10.1627L24.853 10.1839L25.9176 10.7936L25.9547 10.783L27.3107 11.557L27.2789 11.5782L33.1426 14.9393L33.1479 14.934L34.5039 15.708L34.4986 15.7133L45.2724 21.8894L31.723 29.5021L31.5376 29.6082L31.4846 29.64L2.48425 13.0891ZM44.2236 22.2234L43.5668 21.2585L30.4994 28.8342L31.4899 29.3961L44.2236 22.2234ZM33.1373 15.1778L19.7733 22.7164L20.7002 23.2465L34.0642 15.7133L33.1373 15.1778ZM25.9176 11.0375L12.543 18.5866L13.47 19.1168L26.8499 11.5729L25.9176 11.0375ZM25.1708 11.2071L24.6464 10.3165H24.6411L11.2612 17.855L12.3311 18.4647L12.3523 18.4541L12.347 18.4435L25.1708 11.2071ZM23.5023 9.65381L10.1171 17.203L11.044 17.7331L24.4292 10.1839L23.5023 9.65381ZM22.7289 9.82876L22.2045 8.93283L8.83521 16.4714L9.90518 17.081H9.91047L9.90518 17.0704L22.7289 9.82876ZM21.0816 8.27016L7.69638 15.8246L8.62333 16.3547L22.0138 8.80029L21.0816 8.27016ZM5.281 14.4463L6.20796 14.9764L19.5932 7.43254L18.6609 6.8971L5.281 14.4463ZM17.8505 7.10385L17.3261 6.20792L4.00446 13.7147L5.05853 14.319L17.8505 7.10385ZM17.1513 6.06478L16.2191 5.52935L2.908 13.0891L3.79258 13.5927L17.1513 6.06478ZM6.41983 15.093L7.47391 15.6974L20.2871 8.46631L19.7627 7.57037L6.41983 15.093ZM17.3526 21.3327L18.2795 21.8629L31.6383 14.3349L30.706 13.7995L17.3526 21.3327ZM29.8903 14.0062L29.3659 13.1103L16.0707 20.6064L17.1301 21.2055L29.8903 14.0062ZM29.1964 12.9672L28.2641 12.4317L27.8616 12.6597L27.8669 12.6703L14.9478 19.9597L15.8642 20.4792L29.1964 12.9672ZM27.5756 12.5802L27.0565 11.6948L13.6818 19.2387L14.7253 19.8324L27.5756 12.5802ZM18.4914 21.9848L19.5455 22.5892L32.3321 15.374L31.8078 14.4781L18.4914 21.9848ZM42.1367 20.9775L29.4189 28.2139L30.2928 28.7122L43.3973 21.1207L42.6399 20.6966L42.1367 20.9775ZM41.9248 20.8556L41.4428 20.0021L28.1529 27.4929L29.1487 28.0602L41.9248 20.8556ZM41.268 19.859L40.3357 19.3235L27.0088 26.8409L27.9357 27.371L41.268 19.859ZM39.5253 19.5303L39.0009 18.6343L25.7375 26.1146L26.7916 26.7189L39.5253 19.5303ZM38.8261 18.4965L37.8939 17.9611L24.5828 25.4572L25.5257 25.9926L38.8261 18.4965ZM37.1576 18.1201L36.6332 17.2242L23.3169 24.7362L24.3709 25.3406L37.1576 18.1201ZM36.4637 17.081L35.5315 16.5456L35.06 16.8107L35.0653 16.816L22.1833 24.0894L23.105 24.6143L36.4637 17.081ZM34.7687 16.7364L34.2496 15.8458L20.9174 23.3632L21.9662 23.9622L34.7687 16.7364Z" fill="#16110D"/>
<path d="M32.5652 46.6415L46.5278 38.6735V23.5805L32.5652 31.5485V46.6415ZM46.2629 38.5251L32.83 46.1908V31.6969L46.2682 24.0311V38.5251H46.2629Z" fill="#ECC550"/>
<path d="M39.6524 42.4481H39.9119L39.8854 27.6785H39.6206L39.6524 42.4481Z" fill="#ECC550"/>
<path d="M42.6346 34.8194L42.6558 34.8088C42.587 34.9095 42.5393 35.0315 42.5393 35.1428C42.5393 35.3336 42.6717 35.4079 42.8412 35.3124L43.5351 34.9148C43.6993 34.8194 43.837 34.5915 43.837 34.4006C43.837 34.2893 43.7894 34.2257 43.7205 34.2045L43.7417 34.1938C44.0065 34.0454 44.2184 34.1673 44.2184 34.4695C44.2184 34.7717 44.0065 35.1375 43.7417 35.2912L42.6399 35.9221C42.3751 36.0705 42.1632 35.9486 42.1632 35.6464C42.1526 35.3336 42.3698 34.9679 42.6346 34.8194Z" fill="#ECC550"/>
<path d="M35.5737 38.8432L35.5949 38.8326C35.526 38.9333 35.4784 39.0552 35.4784 39.1665C35.4784 39.3574 35.6108 39.4316 35.7803 39.3362L36.4742 38.9386C36.6384 38.8432 36.7761 38.6152 36.7761 38.4243C36.7761 38.313 36.7284 38.2494 36.6596 38.2282L36.6808 38.2176C36.9456 38.0692 37.1575 38.1911 37.1575 38.4933C37.1575 38.7954 36.9456 39.1612 36.6808 39.315L35.579 39.9458C35.3142 40.0943 35.1023 39.9723 35.1023 39.6702C35.1023 39.368 35.3142 38.9969 35.5737 38.8432Z" fill="#ECC550"/>
<path d="M31.7017 31.3947H31.4104V49.6156H31.7017V31.3947Z" fill="#ECC550"/>
<path d="M38.6545 44.4108L36.3433 45.7268L36.4637 45.9387L38.775 44.6227L38.6545 44.4108Z" fill="#ECC550"/>
<path d="M31.5164 49.8594L29.4824 48.8045L29.5937 48.5871L31.5217 49.5891L32.5758 49.1066L32.6764 49.3293L31.5164 49.8594Z" fill="#ECC550"/>
<path d="M44.9281 41.6211L44.499 41.356L44.0276 41.6264L43.9058 41.4143L44.5043 41.0697L45.0552 41.4196L44.9281 41.6211Z" fill="#ECC550"/>
<path d="M45.9618 16.2441L39.9657 19.7059L37.7622 18.4335L43.753 14.9717L45.9618 16.2441Z" fill="#ECC550"/>
<path d="M45.961 17.0386L39.965 20.5057L37.7615 19.2281L43.7522 15.7663L45.961 17.0386Z" fill="#FFEECC"/>
<path d="M37.7615 18.4329V19.7317L39.965 21.004V19.7052L37.7615 18.4329Z" fill="#ECC550"/>
<path d="M46.0828 16.1745L43.7522 14.8279L37.6343 18.3639V19.8059L39.9649 21.1524L43.0742 19.3553L46.0828 21.1206V16.1745ZM43.7522 15.1089L45.7173 16.2434L39.9649 19.5673L37.9998 18.4328L43.7522 15.1089ZM37.8832 19.6628V18.6449L39.8484 19.7794V20.7973L37.8832 19.6628Z" fill="#16110D"/>
<path d="M23.0367 3.1762L17.0407 6.63799L14.8372 5.36566L20.8279 1.90387L23.0367 3.1762Z" fill="#ECC550"/>
<path d="M23.0362 3.99193L17.0402 7.45903L14.8367 6.1814L20.8274 2.7196L23.0362 3.99193Z" fill="#FFEECC"/>
<path d="M14.8367 5.36499V6.66383L17.0402 7.93615V6.63732L14.8367 5.36499Z" fill="#ECC550"/>
<path d="M23.1581 3.10659L20.8274 1.76004L14.7148 5.29605V6.73803L17.0455 8.08458L20.1547 6.28741L23.1634 8.05807V3.10659H23.1581ZM20.8274 2.04101L22.7926 3.17551L17.0402 6.49947L15.075 5.36497L20.8274 2.04101ZM14.9585 6.59489V5.57703L16.9236 6.71152V7.72938L14.9585 6.59489Z" fill="#16110D"/>
</svg>
